<?xml version="1.0" encoding="UTF-8"?>
<svg id="Layer_4" data-name="Layer 4" xmlns="http://www.w3.org/2000/svg" viewBox="0 0 322.81 155.46">
  <defs>
    <style>
      .cls-1 {
        font-family: Quicksand-Bold, Quicksand;
        font-size: 134.83px;
        font-weight: 700;
      }

      .cls-1, .cls-2 {
        fill: #a100ff;
      }

      .cls-3 {
        letter-spacing: -.03em;
      }

      .cls-4 {
        letter-spacing: -.02em;
      }

      .cls-2 {
        stroke-width: 0px;
      }
    </style>
  </defs>
  <path class="cls-2" d="M77.43,99.47c0,8.45-6.31,15.31-14.1,15.31s-14.09-6.86-14.09-15.31c0-1.42.18-2.81.52-4.11l-18.9-19.55c-8.35-8.77-9.79,2.04-9.79,2.04l-.26,23.66c0,.14,0,.29,0,.43,0,6.83-4.66,12.37-10.4,12.37S0,108.77,0,101.94c0-.42.01-.85.05-1.26v-.02l.59-42.87v-.02c0-.22-.01-.44-.01-.66,0-7.02,4.96-12.73,11.07-12.73,3.44,0,6.51,1.8,8.53,4.62h.01c5.21,7.65,11.95-.22,11.95-.22l17.1-15.9c-.31-1.26-.48-2.58-.48-3.95,0-8.45,6.32-15.3,14.1-15.3s14.1,6.85,14.1,15.3-6.32,15.31-14.1,15.31c-1.94,0-3.78-.42-5.45-1.19l-15.48,13.9c-7.19,6.43.09,11.02.09,11.02l16.41,17.14c1.51-.61,3.14-.93,4.84-.93,7.79,0,14.1,6.85,14.1,15.3Z"/>
  <ellipse class="cls-2" cx="16.13" cy="27.23" rx="15.7" ry="14.92"/>
  <text class="cls-1" transform="translate(75.27 114.6)"><tspan class="cls-3" x="0" y="0">l</tspan><tspan class="cls-4" x="31.68" y="0">ezy</tspan></text>
</svg>