<svg width="234" height="200" viewBox="0 0 234 200" fill="none" xmlns="http://www.w3.org/2000/svg">
<g id="Frame 33682" filter="url(#filter0_i_369_2287)">
<g clip-path="url(#clip0_369_2287)">
<rect width="234" height="200" rx="16" fill="#7C5CFC" fill-opacity="0.1"/>
<g id="Symbol">
<g id="Group">
<path id="Vector" d="M127.979 47.2191C134.234 40.9638 134.234 30.8218 127.979 24.5665C121.724 18.3111 111.582 18.3111 105.326 24.5665C99.071 30.8218 99.071 40.9638 105.326 47.2191C111.582 53.4745 121.724 53.4745 127.979 47.2191Z" fill="#7C5CFC"/>
<path id="Vector_2" d="M124.686 35.8882V35.8962C124.686 36.6352 124.083 37.2372 123.336 37.2372H117.996V42.5772C117.996 43.3162 117.393 43.9182 116.655 43.9182C115.908 43.9182 115.305 43.3152 115.305 42.5772V37.2372H109.965C109.226 37.2372 108.624 36.6342 108.624 35.8962V35.8882C108.624 35.1492 109.227 34.5472 109.965 34.5472H115.305V29.2072C115.305 28.4682 115.908 27.8662 116.655 27.8662C117.394 27.8662 117.996 28.4692 117.996 29.2072V34.5472H123.336C124.083 34.5472 124.686 35.1502 124.686 35.8882Z" fill="white"/>
<path id="Vector_3" d="M116.655 55.9743C116.391 55.9743 116.177 55.7603 116.177 55.4963V54.5403C116.177 54.2763 116.391 54.0623 116.655 54.0623C116.919 54.0623 117.133 54.2763 117.133 54.5403V55.4963C117.133 55.7613 116.919 55.9743 116.655 55.9743ZM117.133 78.4193V76.5093C117.133 76.2453 116.919 76.0313 116.655 76.0313C116.391 76.0313 116.177 76.2453 116.177 76.5093V78.4193C116.177 78.6833 116.391 78.8973 116.655 78.8973C116.919 78.8973 117.133 78.6833 117.133 78.4193ZM117.133 72.6883V70.7783C117.133 70.5143 116.919 70.3003 116.655 70.3003C116.391 70.3003 116.177 70.5143 116.177 70.7783V72.6883C116.177 72.9523 116.391 73.1663 116.655 73.1663C116.919 73.1663 117.133 72.9523 117.133 72.6883ZM117.133 66.9573V65.0473C117.133 64.7833 116.919 64.5693 116.655 64.5693C116.391 64.5693 116.177 64.7833 116.177 65.0473V66.9573C116.177 67.2213 116.391 67.4352 116.655 67.4352C116.919 67.4352 117.133 67.2223 117.133 66.9573ZM117.133 61.2273V59.3173C117.133 59.0533 116.919 58.8393 116.655 58.8393C116.391 58.8393 116.177 59.0533 116.177 59.3173V61.2273C116.177 61.4913 116.391 61.7053 116.655 61.7053C116.919 61.7053 117.133 61.4913 117.133 61.2273ZM118.089 83.1953C118.089 82.9313 117.875 82.7173 117.611 82.7173H117.133V82.2393C117.133 81.9753 116.919 81.7613 116.655 81.7613C116.391 81.7613 116.177 81.9753 116.177 82.2393V83.1953C116.177 83.4593 116.391 83.6733 116.655 83.6733H117.611C117.875 83.6733 118.089 83.4593 118.089 83.1953ZM139.811 83.1953C139.811 82.9313 139.597 82.7173 139.333 82.7173H137.523C137.259 82.7173 137.045 82.9313 137.045 83.1953C137.045 83.4593 137.259 83.6733 137.523 83.6733H139.333C139.597 83.6733 139.811 83.4593 139.811 83.1953ZM134.38 83.1953C134.38 82.9313 134.166 82.7173 133.902 82.7173H132.092C131.828 82.7173 131.614 82.9313 131.614 83.1953C131.614 83.4593 131.828 83.6733 132.092 83.6733H133.902C134.166 83.6733 134.38 83.4593 134.38 83.1953ZM128.95 83.1953C128.95 82.9313 128.736 82.7173 128.472 82.7173H126.662C126.398 82.7173 126.184 82.9313 126.184 83.1953C126.184 83.4593 126.398 83.6733 126.662 83.6733H128.472C128.736 83.6733 128.95 83.4593 128.95 83.1953ZM123.52 83.1953C123.52 82.9313 123.306 82.7173 123.042 82.7173H121.232C120.968 82.7173 120.754 82.9313 120.754 83.1953C120.754 83.4593 120.968 83.6733 121.232 83.6733H123.042C123.306 83.6733 123.52 83.4593 123.52 83.1953ZM144.387 83.1953C144.387 82.9313 144.173 82.7173 143.909 82.7173H142.953C142.689 82.7173 142.475 82.9313 142.475 83.1953C142.475 83.4593 142.689 83.6733 142.953 83.6733H143.909C144.173 83.6733 144.387 83.4593 144.387 83.1953Z" fill="#7C5CFC"/>
</g>
</g>
<g id="Character_3">
<g id="Group_2">
<path id="Vector_4" d="M144.199 197.511C144.199 197.511 140.16 251.764 140.426 275.592C140.702 300.377 148.786 372.499 148.786 372.499H162.023C162.023 372.499 164.463 301.643 165.648 277.302C166.94 250.766 174.869 193.161 174.869 193.161L144.199 197.511Z" fill="#263238"/>
<path id="Vector_5" d="M166.785 193.161C166.785 193.161 170.803 252.917 175.123 275.288C179.853 299.786 201.323 372.499 201.323 372.499H215.634C215.634 372.499 206.442 301.954 203.995 277.698C201.339 251.373 200.184 198.216 200.184 198.216L166.785 193.161Z" fill="#263238"/>
<path id="Vector_6" d="M202.621 203.303C174.011 205.253 152.501 205.403 141.101 201.103C140.311 150.723 142.071 119.383 144.441 111.723C145.081 109.663 146.481 107.943 148.401 106.963C150.371 105.943 153.381 104.763 157.421 104.163C163.411 103.273 173.331 103.013 180.201 103.033C183.971 103.043 187.841 103.333 191.031 103.653C194.991 104.063 197.581 107.603 197.411 111.583C197.071 119.243 197.041 126.993 197.221 134.593C197.331 138.973 197.501 143.293 197.721 147.523C199.151 174.533 202.571 197.413 202.621 203.303Z" fill="#7C5CFC"/>
<path id="Vector_7" opacity="0.2" d="M197.721 147.523L185.433 120.516L197.221 134.593C197.331 138.973 197.501 143.293 197.721 147.523Z" fill="black"/>
<path id="Vector_8" d="M161.559 63.816C160.048 62.175 154.979 62.036 152.564 65.196C149.987 68.569 146.715 74.817 144.636 73.162C144.636 73.162 145.493 76.257 149.026 76.496C149.026 76.496 146.914 78.803 144.198 77.951C144.198 77.951 145.409 82.217 150.482 82.957C155.14 83.636 161.616 70.304 162.645 68.118C162.64 65.708 162.456 65.8 161.559 63.816Z" fill="#263238"/>
<path id="Vector_9" d="M164.454 64.4018C168.588 63.9438 172.787 65.1098 175.938 67.8248C177.996 69.5978 179.593 71.9468 178.884 74.7398C177.228 81.2578 172.829 91.7778 172.829 91.7778L153.083 76.5948C153.083 76.5948 152.983 70.2638 156.161 67.1218C157.814 65.4868 161.398 64.7418 164.454 64.4018Z" fill="#263238"/>
<path id="Vector_10" d="M160.826 64.0459C160.826 64.0459 167.627 59.1939 176.674 65.9209C185.721 72.6479 176.636 84.8369 176.636 84.8369C176.636 84.8369 173.739 90.2269 176.295 91.5489C176.295 91.5489 174.677 92.1849 173.475 92.0459C173.475 92.0459 174.352 93.6789 175.476 93.5379C175.476 93.5379 173.912 94.1669 171.128 92.9209C168.344 91.6759 160.826 64.0459 160.826 64.0459Z" fill="#263238"/>
<path id="Vector_11" d="M161.26 97.647L161.257 97.6559C161.266 97.6879 161.27 97.708 161.279 97.739L161.818 101.687C161.805 102.478 161.719 103.256 161.566 104.004C161.439 104.635 161.262 105.241 161.056 105.82C160.073 106.868 159.352 109.433 162.337 109.814C166.104 110.302 173.702 105.647 174.156 104.015C173.048 98.647 172.332 92.442 173.222 87.554L168.345 91.6759L161.26 97.647Z" fill="#CE7A63"/>
<path id="Vector_12" opacity="0.2" d="M161.279 97.7399L161.818 101.688C164.31 100.903 167.065 98.8859 167.94 96.4459C168.559 94.6829 167.952 92.8869 167.232 92.7039L161.279 97.7399Z" fill="black"/>
<path id="Vector_13" d="M152.724 88.5538C152.844 89.4128 152.992 90.2628 153.16 91.1038C154.659 98.5288 163.377 100.261 169.498 95.6828C169.508 95.6738 169.508 95.6638 169.517 95.6638C170.06 95.2568 170.584 94.8028 171.081 94.2908C175.123 90.1448 174.684 86.5218 175.144 78.4728C175.604 70.4338 167.689 64.3988 159.948 67.5888C152.804 70.5328 151.505 79.9638 152.724 88.5538Z" fill="#CE7A63"/>
<path id="Vector_14" d="M162.362 82.0049C162.371 82.6539 162.035 83.1839 161.611 83.1899C161.187 83.1959 160.836 82.6749 160.827 82.0259C160.818 81.3769 161.154 80.8469 161.578 80.8409C162.002 80.8349 162.353 81.3559 162.362 82.0049Z" fill="#263238"/>
<path id="Vector_15" d="M155.296 82.0749C155.305 82.7239 154.969 83.2539 154.545 83.2599C154.121 83.2659 153.77 82.7449 153.761 82.0959C153.752 81.4469 154.089 80.9169 154.512 80.9109C154.936 80.9049 155.287 81.4259 155.296 82.0749Z" fill="#263238"/>
<path id="Vector_16" d="M159.803 90.8458C159.666 90.8298 159.586 90.8148 159.581 90.8128C159.447 90.7838 159.362 90.6528 159.39 90.5188C159.419 90.3858 159.549 90.3018 159.684 90.3278C159.815 90.3558 163.025 90.9898 163.926 87.3678C163.958 87.2348 164.097 87.1508 164.226 87.1868C164.36 87.2198 164.44 87.3548 164.407 87.4878C163.535 91.0028 160.632 90.9388 159.803 90.8458Z" fill="#263238"/>
<path id="Vector_17" d="M175.139 79.2288C175.139 79.2288 173.139 80.7208 172.721 82.7588C172.596 83.3678 172.176 83.4368 172.176 83.4368L169.259 83.6738C169.259 83.6738 171.038 75.9148 168.954 75.7528C166.87 75.5908 169.56 72.3398 168.38 71.6728C165.595 70.0978 157.6 69.0168 153.907 73.4478C153.907 73.4478 155.322 68.7958 159.443 66.7108C163.564 64.6258 171.274 65.0488 173.891 69.1908C176.508 73.3338 175.139 79.2288 175.139 79.2288Z" fill="#263238"/>
<path id="Vector_18" d="M178.62 83.8238C178.036 85.9158 176.541 87.5438 174.973 88.3959C172.613 89.6769 170.837 87.7109 170.993 85.1719C171.134 82.8859 172.531 79.4649 175.14 79.2299C177.709 78.9969 179.287 81.4318 178.62 83.8238Z" fill="#CE7A63"/>
<path id="Vector_19" d="M153.364 79.3859C153.476 79.3849 153.583 79.3259 153.641 79.2219C153.901 78.7549 154.234 78.4639 154.63 78.3559C155.282 78.1789 155.924 78.5429 155.931 78.5479C156.079 78.6369 156.279 78.5889 156.368 78.4349C156.458 78.2829 156.407 78.0869 156.255 77.9969C156.221 77.9769 155.38 77.4899 154.462 77.7389C153.893 77.8929 153.428 78.2879 153.082 78.9109C152.996 79.0649 153.051 79.2599 153.206 79.3459C153.256 79.3729 153.31 79.3859 153.364 79.3859Z" fill="#263238"/>
<path id="Vector_20" d="M165.633 79.1298C165.68 79.1268 165.727 79.1128 165.77 79.0878C165.922 78.9998 165.976 78.8058 165.888 78.6528C165.868 78.6168 165.379 77.7788 164.458 77.5408C163.887 77.3928 163.288 77.5058 162.679 77.8758C162.527 77.9678 162.479 78.1638 162.571 78.3148C162.663 78.4668 162.86 78.5138 163.01 78.4218C163.465 78.1458 163.897 78.0568 164.293 78.1578C164.951 78.3258 165.33 78.9638 165.333 78.9708C165.397 79.0798 165.515 79.1378 165.633 79.1298Z" fill="#263238"/>
<path id="Vector_21" d="M158.486 81.4519C158.486 81.4519 158.021 83.5239 156.386 84.9129C154.75 86.3019 157.993 87.5129 157.993 87.5129L158.486 81.4519Z" fill="#BA4D3C"/>
<path id="Vector_22" d="M172.412 80.7869C168.33 80.3759 165.787 81.8309 165.149 82.2509C164.958 80.4689 163.796 79.0889 162.382 79.0889C160.89 79.0889 159.677 80.6249 159.593 82.5509C158.131 81.6859 157.121 82.1989 156.717 82.5029C156.614 80.5999 155.411 79.0889 153.93 79.0889C152.383 79.0889 151.124 80.7349 151.124 82.7599C151.124 84.7829 152.383 86.4299 153.93 86.4299C155.463 86.4299 156.709 84.8129 156.732 82.8159C156.865 82.6819 157.884 81.7589 159.582 82.8369C159.614 84.8239 160.855 86.4289 162.382 86.4289C163.93 86.4289 165.189 84.7829 165.189 82.7589C165.189 82.6829 165.175 82.6119 165.172 82.5369C165.464 82.3239 168.013 80.5839 172.387 81.0349C172.454 81.0459 172.518 80.9919 172.524 80.9229C172.531 80.8549 172.48 80.7939 172.412 80.7869ZM153.93 86.1789C152.521 86.1789 151.374 84.6449 151.374 82.7589C151.374 80.8729 152.521 79.3379 153.93 79.3379C155.34 79.3379 156.487 80.8719 156.487 82.7589C156.486 84.6449 155.34 86.1789 153.93 86.1789ZM162.382 86.1789C160.973 86.1789 159.826 84.6449 159.826 82.7589C159.826 80.8729 160.972 79.3379 162.382 79.3379C163.792 79.3379 164.939 80.8719 164.939 82.7589C164.938 84.6449 163.792 86.1789 162.382 86.1789Z" fill="white"/>
<path id="Vector_23" d="M143.931 113.733L135.351 134.273C133.911 137.673 132.441 141.053 130.951 144.363C130.211 146.013 129.441 147.643 128.671 149.213C127.901 150.783 127.111 152.323 126.361 153.583C126.131 153.993 125.861 154.393 125.701 154.613L125.691 154.623L124.581 155.153L123.361 155.703L120.861 156.793L110.571 161.153C103.661 164.083 96.7406 167.103 89.8906 170.293L92.3106 177.833C99.7806 176.413 107.161 174.743 114.521 172.873C118.191 171.903 121.861 170.953 125.551 169.843L128.351 168.993L129.771 168.543L131.281 168.023L131.851 167.813L132.111 167.703L133.141 167.253C133.331 167.163 133.461 167.113 133.681 167.003C133.901 166.873 134.111 166.753 134.311 166.613C134.521 166.483 134.731 166.333 134.851 166.243C135.461 165.773 135.861 165.403 136.221 165.043C136.671 164.583 137.041 164.163 137.361 163.773C137.971 163.043 138.411 162.413 138.861 161.783C139.621 160.683 140.281 159.623 140.901 158.593C141.361 157.843 141.781 157.113 142.201 156.383C143.181 154.623 144.101 152.883 144.991 151.153C146.781 147.683 148.411 144.203 150.011 140.723C153.181 133.743 156.131 126.783 158.821 119.593L143.931 113.733ZM126.161 154.393L126.101 154.433L126.061 154.453L126.161 154.383C126.191 154.363 126.221 154.343 126.251 154.333C126.221 154.353 126.191 154.373 126.161 154.393Z" fill="#7C5CFC"/>
<path id="Vector_24" opacity="0.2" d="M143.161 126.303C142.331 132.253 140.911 158.523 140.911 158.523C140.911 158.523 140.911 158.543 140.901 158.593C140.281 159.623 139.621 160.683 138.861 161.783C138.411 162.413 137.971 163.043 137.361 163.773C137.911 151.163 143.161 126.303 143.161 126.303Z" fill="black"/>
<path id="Vector_25" d="M92.931 175.459C92.536 172.92 91.779 171.131 91.779 171.131C91.779 171.131 89.708 168.915 87.201 168.86C84.694 168.804 82.707 168.093 80.84 168.18C78.973 168.268 80.957 169.825 82.18 170.44C83.403 171.055 84.783 171.765 84.173 172.609C83.562 173.453 75.396 177.138 74.683 178.404C73.969 179.67 75.477 179.488 75.477 179.488C75.477 179.488 73.652 180.328 73.682 181.315C73.712 182.302 75.017 182.119 75.017 182.119C75.017 182.119 73.811 182.726 74.337 183.527C74.613 183.948 76.688 183.615 78.648 183.218C78.243 183.411 77.956 183.651 77.911 183.95C77.726 185.171 80.426 184.77 82.586 184.495C84.746 184.22 86.942 183.241 88.444 181.601C89.944 179.961 93.325 177.998 92.931 175.459ZM82.081 182.499C82.169 182.486 82.237 182.48 82.263 182.486C82.263 182.486 82.196 182.49 82.081 182.499Z" fill="#CE7A63"/>
<path id="Vector_26" d="M75.3639 182.185C77.4549 181.239 79.5749 180.363 81.7099 179.572C81.9339 180.129 82.2009 180.656 82.5029 181.177C82.6609 181.43 82.9829 181.102 82.8389 180.849C81.9189 179.288 81.3579 177.504 81.1699 175.583C81.1389 175.272 80.7299 175.375 80.7609 175.686C80.8079 176.166 80.8759 176.625 80.9719 177.084C80.9359 177.063 80.8939 177.063 80.8519 177.078C79.1379 177.568 77.4829 178.27 75.8869 179.183C75.6479 179.327 75.8079 179.764 76.0609 179.62C77.6219 178.728 79.2419 178.034 80.9139 177.559C80.9769 177.537 81.0189 177.494 81.0469 177.438C81.1729 178.024 81.3409 178.595 81.5439 179.145C79.4089 179.936 77.2959 180.805 75.1979 181.758C74.9439 181.871 75.1099 182.3 75.3639 182.185Z" fill="#BA4D3C"/>
<path id="Vector_27" d="M83.3749 177.347C84.9949 175.154 87.4409 174.331 89.7039 175.166C89.9589 175.263 90.1179 174.801 89.8619 174.705C87.4069 173.795 84.7919 174.718 83.0389 177.075C82.8649 177.324 83.1999 177.582 83.3749 177.347Z" fill="#BA4D3C"/>
<path id="Vector_28" d="M196.052 106.69C200.933 113.04 205.607 119.523 210.221 126.068C212.533 129.336 214.809 132.633 217.066 135.953C219.351 139.283 221.532 142.575 223.811 146.124L224.246 146.806L224.776 147.676L225.038 148.112L225.103 148.221L225.337 148.656L225.583 149.173C225.664 149.353 225.737 149.534 225.766 149.621C225.931 150.07 226.079 150.568 226.136 150.838L226.245 151.324L226.312 151.707C226.475 152.706 226.502 153.407 226.529 154.083C226.546 154.739 226.547 155.357 226.533 155.937C226.476 158.262 226.297 160.345 226.101 162.433C225.684 166.582 225.113 170.604 224.493 174.616C223.247 182.632 221.677 190.521 219.828 198.414L211.44 197.413C211.441 189.437 211.531 181.433 211.644 173.531C211.692 169.583 211.717 165.637 211.656 161.805C211.628 159.904 211.572 157.991 211.422 156.323C211.386 155.904 211.338 155.525 211.289 155.185C211.241 154.865 211.168 154.571 211.15 154.588C211.148 154.593 211.147 154.603 211.147 154.603L211.166 154.725C211.17 154.751 211.232 155.014 211.316 155.227L211.426 155.503C211.476 155.621 211.531 155.738 211.591 155.852L211.74 156.12L211.704 156.072L211.559 155.879L210.865 154.938C208.612 151.909 206.112 148.727 203.733 145.572C201.314 142.415 198.896 139.248 196.505 136.06C191.71 129.693 186.944 123.287 182.361 116.764L196.052 106.69Z" fill="#7C5CFC"/>
<path id="Vector_29" d="M219.659 197.908C217.831 193.161 213.74 194.373 212.539 195.578C212.539 195.578 209.5 198.652 208.884 200.414C208.268 202.175 207.365 203.895 207.68 204.698C207.826 205.071 208.355 204.676 208.881 204.149C208.565 205.072 208.366 205.821 208.396 206.188C208.396 206.188 208.856 211.045 210.747 212.562C212.638 214.079 212.28 209.713 212.28 209.713C212.28 209.713 212.507 214.04 217.081 212.645C218.834 212.111 220.779 206.922 221.09 204.028C221.886 201.567 219.659 197.908 219.659 197.908Z" fill="#CE7A63"/>
<path id="Vector_30" d="M161.9 102.478C161.9 102.478 158.002 102.05 155.924 104.421C155.091 107.331 156.927 110.796 158.912 114.291L163.224 109.839C163.514 109.841 161.282 106.046 161.9 102.478Z" fill="#7C5CFC"/>
<path id="Vector_31" opacity="0.2" d="M161.9 102.478C161.9 102.478 158.002 102.05 155.924 104.421C155.091 107.331 156.927 110.796 158.912 114.291L163.224 109.839C163.514 109.841 161.282 106.046 161.9 102.478Z" fill="black"/>
<path id="Vector_32" d="M173.49 100.35C171.643 104.606 167.706 107.412 163.224 109.839L165.659 114.291L180.686 103.034C180.686 103.034 176.354 99.2159 173.49 100.35Z" fill="#7C5CFC"/>
<path id="Vector_33" opacity="0.2" d="M173.49 100.35C171.643 104.606 167.706 107.412 163.224 109.839L165.659 114.291L180.686 103.034C180.686 103.034 176.354 99.2159 173.49 100.35Z" fill="black"/>
<path id="Vector_34" opacity="0.2" d="M163.251 116.261C163.251 116.685 162.908 117.028 162.484 117.028C162.06 117.028 161.717 116.685 161.717 116.261C161.717 115.838 162.06 115.494 162.484 115.494C162.908 115.494 163.251 115.838 163.251 116.261Z" fill="black"/>
<path id="Vector_35" opacity="0.2" d="M163.251 121.282C163.251 121.705 162.908 122.049 162.484 122.049C162.06 122.049 161.717 121.706 161.717 121.282C161.717 120.859 162.06 120.515 162.484 120.515C162.908 120.515 163.251 120.859 163.251 121.282Z" fill="black"/>
<path id="Vector_36" opacity="0.2" d="M163.251 126.303C163.251 126.727 162.908 127.07 162.484 127.07C162.06 127.07 161.717 126.727 161.717 126.303C161.717 125.88 162.06 125.536 162.484 125.536C162.908 125.536 163.251 125.88 163.251 126.303Z" fill="black"/>
</g>
</g>
<g id="Character_2">
<g id="Group_3">
<path id="Vector_37" d="M65.6967 373.257H77.8017C78.8487 357.669 81.8127 306.016 79.4707 280.456C81.1547 244.991 75.7347 197.914 75.7347 197.914H37.3877C37.3877 197.914 40.1977 229.417 52.8107 279.945C52.7247 319.977 62.4957 359.997 65.6967 373.257Z" fill="#7C5CFC"/>
<path id="Vector_38" opacity="0.2" d="M65.6967 373.257H77.8017C78.8487 357.669 81.8127 306.016 79.4707 280.456C81.1547 244.991 75.7347 197.914 75.7347 197.914H37.3877C37.3877 197.914 40.1977 229.417 52.8107 279.945C52.7247 319.977 62.4957 359.997 65.6967 373.257Z" fill="white"/>
<path id="Vector_39" d="M16.7179 373.704H28.8229C33.1359 357.668 41.7999 306.109 43.1859 280.549C50.0429 245.084 53.3239 197.914 53.3239 197.914H14.9769C14.9769 197.914 11.4099 229.778 16.6539 280.306C15.6349 324.358 16.4429 359.997 16.7179 373.704Z" fill="#7C5CFC"/>
<path id="Vector_40" opacity="0.2" d="M16.7179 373.704H28.8229C33.1359 357.668 41.7999 306.109 43.1859 280.549C50.0429 245.084 53.3239 197.914 53.3239 197.914H14.9769C14.9769 197.914 11.4099 229.778 16.6539 280.306C15.6349 324.358 16.4429 359.997 16.7179 373.704Z" fill="white"/>
<path id="Vector_41" d="M80.7509 203.702C54.1509 213.922 10.8209 206.512 10.8209 206.512C11.1109 199.222 11.3809 187.942 11.5309 175.652C11.5709 172.352 11.6009 168.982 11.6209 165.592C11.6609 159.092 11.6609 152.532 11.6109 146.342C11.6009 145.842 11.6009 145.342 11.5909 144.852C11.5609 141.812 11.5109 138.872 11.4509 136.092C11.4409 135.752 11.4409 135.412 11.4309 135.072C11.3109 129.602 11.1109 124.762 10.8609 120.892C10.3709 113.602 14.3409 106.812 21.5509 105.602C23.7409 105.232 26.1109 104.902 28.5709 104.642C29.1509 104.572 29.7509 104.522 30.3509 104.462C37.1809 103.792 44.6809 103.492 51.5209 103.692C51.8609 103.692 52.2109 103.702 52.5509 103.712C52.7209 103.722 52.9209 103.722 53.0909 103.732C53.3809 103.742 53.6909 103.752 53.9809 103.772C57.0209 103.892 59.9209 104.122 62.5109 104.462C68.3909 105.222 73.6109 109.862 73.7109 115.802C73.8009 121.242 74.3309 132.732 75.1009 145.692C75.4009 150.592 75.7309 155.722 76.0909 160.802C77.4809 180.812 79.2509 200.202 80.7509 203.702Z" fill="#263238"/>
<path id="Vector_42" opacity="0.2" d="M26.4011 126.302C26.4011 126.302 25.8261 154.547 27.7051 157.977C29.5841 161.407 65.9121 171.776 65.9121 171.776C47.7281 169.304 30.1381 166.534 20.8301 159.602L26.4011 126.302Z" fill="black"/>
<path id="Vector_43" opacity="0.2" d="M67.1613 180.072C45.9913 185.082 21.2312 178.652 11.5312 175.652C11.5712 172.352 11.6013 168.982 11.6213 165.592C26.5313 176.622 67.1613 180.072 67.1613 180.072Z" fill="black"/>
<path id="Vector_44" d="M49.1676 120.976L45.6006 160.519L52.7326 174.883L58.3036 159.185L52.5386 120.976H49.1676Z" fill="#7C5CFC"/>
<path id="Vector_45" d="M50.018 112.47L46.167 118.18L50.693 123.415L55.219 116.676L50.018 112.47Z" fill="#7C5CFC"/>
<path id="Vector_46" d="M57.8426 65.0773C53.6856 63.6003 49.0666 63.7863 45.1536 65.8243C42.5986 67.1553 40.3786 69.1933 40.4336 72.2493C40.5616 79.3813 42.5496 91.3123 42.5496 91.3123L66.6246 80.4283C66.6246 80.4283 68.3776 74.4543 65.5586 70.6433C63.4646 67.8143 60.9156 66.1693 57.8426 65.0773Z" fill="#263238"/>
<path id="Vector_47" d="M48.8542 64.4812C48.8542 64.4812 45.6012 62.6682 42.3322 66.0432C39.6072 68.8562 40.7982 78.0142 40.7982 78.0142L48.8542 64.4812Z" fill="#263238"/>
<path id="Vector_48" d="M46.4385 65.2352C46.4385 65.2352 47.3765 59.7932 57.3095 61.4182C67.2435 63.0432 75.1185 71.2472 71.4935 75.5432C68.0035 79.6792 57.3095 72.7932 57.3095 72.7932L46.4385 65.2352Z" fill="#263238"/>
<g id="Group_4">
<path id="Vector_49" d="M53.0709 100.179L53.0719 100.189C53.0549 100.22 53.0459 100.239 53.0289 100.27L51.5139 104.216C51.3359 105.036 51.2359 105.86 51.2119 106.669C51.1899 107.352 51.2249 108.021 51.2979 108.668C52.0579 109.989 52.1809 112.812 49.0059 112.481C44.9979 112.07 38.2029 105.782 38.1309 103.987C40.5779 98.7132 42.9039 92.1182 43.1719 86.8542L47.2069 92.2943L53.0709 100.179Z" fill="#FFC3BD"/>
</g>
<path id="Vector_50" d="M50.0176 112.47C50.9656 110.376 50.9556 107.852 51.2896 105.591C51.2896 105.591 51.4646 103.909 51.9526 103.073C51.9526 103.073 54.6976 102.434 56.3036 103.885C56.9446 108.268 56.4346 112.614 55.1436 116.935L50.0176 112.47Z" fill="#263238"/>
<path id="Vector_51" d="M34.8154 104.081C34.8154 104.081 37.0374 99.8101 40.0814 99.2891C40.4514 104.446 42.5464 108.533 50.0184 112.469L45.6014 119.018C39.4564 113.997 35.9994 109.02 34.8154 104.081Z" fill="#263238"/>
<g id="Group_5" opacity="0.2">
<path id="Vector_52" d="M53.0277 100.27L51.5127 104.216C49.1307 102.8 46.7747 100.049 46.4647 97.3172C46.2537 95.3462 47.3167 93.6402 48.1037 93.6262L53.0277 100.27Z" fill="black"/>
</g>
<g id="Group_6">
<path id="Vector_53" d="M64.0935 92.8622C63.7615 93.7202 63.4015 94.5612 63.0245 95.3892C59.6745 102.692 50.2515 102.364 45.0435 96.1512C45.0365 96.1392 45.0385 96.1292 45.0285 96.1272C44.5675 95.5752 44.1355 94.9792 43.7465 94.3302C40.5785 89.0682 41.9125 85.4332 43.3915 77.0112C44.8675 68.5992 54.5055 64.2882 61.7235 69.4612C68.3845 74.2352 67.4365 84.2882 64.0935 92.8622Z" fill="#FFC3BD"/>
</g>
<path id="Vector_54" d="M48.2432 80.2553C48.2432 80.2553 48.2012 87.2833 50.9512 88.2833C53.7012 89.2833 55.7462 86.9503 58.7652 89.8663C58.7652 89.8663 60.7452 88.8233 62.5732 90.1993C64.4012 91.5753 64.0922 92.3923 64.0922 92.3923C64.0922 92.3923 63.3962 102.876 53.7982 101.662C44.2012 100.448 43.0342 91.0323 43.7012 86.0323L45.5942 79.8223L48.2432 80.2553Z" fill="#263238"/>
<path id="Vector_55" d="M54.4863 90.0591C54.4863 90.0591 56.9963 90.9661 60.4373 91.7701C60.4373 91.7701 59.2243 94.5861 56.1813 93.2801C54.2433 92.4471 54.4863 90.0591 54.4863 90.0591Z" fill="white"/>
<path id="Vector_56" d="M62.4568 68.6783C58.7078 65.5253 50.6438 64.0903 46.9358 67.7323C43.2278 71.3743 43.2098 77.7943 43.2098 77.7943C43.2098 77.7943 43.1098 78.9553 43.8268 79.7203C43.8968 79.7873 43.9788 79.9073 44.0678 80.0443L48.2408 80.7253C48.5738 79.0063 49.2668 75.8703 50.4398 75.7063C52.6358 75.3983 51.1398 72.9783 51.6118 71.6193C53.1438 67.2043 65.1558 70.2233 66.5368 76.9783C66.5368 76.9783 66.2058 71.8313 62.4568 68.6783Z" fill="#263238"/>
<g id="Group_7">
<path id="Vector_57" d="M38.5018 81.6921C38.5968 83.9941 39.7448 86.0381 41.1578 87.2981C43.2838 89.1941 45.5948 87.5951 46.0498 84.9351C46.4598 82.5411 45.8468 78.6691 43.2108 77.7931C40.6128 76.9291 38.3938 79.0601 38.5018 81.6921Z" fill="#FFC3BD"/>
</g>
<g id="Group_8">
<path id="Vector_58" d="M55.7073 82.1871C55.5523 82.8321 55.7693 83.4371 56.1903 83.5381C56.6113 83.6391 57.0793 83.1981 57.2333 82.5531C57.3883 81.9081 57.1723 81.3031 56.7503 81.2021C56.3293 81.1011 55.8613 81.5421 55.7073 82.1871Z" fill="#263238"/>
</g>
<g id="Group_9">
<path id="Vector_59" d="M62.5258 83.7973C62.3708 84.4423 62.5868 85.0473 63.0088 85.1483C63.4308 85.2493 63.8978 84.8092 64.0518 84.1642C64.2068 83.5192 63.9898 82.9142 63.5688 82.8132C63.1478 82.7112 62.6798 83.1523 62.5258 83.7973Z" fill="#263238"/>
</g>
<g id="Group_10">
<path id="Vector_60" d="M65.4598 81.8392C65.3448 81.8112 65.2478 81.7242 65.2138 81.6022C65.0588 81.0572 64.7858 80.6762 64.4028 80.4682C63.7718 80.1272 63.0208 80.3472 63.0128 80.3502C62.8388 80.4062 62.6438 80.3082 62.5888 80.1272C62.5328 79.9482 62.6328 79.7582 62.8118 79.7022C62.8518 79.6892 63.8388 79.3912 64.7258 79.8712C65.2758 80.1692 65.6598 80.6892 65.8668 81.4162C65.9188 81.5962 65.8138 81.7842 65.6338 81.8352C65.5738 81.8522 65.5148 81.8522 65.4598 81.8392Z" fill="#263238"/>
</g>
<g id="Group_11">
<path id="Vector_61" d="M54.3123 79.1832C54.2593 79.1702 54.2093 79.1452 54.1643 79.1082C54.0083 78.9792 53.9863 78.7482 54.1153 78.5922C54.1453 78.5562 54.8623 77.7012 55.9523 77.6092C56.6283 77.5532 57.2853 77.7962 57.9043 78.3352C58.0583 78.4692 58.0753 78.7012 57.9413 78.8542C57.8073 79.0082 57.5753 79.0232 57.4223 78.8902C56.9603 78.4892 56.4883 78.3042 56.0193 78.3412C55.2403 78.4032 54.6883 79.0532 54.6823 79.0602C54.5893 79.1732 54.4443 79.2152 54.3123 79.1832Z" fill="#263238"/>
</g>
<g id="Group_12">
<path id="Vector_62" d="M60.1917 82.3572C60.1917 82.3572 60.5307 85.3542 61.4417 87.4302C62.3557 89.5142 58.7646 88.7352 58.7646 88.7352L60.1917 82.3572Z" fill="#ED847E"/>
</g>
<path id="Vector_63" d="M87.1394 178.221C85.8004 175.903 80.9044 173.782 80.9044 173.782C80.2644 173.558 78.6544 173.57 76.8934 173.671L77.0854 173.653C77.0854 173.653 80.2904 171.816 79.4834 171.37C78.6764 170.924 76.7264 171.641 74.7724 172.049C72.8184 172.457 70.6224 174.255 70.6224 174.255C69.1924 175.121 68.3664 177.813 69.3764 181.369C69.3764 181.369 73.4614 185.256 76.3664 185.791C79.2334 186.495 85.0934 186.851 86.3974 185.059C89.1334 181.301 84.0824 178.658 84.0824 178.658C84.0824 178.658 88.4784 180.54 87.1394 178.221Z" fill="#FFC3BD"/>
<path id="Vector_64" d="M69.041 172.562L67.901 180.392C59.591 179.942 51.391 179.192 43.141 178.092C39.011 177.552 34.891 176.892 30.721 176.112C28.631 175.722 26.541 175.272 24.401 174.742C22.261 174.202 20.121 173.632 17.701 172.692C17.091 172.452 16.451 172.182 15.751 171.842C15.051 171.482 14.311 171.082 13.341 170.342C12.851 169.962 12.301 169.502 11.641 168.722C11.321 168.342 10.951 167.822 10.611 167.192C10.431 166.832 10.271 166.512 10.111 166.072C10.041 165.852 9.97103 165.632 9.90103 165.412L9.85103 165.192C9.55103 163.982 9.48102 163.272 9.39102 162.562C9.11102 159.932 9.06103 157.842 9.01103 155.662C8.97103 151.372 9.04103 147.222 9.20103 143.062C9.48103 134.752 10.081 126.572 10.921 118.322L26.861 119.712C26.631 123.732 26.261 127.802 26.001 131.842L25.061 143.952C24.761 147.972 24.431 151.992 24.261 155.892C24.191 157.262 24.131 158.672 24.121 159.892C25.341 160.462 26.811 161.022 28.281 161.532C30.081 162.152 31.951 162.732 33.841 163.312C37.621 164.462 41.511 165.502 45.411 166.542C53.221 168.582 61.161 170.582 69.041 172.562Z" fill="#263238"/>
<path id="Vector_65" d="M139.271 120.392C133.901 125.462 128.321 130.222 122.551 134.812C119.681 137.132 116.721 139.342 113.671 141.572C112.121 142.652 110.561 143.732 108.791 144.822C108.341 145.092 107.881 145.362 107.371 145.642C106.851 145.932 106.311 146.222 105.511 146.552C105.081 146.712 104.641 146.902 103.701 147.112L103.291 147.182C103.151 147.202 102.931 147.232 102.751 147.242C102.351 147.272 101.841 147.302 101.031 147.202L100.741 147.152L100.331 147.072C100.071 147.012 99.8014 146.932 99.5514 146.842L99.4114 146.802L99.1314 146.702C98.7914 146.572 98.3414 146.412 98.0814 146.292L97.2214 145.912C95.0914 144.922 93.4314 143.982 91.7314 143.012C90.0514 142.032 88.4314 141.072 86.8514 140.052C83.6914 138.032 80.5914 136.002 77.5714 133.882C77.4114 133.772 77.2514 133.662 77.0914 133.552C76.1514 132.892 75.2214 132.232 74.3014 131.572C69.3914 128.072 64.6214 124.462 59.9414 120.622L69.7214 107.962C75.5514 112.122 81.3214 116.512 87.0314 120.832C89.9014 122.962 92.7314 125.152 95.5814 127.222C97.0114 128.252 98.4114 129.302 99.8014 130.282C100.801 130.982 101.841 131.692 102.761 132.272C104.031 131.682 105.381 130.982 106.731 130.282C109.861 128.692 113.001 126.932 116.181 125.222C122.521 121.772 128.931 118.272 135.451 114.982L139.271 120.392Z" fill="#263238"/>
<path id="Vector_66" opacity="0.2" d="M77.0912 133.552C76.1512 132.892 75.2212 132.232 74.3012 131.572L73.4512 117.902L77.0912 133.552Z" fill="black"/>
<path id="Vector_67" d="M138.622 120.515C138.622 120.515 140.639 120.378 141.497 118.977C143.16 116.26 145.78 115.762 146.83 115.185C147.88 114.609 146.676 112.82 144.012 113.392C144.012 113.392 145.155 109.682 146.074 108.784C146.993 107.886 151.838 105.965 151.746 105.268C151.654 104.571 147.906 105.698 145.718 106.689C143.53 107.68 139.091 113.175 135.093 115.143C135.095 115.144 133.519 119.303 138.622 120.515Z" fill="#FFC3BD"/>
</g>
</g>
</g>
</g>
<defs>
<filter id="filter0_i_369_2287" x="0" y="0" width="234" height="204" filterUnits="userSpaceOnUse" color-interpolation-filters="sRGB">
<feFlood flood-opacity="0" result="BackgroundImageFix"/>
<feBlend mode="normal" in="SourceGraphic" in2="BackgroundImageFix" result="shape"/>
<feColorMatrix in="SourceAlpha" type="matrix" values="0 0 0 0 0 0 0 0 0 0 0 0 0 0 0 0 0 0 127 0" result="hardAlpha"/>
<feMorphology radius="6" operator="dilate" in="SourceAlpha" result="effect1_innerShadow_369_2287"/>
<feOffset dy="4"/>
<feGaussianBlur stdDeviation="31.1"/>
<feComposite in2="hardAlpha" operator="arithmetic" k2="-1" k3="1"/>
<feColorMatrix type="matrix" values="0 0 0 0 0.486275 0 0 0 0 0.360784 0 0 0 0 0.988235 0 0 0 0.25 0"/>
<feBlend mode="normal" in2="shape" result="effect1_innerShadow_369_2287"/>
</filter>
<clipPath id="clip0_369_2287">
<rect width="234" height="200" rx="16" fill="white"/>
</clipPath>
</defs>
</svg>
