<svg width="234" height="200" viewBox="0 0 234 200" fill="none" xmlns="http://www.w3.org/2000/svg">
<g filter="url(#filter0_i_369_2695)">
<rect width="234" height="200" rx="16" fill="#7C5CFC" fill-opacity="0.1"/>
<path d="M49 44C49 37.3726 54.3726 32 61 32H173C179.627 32 185 37.3726 185 44V200H49V44Z" fill="white"/>
<path d="M165.5 74C161.918 74 159 76.9185 159 80.5C159 84.0815 161.918 87 165.5 87C169.082 87 172 84.0815 172 80.5C172 76.9185 169.082 74 165.5 74ZM168.607 79.005L164.921 82.6905C164.83 82.7815 164.707 82.8335 164.577 82.8335C164.447 82.8335 164.324 82.7815 164.233 82.6905L162.393 80.851C162.204 80.6625 162.204 80.3505 162.393 80.162C162.581 79.9735 162.893 79.9735 163.082 80.162L164.577 81.657L167.918 78.316C168.106 78.1275 168.418 78.1275 168.607 78.316C168.795 78.5045 168.795 78.81 168.607 79.005Z" fill="#9CD323"/>
<path d="M165.5 97C161.918 97 159 99.9185 159 103.5C159 107.082 161.918 110 165.5 110C169.082 110 172 107.082 172 103.5C172 99.9185 169.082 97 165.5 97ZM167.684 104.995C167.872 105.184 167.872 105.495 167.684 105.684C167.586 105.781 167.463 105.827 167.339 105.827C167.216 105.827 167.092 105.781 166.995 105.684L165.5 104.189L164.005 105.684C163.907 105.781 163.784 105.827 163.661 105.827C163.537 105.827 163.413 105.781 163.316 105.684C163.128 105.495 163.128 105.184 163.316 104.995L164.811 103.5L163.316 102.005C163.128 101.816 163.128 101.504 163.316 101.316C163.504 101.128 163.816 101.128 164.005 101.316L165.5 102.811L166.995 101.316C167.184 101.128 167.495 101.128 167.684 101.316C167.872 101.504 167.872 101.816 167.684 102.005L166.189 103.5L167.684 104.995Z" fill="#FF4423"/>
<path d="M165.5 120C161.918 120 159 122.918 159 126.5C159 130.082 161.918 133 165.5 133C169.082 133 172 130.082 172 126.5C172 122.918 169.082 120 165.5 120ZM167.684 127.995C167.872 128.184 167.872 128.495 167.684 128.684C167.586 128.781 167.463 128.827 167.339 128.827C167.216 128.827 167.092 128.781 166.995 128.684L165.5 127.189L164.005 128.684C163.907 128.781 163.784 128.827 163.661 128.827C163.537 128.827 163.413 128.781 163.316 128.684C163.128 128.495 163.128 128.184 163.316 127.995L164.811 126.5L163.316 125.005C163.128 124.816 163.128 124.504 163.316 124.316C163.504 124.128 163.816 124.128 164.005 124.316L165.5 125.811L166.995 124.316C167.184 124.128 167.495 124.128 167.684 124.316C167.872 124.504 167.872 124.816 167.684 125.005L166.189 126.5L167.684 127.995Z" fill="#FF4423"/>
<path d="M165.5 143C161.918 143 159 145.918 159 149.5C159 153.082 161.918 156 165.5 156C169.082 156 172 153.082 172 149.5C172 145.918 169.082 143 165.5 143ZM167.684 150.995C167.872 151.184 167.872 151.495 167.684 151.684C167.586 151.781 167.463 151.827 167.339 151.827C167.216 151.827 167.092 151.781 166.995 151.684L165.5 150.189L164.005 151.684C163.907 151.781 163.784 151.827 163.661 151.827C163.537 151.827 163.413 151.781 163.316 151.684C163.128 151.495 163.128 151.184 163.316 150.995L164.811 149.5L163.316 148.005C163.128 147.816 163.128 147.504 163.316 147.316C163.504 147.128 163.816 147.128 164.005 147.316L165.5 148.811L166.995 147.316C167.184 147.128 167.495 147.128 167.684 147.316C167.872 147.504 167.872 147.816 167.684 148.005L166.189 149.5L167.684 150.995Z" fill="#FF4423"/>
<path d="M165.5 166C161.918 166 159 168.918 159 172.5C159 176.082 161.918 179 165.5 179C169.082 179 172 176.082 172 172.5C172 168.918 169.082 166 165.5 166ZM167.684 173.995C167.872 174.184 167.872 174.495 167.684 174.684C167.586 174.781 167.463 174.827 167.339 174.827C167.216 174.827 167.092 174.781 166.995 174.684L165.5 173.189L164.005 174.684C163.907 174.781 163.784 174.827 163.661 174.827C163.537 174.827 163.413 174.781 163.316 174.684C163.128 174.495 163.128 174.184 163.316 173.995L164.811 172.5L163.316 171.005C163.128 170.816 163.128 170.504 163.316 170.316C163.504 170.128 163.816 170.128 164.005 170.316L165.5 171.811L166.995 170.316C167.184 170.128 167.495 170.128 167.684 170.316C167.872 170.504 167.872 170.816 167.684 171.005L166.189 172.5L167.684 173.995Z" fill="#FF4423"/>
<path d="M82.3296 60.144C81.6976 60.144 81.1096 60.028 80.5656 59.796C80.0296 59.564 79.5616 59.244 79.1616 58.836C78.7696 58.42 78.4616 57.932 78.2376 57.372C78.0136 56.812 77.9016 56.196 77.9016 55.524C77.9016 54.86 78.0096 54.248 78.2256 53.688C78.4496 53.12 78.7616 52.632 79.1616 52.224C79.5616 51.808 80.0296 51.488 80.5656 51.264C81.1016 51.032 81.6896 50.916 82.3296 50.916C82.9616 50.916 83.5256 51.024 84.0216 51.24C84.5256 51.456 84.9496 51.74 85.2936 52.092C85.6376 52.436 85.8856 52.812 86.0376 53.22L84.7656 53.82C84.5736 53.34 84.2656 52.952 83.8416 52.656C83.4256 52.352 82.9216 52.2 82.3296 52.2C81.7376 52.2 81.2136 52.34 80.7576 52.62C80.3016 52.9 79.9456 53.288 79.6896 53.784C79.4416 54.28 79.3176 54.86 79.3176 55.524C79.3176 56.188 79.4416 56.772 79.6896 57.276C79.9456 57.772 80.3016 58.16 80.7576 58.44C81.2136 58.712 81.7376 58.848 82.3296 58.848C82.9216 58.848 83.4256 58.7 83.8416 58.404C84.2656 58.108 84.5736 57.72 84.7656 57.24L86.0376 57.84C85.8856 58.24 85.6376 58.616 85.2936 58.968C84.9496 59.32 84.5256 59.604 84.0216 59.82C83.5256 60.036 82.9616 60.144 82.3296 60.144ZM88.9486 60.144C88.5086 60.144 88.1206 60.068 87.7846 59.916C87.4566 59.756 87.2006 59.54 87.0166 59.268C86.8326 58.988 86.7406 58.66 86.7406 58.284C86.7406 57.932 86.8166 57.616 86.9686 57.336C87.1286 57.056 87.3726 56.82 87.7006 56.628C88.0286 56.436 88.4406 56.3 88.9366 56.22L91.1926 55.848V56.916L89.2006 57.264C88.8406 57.328 88.5766 57.444 88.4086 57.612C88.2406 57.772 88.1566 57.98 88.1566 58.236C88.1566 58.484 88.2486 58.688 88.4326 58.848C88.6246 59 88.8686 59.076 89.1646 59.076C89.5326 59.076 89.8526 58.996 90.1246 58.836C90.4046 58.676 90.6206 58.464 90.7726 58.2C90.9246 57.928 91.0006 57.628 91.0006 57.3V55.632C91.0006 55.312 90.8806 55.052 90.6406 54.852C90.4086 54.644 90.0966 54.54 89.7046 54.54C89.3446 54.54 89.0286 54.636 88.7566 54.828C88.4926 55.012 88.2966 55.252 88.1686 55.548L87.0406 54.984C87.1606 54.664 87.3566 54.384 87.6286 54.144C87.9006 53.896 88.2166 53.704 88.5766 53.568C88.9446 53.432 89.3326 53.364 89.7406 53.364C90.2526 53.364 90.7046 53.46 91.0966 53.652C91.4966 53.844 91.8046 54.112 92.0206 54.456C92.2446 54.792 92.3566 55.184 92.3566 55.632V60H91.0606V58.824L91.3366 58.86C91.1846 59.124 90.9886 59.352 90.7486 59.544C90.5166 59.736 90.2486 59.884 89.9446 59.988C89.6486 60.092 89.3166 60.144 88.9486 60.144ZM93.7021 60V53.508H94.9981V54.78L94.8421 54.612C95.0021 54.204 95.2581 53.896 95.6101 53.688C95.9621 53.472 96.3701 53.364 96.8341 53.364C97.3141 53.364 97.7381 53.468 98.1061 53.676C98.4741 53.884 98.7621 54.172 98.9701 54.54C99.1781 54.908 99.2821 55.332 99.2821 55.812V60H97.9381V56.172C97.9381 55.844 97.8781 55.568 97.7581 55.344C97.6381 55.112 97.4661 54.936 97.2421 54.816C97.0261 54.688 96.7781 54.624 96.4981 54.624C96.2181 54.624 95.9661 54.688 95.7421 54.816C95.5261 54.936 95.3581 55.112 95.2381 55.344C95.1181 55.576 95.0581 55.852 95.0581 56.172V60H93.7021ZM103.493 60.144C102.869 60.144 102.309 59.996 101.813 59.7C101.325 59.396 100.937 58.988 100.649 58.476C100.369 57.964 100.229 57.388 100.229 56.748C100.229 56.108 100.373 55.532 100.661 55.02C100.949 54.508 101.337 54.104 101.825 53.808C102.313 53.512 102.865 53.364 103.481 53.364C104.001 53.364 104.461 53.468 104.861 53.676C105.261 53.884 105.577 54.172 105.809 54.54L105.605 54.852V50.916H106.949V60H105.665V58.68L105.821 58.932C105.597 59.324 105.277 59.624 104.861 59.832C104.445 60.04 103.989 60.144 103.493 60.144ZM103.625 58.884C104.001 58.884 104.337 58.792 104.633 58.608C104.937 58.424 105.173 58.172 105.341 57.852C105.517 57.524 105.605 57.156 105.605 56.748C105.605 56.34 105.517 55.976 105.341 55.656C105.173 55.336 104.937 55.084 104.633 54.9C104.337 54.716 104.001 54.624 103.625 54.624C103.249 54.624 102.909 54.716 102.605 54.9C102.301 55.084 102.065 55.336 101.897 55.656C101.729 55.976 101.645 56.34 101.645 56.748C101.645 57.156 101.729 57.524 101.897 57.852C102.065 58.172 102.297 58.424 102.593 58.608C102.897 58.792 103.241 58.884 103.625 58.884ZM108.292 60V53.508H109.648V60H108.292ZM108.292 52.62V51.06H109.648V52.62H108.292ZM113.994 60.144C113.37 60.144 112.81 59.996 112.314 59.7C111.826 59.396 111.438 58.988 111.15 58.476C110.87 57.964 110.73 57.388 110.73 56.748C110.73 56.108 110.874 55.532 111.162 55.02C111.45 54.508 111.838 54.104 112.326 53.808C112.814 53.512 113.366 53.364 113.982 53.364C114.502 53.364 114.962 53.468 115.362 53.676C115.762 53.884 116.078 54.172 116.31 54.54L116.106 54.852V50.916H117.45V60H116.166V58.68L116.322 58.932C116.098 59.324 115.778 59.624 115.362 59.832C114.946 60.04 114.49 60.144 113.994 60.144ZM114.126 58.884C114.502 58.884 114.838 58.792 115.134 58.608C115.438 58.424 115.674 58.172 115.842 57.852C116.018 57.524 116.106 57.156 116.106 56.748C116.106 56.34 116.018 55.976 115.842 55.656C115.674 55.336 115.438 55.084 115.134 54.9C114.838 54.716 114.502 54.624 114.126 54.624C113.75 54.624 113.41 54.716 113.106 54.9C112.802 55.084 112.566 55.336 112.398 55.656C112.23 55.976 112.146 56.34 112.146 56.748C112.146 57.156 112.23 57.524 112.398 57.852C112.566 58.172 112.798 58.424 113.094 58.608C113.398 58.792 113.742 58.884 114.126 58.884ZM120.737 60.144C120.297 60.144 119.909 60.068 119.573 59.916C119.245 59.756 118.989 59.54 118.805 59.268C118.621 58.988 118.529 58.66 118.529 58.284C118.529 57.932 118.605 57.616 118.757 57.336C118.917 57.056 119.161 56.82 119.489 56.628C119.817 56.436 120.229 56.3 120.725 56.22L122.981 55.848V56.916L120.989 57.264C120.629 57.328 120.365 57.444 120.197 57.612C120.029 57.772 119.945 57.98 119.945 58.236C119.945 58.484 120.037 58.688 120.221 58.848C120.413 59 120.657 59.076 120.953 59.076C121.321 59.076 121.641 58.996 121.913 58.836C122.193 58.676 122.409 58.464 122.561 58.2C122.713 57.928 122.789 57.628 122.789 57.3V55.632C122.789 55.312 122.669 55.052 122.429 54.852C122.197 54.644 121.885 54.54 121.493 54.54C121.133 54.54 120.817 54.636 120.545 54.828C120.281 55.012 120.085 55.252 119.957 55.548L118.829 54.984C118.949 54.664 119.145 54.384 119.417 54.144C119.689 53.896 120.005 53.704 120.365 53.568C120.733 53.432 121.121 53.364 121.529 53.364C122.041 53.364 122.493 53.46 122.885 53.652C123.285 53.844 123.593 54.112 123.809 54.456C124.033 54.792 124.145 55.184 124.145 55.632V60H122.849V58.824L123.125 58.86C122.973 59.124 122.777 59.352 122.537 59.544C122.305 59.736 122.037 59.884 121.733 59.988C121.437 60.092 121.105 60.144 120.737 60.144ZM128.181 60.072C127.501 60.072 126.973 59.88 126.597 59.496C126.221 59.112 126.033 58.572 126.033 57.876V54.732H124.893V53.508H125.073C125.377 53.508 125.613 53.42 125.781 53.244C125.949 53.068 126.033 52.828 126.033 52.524V52.02H127.389V53.508H128.865V54.732H127.389V57.816C127.389 58.04 127.425 58.232 127.497 58.392C127.569 58.544 127.685 58.664 127.845 58.752C128.005 58.832 128.213 58.872 128.469 58.872C128.533 58.872 128.605 58.868 128.685 58.86C128.765 58.852 128.841 58.844 128.913 58.836V60C128.801 60.016 128.677 60.032 128.541 60.048C128.405 60.064 128.285 60.072 128.181 60.072ZM132.927 60.144C132.279 60.144 131.703 59.996 131.199 59.7C130.703 59.396 130.315 58.988 130.035 58.476C129.755 57.956 129.615 57.376 129.615 56.736C129.615 56.08 129.755 55.5 130.035 54.996C130.323 54.492 130.707 54.096 131.187 53.808C131.667 53.512 132.211 53.364 132.819 53.364C133.307 53.364 133.743 53.448 134.127 53.616C134.511 53.784 134.835 54.016 135.099 54.312C135.363 54.6 135.563 54.932 135.699 55.308C135.843 55.684 135.915 56.084 135.915 56.508C135.915 56.612 135.911 56.72 135.903 56.832C135.895 56.944 135.879 57.048 135.855 57.144H130.683V56.064H135.087L134.439 56.556C134.519 56.164 134.491 55.816 134.355 55.512C134.227 55.2 134.027 54.956 133.755 54.78C133.491 54.596 133.179 54.504 132.819 54.504C132.459 54.504 132.139 54.596 131.859 54.78C131.579 54.956 131.363 55.212 131.211 55.548C131.059 55.876 130.999 56.276 131.031 56.748C130.991 57.188 131.051 57.572 131.211 57.9C131.379 58.228 131.611 58.484 131.907 58.668C132.211 58.852 132.555 58.944 132.939 58.944C133.331 58.944 133.663 58.856 133.935 58.68C134.215 58.504 134.435 58.276 134.595 57.996L135.699 58.536C135.571 58.84 135.371 59.116 135.099 59.364C134.835 59.604 134.515 59.796 134.139 59.94C133.771 60.076 133.367 60.144 132.927 60.144ZM138.988 60V51.06H140.404V58.74H144.268V60H138.988ZM145.085 60V53.508H146.441V60H145.085ZM145.085 52.62V51.06H146.441V52.62H145.085ZM150.186 60.144C149.522 60.144 148.938 59.98 148.434 59.652C147.938 59.324 147.59 58.884 147.39 58.332L148.434 57.84C148.61 58.208 148.85 58.5 149.154 58.716C149.466 58.932 149.81 59.04 150.186 59.04C150.506 59.04 150.766 58.968 150.966 58.824C151.166 58.68 151.266 58.484 151.266 58.236C151.266 58.076 151.222 57.948 151.134 57.852C151.046 57.748 150.934 57.664 150.798 57.6C150.67 57.536 150.538 57.488 150.402 57.456L149.382 57.168C148.822 57.008 148.402 56.768 148.122 56.448C147.85 56.12 147.714 55.74 147.714 55.308C147.714 54.916 147.814 54.576 148.014 54.288C148.214 53.992 148.49 53.764 148.842 53.604C149.194 53.444 149.59 53.364 150.03 53.364C150.622 53.364 151.15 53.512 151.614 53.808C152.078 54.096 152.406 54.5 152.598 55.02L151.554 55.512C151.426 55.2 151.222 54.952 150.942 54.768C150.67 54.584 150.362 54.492 150.018 54.492C149.722 54.492 149.486 54.564 149.31 54.708C149.134 54.844 149.046 55.024 149.046 55.248C149.046 55.4 149.086 55.528 149.166 55.632C149.246 55.728 149.35 55.808 149.478 55.872C149.606 55.928 149.738 55.976 149.874 56.016L150.93 56.328C151.466 56.48 151.878 56.72 152.166 57.048C152.454 57.368 152.598 57.752 152.598 58.2C152.598 58.584 152.494 58.924 152.286 59.22C152.086 59.508 151.806 59.736 151.446 59.904C151.086 60.064 150.666 60.144 150.186 60.144ZM156.495 60.072C155.815 60.072 155.287 59.88 154.911 59.496C154.535 59.112 154.347 58.572 154.347 57.876V54.732H153.207V53.508H153.387C153.691 53.508 153.927 53.42 154.095 53.244C154.263 53.068 154.347 52.828 154.347 52.524V52.02H155.703V53.508H157.179V54.732H155.703V57.816C155.703 58.04 155.739 58.232 155.811 58.392C155.883 58.544 155.999 58.664 156.159 58.752C156.319 58.832 156.527 58.872 156.783 58.872C156.847 58.872 156.919 58.868 156.999 58.86C157.079 58.852 157.155 58.844 157.227 58.836V60C157.115 60.016 156.991 60.032 156.855 60.048C156.719 60.064 156.599 60.072 156.495 60.072Z" fill="#1A202C"/>
<rect x="65" y="79" width="41" height="5" rx="2.5" fill="#7C5CFC"/>
<rect x="65" y="102" width="79" height="5" rx="2.5" fill="#C3D4E9"/>
<rect x="65" y="125" width="60" height="5" rx="2.5" fill="#C3D4E9"/>
<rect x="65" y="148" width="31" height="5" rx="2.5" fill="#C3D4E9"/>
<rect x="100" y="148" width="31" height="5" rx="2.5" fill="#C3D4E9"/>
<rect x="65" y="171" width="75" height="5" rx="2.5" fill="#C3D4E9"/>
</g>
<defs>
<filter id="filter0_i_369_2695" x="0" y="0" width="234" height="204" filterUnits="userSpaceOnUse" color-interpolation-filters="sRGB">
<feFlood flood-opacity="0" result="BackgroundImageFix"/>
<feBlend mode="normal" in="SourceGraphic" in2="BackgroundImageFix" result="shape"/>
<feColorMatrix in="SourceAlpha" type="matrix" values="0 0 0 0 0 0 0 0 0 0 0 0 0 0 0 0 0 0 127 0" result="hardAlpha"/>
<feMorphology radius="6" operator="dilate" in="SourceAlpha" result="effect1_innerShadow_369_2695"/>
<feOffset dy="4"/>
<feGaussianBlur stdDeviation="31.1"/>
<feComposite in2="hardAlpha" operator="arithmetic" k2="-1" k3="1"/>
<feColorMatrix type="matrix" values="0 0 0 0 0.486275 0 0 0 0 0.360784 0 0 0 0 0.988235 0 0 0 0.25 0"/>
<feBlend mode="normal" in2="shape" result="effect1_innerShadow_369_2695"/>
</filter>
</defs>
</svg>
