<svg width="234" height="200" viewBox="0 0 234 200" fill="none" xmlns="http://www.w3.org/2000/svg">
<g filter="url(#filter0_i_369_2718)">
<g clip-path="url(#clip0_369_2718)">
<rect width="234" height="200" rx="16" fill="#7C5CFC" fill-opacity="0.1"/>
<path d="M7 43C7 36.3726 12.3726 31 19 31H191V221H7V43Z" fill="white"/>
<path fill-rule="evenodd" clip-rule="evenodd" d="M196.17 195.916C194.519 195.056 193.012 193.988 191.677 192.752L186.877 194.461L182.366 187.34L185.96 183.728C185.414 181.994 185.089 180.175 185.017 178.313L180.416 176.128L182.262 167.903L187.355 167.891C188.215 166.239 189.285 164.733 190.521 163.398L188.812 158.598L195.933 154.086L199.544 157.681C201.279 157.134 203.098 156.811 204.959 156.739L207.144 152.138L215.37 153.983L215.381 159.076C217.033 159.936 218.539 161.005 219.873 162.241L224.675 160.532L229.187 167.654L225.591 171.265C226.138 172.999 226.461 174.818 226.534 176.679L231.134 178.864L229.289 187.09L224.195 187.101C223.336 188.753 222.266 190.259 221.029 191.594L222.738 196.395L215.618 200.906L212.007 197.311C210.272 197.858 208.453 198.181 206.591 198.253L204.407 202.854L196.181 201.009L196.17 195.916ZM203.423 186.237C208.296 187.33 213.133 184.266 214.227 179.392C215.32 174.519 212.254 169.682 207.382 168.589C202.508 167.496 197.671 170.56 196.578 175.434C195.485 180.307 198.549 185.144 203.423 186.237Z" fill="#7C5CFC"/>
<path fill-rule="evenodd" clip-rule="evenodd" d="M226.471 149.318C225.653 148.892 224.905 148.361 224.243 147.748L221.861 148.596L219.623 145.063L221.406 143.272C221.135 142.411 220.974 141.508 220.939 140.585L218.656 139.501L219.572 135.42L222.099 135.414C222.526 134.595 223.056 133.847 223.669 133.185L222.821 130.804L226.354 128.566L228.145 130.349C229.006 130.077 229.908 129.917 230.831 129.882L231.915 127.599L235.996 128.514L236.001 131.041C236.82 131.467 237.567 131.997 238.23 132.611L240.612 131.763L242.85 135.296L241.066 137.087C241.337 137.947 241.498 138.85 241.534 139.773L243.816 140.857L242.901 144.938L240.374 144.943C239.947 145.763 239.417 146.51 238.804 147.173L239.652 149.555L236.119 151.793L234.327 150.009C233.467 150.281 232.565 150.441 231.641 150.477L230.558 152.759L226.477 151.844L226.471 149.318ZM230.07 144.516C232.487 145.059 234.887 143.538 235.429 141.121C235.971 138.703 234.45 136.303 232.033 135.761C229.615 135.219 227.216 136.739 226.674 139.157C226.132 141.574 227.651 143.974 230.07 144.516Z" fill="#7C5CFC"/>
<g opacity="0.4">
<path fill-rule="evenodd" clip-rule="evenodd" d="M226.471 149.318C225.653 148.892 224.905 148.361 224.243 147.748L221.861 148.596L219.623 145.063L221.406 143.272C221.135 142.411 220.974 141.508 220.939 140.585L218.656 139.501L219.572 135.42L222.099 135.414C222.526 134.595 223.056 133.847 223.669 133.185L222.821 130.804L226.354 128.566L228.145 130.349C229.006 130.077 229.908 129.917 230.831 129.882L231.915 127.599L235.996 128.514L236.001 131.041C236.82 131.467 237.567 131.997 238.23 132.611L240.612 131.763L242.85 135.296L241.066 137.087C241.337 137.947 241.498 138.85 241.534 139.773L243.816 140.857L242.901 144.938L240.374 144.943C239.947 145.763 239.417 146.51 238.804 147.173L239.652 149.555L236.119 151.793L234.327 150.009C233.467 150.281 232.565 150.441 231.641 150.477L230.558 152.759L226.477 151.844L226.471 149.318ZM230.07 144.516C232.487 145.059 234.887 143.538 235.429 141.121C235.971 138.703 234.45 136.303 232.033 135.761C229.615 135.219 227.216 136.739 226.674 139.157C226.132 141.574 227.651 143.974 230.07 144.516Z" fill="white"/>
</g>
<path d="M-8.90724 36.7825C-8.90529 36.778 -8.87358 36.8142 -8.81274 36.8887C-8.74218 36.9774 -8.65351 37.09 -8.54153 37.2304C-8.29039 37.5567 -7.93763 38.0136 -7.48389 38.602L-7.54862 38.5852C-6.65151 38.178 -5.48061 37.6473 -4.06698 37.0058L-4.11616 37.1003C-4.25597 36.4136 -4.41067 35.6518 -4.57637 34.8368L-4.58802 34.7786L-4.54141 34.7404C-3.94075 34.2517 -3.36016 33.6543 -2.85141 32.9462L-2.81257 32.8918L-2.7459 32.9015C-2.03262 33.0025 -1.26041 33.1125 -0.457804 33.2264L-0.587265 33.3022C-0.158127 32.1772 0.297541 30.9837 0.775871 29.7306L0.825727 29.8885C0.230242 29.4917 -0.425446 29.0548 -1.09731 28.6069L-1.16721 28.5603L-1.15815 28.4762C-1.07659 27.7169 -1.08567 26.8703 -1.22418 26.0224L-1.23842 25.9356L-1.16787 25.8826C-0.594387 25.4534 0.0373421 24.9803 0.681372 24.4987L0.634123 24.6799C0.145437 23.5828 -0.382086 22.4003 -0.922552 21.1879L-0.749083 21.2779C-1.4546 21.4184 -2.22938 21.5724 -3.01451 21.7278L-3.10967 21.7465L-3.17051 21.6708C-3.65207 21.0727 -4.25856 20.4824 -4.9479 19.9853L-5.02817 19.9277L-5.01393 19.8293C-4.90972 19.1128 -4.79644 18.3315 -4.68188 17.5425L-4.57766 17.7205C-5.70714 17.2856 -6.91818 16.8202 -8.14604 16.3477L-7.94669 16.2849C-8.35317 16.8914 -8.79137 17.5458 -9.2328 18.2047L-9.28977 18.2895L-9.39139 18.2785C-10.1649 18.193 -11.0063 18.2047 -11.8361 18.338H-11.8374H-11.8381C-11.9106 18.3089 -11.6769 18.404 -12.0005 18.272L-12.0018 18.2701L-12.0044 18.2662L-12.0096 18.2591L-12.0206 18.2448L-12.0426 18.2157L-12.086 18.1574L-12.1727 18.0409L-12.3462 17.8079L-12.6924 17.3432C-12.9229 17.0338 -13.152 16.7263 -13.3805 16.4195L-13.1773 16.4726C-14.3585 16.9962 -15.5242 17.5128 -16.6725 18.0222L-16.5767 17.8377C-16.4265 18.6008 -16.2777 19.3562 -16.1307 20.1044L-16.1113 20.2028L-16.1896 20.2656C-16.8362 20.784 -17.4039 21.3841 -17.879 22.0384L-17.9372 22.1187L-18.035 22.1045C-18.8085 21.9905 -19.5697 21.8786 -20.3211 21.7679L-20.1483 21.6669C-20.6195 22.8838 -21.0797 24.0728 -21.5283 25.2321L-21.5865 25.0476C-20.936 25.4851 -20.2972 25.9156 -19.6693 26.3376L-19.593 26.3887L-19.6033 26.4793C-19.6959 27.3124 -19.6732 28.1389 -19.5489 28.9318L-19.5354 29.0192L-19.6059 29.0716C-20.2422 29.5435 -20.859 30.0005 -21.4616 30.4471L-21.417 30.2781C-20.8752 31.5093 -20.3639 32.6711 -19.8771 33.7773L-20.0202 33.7028C-19.2227 33.5481 -18.4745 33.4032 -17.7521 33.2633L-17.6796 33.2491L-17.6343 33.3061C-17.0861 33.9928 -16.4828 34.5514 -15.8576 35.0097L-15.8032 35.0498L-15.8129 35.1158C-15.9385 35.9456 -16.0511 36.6939 -16.1579 37.4007L-16.2207 37.2932C-14.844 37.8337 -13.6698 38.2952 -12.662 38.6907L-12.752 38.7192C-12.2322 37.9599 -11.8057 37.3346 -11.4478 36.8117L-11.429 36.7838L-11.3966 36.7877C-10.5642 36.8848 -9.93833 36.857 -9.52667 36.8298C-9.33378 36.813 -9.18297 36.8 -9.06452 36.7897C-8.95384 36.7806 -8.90594 36.778 -8.90724 36.7825C-8.90918 36.7864 -8.96095 36.7994 -9.0574 36.8194C-9.15837 36.8376 -9.31112 36.8641 -9.5176 36.8874C-9.92991 36.9327 -10.5604 36.9793 -11.4044 36.8978L-11.3533 36.8738C-11.7015 37.4033 -12.117 38.0356 -12.6225 38.8052L-12.6556 38.8551L-12.7125 38.8337C-13.7248 38.4505 -14.9048 38.0046 -16.2887 37.4809L-16.3624 37.4531L-16.3514 37.3735C-16.2518 36.6654 -16.1456 35.9165 -16.0285 35.0854L-15.9838 35.1909C-16.6285 34.7275 -17.2511 34.1598 -17.8194 33.4595L-17.7016 33.5022C-18.4227 33.6472 -19.1703 33.7973 -19.9664 33.9572L-20.0674 33.9773L-20.1095 33.8828C-20.6027 32.7792 -21.1212 31.6199 -21.6694 30.3927L-21.7147 30.2904L-21.6247 30.2231C-21.0247 29.7739 -20.4098 29.3131 -19.7761 28.8386L-19.8331 28.9784C-19.9658 28.1616 -19.9923 27.3078 -19.8998 26.447L-19.8337 26.5887C-20.4629 26.1687 -21.1037 25.7408 -21.7555 25.3052L-21.8584 25.2366L-21.8137 25.1207C-21.3684 23.9602 -20.9114 22.7699 -20.4441 21.5517L-20.3982 21.432L-20.2707 21.4501C-19.5185 21.5588 -18.7573 21.6695 -17.9839 21.7815L-18.1392 21.8469C-17.6486 21.1679 -17.0615 20.5458 -16.3929 20.008L-16.4511 20.1691C-16.5994 19.4215 -16.7489 18.6662 -16.9003 17.9031L-16.9262 17.7723L-16.8045 17.7179C-15.6563 17.2079 -14.4912 16.6901 -13.3099 16.1658L-13.187 16.1114L-13.1067 16.2195C-12.8782 16.5257 -12.6491 16.8338 -12.4187 17.1432L-12.0724 17.6079L-11.8989 17.8409L-11.8122 17.9574L-11.7688 18.0157L-11.7474 18.0448L-11.7364 18.059L-11.7313 18.0662L-11.7287 18.0701L-11.7274 18.072C-12.0504 17.9406 -11.8167 18.0357 -11.8885 18.006H-11.8879H-11.8866C-11.0264 17.8675 -10.1539 17.8558 -9.35256 17.9445L-9.51048 18.0183C-9.0684 17.3594 -8.62955 16.7056 -8.22307 16.0991L-8.14864 15.9878L-8.02371 16.0357C-6.79649 16.5095 -5.58611 16.9768 -4.45728 17.4131L-4.33429 17.461L-4.35371 17.5917C-4.46957 18.3807 -4.58479 19.162 -4.69029 19.8779L-4.75566 19.7225C-4.04302 20.2384 -3.41712 20.8514 -2.92002 21.4714L-3.07601 21.4145C-2.29087 21.2604 -1.51544 21.109 -0.809269 20.9705L-0.686306 20.9465L-0.635818 21.0611C-0.0998802 22.2753 0.42312 23.4598 0.908571 24.5583L0.957104 24.6683L0.86067 24.7395C0.214699 25.2185 -0.419622 25.689 -0.994394 26.1156L-0.938078 25.9764C-0.798916 26.8515 -0.793739 27.7247 -0.882414 28.5066L-0.943254 28.3758C-0.273979 28.8276 0.379107 29.2678 0.972651 29.6684L1.06067 29.728L1.02249 29.8264C0.535742 31.0762 0.0729485 32.2666 -0.363956 33.3889L-0.39892 33.4789L-0.493418 33.4646C-1.29538 33.3443 -2.06627 33.2284 -2.77891 33.1216L-2.67341 33.0769C-3.20029 33.7973 -3.79965 34.4025 -4.41908 34.8951L-4.38413 34.7987C-4.22814 35.6155 -4.08186 36.3793 -3.94982 37.0673L-3.93687 37.1353L-3.99901 37.1625C-5.42364 37.78 -6.60296 38.292 -7.50655 38.6836L-7.54668 38.701L-7.57127 38.6667C-8.00041 38.0706 -8.33311 37.6084 -8.57065 37.2783C-8.67551 37.1282 -8.75965 37.0084 -8.82568 36.9139C-8.88134 36.8311 -8.90918 36.7864 -8.90724 36.7825Z" fill="#7C5CFC"/>
<path d="M-8.90838 36.7854C-8.76469 36.9783 -8.37828 37.4968 -7.51029 38.6618L-7.5556 38.6496C-6.65072 38.2482 -5.45586 37.7181 -3.9898 37.0676L-4.02476 37.135C-4.16262 36.4378 -4.31668 35.6592 -4.48173 34.8223L-4.3458 34.8333C-4.35292 34.8527 -4.36134 34.8766 -4.36975 34.9006L-4.48044 34.821C-3.87201 34.3316 -3.28234 33.7303 -2.76388 33.0144L-2.66873 33.1348C-2.69009 33.1439 -2.71598 33.1549 -2.74252 33.1659L-2.76194 33.0131C-2.0357 33.1187 -1.24022 33.2352 -0.409124 33.3562L-0.503624 33.4112C-0.0576553 32.252 0.418074 31.0176 0.920353 29.7121L0.957251 29.8286C0.353352 29.4241 -0.325621 28.9697 -1.02467 28.5011L-0.87257 28.371C-0.859625 28.3981 -0.84473 28.4299 -0.829844 28.4622L-1.02726 28.4946C-0.943758 27.7386 -0.948942 26.8732 -1.0894 26.0052L-0.879681 26.0291C-0.891333 26.0583 -0.904928 26.0919 -0.919167 26.1262L-1.08616 25.9968C-0.502972 25.5618 0.157234 25.0692 0.832333 24.5657L0.796085 24.7042C0.296396 23.5792 -0.256378 22.3365 -0.825972 21.0536L-0.690683 21.1242C-1.40527 21.2653 -2.21695 21.4264 -3.04221 21.5895L-3.02344 21.3475C-2.99107 21.3591 -2.95288 21.3734 -2.9147 21.3869L-3.05644 21.5844C-3.53154 20.9928 -4.15097 20.383 -4.86038 19.8717L-4.66426 19.7157C-4.65067 19.7481 -4.63449 19.7863 -4.61831 19.8238L-4.8675 19.8555C-4.76199 19.1319 -4.6429 18.3105 -4.52186 17.4775L-4.43771 17.6218C-5.58855 17.1791 -6.87079 16.6865 -8.17957 16.1836L-8.01387 16.1311C-8.42165 16.7409 -8.88379 17.4315 -9.35112 18.1299L-9.52911 17.9215C-9.4961 17.9059 -9.45727 17.8878 -9.41908 17.8703L-9.37442 18.1409C-10.1324 18.0581 -10.9952 18.0639 -11.8619 18.205L-11.8392 18.2005H-11.8399L-11.8269 17.9267L-11.8172 17.9305L-11.8153 17.9312L-11.8114 17.9331L-11.9246 18.2005L-11.9259 18.1998H-11.9266L-11.9292 18.1985L-11.9337 18.1966C-11.9337 18.1966 -11.9395 18.194 -11.9428 18.1927L-11.9447 18.192C-11.9447 18.192 -11.9467 18.1914 -11.9402 18.194C-11.9292 18.1946 -11.9525 18.1979 -11.8852 18.2024L-11.7945 17.9493L-11.8166 17.9331L-11.8302 17.926C-11.8412 17.9215 -11.8321 17.9254 -11.8321 17.9254L-11.7939 17.9409L-11.7143 17.9733L-11.8845 18.1959C-12.3247 17.6063 -12.8218 16.9409 -13.3234 16.2684L-13.1447 16.315C-14.2762 16.8185 -15.5332 17.3784 -16.8089 17.9461L-16.7215 17.7778C-16.5778 18.5014 -16.416 19.315 -16.2529 20.1345L-16.5481 20.1118C-16.5358 20.0775 -16.5215 20.0387 -16.5073 19.9999L-16.2659 20.1727C-16.8633 20.6523 -17.4685 21.2711 -17.9734 21.9734L-18.1604 21.7384C-18.1274 21.7242 -18.0899 21.7086 -18.0517 21.6925L-18.0135 21.9908C-18.7462 21.8853 -19.5643 21.7669 -20.389 21.6478L-20.2194 21.5481C-20.664 22.708 -21.1547 23.9877 -21.6511 25.2822L-21.712 25.0913C-21.0945 25.5036 -20.4084 25.9618 -19.7184 26.4227L-19.9553 26.6253C-19.9695 26.5949 -19.9857 26.5605 -20.0012 26.5262L-19.6938 26.4751C-19.7773 27.2415 -19.7669 28.103 -19.6284 28.9509L-19.9404 28.9153C-19.9281 28.8849 -19.9145 28.8512 -19.9009 28.8176L-19.6517 29.0098C-20.2459 29.4545 -20.9029 29.9464 -21.5637 30.4409L-21.512 30.2422C-21.0052 31.3775 -20.4511 32.619 -19.8925 33.8708L-20.0763 33.7756C-19.3469 33.6294 -18.5455 33.4688 -17.741 33.3083L-17.7656 33.6281C-17.7908 33.619 -17.8193 33.6086 -17.8478 33.5983L-17.6614 33.3368C-17.174 33.9407 -16.5591 34.5355 -15.8665 35.0333L-16.1183 35.2339C-16.128 35.2113 -16.1384 35.1854 -16.1494 35.1601L-15.8296 35.1187C-15.9345 35.8534 -16.0484 36.656 -16.1636 37.4612L-16.2697 37.2806C-15.1137 37.7201 -13.8626 38.1958 -12.6049 38.6741L-12.8049 38.7382C-12.3959 38.1194 -11.9525 37.4489 -11.5078 36.7757L-11.2962 37.021L-11.3318 37.0372L-11.3861 36.7168C-10.7181 36.7828 -9.98543 36.7861 -9.26826 36.6773L-9.0948 36.6534C-9.07797 36.6495 -9.09221 36.656 -9.08703 36.6728C-9.08573 36.6812 -9.0825 36.6916 -9.07603 36.7013L-9.06437 36.7162L-9.06244 36.7181L-9.06178 36.7188C-9.11357 36.7116 -9.03331 36.9718 -8.97053 36.9414L-8.95111 36.9479C-8.90256 36.957 -8.92134 36.9511 -8.91357 36.9531H-8.9155L-9.26633 36.9874C-9.50517 37.0126 -9.75113 37.0288 -9.99191 37.0366C-10.4767 37.0514 -10.9609 37.0288 -11.436 36.9738L-11.2774 36.9013C-11.7201 37.5531 -12.1557 38.1932 -12.5894 38.8314L-12.779 38.5764L-12.7163 38.5563L-12.7266 38.8735C-13.9221 38.4062 -15.1092 37.9427 -16.2879 37.4825L-16.082 37.2417L-16.038 37.3168L-16.3487 37.3764C-16.2316 36.5951 -16.1157 35.8184 -15.9998 35.0449L-15.9332 35.2048C-16.6445 34.6909 -17.2821 34.0779 -17.8206 33.3989L-17.6588 33.4585C-18.4361 33.6099 -19.2083 33.7601 -19.9766 33.909L-19.932 33.5989L-19.8323 33.6507L-20.0601 33.8643C-20.5793 32.6856 -21.0932 31.5199 -21.6019 30.3658L-21.2925 30.3412L-21.3236 30.459L-21.5806 30.2856C-20.9404 29.8111 -20.3068 29.3406 -19.6763 28.8732L-19.7398 29.0299C-19.8834 28.1541 -19.9003 27.2628 -19.7986 26.3981L-19.7281 26.5502C-20.3928 26.1029 -21.0479 25.6621 -21.6984 25.2239L-21.4557 25.0421L-21.4149 25.1709L-21.7171 25.1612C-21.2511 23.9572 -20.7909 22.7689 -20.3365 21.5967L-20.1093 21.7902L-20.2304 21.8607L-20.2873 21.5682C-19.4873 21.686 -18.7067 21.8012 -17.9332 21.9158L-18.0821 21.9785C-17.5578 21.2458 -16.939 20.605 -16.2594 20.0678L-16.3138 20.2173C-16.4704 19.4186 -16.6219 18.6464 -16.7714 17.882L-16.4879 17.9228C-16.5112 17.9674 -16.5332 18.0095 -16.5552 18.0516L-16.7513 17.8432C-15.5558 17.3143 -14.3953 16.8011 -13.2548 16.2968L-13.2321 16.5752C-13.2813 16.5622 -13.3279 16.5499 -13.3739 16.5376L-13.2179 16.3065C-12.7415 16.9473 -12.2884 17.5577 -11.8399 18.161L-11.902 18.1131L-11.8237 18.1448L-11.7861 18.1603L-11.7816 18.1623C-11.7816 18.1623 -11.7861 18.1603 -11.7894 18.1597L-11.8088 18.1551L-11.9674 18.2406L-11.9072 18.4244L-11.8923 18.4322C-11.889 18.4335 -11.8916 18.4328 -11.8916 18.4328L-11.9007 18.4289L-11.9052 18.427L-11.9078 18.4257L-11.9091 18.4251H-11.9098L-11.8036 18.1545L-11.8004 18.1558L-11.7887 18.1603L-11.856 18.15L-11.8703 18.1519C-10.9764 18.0108 -10.1272 18.005 -9.29675 18.1008L-9.43073 18.1629C-8.96729 17.4736 -8.53167 16.825 -8.10189 16.1855L-7.94396 16.3959C-7.99315 16.4114 -8.03781 16.4256 -8.08312 16.4399L-8.07535 16.1771C-6.83195 16.658 -5.65652 17.1117 -4.50956 17.5558L-4.67332 17.7487C-4.69921 17.7046 -4.72251 17.6645 -4.74581 17.6244L-4.49791 17.5758C-4.62024 18.4089 -4.73352 19.1759 -4.8442 19.9306L-4.89662 19.8063C-4.13414 20.3533 -3.51342 20.963 -2.99043 21.6213L-3.11276 21.5766C-2.27584 21.4122 -1.52113 21.264 -0.780006 21.1183L-0.812382 21.3462C-0.856396 21.3229 -0.89522 21.3028 -0.933409 21.2827L-0.765766 21.1254C-0.209763 22.3818 0.295752 23.5216 0.782495 24.6213L0.566952 24.6388C0.579248 24.5916 0.589607 24.5521 0.600611 24.5119L0.779257 24.6323C0.0802078 25.1521 -0.528868 25.6058 -1.12306 26.0479L-1.08033 25.9431C-0.923693 26.903 -0.926939 27.7515 -1.01756 28.5561L-1.06287 28.459C-0.322397 28.9561 0.300926 29.3742 0.904827 29.7794L0.757252 29.8901C0.743658 29.8474 0.733297 29.8137 0.72294 29.7801L0.906761 29.7852C0.385065 31.1361 -0.0563602 32.2798 -0.469963 33.3517L-0.59425 33.2462C-0.558002 33.2255 -0.530807 33.2093 -0.503624 33.1937L-0.472551 33.3536C-1.39297 33.219 -2.11662 33.1128 -2.80596 33.0119L-2.73088 32.9801C-3.34513 33.8268 -3.93091 34.3834 -4.50956 34.8501L-4.48496 34.7821C-4.29467 35.7466 -4.1568 36.4437 -4.02993 37.089L-4.14191 37.0735C-4.12702 37.0443 -4.11732 37.0262 -4.10761 37.0074L-4.02993 37.089C-5.54971 37.7628 -6.66755 38.2592 -7.52453 38.6392L-7.53035 38.5699C-7.50705 38.5764 -7.49605 38.579 -7.48505 38.5822L-7.52323 38.6398C-8.40093 37.4651 -8.76793 36.9731 -8.90838 36.7854C-8.89867 36.7764 -8.77828 36.9226 -8.53879 37.221C-8.29672 37.5317 -7.94331 37.9848 -7.46886 38.5926L-7.40285 38.6774L-7.50705 38.6508C-7.51806 38.6483 -7.52906 38.645 -7.55236 38.6392L-7.65399 38.6133L-7.55819 38.5693C-6.70574 38.179 -5.59373 37.6702 -4.08171 36.9783L-3.92508 36.9065L-4.00405 37.0605C-4.01375 37.0786 -4.02281 37.0974 -4.03835 37.1265L-4.11602 37.278L-4.15033 37.111C-4.28302 36.467 -4.42607 35.7705 -4.62413 34.808L-4.63254 34.7672L-4.59953 34.7401C-4.03188 34.274 -3.46163 33.7239 -2.86097 32.8856L-2.83314 32.8468L-2.78589 32.8533C-2.0959 32.9497 -1.37161 33.0513 -0.450546 33.1802L-0.205885 33.2145L-0.419476 33.34C-0.446661 33.3562 -0.47385 33.3717 -0.509451 33.3931L-0.721756 33.518L-0.634369 33.2876C-0.226591 32.2138 0.208374 31.0675 0.721657 29.7134L0.820679 29.4525L0.905478 29.7186C0.916481 29.7522 0.926828 29.7859 0.94042 29.8286L1.02457 30.0933L0.792847 29.9393C0.187004 29.5367 -0.438248 29.1218 -1.18131 28.6286L-1.23373 28.5936L-1.22727 28.5308C-1.14248 27.7405 -1.14314 26.9146 -1.30042 25.9748L-1.31142 25.9094L-1.25769 25.8693C-0.665445 25.4246 -0.0576668 24.9689 0.638792 24.4459L0.900303 24.2498L0.81809 24.5663C0.807734 24.6065 0.797382 24.6459 0.785084 24.6932L0.702871 25.009L0.569538 24.7107C0.0789108 23.6129 -0.430481 22.475 -0.991661 21.2206L-1.13406 20.9028L-0.824017 21.0633C-0.785181 21.0834 -0.747004 21.1034 -0.70299 21.1261L-0.394232 21.286L-0.735346 21.3539C-1.47517 21.5022 -2.22988 21.653 -3.06615 21.82L-3.14124 21.8349L-3.18913 21.7753C-3.70242 21.1345 -4.30567 20.5455 -5.05132 20.0134L-5.1154 19.9675L-5.1044 19.8885C-4.99566 19.1338 -4.88497 18.3662 -4.76523 17.5325L-4.71086 17.1538L-4.51733 17.4839C-4.49403 17.5241 -4.47072 17.5635 -4.44483 17.6082L-4.25195 17.9377L-4.60924 17.8011C-5.75749 17.3609 -6.93422 16.9098 -8.17891 16.4328L-8.55045 16.2904L-8.17115 16.17C-8.12584 16.1557 -8.08118 16.1415 -8.03199 16.126L-7.65334 16.0056L-7.8747 16.3363C-8.30319 16.9771 -8.73686 17.6263 -9.19836 18.317L-9.24691 18.3895L-9.33234 18.3797C-10.1369 18.2878 -10.9732 18.2982 -11.8185 18.4335L-11.8302 18.4354H-11.8334H-11.834L-11.869 18.4386L-11.902 18.4251L-11.9098 18.4218L-11.8826 18.3519L-11.8761 18.3383L-11.8211 18.2011C-11.7939 18.1357 -11.801 18.1526 -11.801 18.1526L-11.8004 18.1532L-11.7984 18.1538L-11.7939 18.1558L-11.7842 18.1597L-11.781 18.161L-11.7654 18.1687L-11.7046 18.3526L-11.8632 18.438L-11.8819 18.4335L-11.8942 18.4289L-11.8994 18.427L-11.9376 18.4115L-12.0159 18.3797L-12.0535 18.3649L-12.0781 18.3318C-12.5279 17.7299 -12.9823 17.1208 -13.4593 16.4813L-13.7118 16.1434L-13.3033 16.2502C-13.2574 16.2625 -13.2108 16.2742 -13.1616 16.2871L-12.7525 16.3939L-13.1389 16.5655C-14.2781 17.0723 -15.4387 17.5875 -16.6329 18.1189L-17.0283 18.295L-16.829 17.9105C-16.807 17.8684 -16.785 17.8257 -16.7623 17.7817L-16.563 17.3965L-16.4788 17.8224C-16.3274 18.5869 -16.1746 19.3584 -16.0167 20.1571L-15.9985 20.2491L-16.0717 20.3073C-16.7325 20.8322 -17.3254 21.4484 -17.8348 22.1617L-17.8892 22.2381L-17.9837 22.2245C-18.7578 22.1119 -19.5385 21.9973 -20.3385 21.8808L-20.7831 21.8161L-20.3948 21.5889L-20.2744 21.5183L-19.8847 21.2899L-20.0472 21.7112C-20.4996 22.8847 -20.9586 24.0731 -21.4233 25.2777L-21.5877 25.7042L-21.7256 25.2686L-21.7663 25.1398L-21.9049 24.7022L-21.5236 24.9586C-20.8731 25.3955 -20.2174 25.8356 -19.552 26.2822L-19.4698 26.3372L-19.4808 26.4343C-19.5786 27.2745 -19.5618 28.1295 -19.4219 28.9794L-19.4058 29.0765L-19.4854 29.136C-20.1152 29.604 -20.7488 30.0752 -21.3883 30.5503L-21.7638 30.8293L-21.6453 30.3768L-21.6142 30.259L-21.4951 29.804L-21.3048 30.2344C-20.7954 31.3885 -20.2809 32.5536 -19.7605 33.7316L-19.5702 34.1627L-19.9889 33.9459L-20.0886 33.8941L-20.5106 33.6753L-20.044 33.584C-19.2757 33.4339 -18.5035 33.2837 -17.7261 33.1316L-17.6264 33.1122L-17.5636 33.1912C-17.0406 33.8501 -16.4296 34.4371 -15.739 34.9355L-15.6574 34.9944L-15.6723 35.0954C-15.7875 35.8689 -15.904 36.6456 -16.0206 37.4269L-16.0911 37.8981L-16.3312 37.4871L-16.3753 37.412L-16.6186 36.9958L-16.1694 37.1712C-14.9908 37.6314 -13.8037 38.0948 -12.6082 38.5615L-12.1641 38.735L-12.6192 38.8787L-12.6819 38.8987L-13.1447 39.045L-12.8723 38.6437C-12.4386 38.0055 -12.003 37.3654 -11.5602 36.7136L-11.5026 36.6294L-11.4017 36.6411C-10.9408 36.6942 -10.4748 36.7162 -10.0061 36.7019C-9.77054 36.6948 -9.53947 36.6799 -9.30257 36.6547L-8.93816 36.6191L-8.91745 36.6184C-8.9058 36.6204 -8.92134 36.6145 -8.86891 36.6243L-8.84754 36.6314C-8.78476 36.6016 -8.7045 36.8618 -8.75563 36.8553L-8.75757 36.8566L-8.76146 36.8599L-8.79382 36.8845C-8.81712 36.9006 -8.84301 36.9175 -8.87084 36.9324C-8.92457 36.9615 -8.99707 36.9822 -9.03914 36.9887L-9.22167 37.0139C-9.97185 37.1278 -10.7304 37.1233 -11.4224 37.0553L-12.034 36.9951L-11.4767 36.7349L-11.4411 36.7188L-10.9 36.4663L-11.2295 36.9641C-11.6742 37.6372 -12.1182 38.3078 -12.5273 38.9266L-12.6017 39.0386L-12.7279 38.9907C-13.9855 38.5117 -15.2361 38.0359 -16.3927 37.5958L-16.5183 37.5479L-16.4995 37.4152C-16.3843 36.61 -16.2697 35.8074 -16.1649 35.0728L-16.0795 34.476L-15.8451 35.0313C-15.8348 35.0566 -15.8238 35.0818 -15.8141 35.1051L-15.5824 35.6534L-16.0659 35.3058C-16.783 34.7905 -17.4206 34.1731 -17.9242 33.5478L-18.3009 33.0811L-17.7378 33.2869C-17.7093 33.2973 -17.6814 33.3077 -17.6556 33.3167L-17.0976 33.5206L-17.6801 33.6371C-18.4847 33.7976 -19.286 33.9575 -20.0155 34.1031L-20.1456 34.129L-20.1993 34.008C-20.7572 32.7562 -21.31 31.5141 -21.8162 30.3788L-21.8699 30.2584L-21.7644 30.1794C-21.1035 29.6856 -20.4459 29.1949 -19.8517 28.7503L-19.3818 28.3988L-19.6025 28.9418C-19.6161 28.9755 -19.6297 29.0092 -19.642 29.0396L-19.8614 29.5788L-19.9546 29.004C-20.097 28.1256 -20.1067 27.2344 -20.0194 26.4415L-19.9559 25.8647L-19.7113 26.3903C-19.6951 26.4246 -19.6796 26.4589 -19.6653 26.4894L-19.4213 27.0143L-19.9016 26.6926C-20.5909 26.2311 -21.2764 25.7722 -21.8932 25.3592L-22 25.288L-21.954 25.1683C-21.4563 23.875 -20.9637 22.5954 -20.5171 21.4361L-20.4718 21.3183L-20.3469 21.3365C-19.5223 21.4569 -18.7035 21.5766 -17.9714 21.6834L-17.4167 21.7643L-17.9332 21.9818C-17.9708 21.9973 -18.009 22.0135 -18.042 22.0271L-18.5546 22.2433L-18.229 21.7921C-17.7054 21.0672 -17.0795 20.429 -16.4613 19.9345L-16.0309 19.5901L-16.2206 20.1073C-16.2348 20.1461 -16.249 20.1856 -16.262 20.2193L-16.451 20.7358L-16.5571 20.196C-16.719 19.3759 -16.8788 18.5629 -17.0212 17.8386L-17.0445 17.7195L-16.9338 17.6703C-15.6568 17.1046 -14.3992 16.548 -13.2671 16.0464L-13.159 15.9984L-13.0884 16.0936C-12.5887 16.7661 -12.0936 17.4315 -11.6554 18.0212L-11.3434 18.4406L-11.8256 18.2438L-11.9052 18.2115L-11.9434 18.1959L-11.9544 18.1914L-11.9693 18.1836L-11.9907 18.1674L-11.8994 17.9144C-11.8321 17.9189 -11.8554 17.9221 -11.8437 17.9228L-11.8386 17.9247L-11.836 17.9254L-11.8269 17.9292L-11.8224 17.9312L-11.8204 17.9318H-11.8198C-11.8237 17.9415 -11.8094 17.9085 -11.8314 17.9603L-11.902 18.1312L-11.8942 18.1176L-11.9292 18.2011L-11.9369 18.1979L-12.3169 18.0419L-11.9234 17.9241H-11.9227L-11.9136 17.9215L-11.8994 17.9195C-11.0211 17.7784 -10.1214 17.7726 -9.34334 17.8606L-8.83848 17.9176L-9.29869 18.1312C-9.33688 18.1493 -9.37572 18.1668 -9.40873 18.1823L-9.87087 18.3966L-9.58672 17.9739C-9.1181 17.2768 -8.65401 16.5875 -8.24494 15.979L-8.1828 15.8865L-8.07924 15.9266C-6.77176 16.4334 -5.49146 16.9292 -4.34127 17.3752L-4.24159 17.414L-4.25713 17.5195C-4.38076 18.3519 -4.50244 19.1733 -4.60989 19.8963L-4.6785 20.3584L-4.85908 19.928C-4.87527 19.8898 -4.8908 19.8516 -4.9044 19.8193L-5.08498 19.3895L-4.70827 19.6626C-3.97945 20.1914 -3.34642 20.8186 -2.85967 21.4284L-2.57811 21.7811L-3.00143 21.6258C-3.03962 21.6115 -3.07781 21.598 -3.11017 21.5863L-3.53543 21.4303L-3.0914 21.3442C-2.26548 21.1837 -1.45317 21.0258 -0.738585 20.8866L-0.642782 20.8678L-0.603296 20.9572C-0.0382328 22.242 0.509993 23.4867 1.00515 24.6136L1.04205 24.6977L0.968252 24.7521C0.291212 25.2531 -0.370937 25.7424 -0.956066 26.1754L-1.27194 26.4091L-1.12306 26.046C-1.10882 26.0117 -1.09522 25.9774 -1.08357 25.9489L-0.934713 25.5851L-0.873854 25.9728C-0.734045 26.8635 -0.732754 27.747 -0.82143 28.5198L-0.864155 28.8875L-1.01949 28.5515C-1.03438 28.5192 -1.04927 28.4875 -1.06157 28.4603L-1.21821 28.1211L-0.908817 28.3302C-0.212358 28.8014 0.464037 29.2597 1.06664 29.6668L1.13202 29.7108L1.10354 29.7839C0.594143 31.0869 0.111917 32.3186 -0.340523 33.4753L-0.3664 33.5407L-0.435673 33.5303C-1.26612 33.4041 -2.06095 33.2831 -2.78654 33.1724L-3.06939 33.129L-2.8053 33.019C-2.77941 33.008 -2.75352 32.997 -2.73152 32.9879L-2.46614 32.8772L-2.63572 33.1083C-3.16842 33.8332 -3.77168 34.4391 -4.39305 34.931L-4.59111 35.0876L-4.50374 34.8514C-4.49467 34.8281 -4.48625 34.8041 -4.47914 34.7847L-4.39112 34.5446L-4.34386 34.7951C-4.18528 35.6339 -4.03835 36.4132 -3.90631 37.1116L-3.89725 37.1595L-3.94191 37.1783C-5.41509 37.8113 -6.61641 38.3279 -7.52582 38.7188L-7.5543 38.7311L-7.57178 38.7065C-8.0158 38.0819 -8.35303 37.6081 -8.5867 37.2799C-8.69349 37.1233 -8.77505 37.0036 -8.83589 36.9142C-8.88897 36.8243 -8.90838 36.7854 -8.90838 36.7854Z" fill="#7C5CFC"/>
<path fill-rule="evenodd" clip-rule="evenodd" d="M16.839 20.7871C15.7542 20.96 14.6649 20.9826 13.5975 20.8668L11.9237 23.3639L7.28214 21.5749L7.71647 18.6C6.84719 17.9702 6.05428 17.222 5.36624 16.3657L2.41794 16.9476L0.401692 12.4005L2.81148 10.605C2.63801 9.52017 2.616 8.43017 2.73251 7.36283L0.235352 5.68835L2.02375 1.04744L4.99859 1.48176C5.62838 0.612482 6.37663 -0.179776 7.23361 -0.867821L6.6517 -3.81612L11.1988 -5.83365L12.9943 -3.42323C14.0791 -3.5967 15.1684 -3.61935 16.2358 -3.5022L17.9103 -6L22.5518 -4.21095L22.1169 -1.23547C22.9861 -0.605679 23.7777 0.142564 24.4671 0.998898L27.4154 0.417651L29.4323 4.9647L27.0225 6.76022C27.196 7.84504 27.2186 8.93504 27.1014 10.0024L29.5986 11.6769L27.8102 16.3178L24.8347 15.8834C24.2049 16.7527 23.4567 17.545 22.5997 18.2337L23.1816 21.182L18.6352 23.1989L16.839 20.7871ZM16.8734 13.651C19.5666 12.4562 20.7822 9.30333 19.5873 6.60941C18.3925 3.91548 15.2396 2.70056 12.5457 3.89542C9.8518 5.09027 8.63687 8.24311 9.83172 10.937C11.0272 13.631 14.1794 14.8459 16.8734 13.651Z" fill="#7C5CFC"/>
<path d="M97.4874 30.804C97.4874 30.804 97.6253 30.8053 97.8978 30.8163C98.169 30.8422 98.5813 30.8098 99.1127 30.9108C100.176 31.0357 101.792 31.3807 103.61 32.4642C104.528 32.982 105.462 33.727 106.345 34.6805C107.226 35.6358 108.043 36.8294 108.628 38.2599C109.222 39.6851 109.543 41.3499 109.526 43.1267C109.528 44.8969 109.53 46.7818 109.532 48.7779C109.542 64.7525 109.556 87.8619 109.573 116.416C109.577 144.973 109.583 178.976 109.589 216.731C109.589 221.451 109.589 226.229 109.589 231.063C109.589 232.271 109.589 233.483 109.589 234.698C109.576 235.916 109.497 237.169 109.13 238.355C108.785 239.541 108.294 240.698 107.598 241.733C106.906 242.768 106.065 243.704 105.101 244.504C103.152 246.069 100.71 247.067 98.1787 247.191C95.6647 247.265 93.1689 247.21 90.6445 247.225C85.603 247.222 80.5129 247.22 75.3768 247.218C65.1053 247.212 54.652 247.207 44.0439 247.202C38.7396 247.2 33.397 247.196 28.0182 247.194C25.3288 247.192 22.631 247.19 19.9242 247.189C17.2076 247.328 14.3888 246.611 12.1168 245.033C9.83458 243.467 8.15039 241.098 7.36461 238.47C6.94194 237.16 6.86361 235.761 6.86426 234.414C6.86426 233.065 6.86491 231.718 6.86491 230.372C6.86621 224.992 6.86751 219.647 6.8688 214.341C6.87204 203.73 6.87463 193.274 6.87722 183C6.88499 162.452 6.8921 142.632 6.89857 123.751C6.90763 104.87 6.9167 86.9285 6.92447 70.1371C6.92965 61.7414 6.93418 53.6337 6.93871 45.84C6.93936 44.8659 6.94 43.8963 6.94065 42.9325C6.94712 42.4496 6.98207 41.9609 7.00796 41.4781C7.09276 41.001 7.12965 40.5156 7.25328 40.0495C7.69212 38.1725 8.56075 36.4158 9.77503 34.9698C10.9984 33.5316 12.5324 32.3917 14.2211 31.6467C15.9079 30.8855 17.7616 30.6169 19.55 30.6389C23.1197 30.6428 26.604 30.6467 30.0002 30.6506C31.698 30.6525 33.3744 30.6545 35.0275 30.6564C35.8541 30.6577 36.6754 30.6584 37.4903 30.6596C38.3137 30.6189 39.1726 30.8448 39.8496 31.3192C40.5273 31.793 41.0484 32.4759 41.3163 33.2448C41.6238 34.0151 41.5506 34.8462 41.5597 35.6125C41.5591 36.0028 41.5591 36.3918 41.5584 36.7796C41.5597 37.1692 41.5455 37.5543 41.596 37.922C41.6911 38.6644 42.005 39.3751 42.4911 39.9292C42.9675 40.4916 43.6213 40.8929 44.3235 41.067C44.6782 41.1557 45.031 41.1803 45.4038 41.1732C45.7734 41.1739 46.1417 41.1745 46.5081 41.1745C47.9748 41.1764 49.4169 41.1784 50.835 41.1803C56.5064 41.1887 61.7842 41.1965 66.6426 41.2036C69.0718 41.2075 71.3961 41.2114 73.6117 41.2153C74.1619 41.2056 74.7218 41.2405 75.2441 41.1946C75.771 41.1344 76.2746 40.9525 76.7115 40.6787C77.5918 40.1311 78.1892 39.2217 78.3918 38.2631C78.5018 37.7835 78.4824 37.2941 78.4856 36.8074C78.4863 36.3226 78.4876 35.8443 78.4882 35.3737C78.494 34.9057 78.4656 34.4352 78.551 33.9756C78.6293 33.5193 78.7847 33.0837 79.0028 32.6914C79.4352 31.9024 80.1368 31.3063 80.9168 31.0001C81.7038 30.6584 82.5414 30.7619 83.2974 30.7464C86.37 30.7548 88.9707 30.7613 91.0737 30.7671C93.1734 30.7755 94.7754 30.782 95.8557 30.7865C96.9353 30.7923 97.4874 30.804 97.4874 30.804C97.4874 30.804 96.9353 30.815 95.8583 30.8202C94.778 30.8234 93.176 30.8279 91.0763 30.8344C88.9733 30.8376 86.3726 30.8415 83.3 30.8461C82.5356 30.8642 81.7174 30.7658 80.9595 31.1004C80.2041 31.4001 79.5245 31.9801 79.107 32.7477C78.896 33.129 78.7471 33.5523 78.672 33.9957C78.5898 34.4371 78.619 34.9018 78.6144 35.3737C78.6151 35.8449 78.6151 36.3226 78.6157 36.8074C78.6138 37.2883 78.6352 37.7925 78.5225 38.2909C78.3154 39.2825 77.7005 40.225 76.7872 40.7965C76.3335 41.0826 75.8098 41.2729 75.2622 41.3363C74.7075 41.3849 74.1703 41.3506 73.6137 41.3616C71.3974 41.3629 69.0737 41.3635 66.6445 41.3648C61.7861 41.3661 56.5077 41.368 50.837 41.3693C49.4195 41.3693 47.9767 41.37 46.51 41.37C46.1437 41.37 45.7754 41.37 45.4058 41.37C45.0401 41.3784 44.6465 41.3525 44.2776 41.2593C43.5345 41.0768 42.8439 40.6528 42.341 40.0612C41.8277 39.478 41.4963 38.7304 41.3953 37.9492C41.3416 37.555 41.3565 37.164 41.3545 36.7796C41.3545 36.3918 41.3545 36.0035 41.3539 35.6125C41.3442 34.83 41.4128 34.041 41.1196 33.316C40.8652 32.5872 40.37 31.9419 39.7299 31.4953C39.0833 31.0487 38.2988 30.8383 37.4923 30.8771C36.6767 30.8771 35.856 30.8771 35.0288 30.8771C33.3757 30.8771 31.6992 30.8771 30.0015 30.8771C26.6053 30.8771 23.121 30.8771 19.5513 30.8771C17.7785 30.8577 15.9765 31.1224 14.3201 31.8707C12.667 32.6027 11.1647 33.7212 9.96791 35.1303C8.78018 36.5478 7.93161 38.2683 7.50377 40.1059C7.38273 40.5622 7.34778 41.0379 7.26493 41.5046C7.24034 41.979 7.20667 42.4516 7.2002 42.9325C7.2002 43.8969 7.20085 44.8659 7.20085 45.8406C7.20215 53.6344 7.20409 61.742 7.20603 70.1377C7.20732 86.9291 7.20926 104.871 7.2112 123.751C7.21056 142.632 7.20992 162.453 7.20927 183C7.20797 193.274 7.20667 203.73 7.20538 214.342C7.20473 219.647 7.20344 224.992 7.20279 230.373C7.20279 231.718 7.20214 233.065 7.20214 234.414C7.20278 235.758 7.27788 237.094 7.68889 238.374C8.45331 240.929 10.0902 243.232 12.3097 244.755C14.5298 246.289 17.2322 246.986 19.9255 246.852C22.6323 246.854 25.3302 246.855 28.0195 246.857C33.3983 246.86 38.7409 246.864 44.0452 246.867C54.6539 246.875 65.1066 246.882 75.3781 246.888C80.5142 246.892 85.6043 246.895 90.6458 246.899C93.1618 246.885 95.6861 246.939 98.1606 246.868C100.625 246.748 103.001 245.777 104.899 244.255C105.837 243.476 106.657 242.565 107.332 241.558C108.009 240.55 108.486 239.424 108.824 238.27C109.182 237.111 109.258 235.905 109.272 234.699C109.273 233.483 109.273 232.272 109.274 231.063C109.275 226.23 109.277 221.451 109.279 216.732C109.3 178.976 109.319 144.974 109.335 116.417C109.363 87.8618 109.386 64.7525 109.402 48.7786C109.405 46.7824 109.407 44.8976 109.411 43.1273C109.432 41.3616 109.119 39.7149 108.536 38.298C107.961 36.8779 107.154 35.6902 106.284 34.7381C105.411 33.7879 104.486 33.0422 103.576 32.5231C101.774 31.437 100.168 31.0817 99.1095 30.9457C98.58 30.8402 98.169 30.8661 97.8985 30.8344C97.6253 30.8169 97.4874 30.804 97.4874 30.804Z" fill="#7C5CFC"/>
<path d="M97.5762 90.2077C97.5762 90.1145 98.5904 90.0394 99.8416 90.0394C99.505 90.376 99.7484 90.132 99.6733 90.2071V90.2064V90.2045V90.2006V90.1935V90.1786V90.1495V90.0912L99.674 89.976L99.6765 89.7508C99.6798 89.611 99.683 89.4711 99.6863 89.3255C99.6947 89.0543 99.707 88.8103 99.7225 88.6051C99.7529 88.1954 99.795 87.9417 99.8416 87.9417C99.8882 87.9417 99.9303 88.1954 99.9607 88.6051C99.9756 88.8103 99.9885 89.0543 99.9969 89.3255C100 89.4711 100.003 89.611 100.007 89.7508L100.009 89.976L100.01 90.0912V90.1495V90.1786V90.1935V90.2006V90.2045V90.2064V90.2071C99.9348 90.2828 100.178 90.0394 99.841 90.3767C98.5911 90.376 97.5762 90.3009 97.5762 90.2077Z" fill="#7C5CFC"/>
<path d="M88.835 90.2083C88.835 90.1151 89.8136 90.04 91.0201 90.04C92.2273 90.04 93.2053 90.1158 93.2053 90.2083C93.2053 90.3015 92.2273 90.3766 91.0201 90.3766C89.813 90.3766 88.835 90.3015 88.835 90.2083Z" fill="#7C5CFC"/>
<path d="M80.0938 90.2083C80.0938 90.1151 81.0724 90.04 82.2789 90.04C83.4861 90.04 84.4647 90.1158 84.4647 90.2083C84.4647 90.3015 83.4867 90.3766 82.2789 90.3766C81.0724 90.3766 80.0938 90.3015 80.0938 90.2083Z" fill="#7C5CFC"/>
<path d="M71.3516 90.2083C71.3516 90.1151 72.3302 90.04 73.5367 90.04C74.7439 90.04 75.7225 90.1158 75.7225 90.2083C75.7225 90.3015 74.7439 90.3766 73.5367 90.3766C72.3302 90.3766 71.3516 90.3015 71.3516 90.2083Z" fill="#7C5CFC"/>
<path d="M62.6104 90.2083C62.6104 90.1151 63.589 90.04 64.7955 90.04C66.0027 90.04 66.9814 90.1158 66.9814 90.2083C66.9814 90.3015 66.0027 90.3766 64.7955 90.3766C63.5884 90.3766 62.6104 90.3015 62.6104 90.2083Z" fill="#7C5CFC"/>
<path d="M53.8682 90.2083C53.8682 90.1151 54.8468 90.04 56.0533 90.04C57.2605 90.04 58.2392 90.1158 58.2392 90.2083C58.2392 90.3015 57.2611 90.3766 56.0533 90.3766C54.8468 90.3766 53.8682 90.3015 53.8682 90.2083Z" fill="#7C5CFC"/>
<path d="M45.126 90.2083C45.126 90.1151 46.1046 90.04 47.3112 90.04C48.5183 90.04 49.497 90.1158 49.497 90.2083C49.497 90.3015 48.519 90.3766 47.3112 90.3766C46.1046 90.3766 45.126 90.3015 45.126 90.2083Z" fill="#7C5CFC"/>
<path d="M36.3848 90.2083C36.3848 90.1151 37.3634 90.04 38.5699 90.04C39.7771 90.04 40.7558 90.1158 40.7558 90.2083C40.7558 90.3015 39.7771 90.3766 38.5699 90.3766C37.3634 90.3766 36.3848 90.3015 36.3848 90.2083Z" fill="#7C5CFC"/>
<path d="M27.6426 90.2083C27.6426 90.1151 28.6212 90.04 29.8277 90.04C31.0349 90.04 32.0129 90.1158 32.0129 90.2083C32.0129 90.3015 31.0349 90.3766 29.8277 90.3766C28.6212 90.3766 27.6426 90.3015 27.6426 90.2083Z" fill="#7C5CFC"/>
<path d="M21.0065 87.9421C21.0997 87.9421 21.1748 88.9564 21.1748 90.2076C20.8382 89.871 21.0822 90.1144 21.0071 90.0393H21.0084H21.0104H21.0143H21.0214H21.0363H21.0654H21.1236L21.2389 90.0399L21.4641 90.0425C21.6039 90.0458 21.7437 90.049 21.8894 90.0522C22.1606 90.0606 22.4046 90.0729 22.6091 90.0885C23.0189 90.1189 23.2726 90.161 23.2726 90.2076C23.2726 90.2542 23.0189 90.2963 22.6091 90.3267C22.404 90.3422 22.1599 90.3545 21.8894 90.3629C21.7437 90.3662 21.6039 90.3694 21.4641 90.3726L21.2389 90.3752L21.1236 90.3759H21.0654H21.0356H21.0207H21.0136H21.0097H21.0078H21.0065C20.9314 90.3008 21.1741 90.5442 20.8369 90.2069C20.8382 88.9564 20.9133 87.9421 21.0065 87.9421Z" fill="#7C5CFC"/>
<path d="M21.0062 79.0754C21.0994 79.0754 21.1745 80.0677 21.1745 81.2917C21.1745 82.5163 21.0987 83.5086 21.0062 83.5086C20.9136 83.5086 20.8379 82.5163 20.8379 81.2917C20.8379 80.0677 20.913 79.0754 21.0062 79.0754Z" fill="#7C5CFC"/>
<path d="M21.0062 70.2097C21.0994 70.2097 21.1745 71.202 21.1745 72.426C21.1745 73.6506 21.0987 74.6428 21.0062 74.6428C20.9136 74.6428 20.8379 73.6506 20.8379 72.426C20.8379 71.202 20.913 70.2097 21.0062 70.2097Z" fill="#7C5CFC"/>
<path d="M23.2717 63.5115C23.2717 63.6047 22.2574 63.6798 21.0062 63.6798C21.3428 63.3432 21.0995 63.5872 21.1745 63.5121V63.5128V63.5147V63.5186V63.5257V63.5406V63.5697V63.628L21.1739 63.7432L21.1713 63.9684C21.1681 64.1082 21.1648 64.2481 21.1616 64.3937C21.1532 64.6649 21.1409 64.9089 21.1253 65.1141C21.0949 65.5238 21.0528 65.7775 21.0062 65.7775C20.9596 65.7775 20.9176 65.5238 20.8871 65.1141C20.8716 64.9089 20.8593 64.6649 20.8509 64.3937C20.8477 64.2481 20.8444 64.1082 20.8412 63.9684L20.8386 63.7432L20.838 63.628V63.5697V63.5406V63.5257V63.5186V63.5147V63.5128V63.5121C20.913 63.4364 20.6697 63.6798 21.0062 63.3425C22.2574 63.3432 23.2717 63.4183 23.2717 63.5115Z" fill="#7C5CFC"/>
<path d="M32.0136 63.5113C32.0136 63.6045 31.0349 63.6796 29.8284 63.6796C28.6212 63.6796 27.6426 63.6039 27.6426 63.5113C27.6426 63.4181 28.6206 63.343 29.8284 63.343C31.0349 63.343 32.0136 63.4181 32.0136 63.5113Z" fill="#7C5CFC"/>
<path d="M40.7558 63.5113C40.7558 63.6045 39.7771 63.6796 38.5706 63.6796C37.3634 63.6796 36.3848 63.6039 36.3848 63.5113C36.3848 63.4181 37.3628 63.343 38.5706 63.343C39.7771 63.343 40.7558 63.4181 40.7558 63.5113Z" fill="#7C5CFC"/>
<path d="M49.497 63.5113C49.497 63.6045 48.5183 63.6796 47.3118 63.6796C46.1047 63.6796 45.126 63.6039 45.126 63.5113C45.126 63.4181 46.1047 63.343 47.3118 63.343C48.5183 63.343 49.497 63.4181 49.497 63.5113Z" fill="#7C5CFC"/>
<path d="M58.2385 63.5113C58.2385 63.6045 57.2598 63.6796 56.0533 63.6796C54.8462 63.6796 53.8682 63.6039 53.8682 63.5113C53.8682 63.4181 54.8462 63.343 56.0533 63.343C57.2598 63.343 58.2385 63.4181 58.2385 63.5113Z" fill="#7C5CFC"/>
<path d="M66.9814 63.5113C66.9814 63.6045 66.0027 63.6796 64.7962 63.6796C63.589 63.6796 62.6104 63.6039 62.6104 63.5113C62.6104 63.4181 63.589 63.343 64.7962 63.343C66.0027 63.343 66.9814 63.4181 66.9814 63.5113Z" fill="#7C5CFC"/>
<path d="M75.7225 63.5113C75.7225 63.6045 74.7439 63.6796 73.5374 63.6796C72.3302 63.6796 71.3516 63.6039 71.3516 63.5113C71.3516 63.4181 72.3302 63.343 73.5374 63.343C74.7439 63.343 75.7225 63.4181 75.7225 63.5113Z" fill="#7C5CFC"/>
<path d="M84.4641 63.5113C84.4641 63.6045 83.4854 63.6796 82.2789 63.6796C81.0718 63.6796 80.0938 63.6039 80.0938 63.5113C80.0938 63.4181 81.0718 63.343 82.2789 63.343C83.4854 63.343 84.4641 63.4181 84.4641 63.5113Z" fill="#7C5CFC"/>
<path d="M93.206 63.5113C93.206 63.6045 92.2273 63.6796 91.0208 63.6796C89.8136 63.6796 88.835 63.6039 88.835 63.5113C88.835 63.4181 89.8136 63.343 91.0208 63.343C92.2279 63.343 93.206 63.4181 93.206 63.5113Z" fill="#7C5CFC"/>
<path d="M99.8423 65.7766C99.7491 65.7766 99.674 64.7623 99.674 63.5111C100.011 63.8477 99.7665 63.6043 99.8416 63.6794H99.839H99.8351H99.828H99.8131H99.784H99.7258L99.6105 63.6788L99.3853 63.6762C99.2455 63.6729 99.1057 63.6697 98.96 63.6665C98.6888 63.6581 98.4448 63.6458 98.2396 63.6302C97.8299 63.5998 97.5762 63.5577 97.5762 63.5111C97.5762 63.4645 97.8299 63.4225 98.2396 63.392C98.4448 63.3771 98.6888 63.3642 98.96 63.3558C99.1057 63.3525 99.2455 63.3493 99.3853 63.3461L99.6105 63.3435L99.7258 63.3428H99.784H99.8131H99.828H99.8351H99.839H99.841C99.9167 63.4179 99.674 63.1746 100.011 63.5111C100.011 64.7623 99.9355 65.7766 99.8423 65.7766Z" fill="#7C5CFC"/>
<path d="M99.8421 74.6428C99.7489 74.6428 99.6738 73.6506 99.6738 72.4266C99.6738 71.202 99.7496 70.2097 99.8421 70.2097C99.9353 70.2097 100.01 71.202 100.01 72.4266C100.011 73.6506 99.9353 74.6428 99.8421 74.6428Z" fill="#7C5CFC"/>
<path d="M99.8421 83.5086C99.7489 83.5086 99.6738 82.5163 99.6738 81.2923C99.6738 80.0677 99.7496 79.0754 99.8421 79.0754C99.9353 79.0754 100.01 80.0677 100.01 81.2923C100.011 82.5163 99.9353 83.5086 99.8421 83.5086Z" fill="#7C5CFC"/>
<path d="M21.8822 62.8167H20.4932V64.2057H21.8822V62.8167Z" fill="#7C5CFC"/>
<path d="M21.7006 89.5132H20.3115V90.9022H21.7006V89.5132Z" fill="#7C5CFC"/>
<path d="M61.1195 89.5132H59.7305V90.9022H61.1195V89.5132Z" fill="#7C5CFC"/>
<path d="M61.1195 62.5239H59.7305V63.913H61.1195V62.5239Z" fill="#7C5CFC"/>
<path d="M99.8055 50.2199C99.8061 50.2716 97.8248 50.3292 95.3808 50.3499C92.936 50.37 90.9547 50.3448 90.9541 50.293C90.9535 50.2412 92.9347 50.1836 95.3788 50.1629C97.8229 50.1428 99.8048 50.1681 99.8055 50.2199Z" fill="#263238"/>
<path d="M99.824 52.4845C99.8247 52.5363 97.8434 52.5945 95.3993 52.6146C92.9546 52.6347 90.9733 52.6094 90.9727 52.5576C90.972 52.5059 92.9526 52.4483 95.3974 52.4275C97.8421 52.4075 99.824 52.4327 99.824 52.4845Z" fill="#263238"/>
<path d="M99.8426 54.7498C99.8432 54.8016 97.8619 54.8598 95.4179 54.8799C92.9731 54.8999 90.9919 54.8747 90.9912 54.8229C90.9906 54.7711 92.9718 54.7135 95.4159 54.6928C97.8607 54.6734 99.8426 54.6986 99.8426 54.7498Z" fill="#263238"/>
<path d="M72.769 129.474C72.769 129.56 66.6504 129.629 59.1052 129.629C51.5568 129.629 45.4395 129.56 45.4395 129.474C45.4395 129.388 51.5568 129.319 59.1052 129.319C66.6504 129.319 72.769 129.388 72.769 129.474Z" fill="#E0E0E0"/>
<path d="M94.5605 135.083C94.5605 135.169 83.5635 135.239 70.0013 135.239C56.4339 135.239 45.4395 135.169 45.4395 135.083C45.4395 134.997 56.4339 134.928 70.0013 134.928C83.5635 134.927 94.5605 134.997 94.5605 135.083Z" fill="#263238"/>
<path d="M93.9832 139.089C93.9832 139.175 83.1155 139.244 69.7126 139.244C56.3051 139.244 45.4395 139.174 45.4395 139.089C45.4395 139.003 56.3051 138.934 69.7126 138.934C83.1149 138.934 93.9832 139.003 93.9832 139.089Z" fill="#263238"/>
<path d="M74.1004 142.909C74.1004 142.995 67.6841 143.064 59.7706 143.064C51.8545 143.064 45.4395 142.994 45.4395 142.909C45.4395 142.822 51.8545 142.753 59.7706 142.753C67.6841 142.753 74.1004 142.822 74.1004 142.909Z" fill="#263238"/>
<path d="M72.769 190.442C72.769 190.529 66.6504 190.598 59.1052 190.598C51.5568 190.598 45.4395 190.528 45.4395 190.442C45.4395 190.356 51.5568 190.287 59.1052 190.287C66.6504 190.286 72.769 190.356 72.769 190.442Z" fill="#E0E0E0"/>
<path d="M94.5605 196.052C94.5605 196.138 83.5635 196.207 70.0013 196.207C56.4339 196.207 45.4395 196.138 45.4395 196.052C45.4395 195.967 56.4339 195.897 70.0013 195.897C83.5635 195.897 94.5605 195.967 94.5605 196.052Z" fill="#263238"/>
<path d="M93.9832 200.056C93.9832 200.143 83.1155 200.212 69.7126 200.212C56.3051 200.212 45.4395 200.142 45.4395 200.056C45.4395 199.97 56.3051 199.901 69.7126 199.901C83.1149 199.901 93.9832 199.97 93.9832 200.056Z" fill="#263238"/>
<path d="M72.8432 101.89C72.8432 101.976 66.7246 102.045 59.1788 102.045C51.6303 102.045 45.5137 101.975 45.5137 101.89C45.5137 101.804 51.631 101.734 59.1788 101.734C66.7253 101.734 72.8432 101.804 72.8432 101.89Z" fill="#7C5CFC"/>
<path d="M94.6357 107.499C94.6357 107.585 83.6387 107.654 70.0765 107.654C56.5091 107.654 45.5146 107.585 45.5146 107.499C45.5146 107.413 56.5091 107.344 70.0765 107.344C83.6387 107.344 94.6357 107.413 94.6357 107.499Z" fill="#263238"/>
<path d="M94.0577 111.506C94.0577 111.593 83.1901 111.662 69.7872 111.662C56.3797 111.662 45.5146 111.592 45.5146 111.506C45.5146 111.42 56.3797 111.351 69.7872 111.351C83.1901 111.35 94.0577 111.42 94.0577 111.506Z" fill="#263238"/>
<path d="M74.1756 115.327C74.1756 115.413 67.7593 115.482 59.8458 115.482C51.9297 115.482 45.5146 115.412 45.5146 115.327C45.5146 115.241 51.9297 115.172 59.8458 115.172C67.7586 115.172 74.1756 115.241 74.1756 115.327Z" fill="#263238"/>
<path d="M33.7266 116.504C33.7266 116.411 34.7408 116.335 35.992 116.335C37.2432 116.335 38.2574 116.411 38.2574 116.504C38.2574 116.597 37.2432 116.672 35.992 116.672C34.7408 116.672 33.7266 116.596 33.7266 116.504Z" fill="#7C5CFC"/>
<path d="M24.665 116.504C24.665 116.411 25.6793 116.335 26.9305 116.335C28.1816 116.335 29.1959 116.411 29.1959 116.504C29.1959 116.597 28.1816 116.672 26.9305 116.672C25.6793 116.672 24.665 116.596 24.665 116.504Z" fill="#7C5CFC"/>
<path d="M22.9906 109.116C23.0838 109.116 23.1589 110.13 23.1589 111.381C23.1589 112.633 23.0831 113.647 22.9906 113.647C22.898 113.647 22.8223 112.633 22.8223 111.381C22.8223 110.13 22.898 109.116 22.9906 109.116Z" fill="#7C5CFC"/>
<path d="M24.1725 101.237C24.1725 101.301 23.6974 101.356 22.9906 101.385L23.1381 101.237C23.1511 101.555 23.1589 101.926 23.1589 102.321C23.1589 103.572 23.0831 104.586 22.9906 104.586C22.898 104.586 22.8223 103.572 22.8223 102.321C22.8223 101.926 22.83 101.555 22.843 101.237L22.8495 101.084L22.9912 101.09C23.6974 101.118 24.1725 101.173 24.1725 101.237Z" fill="#7C5CFC"/>
<path d="M33.234 101.236C33.234 101.329 32.2197 101.404 30.9686 101.404C29.7174 101.404 28.7031 101.329 28.7031 101.236C28.7031 101.143 29.7174 101.068 30.9686 101.068C32.2197 101.068 33.234 101.144 33.234 101.236Z" fill="#7C5CFC"/>
<path d="M38.2572 105.275C38.164 105.275 38.0889 104.26 38.0889 103.009C38.0889 102.287 38.1142 101.644 38.153 101.236L38.2572 101.341C37.9459 101.312 37.7646 101.276 37.7646 101.236C37.7646 101.197 37.9459 101.161 38.2572 101.132L38.3504 101.124L38.3614 101.236C38.4003 101.644 38.4255 102.287 38.4255 103.009C38.4262 104.26 38.3504 105.275 38.2572 105.275Z" fill="#7C5CFC"/>
<path d="M38.2581 114.337C38.1649 114.337 38.0898 113.322 38.0898 112.071C38.0898 110.82 38.1656 109.806 38.2581 109.806C38.3507 109.806 38.4264 110.82 38.4264 112.071C38.4271 113.322 38.3513 114.337 38.2581 114.337Z" fill="#7C5CFC"/>
<path d="M38.9407 115.761H37.25V117.452H38.9407V115.761Z" fill="#7C5CFC"/>
<path d="M38.9407 99.9771H37.25V101.668H38.9407V99.9771Z" fill="#7C5CFC"/>
<path d="M23.8362 115.761H22.1455V117.452H23.8362V115.761Z" fill="#7C5CFC"/>
<path d="M23.8362 100.391H22.1455V102.082H23.8362V100.391Z" fill="#7C5CFC"/>
<path d="M33.7266 144.613C33.7266 144.52 34.7408 144.445 35.992 144.445C37.2432 144.445 38.2574 144.521 38.2574 144.613C38.2574 144.706 37.2432 144.781 35.992 144.781C34.7408 144.781 33.7266 144.706 33.7266 144.613Z" fill="#E0E0E0"/>
<path d="M24.665 144.613C24.665 144.52 25.6793 144.445 26.9305 144.445C28.1816 144.445 29.1959 144.521 29.1959 144.613C29.1959 144.706 28.1816 144.781 26.9305 144.781C25.6793 144.781 24.665 144.706 24.665 144.613Z" fill="#E0E0E0"/>
<path d="M22.9906 137.225C23.0838 137.225 23.1589 138.24 23.1589 139.491C23.1589 140.742 23.0831 141.756 22.9906 141.756C22.898 141.756 22.8223 140.742 22.8223 139.491C22.8223 138.24 22.898 137.225 22.9906 137.225Z" fill="#E0E0E0"/>
<path d="M24.1725 129.346C24.1725 129.41 23.6974 129.465 22.9906 129.494L23.1381 129.346C23.1511 129.664 23.1589 130.035 23.1589 130.43C23.1589 131.681 23.0831 132.695 22.9906 132.695C22.898 132.695 22.8223 131.681 22.8223 130.43C22.8223 130.035 22.83 129.664 22.843 129.346L22.8495 129.193L22.9912 129.199C23.6974 129.227 24.1725 129.283 24.1725 129.346Z" fill="#E0E0E0"/>
<path d="M33.234 129.346C33.234 129.439 32.2197 129.514 30.9686 129.514C29.7174 129.514 28.7031 129.438 28.7031 129.346C28.7031 129.253 29.7174 129.177 30.9686 129.177C32.2197 129.177 33.234 129.253 33.234 129.346Z" fill="#E0E0E0"/>
<path d="M38.2572 133.384C38.164 133.384 38.0889 132.37 38.0889 131.119C38.0889 130.396 38.1142 129.753 38.153 129.346L38.2572 129.45C37.9459 129.422 37.7646 129.385 37.7646 129.346C37.7646 129.306 37.9459 129.27 38.2572 129.242L38.3504 129.233L38.3614 129.346C38.4003 129.753 38.4255 130.396 38.4255 131.119C38.4262 132.37 38.3504 133.384 38.2572 133.384Z" fill="#E0E0E0"/>
<path d="M38.2572 142.446C38.164 142.446 38.0889 141.432 38.0889 140.18C38.0889 138.929 38.1646 137.915 38.2572 137.915C38.3497 137.915 38.4254 138.929 38.4254 140.18C38.4261 141.432 38.3504 142.446 38.2572 142.446Z" fill="#E0E0E0"/>
<path d="M38.9407 143.869H37.25V145.56H38.9407V143.869Z" fill="#E0E0E0"/>
<path d="M38.9407 128.085H37.25V129.776H38.9407V128.085Z" fill="#E0E0E0"/>
<path d="M23.8362 143.869H22.1455V145.56H23.8362V143.869Z" fill="#E0E0E0"/>
<path d="M23.8362 128.5H22.1455V130.191H23.8362V128.5Z" fill="#E0E0E0"/>
<path d="M33.8086 174.38C33.8086 174.287 34.8229 174.211 36.074 174.211C37.3252 174.211 38.3395 174.287 38.3395 174.38C38.3395 174.473 37.3252 174.548 36.074 174.548C34.8229 174.549 33.8086 174.473 33.8086 174.38Z" fill="#7C5CFC"/>
<path d="M24.7471 174.38C24.7471 174.287 25.7613 174.211 27.0125 174.211C28.2637 174.211 29.2779 174.287 29.2779 174.38C29.2779 174.473 28.2637 174.548 27.0125 174.548C25.7613 174.549 24.7471 174.473 24.7471 174.38Z" fill="#7C5CFC"/>
<path d="M23.0726 166.993C23.1658 166.993 23.2409 168.007 23.2409 169.258C23.2409 170.509 23.1652 171.524 23.0726 171.524C22.9794 171.524 22.9043 170.509 22.9043 169.258C22.9043 168.007 22.9794 166.993 23.0726 166.993Z" fill="#7C5CFC"/>
<path d="M24.2545 159.113C24.2545 159.177 23.7794 159.232 23.0726 159.261L23.2202 159.113C23.2331 159.431 23.2409 159.802 23.2409 160.197C23.2409 161.448 23.1652 162.462 23.0726 162.462C22.9794 162.462 22.9043 161.448 22.9043 160.197C22.9043 159.802 22.9121 159.431 22.925 159.113L22.9315 158.96L23.0732 158.966C23.7794 158.994 24.2545 159.05 24.2545 159.113Z" fill="#7C5CFC"/>
<path d="M33.316 159.113C33.316 159.206 32.3018 159.281 31.0506 159.281C29.7994 159.281 28.7852 159.206 28.7852 159.113C28.7852 159.02 29.7994 158.945 31.0506 158.945C32.3018 158.945 33.316 159.021 33.316 159.113Z" fill="#7C5CFC"/>
<path d="M38.3399 163.151C38.2467 163.151 38.171 162.137 38.171 160.886C38.171 160.164 38.1962 159.52 38.235 159.113L38.3393 159.217C38.0279 159.189 37.8467 159.153 37.8467 159.113C37.8467 159.074 38.0279 159.037 38.3393 159.009L38.4325 159L38.4435 159.113C38.4823 159.52 38.5075 160.164 38.5075 160.886C38.5082 162.137 38.4331 163.151 38.3399 163.151Z" fill="#7C5CFC"/>
<path d="M38.3398 172.213C38.2466 172.213 38.1709 171.199 38.1709 169.948C38.1709 168.697 38.2466 167.682 38.3398 167.682C38.4331 167.682 38.5081 168.697 38.5081 169.948C38.5081 171.199 38.4331 172.213 38.3398 172.213Z" fill="#7C5CFC"/>
<path d="M39.0207 173.635H37.3301V175.326H39.0207V173.635Z" fill="#7C5CFC"/>
<path d="M39.0207 157.853H37.3301V159.543H39.0207V157.853Z" fill="#7C5CFC"/>
<path d="M23.9172 173.635H22.2266V175.326H23.9172V173.635Z" fill="#7C5CFC"/>
<path d="M23.9172 158.267H22.2266V159.957H23.9172V158.267Z" fill="#7C5CFC"/>
<path d="M22.9915 196.677C23.0847 196.677 23.1598 197.691 23.1598 198.942C23.1598 200.193 23.0841 201.208 22.9915 201.208C22.899 201.208 22.8232 200.193 22.8232 198.942C22.8232 197.691 22.899 196.677 22.9915 196.677Z" fill="#E0E0E0"/>
<path d="M24.1734 188.798C24.1734 188.862 23.6984 188.917 22.9915 188.946L23.1391 188.798C23.1521 189.116 23.1598 189.487 23.1598 189.882C23.1598 191.133 23.0841 192.147 22.9915 192.147C22.899 192.147 22.8232 191.133 22.8232 189.882C22.8232 189.487 22.831 189.116 22.844 188.798L22.8504 188.645L22.9922 188.651C23.6984 188.678 24.1734 188.734 24.1734 188.798Z" fill="#E0E0E0"/>
<path d="M33.235 188.797C33.235 188.891 32.2207 188.966 30.9695 188.966C29.7184 188.966 28.7041 188.89 28.7041 188.797C28.7041 188.705 29.7184 188.629 30.9695 188.629C32.2207 188.629 33.235 188.704 33.235 188.797Z" fill="#E0E0E0"/>
<path d="M38.2582 192.837C38.165 192.837 38.0899 191.822 38.0899 190.571C38.0899 189.849 38.1152 189.206 38.154 188.798L38.2582 188.903C37.9469 188.874 37.7656 188.838 37.7656 188.798C37.7656 188.759 37.9469 188.723 38.2582 188.694L38.3514 188.686L38.3624 188.798C38.4012 189.206 38.4265 189.849 38.4265 190.571C38.4271 191.822 38.3514 192.837 38.2582 192.837Z" fill="#E0E0E0"/>
<path d="M38.2581 201.898C38.1649 201.898 38.0898 200.883 38.0898 199.632C38.0898 198.38 38.1656 197.367 38.2581 197.367C38.3507 197.367 38.4264 198.381 38.4264 199.632C38.4271 200.883 38.3513 201.898 38.2581 201.898Z" fill="#E0E0E0"/>
<path d="M38.9407 187.539H37.25V189.229H38.9407V187.539Z" fill="#E0E0E0"/>
<path d="M23.8362 187.953H22.1455V189.644H23.8362V187.953Z" fill="#E0E0E0"/>
<path d="M72.1909 158.597C72.1909 158.683 66.0723 158.752 58.5264 158.752C50.978 158.752 44.8613 158.682 44.8613 158.597C44.8613 158.511 50.9786 158.441 58.5264 158.441C66.0723 158.441 72.1909 158.511 72.1909 158.597Z" fill="#7C5CFC"/>
<path d="M93.9834 164.206C93.9834 164.292 82.9863 164.361 69.4241 164.361C55.8568 164.361 44.8623 164.292 44.8623 164.206C44.8623 164.12 55.8568 164.051 69.4241 164.051C82.9857 164.051 93.9834 164.12 93.9834 164.206Z" fill="#263238"/>
<path d="M93.405 168.213C93.405 168.299 82.5374 168.369 69.1345 168.369C55.727 168.369 44.8613 168.299 44.8613 168.213C44.8613 168.127 55.727 168.058 69.1345 168.058C82.5374 168.057 93.405 168.127 93.405 168.213Z" fill="#263238"/>
<path d="M73.5223 172.034C73.5223 172.12 67.1059 172.19 59.1925 172.19C51.2764 172.19 44.8613 172.12 44.8613 172.034C44.8613 171.948 51.2764 171.878 59.1925 171.878C67.1059 171.878 73.5223 171.948 73.5223 172.034Z" fill="#263238"/>
<path d="M21.2804 54.4539C21.2837 54.4507 21.3445 54.4468 21.4591 54.4423C21.5995 54.4378 21.7626 54.4319 21.9555 54.4261C22.4241 54.4151 23.0365 54.4002 23.7886 54.3827L23.7381 54.4345C23.7316 54.028 23.7245 53.584 23.7167 53.1057C23.7193 52.8584 23.6954 52.6254 23.7193 52.3406C23.7685 52.0558 24.0222 51.8047 24.3342 51.7756C24.63 51.7697 24.8896 51.7561 25.21 51.771C25.5401 51.8112 25.821 52.129 25.8113 52.4791C25.8184 53.0992 25.8255 53.7465 25.8333 54.4177L25.7485 54.3342C26.4909 54.3264 27.2638 54.3187 28.0605 54.3109L27.9725 54.4002C27.9641 53.4688 27.9557 52.5063 27.9466 51.5192C27.9447 51.2733 27.9421 51.0286 27.9401 50.7859C27.9389 50.5593 27.8016 50.4085 27.6152 50.2396C27.2728 49.9024 26.9362 49.5697 26.6042 49.2434C26.2734 48.9166 25.9479 48.5955 25.6288 48.281C25.4695 48.1237 25.3122 47.9683 25.1563 47.8143C24.9938 47.6576 24.8663 47.4958 24.6779 47.4576C24.4954 47.4084 24.2941 47.4473 24.1472 47.5593C24.0074 47.6777 23.8578 47.8454 23.7167 47.9826C23.4319 48.27 23.1555 48.5489 22.8869 48.8195C22.3652 49.3619 21.8215 49.8571 21.4267 50.325C21.2604 50.5833 21.3225 50.8998 21.3102 51.1878C21.3095 51.4746 21.3089 51.7458 21.3082 52.0027C21.305 52.5024 21.3024 52.94 21.2998 53.3148C21.2959 53.65 21.2927 53.9271 21.2908 54.1543C21.2882 54.3452 21.2843 54.4501 21.2804 54.4539C21.2759 54.4585 21.2707 54.3627 21.2642 54.1756C21.2578 53.9523 21.2506 53.6798 21.2409 53.3497C21.2325 52.9717 21.2222 52.5303 21.2112 52.0267C21.2066 51.7652 21.2014 51.4882 21.1956 51.1963C21.193 51.0487 21.1911 50.8972 21.1885 50.7419C21.1872 50.5775 21.2293 50.4079 21.316 50.2577C21.7439 49.7334 22.2539 49.2693 22.7801 48.712C23.0462 48.4395 23.3206 48.158 23.6035 47.8686C23.7517 47.723 23.8734 47.578 24.0494 47.4266C24.2346 47.2848 24.4883 47.2337 24.72 47.2945C24.966 47.3489 25.1258 47.5508 25.2753 47.6913C25.432 47.8447 25.5899 47.9994 25.7498 48.156C26.0695 48.4693 26.3958 48.7897 26.7278 49.1153C27.0599 49.4415 27.3977 49.7729 27.7408 50.1095C27.8217 50.1956 27.9194 50.2681 27.999 50.3891C28.0741 50.5043 28.1169 50.6409 28.1201 50.7788C28.122 51.0228 28.1246 51.2687 28.1266 51.516C28.1343 52.5024 28.1414 53.4656 28.1486 54.397L28.1492 54.4857L28.0605 54.4863C27.2638 54.4915 26.4909 54.4967 25.7485 54.5012L25.6637 54.5018L25.6631 54.4177C25.6598 53.7465 25.6559 53.0986 25.6527 52.4791C25.6624 52.2002 25.4449 51.9535 25.1854 51.9179C24.9193 51.9037 24.6061 51.9128 24.3465 51.9154C24.098 51.9361 23.8909 52.1354 23.8481 52.3646C23.8261 52.5969 23.8429 52.8681 23.8384 53.1031C23.8384 53.5821 23.8384 54.0261 23.8391 54.4319V54.4837L23.7879 54.4831C23.0235 54.4779 22.4008 54.4734 21.9244 54.4701C21.7361 54.4669 21.5769 54.4643 21.439 54.4617C21.3315 54.4604 21.2765 54.4578 21.2804 54.4539Z" fill="#7C5CFC"/>
<path d="M22.1808 74.0828C22.1808 74.6472 21.7232 75.1049 21.1587 75.1049C20.5943 75.1049 20.1367 74.6472 20.1367 74.0828C20.1367 73.5184 20.5943 73.0608 21.1587 73.0608C21.7232 73.0608 22.1808 73.5184 22.1808 74.0828Z" fill="#7C5CFC"/>
<path d="M40.8181 82.4173C40.787 82.4186 40.7864 82.1862 40.6731 81.7991C40.5611 81.4192 40.2938 80.8677 39.7197 80.4476C39.1643 80.0263 38.2595 79.7952 37.3883 80.124C36.5242 80.4256 35.7817 81.3454 35.7914 82.4173C35.7817 83.4898 36.5248 84.4089 37.3883 84.7112C38.2595 85.04 39.1643 84.8089 39.7197 84.3876C40.2938 83.9675 40.5605 83.416 40.6731 83.0361C40.787 82.649 40.787 82.4166 40.8181 82.4173C40.833 82.416 40.8789 82.6497 40.8006 83.0671C40.7223 83.4756 40.4744 84.0898 39.8647 84.5766C39.2763 85.064 38.2724 85.3565 37.2827 85.0025C36.3021 84.6808 35.4426 83.6393 35.4542 82.4166C35.4426 81.1946 36.3021 80.1531 37.2827 79.8315C38.2724 79.478 39.2757 79.7706 39.864 80.2574C40.4738 80.7441 40.7217 81.3577 40.8 81.7668C40.8796 82.1849 40.833 82.4192 40.8181 82.4173Z" fill="#7C5CFC"/>
<path d="M176.996 247.209L100.953 247.163C91.8071 247.159 84.3965 239.742 84.3984 230.596L84.436 39.9552C84.4379 30.8041 91.8588 23.3884 101.01 23.3936L177.053 23.4382C186.199 23.4434 193.609 30.8604 193.607 40.0057L193.57 230.646C193.568 239.799 186.146 247.215 176.996 247.209Z" fill="#263238"/>
<path d="M176.972 30.1823L162.228 30.1739C160.252 30.1726 158.648 31.8477 158.648 33.9144L158.647 36.5889C158.647 38.6557 157.043 40.3308 155.066 40.3295L126.328 40.3127C124.352 40.312 122.749 38.6349 122.749 36.5682L122.75 33.8937C122.75 31.827 121.147 30.1499 119.17 30.1493L113.985 30.146L101.081 30.1389C94.6726 30.1357 89.475 35.3287 89.4737 41.7373L89.4375 227.816C89.4362 234.222 94.626 239.416 101.031 239.42L176.922 239.464C183.33 239.468 188.528 234.274 188.53 227.865L188.566 41.7858C188.567 35.3798 183.377 30.1862 176.972 30.1823Z" fill="white"/>
<path d="M179.215 48.9725C179.215 49.0224 177.298 49.0787 174.933 49.0981C172.567 49.1175 170.65 49.0929 170.649 49.0431C170.649 48.9932 172.566 48.9369 174.932 48.9175C177.296 48.8987 179.214 48.9227 179.215 48.9725Z" fill="#263238"/>
<path d="M179.232 51.1644C179.233 51.2143 177.316 51.2706 174.951 51.29C172.585 51.3094 170.668 51.2848 170.667 51.235C170.666 51.1852 172.584 51.1288 174.949 51.1094C177.314 51.09 179.232 51.1146 179.232 51.1644Z" fill="#263238"/>
<path d="M179.251 53.3532C179.251 53.403 177.334 53.4593 174.969 53.4787C172.603 53.4981 170.686 53.4736 170.686 53.4237C170.685 53.3739 172.602 53.3176 174.968 53.2981C177.332 53.2787 179.25 53.3033 179.251 53.3532Z" fill="#263238"/>
<path d="M101.311 55.8554C101.314 55.8522 101.375 55.8483 101.489 55.8437C101.629 55.8392 101.792 55.8334 101.984 55.8276C102.451 55.8166 103.062 55.8017 103.812 55.7842L103.762 55.8353C103.755 55.4301 103.748 54.9868 103.741 54.5091C103.743 54.2625 103.719 54.0301 103.743 53.7453C103.792 53.4612 104.045 53.2107 104.357 53.1815C104.652 53.1757 104.911 53.1621 105.231 53.177C105.56 53.2171 105.84 53.5343 105.831 53.8832C105.838 54.5013 105.845 55.1479 105.853 55.8172L105.768 55.7337C106.509 55.7259 107.28 55.7182 108.075 55.7104L107.987 55.7997C107.978 54.8709 107.97 53.9097 107.961 52.9252C107.959 52.6799 107.957 52.4359 107.955 52.1932C107.954 51.9673 107.816 51.8165 107.631 51.6482C107.289 51.3116 106.953 50.9802 106.622 50.654C106.292 50.3277 105.967 50.008 105.649 49.6941C105.491 49.5374 105.333 49.3821 105.178 49.2287C105.016 49.0727 104.889 48.9109 104.701 48.8727C104.519 48.8235 104.319 48.8623 104.172 48.9737C104.032 49.0915 103.883 49.2591 103.742 49.3957C103.458 49.6824 103.182 49.9607 102.914 50.2306C102.394 50.7718 101.851 51.2656 101.456 51.733C101.29 51.9906 101.352 52.3064 101.34 52.5938C101.34 52.8799 101.339 53.1511 101.339 53.4068C101.335 53.9052 101.333 54.3421 101.331 54.7162C101.327 55.0508 101.324 55.3272 101.322 55.5538C101.318 55.7473 101.315 55.8515 101.311 55.8554C101.306 55.8599 101.301 55.7648 101.295 55.5777C101.288 55.3544 101.281 55.0826 101.271 54.7531C101.263 54.3757 101.252 53.9356 101.241 53.4327C101.236 53.1718 101.232 52.8954 101.226 52.6035C101.224 52.456 101.221 52.3045 101.219 52.1498C101.217 51.986 101.26 51.8171 101.346 51.6669C101.773 51.1439 102.282 50.6811 102.807 50.1245C103.073 49.8526 103.346 49.5717 103.629 49.283C103.777 49.1381 103.898 48.9931 104.074 48.8416C104.258 48.6999 104.512 48.6487 104.743 48.7102C104.988 48.7646 105.148 48.9659 105.297 49.1063C105.453 49.2591 105.611 49.4138 105.771 49.5698C106.09 49.8824 106.416 50.2022 106.747 50.5264C107.078 50.852 107.416 51.1828 107.757 51.5187C107.838 51.6048 107.936 51.6773 108.015 51.7977C108.09 51.9129 108.132 52.0488 108.136 52.1867C108.138 52.4301 108.141 52.676 108.143 52.9226C108.15 53.9071 108.157 54.8683 108.165 55.7971L108.165 55.8858L108.077 55.8865C107.282 55.8916 106.51 55.8968 105.77 55.9014L105.685 55.902L105.684 55.8178C105.681 55.1479 105.677 54.502 105.674 53.8838C105.684 53.6048 105.467 53.3589 105.208 53.3239C104.943 53.3097 104.629 53.3188 104.371 53.3213C104.123 53.3421 103.916 53.5408 103.873 53.7699C103.851 54.0016 103.868 54.2722 103.864 54.5071C103.864 54.9848 103.864 55.4282 103.864 55.8334V55.8852H103.814C103.051 55.88 102.429 55.8755 101.954 55.8722C101.766 55.869 101.607 55.8664 101.47 55.8638C101.362 55.8619 101.307 55.8593 101.311 55.8554Z" fill="#263238"/>
<path d="M172.561 82.1533H104.074C100.647 82.1533 97.8691 79.3752 97.8691 75.9486V73.6437C97.8691 70.217 100.647 67.439 104.074 67.439H172.561C175.988 67.439 178.766 70.217 178.766 73.6437V75.9486C178.766 79.3752 175.988 82.1533 172.561 82.1533Z" fill="#F5F5F5"/>
<path d="M172.562 82.1522C172.562 82.1522 172.72 82.134 173.026 82.1133C173.332 82.0907 173.786 82.0208 174.361 81.8538C174.928 81.6674 175.616 81.3664 176.307 80.8298C177.001 80.3023 177.686 79.5256 178.152 78.4906C178.377 77.9741 178.57 77.4006 178.639 76.776C178.722 76.1565 178.693 75.4892 178.695 74.794C178.684 74.0989 178.728 73.37 178.599 72.638C178.476 71.9046 178.212 71.1642 177.795 70.4813C176.973 69.1181 175.507 67.9738 173.713 67.6443C172.825 67.4754 171.872 67.5537 170.901 67.5375C169.929 67.5395 168.932 67.5408 167.912 67.5427C151.568 67.5544 129.002 67.5699 104.079 67.5867C102.555 67.5854 101.055 68.1809 99.959 69.2094C98.8541 70.2289 98.1635 71.6613 98.0444 73.1383C97.9933 73.871 98.0302 74.6458 98.0185 75.3934C98.0004 76.1533 98.0405 76.875 98.2477 77.5825C98.6393 78.9883 99.5551 80.222 100.754 81.0104C101.351 81.4091 102.021 81.6907 102.713 81.846C103.408 82.0104 104.114 82.0104 104.842 82.0059C106.285 82.0065 107.713 82.0072 109.127 82.0078C111.954 82.0098 114.722 82.0111 117.422 82.013C128.223 82.0253 137.948 82.0363 146.12 82.0454C154.283 82.0654 160.891 82.0823 165.467 82.0933C167.745 82.1056 169.516 82.1153 170.727 82.1217C171.322 82.1282 171.778 82.1334 172.094 82.1366C172.404 82.1418 172.562 82.1522 172.562 82.1522C172.562 82.1522 172.404 82.1625 172.096 82.1677C171.778 82.1709 171.323 82.1761 170.728 82.1826C169.517 82.1891 167.746 82.1988 165.468 82.2111C160.891 82.2227 154.284 82.2389 146.121 82.259C137.95 82.268 128.224 82.279 117.424 82.2913C114.723 82.2926 111.955 82.2946 109.128 82.2965C107.715 82.2971 106.286 82.2978 104.843 82.2984C104.131 82.3036 103.376 82.3049 102.649 82.1327C101.922 81.9703 101.219 81.6751 100.593 81.2576C99.3357 80.4324 98.3745 79.1391 97.9622 77.6634C97.7441 76.9333 97.702 76.1378 97.7208 75.394C97.7324 74.6354 97.6942 73.8963 97.7467 73.1144C97.8709 71.5642 98.5959 70.0599 99.7551 68.99C100.905 67.911 102.481 67.2851 104.08 67.2864C129.003 67.3039 151.568 67.3194 167.912 67.3304C168.934 67.3323 169.93 67.3336 170.901 67.3356C171.868 67.3563 172.823 67.2786 173.75 67.4566C175.599 67.8042 177.103 68.9893 177.94 70.3939C178.365 71.0981 178.632 71.86 178.753 72.6127C178.882 73.3707 178.831 74.1027 178.838 74.794C178.832 75.4866 178.857 76.1559 178.768 76.7934C178.693 77.431 178.493 78.0142 178.259 78.5391C177.775 79.5896 177.071 80.3728 176.362 80.9003C175.654 81.4369 174.954 81.7327 174.379 81.9107C173.795 82.07 173.336 82.1302 173.028 82.1431C172.719 82.1547 172.562 82.1522 172.562 82.1522Z" fill="#263238"/>
<path d="M173.81 74.4452C173.781 74.4465 173.784 74.2077 173.669 73.809C173.557 73.4174 173.284 72.8471 172.692 72.4115C172.12 71.9746 171.185 71.7338 170.284 72.0724C169.389 72.3837 168.619 73.3352 168.629 74.4446C168.619 75.5547 169.389 76.5068 170.284 76.8181C171.185 77.1566 172.121 76.9159 172.693 76.479C173.284 76.0433 173.557 75.4731 173.669 75.0815C173.783 74.6821 173.781 74.4439 173.81 74.4452C173.82 74.4452 173.827 74.5035 173.832 74.6168C173.838 74.7294 173.827 74.8983 173.783 75.11C173.701 75.5275 173.445 76.1534 172.822 76.6479C172.22 77.1437 171.197 77.4395 170.189 77.0783C169.19 76.7495 168.317 75.6886 168.328 74.4439C168.317 73.1999 169.19 72.1397 170.189 71.8109C171.197 71.4497 172.22 71.7461 172.822 72.2413C173.445 72.7364 173.701 73.3617 173.783 73.7792C173.827 73.9909 173.838 74.1598 173.832 74.2724C173.827 74.3863 173.82 74.4452 173.81 74.4452Z" fill="#263238"/>
<path d="M175.277 79.0406C175.216 79.0969 174.632 78.5642 173.973 77.8509C173.313 77.137 172.829 76.513 172.89 76.4567C172.951 76.4004 173.535 76.9331 174.194 77.647C174.853 78.3603 175.338 78.9843 175.277 79.0406Z" fill="#263238"/>
<path d="M108.79 73.3232H107.348V72.9478H110.668V73.3232H109.225V77.054H108.79V73.3232Z" fill="#E0E0E0"/>
<path d="M113.636 75.6408H111.055C111.102 76.2861 111.594 76.7146 112.269 76.7146C112.644 76.7146 112.979 76.5793 113.213 76.31L113.448 76.5799C113.172 76.9081 112.744 77.0842 112.257 77.0842C111.295 77.0842 110.638 76.4272 110.638 75.5119C110.638 74.5967 111.277 73.9456 112.145 73.9456C113.013 73.9456 113.641 74.5851 113.641 75.5119C113.642 75.5469 113.636 75.5935 113.636 75.6408ZM111.055 75.3301H113.243C113.19 74.7262 112.75 74.3035 112.146 74.3035C111.547 74.3035 111.107 74.7255 111.055 75.3301Z" fill="#E0E0E0"/>
<path d="M116.369 77.0545L115.39 75.7639L114.404 77.0545H113.935L115.155 75.4706L113.993 73.969H114.463L115.39 75.1774L116.317 73.969H116.774L115.612 75.4706L116.844 77.0545H116.369Z" fill="#E0E0E0"/>
<path d="M119.162 76.8664C118.997 77.0133 118.752 77.0832 118.511 77.0832C117.93 77.0832 117.607 76.7544 117.607 76.1854V74.32H117.056V73.9679H117.607V73.2935H118.023V73.9679H118.962V74.32H118.023V76.1621C118.023 76.5259 118.211 76.7253 118.557 76.7253C118.728 76.7253 118.898 76.6722 119.015 76.5667L119.162 76.8664Z" fill="#E0E0E0"/>
<path d="M118.988 94.262H101.28V111.969H118.988V94.262Z" fill="#7C5CFC"/>
<path d="M153.051 96.1681C153.051 96.2516 147.13 96.319 139.828 96.319C132.523 96.319 126.604 96.2516 126.604 96.1681C126.604 96.0853 132.523 96.0173 139.828 96.0173C147.13 96.0173 153.051 96.0847 153.051 96.1681Z" fill="#7C5CFC"/>
<path d="M174.139 101.595C174.139 101.679 163.497 101.746 150.372 101.746C137.243 101.746 126.604 101.679 126.604 101.595C126.604 101.513 137.243 101.445 150.372 101.445C163.498 101.445 174.139 101.513 174.139 101.595Z" fill="#263238"/>
<path d="M173.58 105.472C173.58 105.556 163.063 105.623 150.093 105.623C137.118 105.623 126.604 105.556 126.604 105.472C126.604 105.389 137.118 105.322 150.093 105.322C163.063 105.322 173.58 105.389 173.58 105.472Z" fill="#263238"/>
<path d="M154.34 109.168C154.34 109.25 148.13 109.318 140.473 109.318C132.812 109.318 126.604 109.251 126.604 109.168C126.604 109.085 132.811 109.017 140.473 109.017C148.13 109.017 154.34 109.085 154.34 109.168Z" fill="#263238"/>
<path d="M118.988 123.762H101.28V141.47H118.988V123.762Z" fill="#7C5CFC"/>
<path d="M153.052 125.667C153.052 125.75 147.131 125.818 139.829 125.818C132.524 125.818 126.604 125.751 126.604 125.667C126.604 125.585 132.524 125.517 139.829 125.517C147.131 125.517 153.052 125.585 153.052 125.667Z" fill="#7C5CFC"/>
<path d="M174.139 131.095C174.139 131.178 163.497 131.246 150.372 131.246C137.243 131.246 126.604 131.179 126.604 131.095C126.604 131.012 137.243 130.944 150.372 130.944C163.498 130.945 174.139 131.012 174.139 131.095Z" fill="#263238"/>
<path d="M173.58 134.971C173.58 135.054 163.063 135.122 150.093 135.122C137.118 135.122 126.604 135.054 126.604 134.971C126.604 134.888 137.118 134.82 150.093 134.82C163.063 134.821 173.58 134.888 173.58 134.971Z" fill="#263238"/>
<path d="M154.341 138.67C154.341 138.753 148.131 138.82 140.473 138.82C132.813 138.82 126.604 138.753 126.604 138.67C126.604 138.587 132.812 138.519 140.473 138.519C148.131 138.519 154.341 138.587 154.341 138.67Z" fill="#263238"/>
<path d="M118.988 153.264H101.28V170.971H118.988V153.264Z" fill="#7C5CFC"/>
<path d="M153.052 155.168C153.052 155.252 147.131 155.319 139.829 155.319C132.524 155.319 126.604 155.252 126.604 155.168C126.604 155.085 132.524 155.018 139.829 155.018C147.131 155.017 153.052 155.085 153.052 155.168Z" fill="#7C5CFC"/>
<path d="M174.139 160.596C174.139 160.679 163.497 160.747 150.372 160.747C137.243 160.747 126.604 160.679 126.604 160.596C126.604 160.513 137.243 160.446 150.372 160.446C163.498 160.445 174.139 160.512 174.139 160.596Z" fill="#263238"/>
<path d="M173.58 164.473C173.58 164.556 163.063 164.624 150.093 164.624C137.118 164.624 126.604 164.557 126.604 164.473C126.604 164.39 137.118 164.323 150.093 164.323C163.063 164.323 173.58 164.39 173.58 164.473Z" fill="#263238"/>
<path d="M154.34 168.172C154.34 168.255 148.13 168.322 140.473 168.322C132.812 168.322 126.604 168.255 126.604 168.172C126.604 168.089 132.811 168.021 140.473 168.021C148.13 168.021 154.34 168.088 154.34 168.172Z" fill="#263238"/>
<path d="M118.988 182.764H101.28V200.471H118.988V182.764Z" fill="#7C5CFC"/>
<path d="M153.052 184.668C153.052 184.752 147.131 184.819 139.829 184.819C132.524 184.819 126.604 184.752 126.604 184.668C126.604 184.586 132.524 184.518 139.829 184.518C147.131 184.518 153.052 184.586 153.052 184.668Z" fill="#455A64"/>
<path d="M174.139 190.096C174.139 190.179 163.497 190.247 150.372 190.247C137.243 190.247 126.604 190.18 126.604 190.096C126.604 190.013 137.243 189.946 150.372 189.946C163.498 189.946 174.139 190.013 174.139 190.096Z" fill="#263238"/>
<path d="M173.58 193.973C173.58 194.056 163.063 194.124 150.093 194.124C137.118 194.124 126.604 194.056 126.604 193.973C126.604 193.89 137.118 193.822 150.093 193.822C163.063 193.823 173.58 193.89 173.58 193.973Z" fill="#263238"/>
<path d="M154.34 197.672C154.34 197.755 148.13 197.823 140.473 197.823C132.812 197.823 126.604 197.755 126.604 197.672C126.604 197.589 132.811 197.521 140.473 197.521C148.13 197.522 154.34 197.589 154.34 197.672Z" fill="#263238"/>
<g opacity="0.3">
<path d="M118.988 182.764H101.28V200.471H118.988V182.764Z" fill="black"/>
</g>
<g opacity="0.3">
<path d="M118.988 123.762H101.28V141.47H118.988V123.762Z" fill="black"/>
</g>
<path d="M155.051 135.748L187.372 135.505L202.991 238.087L189.577 239.789L172.386 155.443L167.241 240.089L167.227 240.341L152.72 240.088L155.051 135.748Z" fill="#263238"/>
<path d="M169.752 144.061C169.741 144.072 169.487 144.079 169.025 144.083C168.524 144.083 167.864 144.084 167.049 144.085C165.328 144.071 162.958 144.051 160.15 144.029L160.302 143.88C160.308 145.908 160.314 148.175 160.321 150.58L160.267 150.456C160.654 150.812 161.067 151.191 161.484 151.574C162.726 152.717 163.927 153.823 165.062 154.869L164.845 154.867C166.636 153.301 168.27 151.871 169.666 150.65L169.622 150.747C169.651 148.749 169.674 147.103 169.691 145.907C169.705 145.354 169.716 144.905 169.724 144.555C169.734 144.241 169.743 144.07 169.752 144.061C169.762 144.052 169.771 144.204 169.781 144.504C169.789 144.847 169.8 145.285 169.814 145.827C169.831 147.043 169.855 148.716 169.883 150.747L169.884 150.806L169.838 150.846C168.454 152.081 166.834 153.526 165.06 155.11L164.951 155.207L164.843 155.108C163.704 154.065 162.5 152.962 161.256 151.822C160.839 151.439 160.426 151.06 160.039 150.703L159.984 150.654V150.58C159.991 148.175 159.997 145.908 160.003 143.88L160.004 143.727L160.155 143.731C163.001 143.815 165.402 143.886 167.146 143.938C167.947 143.969 168.596 143.995 169.088 144.015C169.532 144.034 169.764 144.05 169.752 144.061Z" fill="#455A64"/>
<path d="M184.963 143.616C184.953 143.628 184.728 143.662 184.317 143.715C183.866 143.771 183.279 143.843 182.555 143.932C181.012 144.107 178.892 144.346 176.369 144.632L176.499 144.469C176.749 146.451 177.032 148.709 177.334 151.116L177.272 151.005C177.718 151.36 178.189 151.736 178.667 152.117C179.854 153.066 181.004 153.986 182.097 154.86L181.868 154.886C183.271 153.145 184.559 151.547 185.669 150.17L185.641 150.269C185.429 148.291 185.252 146.656 185.124 145.462C185.071 144.912 185.027 144.464 184.994 144.113C184.966 143.798 184.955 143.626 184.963 143.616C184.972 143.606 184.999 143.757 185.046 144.053C185.096 144.395 185.161 144.83 185.241 145.365C185.406 146.574 185.633 148.231 185.907 150.236L185.915 150.291L185.879 150.336C184.783 151.724 183.511 153.334 182.124 155.089L182.023 155.216L181.895 155.114C180.799 154.242 179.647 153.325 178.457 152.379C177.98 151.998 177.509 151.622 177.064 151.267L177.01 151.224L177.002 151.156C176.715 148.747 176.446 146.487 176.21 144.503L176.191 144.353L176.34 144.34C178.906 144.111 181.062 143.918 182.632 143.779C183.345 143.722 183.924 143.676 184.369 143.641C184.767 143.613 184.973 143.604 184.963 143.616Z" fill="#455A64"/>
<path d="M165.188 159.187C165.166 159.148 165.68 158.796 166.545 158.279C167.409 157.763 168.626 157.087 170.001 156.401C171.376 155.715 172.648 155.15 173.58 154.77C174.513 154.39 175.104 154.191 175.121 154.232C175.139 154.276 174.581 154.553 173.676 154.987C172.771 155.422 171.52 156.019 170.151 156.702C168.782 157.385 167.552 158.025 166.661 158.487C165.769 158.949 165.212 159.228 165.188 159.187Z" fill="#455A64"/>
<path d="M165.605 161.677C165.556 161.58 167.244 160.911 168.79 159.369C170.357 157.846 171.051 156.168 171.147 156.218C171.227 156.228 170.651 158.025 169.027 159.609C167.419 161.209 165.613 161.757 165.605 161.677Z" fill="#455A64"/>
<path d="M156.48 191.319C156.539 191.296 156.777 192.055 157.487 193.089C158.183 194.117 159.439 195.397 161.196 196.14C162.954 196.88 164.747 196.886 165.969 196.668C167.206 196.456 167.916 196.097 167.94 196.155C167.949 196.174 167.782 196.28 167.457 196.431C167.133 196.583 166.643 196.763 166.015 196.902C164.771 197.187 162.902 197.223 161.065 196.45C159.23 195.674 157.952 194.31 157.289 193.22C156.95 192.672 156.737 192.196 156.619 191.858C156.5 191.52 156.461 191.326 156.48 191.319Z" fill="#455A64"/>
<path d="M158.605 190.445C158.626 190.396 159.105 190.578 159.901 190.775C160.696 190.976 161.817 191.16 163.067 191.205C165.573 191.298 167.599 190.915 167.616 191.027C167.623 191.069 167.127 191.209 166.305 191.345C165.483 191.473 164.331 191.596 163.054 191.541C161.777 191.496 160.63 191.268 159.836 191.004C159.039 190.743 158.588 190.48 158.605 190.445Z" fill="#455A64"/>
<path d="M182.636 191.055C182.702 190.964 184.432 192.552 187.092 193.525C189.741 194.53 192.088 194.458 192.078 194.571C192.08 194.61 191.5 194.68 190.561 194.621C189.623 194.564 188.326 194.342 186.975 193.841C185.624 193.336 184.5 192.656 183.753 192.085C183.002 191.515 182.609 191.083 182.636 191.055Z" fill="#455A64"/>
<path d="M185.47 190.93C185.485 190.831 186.798 190.992 188.409 190.858C190.02 190.736 191.291 190.368 191.322 190.464C191.355 190.542 190.096 191.067 188.435 191.194C186.776 191.331 185.45 191.013 185.47 190.93Z" fill="#455A64"/>
<path d="M172.578 156.15C172.616 156.048 174.864 157.003 177.81 157.463C180.754 157.946 183.187 157.741 183.191 157.849C183.195 157.889 182.592 157.994 181.606 158.034C180.62 158.077 179.248 158.033 177.757 157.796C176.266 157.555 174.95 157.169 174.027 156.821C173.101 156.475 172.561 156.188 172.578 156.15Z" fill="#455A64"/>
<path d="M173.461 152.679C173.554 152.68 173.626 152.971 173.622 153.329C173.617 153.687 173.538 153.976 173.445 153.974C173.352 153.972 173.28 153.681 173.284 153.325C173.289 152.967 173.368 152.679 173.461 152.679Z" fill="#455A64"/>
<path d="M173.452 150.09C173.545 150.089 173.623 150.377 173.626 150.736C173.63 151.094 173.557 151.385 173.464 151.385C173.371 151.386 173.292 151.097 173.289 150.739C173.286 150.382 173.358 150.091 173.452 150.09Z" fill="#455A64"/>
<path d="M173.384 147.502C173.477 147.499 173.561 147.785 173.573 148.143C173.584 148.501 173.518 148.793 173.425 148.796C173.331 148.798 173.247 148.511 173.236 148.154C173.225 147.797 173.291 147.505 173.384 147.502Z" fill="#455A64"/>
<path d="M173.259 144.915C173.353 144.909 173.443 145.195 173.463 145.552C173.482 145.91 173.422 146.204 173.329 146.208C173.236 146.213 173.145 145.927 173.126 145.571C173.107 145.214 173.166 144.92 173.259 144.915Z" fill="#455A64"/>
<path d="M173.078 142.333C173.171 142.325 173.268 142.608 173.295 142.965C173.322 143.322 173.268 143.617 173.176 143.623C173.083 143.63 172.986 143.346 172.959 142.99C172.932 142.635 172.985 142.34 173.078 142.333Z" fill="#455A64"/>
<path d="M172.84 139.754C172.932 139.744 173.036 140.025 173.071 140.382C173.106 140.739 173.059 141.034 172.966 141.043C172.873 141.051 172.77 140.77 172.735 140.415C172.701 140.059 172.747 139.763 172.84 139.754Z" fill="#455A64"/>
<path d="M183.449 199.301C183.541 199.283 183.671 199.553 183.742 199.903C183.812 200.254 183.795 200.552 183.704 200.571C183.612 200.589 183.482 200.32 183.412 199.969C183.341 199.619 183.358 199.32 183.449 199.301Z" fill="#455A64"/>
<path d="M182.942 196.763C183.033 196.745 183.164 197.014 183.234 197.365C183.304 197.715 183.287 198.014 183.196 198.033C183.104 198.051 182.974 197.781 182.904 197.431C182.833 197.08 182.851 196.781 182.942 196.763Z" fill="#455A64"/>
<path d="M182.434 194.224C182.525 194.206 182.656 194.475 182.726 194.825C182.796 195.176 182.779 195.475 182.688 195.493C182.596 195.512 182.466 195.242 182.396 194.892C182.326 194.542 182.343 194.243 182.434 194.224Z" fill="#455A64"/>
<path d="M181.926 191.685C182.017 191.667 182.148 191.937 182.219 192.287C182.289 192.638 182.272 192.936 182.181 192.955C182.089 192.973 181.959 192.704 181.889 192.353C181.817 192.003 181.835 191.704 181.926 191.685Z" fill="#455A64"/>
<path d="M181.418 189.147C181.51 189.129 181.64 189.398 181.711 189.749C181.781 190.099 181.764 190.398 181.673 190.417C181.582 190.435 181.451 190.166 181.38 189.815C181.31 189.465 181.327 189.165 181.418 189.147Z" fill="#455A64"/>
<path d="M180.91 186.608C181.002 186.59 181.132 186.859 181.202 187.21C181.272 187.561 181.255 187.86 181.164 187.878C181.073 187.896 180.942 187.627 180.872 187.276C180.802 186.926 180.819 186.627 180.91 186.608Z" fill="#455A64"/>
<path d="M180.403 184.069C180.494 184.051 180.625 184.321 180.695 184.671C180.765 185.022 180.748 185.321 180.657 185.339C180.565 185.358 180.435 185.088 180.365 184.737C180.294 184.387 180.312 184.088 180.403 184.069Z" fill="#455A64"/>
<path d="M179.895 181.53C179.986 181.512 180.117 181.781 180.187 182.132C180.257 182.483 180.24 182.781 180.149 182.8C180.058 182.818 179.927 182.549 179.857 182.198C179.787 181.847 179.803 181.548 179.895 181.53Z" fill="#455A64"/>
<path d="M179.387 178.992C179.478 178.974 179.609 179.243 179.679 179.594C179.749 179.945 179.732 180.243 179.641 180.262C179.55 180.28 179.419 180.011 179.349 179.66C179.279 179.309 179.296 179.01 179.387 178.992Z" fill="#455A64"/>
<path d="M178.879 176.453C178.971 176.435 179.101 176.704 179.172 177.054C179.242 177.405 179.225 177.704 179.134 177.722C179.042 177.74 178.912 177.471 178.842 177.12C178.771 176.77 178.788 176.472 178.879 176.453Z" fill="#455A64"/>
<path d="M178.371 173.914C178.463 173.896 178.593 174.165 178.663 174.515C178.733 174.866 178.716 175.165 178.625 175.183C178.534 175.202 178.403 174.932 178.333 174.582C178.263 174.231 178.28 173.932 178.371 173.914Z" fill="#455A64"/>
<path d="M177.863 171.376C177.954 171.358 178.085 171.627 178.155 171.977C178.225 172.328 178.208 172.627 178.117 172.645C178.026 172.664 177.895 172.394 177.824 172.043C177.754 171.693 177.771 171.394 177.863 171.376Z" fill="#455A64"/>
<path d="M177.355 168.837C177.446 168.819 177.577 169.088 177.647 169.438C177.717 169.789 177.7 170.087 177.609 170.106C177.518 170.125 177.387 169.855 177.316 169.505C177.246 169.155 177.264 168.856 177.355 168.837Z" fill="#455A64"/>
<path d="M176.847 166.298C176.938 166.28 177.069 166.549 177.139 166.899C177.209 167.25 177.192 167.549 177.101 167.567C177.009 167.585 176.879 167.316 176.809 166.965C176.739 166.615 176.756 166.316 176.847 166.298Z" fill="#455A64"/>
<path d="M176.339 163.759C176.431 163.741 176.561 164.01 176.631 164.36C176.701 164.711 176.684 165.01 176.593 165.028C176.502 165.046 176.371 164.777 176.301 164.426C176.231 164.076 176.248 163.777 176.339 163.759Z" fill="#455A64"/>
<path d="M175.831 161.221C175.923 161.203 176.053 161.472 176.124 161.823C176.194 162.174 176.177 162.473 176.086 162.491C175.995 162.509 175.864 162.24 175.794 161.889C175.723 161.538 175.74 161.239 175.831 161.221Z" fill="#455A64"/>
<path d="M175.323 158.682C175.415 158.663 175.545 158.933 175.616 159.283C175.686 159.634 175.669 159.933 175.578 159.951C175.486 159.97 175.356 159.7 175.286 159.349C175.215 158.999 175.232 158.7 175.323 158.682Z" fill="#455A64"/>
<path d="M174.883 156.476C174.974 156.458 175.09 156.653 175.142 156.911C175.193 157.17 175.161 157.394 175.07 157.412C174.978 157.43 174.863 157.235 174.811 156.977C174.759 156.719 174.791 156.494 174.883 156.476Z" fill="#455A64"/>
<path d="M130.499 88.6107C130.499 88.6107 126.717 82.9406 126.616 82.8914C126.616 82.8914 123.202 77.1424 122.067 77.1411C120.926 77.1405 121.342 78.3062 122.514 80.3658C123.541 82.171 123.645 83.2986 123.645 83.2986L120.841 84.9918C120.841 84.9918 118.969 84.2669 118.891 86.0125C118.865 86.5964 119.019 87.3187 119.213 88.3835C119.327 89.0049 119.608 89.6677 120.195 89.434C120.463 89.3266 120.683 89.1201 120.697 88.7324C120.733 87.6993 120.54 87.3207 120.672 87.32C120.841 87.3194 122.69 92.7376 122.69 92.7376L130.499 88.6107Z" fill="#FFBE9D"/>
<path d="M122.863 84.1601C122.574 83.962 122.283 83.7633 121.963 83.6241C121.643 83.485 121.287 83.4079 120.942 83.4656C120.725 83.5018 120.511 83.5963 120.373 83.7678C120.184 84.0028 120.171 84.3426 120.265 84.6287C120.359 84.9154 120.544 85.1607 120.725 85.4009" fill="#FFBE9D"/>
<path d="M124.142 83.0158C123.869 82.8294 123.593 82.6417 123.29 82.5103C122.986 82.3789 122.649 82.3064 122.322 82.3607C122.118 82.395 121.914 82.4837 121.784 82.6455C121.605 82.8663 121.593 83.1867 121.682 83.4566C121.771 83.7265 122.381 84.3524 122.553 84.5783" fill="#FFBE9D"/>
<path d="M129.181 85.4106L134.645 97.0983L128.621 103.255L125.482 94.5449C125.482 94.5449 123.799 94.8802 123.114 93.7643C122.348 92.5189 121.343 88.9188 121.343 88.9188L129.181 85.4106Z" fill="#FFBE9D"/>
<path d="M125.276 85.0884C125.174 85.1311 124.895 84.3984 124.374 83.6592C123.846 82.9272 123.147 82.5699 123.203 82.4728C123.22 82.4022 124.04 82.6359 124.646 83.4599C125.218 84.2806 125.346 85.067 125.276 85.0884Z" fill="#EB996E"/>
<path d="M119.214 85.137C119.189 85.1053 119.34 84.926 119.687 84.8023C120.025 84.6794 120.579 84.6438 121.089 84.924C121.597 85.2101 121.86 85.6613 122.015 85.9648C122.168 86.2781 122.225 86.4846 122.186 86.5066C122.144 86.5299 122.01 86.3597 121.812 86.0891C121.611 85.8244 121.338 85.447 120.927 85.2192C120.515 84.992 120.058 84.981 119.747 85.0328C119.431 85.0833 119.242 85.1803 119.214 85.137Z" fill="#EB996E"/>
<path d="M121.248 83.4891C121.236 83.4017 122.042 83.3842 122.741 84.0056C123.426 84.6186 123.604 85.3558 123.527 85.3765C123.433 85.4218 123.126 84.7946 122.52 84.2593C121.915 83.715 121.232 83.5894 121.248 83.4891Z" fill="#EB996E"/>
<path d="M119.905 86.0126C120 86.0281 120.017 86.3803 120.24 86.7207C120.45 87.0696 120.759 87.2385 120.732 87.3304C120.723 87.4243 120.242 87.3628 119.954 86.9C119.664 86.4398 119.817 85.9802 119.905 86.0126Z" fill="#EB996E"/>
<path d="M130.486 88.3838C130.486 88.3838 130.676 84.8963 129.834 84.1067C128.991 83.317 126.575 84.1371 126.575 84.1371" fill="#FFBE9D"/>
<path d="M126.233 82.4746C126.306 82.417 126.981 83.2241 127.74 84.2772C128.499 85.331 129.051 86.2261 128.973 86.2773C128.895 86.3284 128.22 85.5213 127.466 84.4746C126.712 83.4274 126.16 82.5322 126.233 82.4746Z" fill="#EB996E"/>
<path d="M185.115 85.6514C185.031 85.1847 184.917 84.6391 184.755 84.0028C184.615 83.4565 184.378 82.9406 184.064 82.4726C183.683 81.9056 183.146 81.1729 182.727 80.8629C182.209 80.4797 182.427 79.6655 183.012 79.6687C183.597 79.6719 185.051 80.6933 186.049 82.5128C187.048 84.3323 187.636 81.1192 187.871 79.9522C188.106 78.7852 189.002 75.2084 189.418 74.9967C190.028 74.686 190.474 75.2822 190.212 76.4421C189.947 77.6162 189.41 81.136 190.033 81.2305C190.646 81.3238 191.761 75.3663 191.761 75.3663C191.761 75.3663 191.793 74.0543 192.516 74.1397C193.82 74.2931 192.168 80.5386 191.996 81.1296C191.877 81.5399 192.549 81.6668 192.654 81.2195C192.762 80.7587 193.628 75.2517 194.957 75.3948C195.977 75.5048 193.646 80.5444 194.101 81.7872C194.556 83.0293 195.48 77.7858 196.45 77.9308C196.811 77.9845 197.073 78.0751 196.107 81.0098C195.639 82.4345 193.822 89.1045 193.822 89.1045L194.865 94.572L186.561 96.6743L185.115 85.6514Z" fill="#FFBE9D"/>
<path d="M174.614 56.0317L174.698 83.2493L163.021 83.8066L162.684 77.1863C162.684 77.1863 158.536 78.0097 157.466 74.1578C156.783 71.6975 156.954 52.6821 156.954 52.6821L174.614 56.0317Z" fill="#FFBE9D"/>
<path d="M155.416 54.5984C157.255 55.1247 157.655 58.1306 157.655 58.1306L160.54 64.5022C162.01 63.3514 163.983 63.4174 164.356 66C164.626 67.8661 162.306 68.2435 162.306 68.2435C163.657 70.5419 164.573 72.4015 166.54 74.5873C168.669 76.9537 169.861 77.1919 172.169 77.2307H174.715C174.715 77.2307 175.961 73.186 178.268 63.0711C180.828 51.8495 167.558 53.2948 165.098 50.4307C161.092 45.7665 149.619 52.9388 155.416 54.5984Z" fill="#263238"/>
<path d="M178.026 64.1298C180.177 62.6851 180.371 58.6423 179.116 56.2183C177.861 53.7942 175.22 52.1515 172.49 52.0984C172.125 52.0913 171.749 52.1088 171.408 51.9767C170.903 51.7819 170.576 51.3036 170.246 50.8738C168.324 48.374 166.435 45.9189 162.852 45.9189C162.27 45.9189 161.626 45.9189 160.599 46.4775C160.088 46.7559 159.368 47.6989 159.247 48.2685C158.573 47.9494 157.888 47.6264 157.151 47.5145C156.414 47.4031 155.605 47.5319 155.048 48.0271C154.492 48.5229 154.285 49.4343 154.718 50.0414C153.511 49.965 152.366 50.9644 152.176 52.1599C151.986 53.3548 153.698 54.1949 153.876 54.2875C153.876 54.2875 152.936 56.2551 155.177 57.4345C156.08 57.9096 157.253 57.3374 157.386 57.2681" fill="#263238"/>
<path d="M169.501 66.7464C169.6 66.749 169.628 67.661 169.876 68.7432C170.116 69.828 170.481 70.6637 170.393 70.7083C170.318 70.753 169.799 69.9517 169.547 68.817C169.288 67.6843 169.413 66.738 169.501 66.7464Z" fill="#455A64"/>
<path d="M168.088 65.4114C168.184 65.4056 168.308 66.2794 168.508 67.3428C168.704 68.4076 168.904 69.2665 168.812 69.2963C168.727 69.3248 168.378 68.4937 168.176 67.405C167.972 66.3169 167.998 65.4153 168.088 65.4114Z" fill="#455A64"/>
<path d="M164.044 60.9192C164.064 60.8856 164.449 61.0649 164.931 61.5393C165.416 62.0066 165.955 62.7911 166.32 63.7491C166.686 64.7064 166.847 65.6164 166.943 66.2689C167.034 66.9239 167.057 67.3324 167.012 67.3401C166.965 67.3485 166.858 66.9524 166.708 66.3136C166.555 65.676 166.358 64.7925 166.005 63.8701C165.653 62.9491 165.175 62.1892 164.755 61.7005C164.34 61.2079 164.012 60.9626 164.044 60.9192Z" fill="#455A64"/>
<path d="M162.409 57.861C162.511 57.8798 162.239 59.0248 162.591 60.3789C162.92 61.7394 163.699 62.6204 163.618 62.6851C163.573 62.7582 162.621 61.9207 162.263 60.4611C161.891 59.006 162.335 57.8176 162.409 57.861Z" fill="#455A64"/>
<path d="M176.345 64.6587C176.299 64.5772 176.588 64.3299 176.989 64.106C177.39 63.882 177.752 63.7662 177.797 63.8471C177.842 63.9286 177.554 64.1759 177.153 64.3998C176.752 64.6244 176.39 64.7403 176.345 64.6587Z" fill="#455A64"/>
<path d="M170.704 61.7528C170.798 61.7321 170.976 62.2305 171.308 62.7729C171.634 63.3198 171.993 63.7089 171.93 63.7826C171.877 63.8545 171.381 63.549 171.02 62.947C170.655 62.3477 170.616 61.7658 170.704 61.7528Z" fill="#455A64"/>
<path d="M168.969 60.8212C169.063 60.7934 169.31 61.4012 169.752 62.0608C170.188 62.7249 170.652 63.1889 170.59 63.2647C170.538 63.3365 169.942 62.9605 169.471 62.2472C168.997 61.5371 168.883 60.8407 168.969 60.8212Z" fill="#455A64"/>
<path d="M160.347 49.4229C160.339 49.4145 160.383 49.3627 160.477 49.2708C160.566 49.173 160.719 49.0559 160.924 48.9109C161.339 48.6384 162.031 48.3387 162.934 48.2876C163.828 48.2313 164.932 48.4183 165.965 49.0332C166.995 49.6462 167.895 50.654 168.538 51.856C169.006 52.7291 169.322 53.6334 169.544 54.4806L169.313 54.3796C170.234 53.9065 171.202 53.7136 172.057 53.7214C172.915 53.7175 173.662 53.8981 174.245 54.1214C174.829 54.3473 175.254 54.6114 175.526 54.8153C175.794 55.023 175.923 55.1544 175.913 55.1667C175.88 55.2172 175.329 54.7026 174.177 54.3123C173.057 53.9259 171.215 53.7414 169.464 54.6644L169.285 54.7583L169.232 54.5628C169.005 53.7369 168.692 52.8586 168.24 52.0152C167.62 50.8553 166.767 49.8909 165.804 49.2986C164.841 48.7057 163.795 48.5012 162.943 48.5258C162.084 48.5452 161.412 48.795 160.991 49.0242C160.569 49.2604 160.369 49.4481 160.347 49.4229Z" fill="#455A64"/>
<path d="M154.206 50.9037C154.22 50.9393 153.905 50.9134 153.632 51.2837C153.505 51.461 153.397 51.7348 153.442 52.0377C153.486 52.3361 153.711 52.6507 154.057 52.8352C154.401 53.028 154.849 53.0843 155.305 52.9685C155.763 52.8572 156.216 52.6015 156.658 52.2772C157.104 51.9568 157.556 51.5646 158.109 51.2623C158.657 50.9594 159.275 50.74 159.925 50.617C161.23 50.3742 162.516 50.5302 163.594 50.8921C164.676 51.2565 165.559 51.7969 166.238 52.3109C166.92 52.8267 167.407 53.3193 167.728 53.6688C168.045 54.0222 168.199 54.2358 168.184 54.2501C168.138 54.296 167.462 53.4798 166.098 52.5038C165.414 52.0248 164.544 51.5218 163.498 51.1872C162.458 50.8558 161.226 50.7173 159.987 50.9484C159.37 51.0655 158.786 51.2714 158.268 51.5523C157.749 51.8293 157.303 52.206 156.838 52.5309C156.376 52.8585 155.882 53.1303 155.367 53.2416C154.855 53.3607 154.325 53.2805 153.938 53.0423C153.545 52.8138 153.29 52.4319 153.255 52.0617C153.222 51.6908 153.369 51.3917 153.528 51.2027C153.879 50.8099 154.227 50.8959 154.206 50.9037Z" fill="#455A64"/>
<path d="M186.482 84.5776L200.752 110.091C201.583 112.254 201.103 115.077 199.652 116.872L199.946 116.448C198.79 117.878 197.049 118.709 195.209 118.709H194.939C192.514 118.709 190.321 117.272 189.353 115.048L186.003 109.964L186.482 84.5776Z" fill="#7C5CFC"/>
<path d="M155.579 82.7523C158.379 81.3225 161.142 80.9995 164.159 80.9115C167.671 80.8092 172.621 80.318 176.406 80.7206C176.406 80.7206 187.939 80.3665 187.99 89.3053L186.465 123.616L188.934 138.322L154.377 139.366L154.625 122.017C154.199 112.991 155.109 100.208 155.109 100.208C154.577 95.3559 151.922 93.1714 151.545 90.016C151.212 87.2256 153.078 84.03 155.579 82.7523Z" fill="#7C5CFC"/>
<path d="M165.318 124.115C165.358 124.065 166.103 124.735 167.51 125.48C168.903 126.227 171.023 126.984 173.448 127.027C175.874 127.07 178.02 126.388 179.439 125.691C180.871 124.996 181.64 124.352 181.677 124.405C181.69 124.421 181.511 124.595 181.157 124.874C180.803 125.153 180.261 125.523 179.546 125.904C178.13 126.669 175.936 127.409 173.443 127.365C170.949 127.32 168.784 126.504 167.395 125.689C166.695 125.284 166.166 124.895 165.822 124.603C165.477 124.312 165.305 124.131 165.318 124.115Z" fill="#263238"/>
<path d="M187.99 89.3052C188.002 89.3058 188.009 89.4223 188.013 89.645C188.013 89.9058 188.014 90.2269 188.014 90.6165C187.998 91.5104 187.975 92.7182 187.949 94.1888C187.875 97.2044 187.743 101.37 187.549 105.968C187.354 110.569 187.131 114.731 186.923 117.742C186.816 119.246 186.724 120.464 186.64 121.304C186.6 121.692 186.567 122.012 186.54 122.27C186.514 122.491 186.493 122.606 186.482 122.606C186.47 122.605 186.467 122.488 186.472 122.265C186.482 122.005 186.495 121.684 186.51 121.294C186.554 120.402 186.613 119.196 186.684 117.727C186.822 114.669 187.007 110.529 187.212 105.954C187.405 101.379 187.581 97.2394 187.711 94.1804C187.782 92.7117 187.84 91.5046 187.884 90.612C187.909 90.2224 187.929 89.9026 187.946 89.6424C187.963 89.421 187.978 89.3045 187.99 89.3052Z" fill="#263238"/>
<path d="M195.236 92.2683C195.236 92.2683 196.543 96.1066 196.775 96.6264C196.775 96.6264 200.002 105.955 201.054 112.255L190.737 93.6237C190.648 93.634 195.097 92.3065 195.236 92.2683Z" fill="#7C5CFC"/>
<path d="M190.154 91.1424C190.174 91.1307 190.393 91.4725 190.771 92.0984C191.182 92.7696 191.728 93.6615 192.388 94.7412C193.748 96.9762 195.747 99.9886 197.75 103.455C198.752 105.192 199.59 106.904 200.314 108.485C201.035 110.067 201.405 111.665 201.276 112.997C201.171 114.328 200.743 115.346 200.359 115.975C200.169 116.293 199.991 116.518 199.864 116.665C199.733 116.809 199.66 116.88 199.652 116.873C199.625 116.851 199.906 116.551 200.245 115.911C200.587 115.277 200.967 114.273 201.038 112.983C201.132 111.692 200.757 110.168 200.031 108.612C199.299 107.054 198.453 105.347 197.457 103.624C195.464 100.173 193.493 97.1348 192.184 94.8655C191.521 93.736 191.004 92.8104 190.658 92.1651C190.314 91.5165 190.133 91.1534 190.154 91.1424Z" fill="#263238"/>
<path d="M126.59 100.671L134.586 95.4403L139.633 104.183C139.633 104.183 146.63 94.4577 149.809 88.7598C152.734 83.5157 156.518 82.1033 158.344 81.7228C158.884 81.6101 159.373 82.0593 159.313 82.6076L156.555 101.518C156.207 102.503 150.436 110.87 147.21 115.08C141.827 122.108 133.896 117.61 131.717 112.692C129.989 108.788 127.298 102.857 126.59 100.671Z" fill="#7C5CFC"/>
<path d="M137.334 112.074C137.289 112.072 137.258 111.592 137.263 110.815C137.273 110.039 137.316 108.956 137.563 107.782C137.81 106.606 138.259 105.593 138.702 104.941C139.141 104.283 139.525 103.971 139.552 103.999C139.592 104.035 139.278 104.398 138.905 105.065C138.529 105.727 138.132 106.711 137.892 107.853C137.652 108.994 137.571 110.058 137.501 110.827C137.435 111.597 137.382 112.076 137.334 112.074Z" fill="#263238"/>
<path d="M134.993 108.167C134.954 108.166 134.911 107.745 135.062 107.082C135.213 106.427 135.599 105.532 136.328 104.78C137.036 104.024 137.964 103.565 138.68 103.612C139.396 103.64 139.729 103.993 139.696 104.014C139.671 104.062 139.315 103.813 138.682 103.85C138.054 103.867 137.243 104.3 136.571 105.013C135.889 105.717 135.493 106.536 135.291 107.147C135.09 107.762 135.046 108.171 134.993 108.167Z" fill="#263238"/>
<path d="M158.865 84.0588C158.873 84.0497 158.953 84.1099 159.1 84.2342C159.253 84.3526 159.461 84.5461 159.703 84.8225C160.184 85.3695 160.812 86.262 161.207 87.5236C161.625 88.7709 161.804 90.3657 161.586 92.0933C161.475 92.9548 161.269 93.8545 160.896 94.7322C160.537 95.6092 160.068 96.4604 159.594 97.3348C157.625 100.791 155.578 103.749 154.07 105.866C153.312 106.923 152.682 107.766 152.23 108.336C152.007 108.623 151.826 108.839 151.701 108.985C151.576 109.13 151.506 109.203 151.496 109.196C151.476 109.18 151.709 108.853 152.125 108.257C152.57 107.615 153.16 106.762 153.875 105.73C155.329 103.582 157.342 100.606 159.299 97.1704C159.77 96.3044 160.238 95.4578 160.591 94.6053C160.954 93.7632 161.161 92.892 161.278 92.0531C161.507 90.3741 161.358 88.8188 160.979 87.5954C160.624 86.3585 160.044 85.4704 159.603 84.908C159.381 84.6245 159.19 84.4186 159.054 84.2853C158.923 84.1448 158.858 84.0672 158.865 84.0588Z" fill="#263238"/>
<g opacity="0.3">
<path d="M167.788 125.656C165.238 124.492 163.224 121.826 163.15 119.127C163.13 118.401 163.261 117.616 163.778 117.107C164.532 116.363 165.806 116.501 166.744 116.994C168.289 117.805 169.299 119.329 170.384 120.695C171.469 122.062 172.847 123.405 174.584 123.57C175.329 123.641 176.074 123.485 176.818 123.402C177.562 123.319 178.351 123.318 179.013 123.668C179.674 124.017 180.151 124.812 179.919 125.523C179.919 125.523 176.865 127.423 173.678 127.198C170.492 126.973 167.788 125.656 167.788 125.656Z" fill="black"/>
</g>
<path d="M158.845 134.303C158.852 134.281 159.207 134.367 159.843 134.54C160.476 134.72 161.401 134.948 162.549 135.196C163.697 135.449 165.077 135.683 166.617 135.874C168.16 136.048 169.863 136.17 171.654 136.182C173.447 136.181 175.151 136.068 176.695 135.903C178.236 135.72 179.618 135.494 180.767 135.248C181.917 135.007 182.843 134.783 183.477 134.607C184.112 134.438 184.468 134.355 184.475 134.377C184.482 134.399 184.14 134.524 183.513 134.733C182.889 134.948 181.968 135.208 180.818 135.48C179.669 135.758 178.282 136.01 176.731 136.211C175.178 136.395 173.459 136.517 171.653 136.518C169.847 136.507 168.13 136.374 166.578 136.182C165.029 135.972 163.643 135.713 162.495 135.428C161.347 135.149 160.427 134.883 159.804 134.665C159.179 134.453 158.838 134.325 158.845 134.303Z" fill="#263238"/>
</g>
</g>
<defs>
<filter id="filter0_i_369_2718" x="0" y="0" width="234" height="204" filterUnits="userSpaceOnUse" color-interpolation-filters="sRGB">
<feFlood flood-opacity="0" result="BackgroundImageFix"/>
<feBlend mode="normal" in="SourceGraphic" in2="BackgroundImageFix" result="shape"/>
<feColorMatrix in="SourceAlpha" type="matrix" values="0 0 0 0 0 0 0 0 0 0 0 0 0 0 0 0 0 0 127 0" result="hardAlpha"/>
<feMorphology radius="6" operator="dilate" in="SourceAlpha" result="effect1_innerShadow_369_2718"/>
<feOffset dy="4"/>
<feGaussianBlur stdDeviation="31.1"/>
<feComposite in2="hardAlpha" operator="arithmetic" k2="-1" k3="1"/>
<feColorMatrix type="matrix" values="0 0 0 0 0.486275 0 0 0 0 0.360784 0 0 0 0 0.988235 0 0 0 0.25 0"/>
<feBlend mode="normal" in2="shape" result="effect1_innerShadow_369_2718"/>
</filter>
<clipPath id="clip0_369_2718">
<rect width="234" height="200" rx="16" fill="white"/>
</clipPath>
</defs>
</svg>
