<svg width="41" height="40" viewBox="0 0 41 40" fill="none" xmlns="http://www.w3.org/2000/svg">
<path d="M16.3333 16.0003C14.5 16.0003 12.9306 15.3475 11.625 14.042C10.3194 12.7364 9.66667 11.167 9.66667 9.33366C9.66667 7.50033 10.3194 5.93088 11.625 4.62533C12.9306 3.31977 14.5 2.66699 16.3333 2.66699C18.1667 2.66699 19.7361 3.31977 21.0417 4.62533C22.3472 5.93088 23 7.50033 23 9.33366C23 11.167 22.3472 12.7364 21.0417 14.042C19.7361 15.3475 18.1667 16.0003 16.3333 16.0003ZM34.8333 35.167L29.5 29.8337C28.9167 30.167 28.2917 30.4448 27.625 30.667C26.9583 30.8892 26.25 31.0003 25.5 31.0003C23.4167 31.0003 21.6458 30.2712 20.1875 28.8128C18.7292 27.3545 18 25.5837 18 23.5003C18 21.417 18.7292 19.6462 20.1875 18.1878C21.6458 16.7295 23.4167 16.0003 25.5 16.0003C27.5833 16.0003 29.3542 16.7295 30.8125 18.1878C32.2708 19.6462 33 21.417 33 23.5003C33 24.2503 32.8889 24.9587 32.6667 25.6253C32.4444 26.292 32.1667 26.917 31.8333 27.5003L37.1667 32.8337L34.8333 35.167ZM25.5 27.667C26.6667 27.667 27.6528 27.2642 28.4583 26.4587C29.2639 25.6531 29.6667 24.667 29.6667 23.5003C29.6667 22.3337 29.2639 21.3475 28.4583 20.542C27.6528 19.7364 26.6667 19.3337 25.5 19.3337C24.3333 19.3337 23.3472 19.7364 22.5417 20.542C21.7361 21.3475 21.3333 22.3337 21.3333 23.5003C21.3333 24.667 21.7361 25.6531 22.5417 26.4587C23.3472 27.2642 24.3333 27.667 25.5 27.667ZM16.375 17.667C15.2083 19.3892 14.625 21.3337 14.625 23.5003C14.625 25.667 15.2083 27.6114 16.375 29.3337H3V24.7087C3 23.7642 3.23611 22.8892 3.70833 22.0837C4.18056 21.2781 4.83333 20.667 5.66667 20.2503C7.08333 19.5281 8.68056 18.917 10.4583 18.417C12.2361 17.917 14.2083 17.667 16.375 17.667Z" fill="#7C5CFC"/>
</svg>
