<svg width="40" height="40" viewBox="0 0 40 40" fill="none" xmlns="http://www.w3.org/2000/svg">
<path d="M20.0003 15.6667L14.167 9.83333L20.0003 4L25.8337 9.83333L20.0003 15.6667ZM1.66699 34V27.3333C1.66699 26.3889 1.99338 25.5972 2.64616 24.9583C3.29894 24.3194 4.08366 24 5.00033 24H10.4587C11.0142 24 11.542 24.1389 12.042 24.4167C12.542 24.6944 12.9448 25.0694 13.2503 25.5417C14.0559 26.625 15.0489 27.4722 16.2295 28.0833C17.41 28.6944 18.667 29 20.0003 29C21.3614 29 22.6323 28.6944 23.8128 28.0833C24.9934 27.4722 25.9725 26.625 26.7503 25.5417C27.1114 25.0694 27.535 24.6944 28.0212 24.4167C28.5073 24.1389 29.0142 24 29.542 24H35.0003C35.9448 24 36.7364 24.3194 37.3753 24.9583C38.0142 25.5972 38.3337 26.3889 38.3337 27.3333V34H26.667V30.2083C25.6948 30.9028 24.6462 31.4306 23.5212 31.7917C22.3962 32.1528 21.2225 32.3333 20.0003 32.3333C18.8059 32.3333 17.6392 32.1458 16.5003 31.7708C15.3614 31.3958 14.3059 30.8611 13.3337 30.1667V34H1.66699ZM6.66699 22.3333C5.2781 22.3333 4.09755 21.8472 3.12533 20.875C2.1531 19.9028 1.66699 18.7222 1.66699 17.3333C1.66699 15.9167 2.1531 14.7292 3.12533 13.7708C4.09755 12.8125 5.2781 12.3333 6.66699 12.3333C8.08366 12.3333 9.27116 12.8125 10.2295 13.7708C11.1878 14.7292 11.667 15.9167 11.667 17.3333C11.667 18.7222 11.1878 19.9028 10.2295 20.875C9.27116 21.8472 8.08366 22.3333 6.66699 22.3333ZM33.3337 22.3333C31.9448 22.3333 30.7642 21.8472 29.792 20.875C28.8198 19.9028 28.3337 18.7222 28.3337 17.3333C28.3337 15.9167 28.8198 14.7292 29.792 13.7708C30.7642 12.8125 31.9448 12.3333 33.3337 12.3333C34.7503 12.3333 35.9378 12.8125 36.8962 13.7708C37.8545 14.7292 38.3337 15.9167 38.3337 17.3333C38.3337 18.7222 37.8545 19.9028 36.8962 20.875C35.9378 21.8472 34.7503 22.3333 33.3337 22.3333Z" fill="#7C5CFC"/>
</svg>
