<svg width="94" height="93" viewBox="0 0 94 93" fill="none" xmlns="http://www.w3.org/2000/svg">
<g filter="url(#filter0_d_225_822)">
<rect x="14.1396" y="5.99988" width="67.7204" height="67" rx="17.2903" fill="#7C5CFC" shape-rendering="crispEdges"/>
<path fill-rule="evenodd" clip-rule="evenodd" d="M48.707 20.5516C48.2412 20.4559 47.7609 20.4559 47.2952 20.5516C46.7569 20.6624 46.2757 20.9318 45.8932 21.1461L45.7889 21.2044L32.8244 28.4069C32.7886 28.4268 32.7517 28.4471 32.7138 28.468C32.3089 28.691 31.7997 28.9714 31.4087 29.3957C31.0707 29.7625 30.8149 30.1973 30.6584 30.671C30.4774 31.2188 30.4795 31.8001 30.4812 32.2624C30.4813 32.3056 30.4815 32.3477 30.4815 32.3887V46.6096C30.4815 46.6506 30.4813 46.6927 30.4812 46.7359C30.4795 47.1982 30.4774 47.7795 30.6584 48.3273C30.8149 48.801 31.0707 49.2358 31.4087 49.6026C31.7997 50.0269 32.3089 50.3073 32.7138 50.5303C32.7517 50.5512 32.7886 50.5715 32.8244 50.5914L45.7889 57.7939L45.8932 57.8522C46.2757 58.0664 46.7569 58.3359 47.2952 58.4467C47.7609 58.5424 48.2412 58.5424 48.707 58.4467C49.2453 58.3359 49.7264 58.0664 50.109 57.8522L50.2132 57.7939L63.1777 50.5914C63.1936 50.5826 63.2096 50.5737 63.2259 50.5648C63.2464 50.5534 63.2672 50.542 63.2883 50.5303C63.6933 50.3073 64.2024 50.0269 64.5934 49.6026C64.9315 49.2358 65.1873 48.801 65.3438 48.3273C65.5248 47.7795 65.5227 47.1982 65.521 46.7359C65.5208 46.6927 65.5207 46.6506 65.5207 46.6096V32.3887C65.5207 32.3477 65.5208 32.3056 65.521 32.2624C65.5227 31.8001 65.5248 31.2188 65.3438 30.671C65.1873 30.1973 64.9315 29.7625 64.5934 29.3957C64.2024 28.9714 63.6933 28.691 63.2883 28.4679L63.2869 28.4672C63.2496 28.4466 63.2131 28.4265 63.1777 28.4069L50.2132 21.2043L50.109 21.1461C49.7264 20.9318 49.2453 20.6623 48.707 20.5516ZM47.4906 24.2673C47.7561 24.1198 47.8916 24.0453 47.9927 23.9965L48.0011 23.9925L48.0095 23.9965C48.1106 24.0453 48.2461 24.1198 48.5116 24.2673L60.1611 30.7393L48.001 37.4949L35.841 30.7393L47.4906 24.2673ZM33.9854 33.7168L46.2491 40.53L46.2491 54.0413L34.5261 47.5285C34.2459 47.3728 34.1028 47.2925 34.0024 47.2285L33.9939 47.2231L33.9933 47.213C33.9861 47.0942 33.9854 46.9301 33.9854 46.6096V33.7168Z" fill="white"/>
</g>
<defs>
<filter id="filter0_d_225_822" x="0.439649" y="0.299878" width="93.1205" height="92.4" filterUnits="userSpaceOnUse" color-interpolation-filters="sRGB">
<feFlood flood-opacity="0" result="BackgroundImageFix"/>
<feColorMatrix in="SourceAlpha" type="matrix" values="0 0 0 0 0 0 0 0 0 0 0 0 0 0 0 0 0 0 127 0" result="hardAlpha"/>
<feMorphology radius="3" operator="erode" in="SourceAlpha" result="effect1_dropShadow_225_822"/>
<feOffset dx="-1" dy="7"/>
<feGaussianBlur stdDeviation="7.85"/>
<feComposite in2="hardAlpha" operator="out"/>
<feColorMatrix type="matrix" values="0 0 0 0 0 0 0 0 0 0 0 0 0 0 0 0 0 0 0.1 0"/>
<feBlend mode="normal" in2="BackgroundImageFix" result="effect1_dropShadow_225_822"/>
<feBlend mode="normal" in="SourceGraphic" in2="effect1_dropShadow_225_822" result="shape"/>
</filter>
</defs>
</svg>
