<svg width="516" height="526" viewBox="0 0 516 526" fill="none" xmlns="http://www.w3.org/2000/svg">
<g clip-path="url(#clip0_329_2110)">
<path d="M535.671 456.636H492.479V456.962H535.671V456.636Z" fill="#EBEBEB"/>
<path d="M380.911 460.175H369.575V460.501H380.911V460.175Z" fill="#EBEBEB"/>
<path d="M491.175 444.527H466.148V444.853H491.175V444.527Z" fill="#EBEBEB"/>
<path d="M73.7299 446.718H17.4062V447.044H73.7299V446.718Z" fill="#EBEBEB"/>
<path d="M93.5991 446.718H85.3408V447.044H93.5991V446.718Z" fill="#EBEBEB"/>
<path d="M242.592 452.225H120.438V452.551H242.592V452.225Z" fill="#EBEBEB"/>
<path d="M259.875 377.491H8.07409C3.9704 377.491 0.630859 374.151 0.630859 370.048V16.1005C0.630859 11.9968 3.9704 8.65723 8.07409 8.65723H259.875C263.978 8.65723 267.317 11.9968 267.317 16.1005V370.048C267.317 374.151 263.978 377.491 259.875 377.491ZM8.07409 8.98453C4.14905 8.98453 0.956859 12.1767 0.956859 16.1018V370.049C0.956859 373.974 4.14905 377.166 8.07409 377.166H259.875C263.799 377.166 266.991 373.974 266.991 370.049V16.1005C266.991 12.1767 263.799 8.98323 259.875 8.98323L8.07409 8.98453Z" fill="#EBEBEB"/>
<path d="M541.927 377.491H290.126C286.023 377.491 282.684 374.151 282.684 370.048V16.1005C282.684 11.9968 286.023 8.65723 290.126 8.65723H541.927C546.032 8.65723 549.37 11.9968 549.37 16.1005V370.048C549.37 374.151 546.03 377.491 541.927 377.491ZM290.126 8.98453C286.202 8.98453 283.01 12.1767 283.01 16.1018V370.049C283.01 373.974 286.202 377.166 290.126 377.166H541.927C545.852 377.166 549.044 373.974 549.044 370.049V16.1005C549.044 12.1767 545.852 8.98323 541.927 8.98323L290.126 8.98453Z" fill="#EBEBEB"/>
<path d="M601 435.647H-51V435.973H601V435.647Z" fill="#EBEBEB"/>
<path d="M104.607 347.434C103.505 334.84 90.6492 330.126 75.4146 331.459C60.1813 332.791 48.3384 339.667 49.4402 352.261L104.607 347.434Z" fill="#7C71BF"/>
<path d="M74.9113 325.703C81.9816 325.085 84.2389 319.112 83.6195 312.042C83.0014 304.972 79.7414 299.482 72.6711 300.101C65.6008 300.72 63.3436 306.692 63.963 313.762C64.5811 320.832 67.8411 326.322 74.9113 325.703Z" fill="#7C71BF"/>
<path d="M392.491 79.0978C392.832 82.9967 389.948 86.4341 386.049 86.7744C382.15 87.1161 378.713 84.2316 378.372 80.3327C378.031 76.4337 380.915 72.9964 384.814 72.6547C388.713 72.3144 392.15 75.1988 392.491 79.0978Z" fill="#7C5CFC"/>
<path d="M431.706 75.6671C432.047 79.5661 429.163 83.0034 425.264 83.3438C421.365 83.6854 417.928 80.801 417.586 76.902C417.244 73.003 420.129 69.5657 424.028 69.2241C427.928 68.8837 431.364 71.7681 431.706 75.6671Z" fill="#7C5CFC"/>
<path d="M470.921 72.2363C471.262 76.1353 468.378 79.5726 464.479 79.9143C460.58 80.2559 457.143 77.3715 456.801 73.4725C456.459 69.5736 459.344 66.1362 463.243 65.7946C467.142 65.4529 470.579 68.3374 470.921 72.2363Z" fill="#7C5CFC"/>
<path d="M395.988 119.07C396.33 122.969 393.445 126.406 389.546 126.748C385.647 127.089 382.21 124.205 381.868 120.306C381.527 116.407 384.411 112.97 388.31 112.629C392.21 112.286 395.648 115.169 395.988 119.07Z" fill="#7C5CFC"/>
<path d="M435.203 115.637C435.545 119.536 432.66 122.974 428.761 123.315C424.862 123.657 421.425 120.773 421.083 116.874C420.741 112.975 423.626 109.537 427.525 109.196C431.424 108.855 434.861 111.74 435.203 115.637Z" fill="#7C5CFC"/>
<path d="M474.419 112.206C474.76 116.105 471.876 119.543 467.977 119.883C464.078 120.225 460.641 117.34 460.299 113.441C459.957 109.542 462.842 106.105 466.741 105.763C470.64 105.424 474.077 108.309 474.419 112.206Z" fill="#7C5CFC"/>
<path d="M399.486 159.04C399.827 162.939 396.943 166.376 393.044 166.718C389.145 167.059 385.708 164.175 385.367 160.276C385.026 156.377 387.91 152.939 391.809 152.598C395.707 152.256 399.144 155.141 399.486 159.04Z" fill="#7C5CFC"/>
<path d="M438.701 155.609C439.043 159.508 436.158 162.945 432.259 163.287C428.36 163.628 424.923 160.744 424.581 156.845C424.24 152.946 427.124 149.509 431.023 149.168C434.922 148.825 438.359 151.71 438.701 155.609Z" fill="#7C5CFC"/>
<path d="M477.915 152.178C478.256 156.077 475.372 159.515 471.473 159.855C467.574 160.195 464.137 157.312 463.795 153.413C463.453 149.514 466.338 146.077 470.237 145.736C474.137 145.395 477.574 148.279 477.915 152.178Z" fill="#7C5CFC"/>
<path d="M469.442 154.48L388.873 161.529L460.309 74.7259L387.115 81.1298C386.26 81.2041 385.506 80.5717 385.432 79.7163C385.357 78.8609 385.99 78.1071 386.845 78.0328L467.414 70.9834L395.978 157.787L469.172 151.383C470.027 151.309 470.781 151.941 470.855 152.795C470.93 153.65 470.297 154.406 469.442 154.48Z" fill="#E6E6E6"/>
<path d="M470.677 309.43C470.411 308.662 469.724 308.092 468.913 308.039C465.217 307.791 462.096 306.409 459.625 303.927C456.402 300.692 454.508 295.768 454.201 289.922C454.144 288.833 453.231 287.985 452.141 287.978C450.933 287.97 449.971 288.99 450.036 290.195C450.408 297.051 452.726 302.915 456.667 306.873C459.746 309.965 463.717 311.776 468.241 312.171C468.32 312.178 468.421 312.187 468.539 312.196C470.04 312.315 471.17 310.852 470.677 309.43Z" fill="#7C71BF"/>
<path d="M466.511 334.459C449.228 332.947 436.766 321.168 432.821 302.787C432.57 301.614 433.317 300.46 434.498 300.255C435.59 300.066 436.656 300.758 436.887 301.841C440.421 318.372 451.515 328.958 466.874 330.302C483.718 331.776 501.808 320.694 505.048 292.757C505.18 291.626 506.167 290.79 507.302 290.889C508.464 290.991 509.335 292.027 509.198 293.185C506.093 319.525 488.775 336.408 466.511 334.459Z" fill="#7C71BF"/>
<path d="M433.905 284.466C432.743 284.365 431.872 283.328 432.009 282.17C435.115 255.829 452.435 238.948 474.697 240.894C494.204 242.601 507.356 257.205 509.404 279.203C509.513 280.365 508.611 281.377 507.447 281.446H507.443C506.307 281.514 505.349 280.656 505.241 279.524C503.36 259.705 491.656 246.567 474.332 245.052C457.488 243.578 439.398 254.658 436.157 282.596C436.027 283.73 435.04 284.565 433.905 284.466Z" fill="#7C71BF"/>
<path d="M467.36 323.287C464.147 323.005 461.133 322.255 458.368 321.046C457.242 320.555 456.778 319.2 457.366 318.121C457.879 317.181 459.022 316.774 460.002 317.206C462.602 318.348 465.476 319.02 468.573 319.189C481.348 319.921 494.831 310.873 496.152 289.01C496.966 275.545 492.354 264.668 483.742 259.466C482.819 258.908 482.476 257.741 482.952 256.774C483.493 255.674 484.865 255.269 485.913 255.901C495.878 261.918 501.23 274.194 500.319 289.261C499.045 310.343 485.891 324.364 468.333 323.358C468.008 323.337 467.682 323.314 467.36 323.287Z" fill="#7C71BF"/>
<path d="M448.779 310.281C447.77 310.97 446.39 310.648 445.778 309.59C442.081 303.195 440.352 294.95 440.888 286.094C442.107 265.928 454.198 252.221 470.616 251.951C471.834 251.932 472.819 252.95 472.75 254.167V254.172C472.687 255.256 471.804 256.109 470.719 256.129C458.544 256.369 446.311 265.573 445.055 286.346C444.568 294.41 446.11 301.852 449.417 307.542C449.96 308.477 449.673 309.67 448.779 310.281Z" fill="#7C71BF"/>
<path d="M477.29 308.575C476.865 307.609 477.236 306.493 478.141 305.947C483.624 302.646 486.993 295.716 487.05 287.364C487.096 280.673 485.154 275.014 481.582 271.428C478.828 268.661 475.267 267.268 470.999 267.276C464.57 267.293 459.365 270.815 456.48 277.013C456.027 277.988 454.897 278.45 453.887 278.078C452.738 277.656 452.192 276.332 452.711 275.224C456.278 267.61 462.972 263.123 470.987 263.101C476.333 263.093 481.02 264.948 484.54 268.482C488.903 272.864 491.276 279.578 491.223 287.392C491.156 297.248 487.004 305.511 480.242 309.554C479.178 310.191 477.789 309.711 477.29 308.575Z" fill="#7C71BF"/>
<path d="M462.267 293.244C461.081 293.72 459.755 293.031 459.451 291.79C459.313 291.225 459.198 290.643 459.108 290.045C457.928 282.242 462.123 275.447 468.866 274.242C472.347 273.617 475.45 274.436 477.822 276.554C478.784 277.414 478.71 278.949 477.66 279.702L477.53 279.794C476.74 280.36 475.698 280.232 474.961 279.599C473.546 278.385 471.749 277.965 469.6 278.349C464.461 279.269 462.508 284.615 463.236 289.42C463.306 289.888 463.395 290.342 463.502 290.778C463.749 291.801 463.243 292.85 462.267 293.244Z" fill="#7C71BF"/>
<path d="M469.162 301.273C469.157 301.273 469.151 301.271 469.145 301.271C467.707 301.143 466.913 299.532 467.68 298.307L467.857 298.024C468.242 297.411 468.929 297.074 469.651 297.125C470.269 297.166 470.924 297.127 471.609 297.005C476.096 296.201 478.155 292.023 478.119 287.777C478.11 286.717 478.844 285.802 479.892 285.644C481.116 285.459 482.273 286.369 482.296 287.608C482.42 294.412 478.414 300.029 472.343 301.113C471.247 301.309 470.182 301.363 469.162 301.273Z" fill="#7C71BF"/>
<path d="M470.089 293.568C467.867 293.374 466.211 291.877 465.61 289.74C465.262 288.501 466.301 287.301 467.582 287.413L468.06 287.455C468.803 287.52 469.416 288.029 469.664 288.733C469.785 289.077 470.017 289.372 470.452 289.41C471.454 289.497 471.631 288.059 471.657 287.769C471.675 287.563 471.718 286.764 471.376 286.293C471.041 285.832 470.812 285.304 470.861 284.735C471.024 282.879 473.369 282.134 474.552 283.573C475.492 284.718 475.974 286.321 475.815 288.133C475.516 291.546 473.108 293.833 470.089 293.568Z" fill="#7C71BF"/>
<path d="M430.872 246.9C429.723 246.799 428.874 245.787 428.975 244.638L430.557 226.557L448.638 228.139C449.787 228.239 450.636 229.251 450.535 230.4C450.435 231.549 449.423 232.398 448.274 232.297L434.351 231.079L433.133 245.002C433.033 246.151 432.02 247 430.872 246.9Z" fill="#7C71BF"/>
<path d="M516.843 254.421C515.694 254.321 514.845 253.309 514.945 252.16L516.163 238.237L502.24 237.019C501.092 236.919 500.243 235.907 500.343 234.758C500.443 233.609 501.455 232.76 502.604 232.861L520.685 234.442L519.104 252.524C519.003 253.672 517.991 254.521 516.843 254.421Z" fill="#7C71BF"/>
<path d="M510.434 351.633L492.353 350.051C491.204 349.951 490.355 348.939 490.455 347.79C490.556 346.641 491.568 345.792 492.716 345.892L506.639 347.11L507.857 333.188C507.958 332.039 508.969 331.19 510.118 331.29C511.267 331.391 512.116 332.403 512.016 333.551L510.434 351.633Z" fill="#7C71BF"/>
<path d="M438.385 345.329L420.304 343.747L421.885 325.666C421.986 324.517 422.998 323.668 424.147 323.769C425.295 323.869 426.144 324.881 426.044 326.03L424.826 339.953L438.749 341.171C439.898 341.271 440.747 342.283 440.646 343.432C440.546 344.581 439.534 345.43 438.385 345.329Z" fill="#7C71BF"/>
<path d="M46.4478 306.196C45.7424 306.257 45.119 305.736 45.0577 305.029L44.085 293.912L55.2016 292.939C55.9083 292.878 56.5303 293.4 56.5916 294.107C56.6529 294.812 56.1313 295.435 55.4245 295.497L46.8638 296.245L47.6123 304.806C47.6762 305.513 47.1533 306.135 46.4478 306.196Z" fill="#E0E0E0"/>
<path d="M99.3072 301.572C98.6017 301.634 97.9784 301.112 97.9171 300.405L97.1686 291.844L88.6078 292.593C87.9024 292.654 87.2791 292.133 87.2178 291.426C87.1565 290.72 87.6781 290.097 88.3849 290.036L99.5015 289.063L100.474 300.18C100.536 300.888 100.014 301.511 99.3072 301.572Z" fill="#E0E0E0"/>
<path d="M104.784 349.442L93.6674 350.415C92.962 350.476 92.3386 349.954 92.2774 349.248C92.2161 348.542 92.7377 347.919 93.4444 347.858L102.005 347.109L101.257 338.548C101.195 337.842 101.717 337.22 102.424 337.158C103.129 337.097 103.753 337.619 103.814 338.325L104.784 349.442Z" fill="#E0E0E0"/>
<path d="M60.4839 353.317L49.3673 354.29L48.3945 343.172C48.3333 342.467 48.8548 341.844 49.5616 341.782C50.2671 341.721 50.8904 342.243 50.9517 342.949L51.7002 351.51L60.2609 350.762C60.9664 350.7 61.5897 351.222 61.651 351.929C61.7123 352.633 61.1894 353.255 60.4839 353.317Z" fill="#E0E0E0"/>
<path d="M98.4158 120.796L55.8649 124.519L54.9939 114.562C54.0902 104.231 61.759 95.093 72.088 94.1894C82.4183 93.2857 91.5567 100.955 92.4604 111.284L92.9663 117.069L99.1056 116.532L98.5996 110.746C97.3999 97.0308 85.2662 86.8505 71.5507 88.0501C57.8353 89.2498 47.6549 101.384 48.8546 115.099L49.7309 125.114C44.7796 126.079 41.2549 130.645 41.7035 135.782L44.7431 170.524C45.2243 176.018 50.0673 180.081 55.5611 179.601L103.196 175.434C108.69 174.954 112.753 170.111 112.273 164.617L109.234 129.875C108.753 124.38 103.91 120.315 98.4158 120.796ZM80.341 147.567L81.3881 159.53C81.5603 161.494 80.1076 163.224 78.1438 163.397C76.18 163.569 74.4495 162.116 74.2774 160.152L73.2303 148.189C71.6681 147.227 70.5532 145.58 70.3811 143.611C70.0916 140.305 72.5379 137.391 75.8435 137.101C79.1492 136.812 82.0636 139.258 82.3531 142.564C82.5239 144.532 81.7115 146.348 80.341 147.567Z" fill="#7C5CFC"/>
<path d="M171.261 140.936L166.959 133.923C164.628 134.245 162.722 134.245 160.392 133.923L156.09 140.936L155.264 140.717C152.492 139.98 149.818 138.869 147.317 137.418L146.577 136.989L148.402 129.376C148.549 128.76 149.168 128.38 149.785 128.527C150.402 128.675 150.781 129.294 150.633 129.911L149.209 135.849C151.067 136.861 153.02 137.672 155.034 138.27L159.235 131.418L159.995 131.542C162.431 131.94 164.917 131.94 167.353 131.542L168.113 131.418L172.314 138.27C174.328 137.671 176.281 136.861 178.139 135.849L176.269 128.045L176.895 127.596C178.601 126.371 180.121 124.922 181.427 123.283C181.814 122.795 182.504 122.68 183.008 123.044C183.533 123.421 183.655 124.164 183.255 124.67C181.972 126.29 180.498 127.74 178.858 128.997L180.773 136.989L180.035 137.418C177.534 138.869 174.86 139.98 172.087 140.717L171.261 140.936ZM144.894 125.626C144.533 125.213 144.183 124.788 143.848 124.351L135.854 126.265L135.425 125.527C133.974 123.026 132.863 120.351 132.126 117.579L131.907 116.754L138.92 112.452C138.758 111.283 138.68 110.204 138.68 109.168C138.68 108.134 138.76 107.053 138.92 105.885L131.907 101.584L132.126 100.759C132.863 97.9865 133.974 95.312 135.425 92.8109L135.854 92.0728L143.847 93.9871C145.186 92.2397 146.744 90.6828 148.491 89.3423L147.041 83.2943C146.894 82.6788 147.274 82.0607 147.888 81.9134L147.892 81.9121C148.507 81.7647 149.125 82.1442 149.273 82.7584L151.077 90.2929L150.446 90.7467C148.443 92.1889 146.687 93.9454 145.246 95.9483L144.796 96.5729L136.992 94.703C135.981 96.5612 135.171 98.5146 134.573 100.528L141.421 104.728L141.297 105.488C141.078 106.833 140.971 108.036 140.971 109.167C140.971 110.3 141.078 111.502 141.297 112.846L141.421 113.604L134.571 117.807C135.169 119.822 135.98 121.774 136.99 123.632L144.795 121.762L145.245 122.387C145.668 122.976 146.123 123.549 146.603 124.098C147.002 124.554 146.992 125.236 146.555 125.657L146.513 125.698C146.054 126.145 145.316 126.109 144.894 125.626ZM191.495 126.266L188.548 125.561C187.931 125.414 187.551 124.794 187.699 124.177C187.846 123.562 188.466 123.181 189.082 123.328L190.355 123.634C191.366 121.775 192.175 119.822 192.774 117.809L185.924 113.606L186.048 112.847C186.267 111.504 186.374 110.3 186.374 109.168C186.374 108.036 186.267 106.834 186.048 105.49L185.924 104.729L192.773 100.529C192.175 98.5146 191.364 96.5625 190.354 94.7043L182.549 96.5742L182.099 95.9496C180.659 93.9467 178.902 92.1902 176.899 90.748L176.268 90.2942L178.138 82.4897C176.28 81.4791 174.326 80.6681 172.313 80.0695L168.111 86.9194L167.351 86.7969C164.914 86.4017 162.429 86.4017 159.991 86.7969L159.233 86.9194L155.031 80.0708C154.77 80.1478 154.509 80.2299 154.249 80.3147C153.667 80.5051 153.041 80.1921 152.831 79.6183C152.61 79.0146 152.924 78.3339 153.534 78.1344C154.107 77.9466 154.684 77.7758 155.259 77.6232L156.086 77.4028L160.388 84.4171C162.729 84.0924 164.613 84.0924 166.954 84.4171L171.255 77.4028L172.082 77.6219C174.854 78.36 177.529 79.471 180.03 80.921L180.768 81.35L178.853 89.3436C180.6 90.6841 182.158 92.2411 183.497 93.9884L191.49 92.0741L191.919 92.8122C193.37 95.3133 194.481 97.9878 195.218 100.76L195.437 101.586L188.424 105.886C188.586 107.055 188.664 108.136 188.664 109.17C188.664 110.205 188.584 111.285 188.424 112.453L195.437 116.755L195.218 117.58C194.481 120.353 193.37 123.027 191.919 125.528L191.495 126.266ZM163.353 120.342C157.527 120.178 152.668 115.322 152.501 109.496C152.333 103.624 156.721 98.7193 162.384 98.066C163.069 97.9865 163.675 98.5224 163.675 99.2122C163.675 99.7912 163.244 100.278 162.669 100.343C157.674 100.909 153.923 105.632 154.968 110.957C155.648 114.416 158.434 117.202 161.894 117.878C167.57 118.987 172.559 114.65 172.559 109.168C172.559 107.334 171.993 105.558 170.952 104.07C170.623 103.6 170.712 102.959 171.142 102.579C171.657 102.124 172.46 102.219 172.853 102.784C174.15 104.649 174.854 106.872 174.854 109.168C174.852 115.439 169.663 120.52 163.353 120.342Z" fill="#7C71BF"/>
<path d="M90.2411 236.388L87.4623 231.858C85.9575 232.066 84.7252 232.066 83.2204 231.858L80.4416 236.388L79.9082 236.246C78.1165 235.77 76.3888 235.052 74.7731 234.113L74.2958 233.836L75.4746 228.917C75.5698 228.519 75.9702 228.273 76.3679 228.369C76.7656 228.465 77.0108 228.865 76.9156 229.263L75.9962 233.099C77.1972 233.752 78.4582 234.276 79.7596 234.662L82.4732 230.237L82.9648 230.318C84.5388 230.574 86.144 230.574 87.7179 230.318L88.2095 230.237L90.9244 234.662C92.2258 234.276 93.4868 233.752 94.6878 233.099L93.479 228.058L93.8832 227.767C94.9851 226.975 95.967 226.039 96.8107 224.98C97.0611 224.666 97.507 224.592 97.833 224.826C98.1708 225.07 98.2503 225.55 97.9921 225.877C97.1628 226.923 96.2109 227.861 95.1507 228.673L96.3882 233.836L95.9109 234.113C94.2953 235.051 92.5675 235.768 90.7758 236.246L90.2411 236.388ZM73.207 226.498C72.9736 226.231 72.748 225.957 72.5315 225.674L67.3677 226.911L67.0912 226.434C66.1537 224.819 65.4365 223.091 64.9605 221.299L64.8184 220.766L69.3485 217.987C69.2441 217.232 69.1933 216.534 69.1933 215.865C69.1933 215.198 69.2441 214.499 69.3485 213.744L64.8184 210.965L64.9605 210.432C65.4365 208.64 66.1537 206.913 67.0912 205.296L67.3677 204.819L72.5315 206.057C73.3961 204.927 74.4028 203.922 75.532 203.056L74.5958 199.149C74.5006 198.752 74.7457 198.353 75.1421 198.257L75.1447 198.256C75.5425 198.161 75.9415 198.406 76.0367 198.804L77.2024 203.672L76.7943 203.965C75.5007 204.896 74.3663 206.031 73.4352 207.325L73.1444 207.73L68.1018 206.522C67.4498 207.723 66.9256 208.984 66.5396 210.285L70.9641 212.999L70.8846 213.491C70.7424 214.359 70.6746 215.136 70.6746 215.868C70.6746 216.599 70.7437 217.377 70.8846 218.245L70.9654 218.735L66.5409 221.45C66.9269 222.752 67.4511 224.013 68.1031 225.214L73.1457 224.006L73.4365 224.41C73.7103 224.791 74.0037 225.162 74.3141 225.516C74.5723 225.811 74.5645 226.252 74.2828 226.523L74.2554 226.549C73.9568 226.832 73.4808 226.808 73.207 226.498ZM103.312 226.91L101.409 226.455C101.011 226.36 100.764 225.96 100.86 225.562C100.955 225.164 101.355 224.919 101.753 225.014L102.576 225.211C103.228 224.01 103.752 222.749 104.138 221.448L99.7134 218.733L99.7942 218.242C99.9351 217.375 100.004 216.597 100.004 215.865C100.004 215.134 99.9351 214.357 99.7942 213.488L99.7147 212.997L104.139 210.283C103.753 208.981 103.229 207.721 102.577 206.52L97.5344 207.727L97.2436 207.323C96.3126 206.029 95.1781 204.893 93.8845 203.962L93.4764 203.669L94.6852 198.626C93.4842 197.973 92.2232 197.45 90.9218 197.063L88.2082 201.487L87.7179 201.408C86.144 201.152 84.5388 201.152 82.9635 201.408L82.4732 201.487L79.7596 197.063C79.5914 197.112 79.4219 197.166 79.2549 197.221C78.8794 197.343 78.4751 197.141 78.3395 196.771C78.1961 196.381 78.3995 195.941 78.7933 195.812C79.1637 195.691 79.5366 195.58 79.9069 195.482L80.4416 195.34L83.2204 199.872C84.733 199.662 85.9497 199.662 87.4623 199.872L90.2411 195.34L90.7745 195.482C92.5649 195.96 94.2927 196.677 95.9096 197.613L96.3869 197.891L95.1494 203.055C96.2787 203.921 97.284 204.926 98.1499 206.055L103.314 204.818L103.59 205.295C104.528 206.911 105.245 208.639 105.721 210.43L105.863 210.964L101.333 213.742C101.437 214.497 101.488 215.195 101.488 215.864C101.488 216.533 101.437 217.231 101.333 217.986L105.863 220.764L105.721 221.298C105.245 223.089 104.528 224.817 103.59 226.433L103.312 226.91ZM85.1334 223.083C81.3687 222.977 78.2313 219.84 78.1231 216.075C78.0135 212.282 80.8484 209.113 84.5075 208.691C84.9495 208.64 85.3407 208.987 85.3407 209.431C85.3407 209.806 85.0617 210.12 84.69 210.162C81.4639 210.527 79.0398 213.578 79.7153 217.019C80.1534 219.253 81.9542 221.054 84.1893 221.491C87.8561 222.208 91.0796 219.406 91.0796 215.864C91.0796 214.679 90.7145 213.531 90.0416 212.57C89.8291 212.268 89.8865 211.852 90.1642 211.606C90.498 211.312 91.0157 211.374 91.27 211.739C92.1085 212.944 92.5636 214.38 92.5636 215.864C92.561 219.916 89.2084 223.199 85.1334 223.083Z" fill="#E6E6E6"/>
<path d="M422.939 127.158H380.48L350.447 470.435H392.907C404.982 470.435 415.664 460.612 416.72 448.537L442.922 149.056C443.978 136.981 435.014 127.158 422.939 127.158Z" fill="#7C5CFC"/>
<path d="M414.276 127.158H270.576C258.501 127.158 247.819 136.981 246.762 149.056L220.561 448.537C219.505 460.612 228.469 470.435 240.544 470.435H384.243C396.318 470.435 407 460.612 408.057 448.537L434.258 149.056C435.314 136.981 426.351 127.158 414.276 127.158Z" fill="#7C5CFC"/>
<path opacity="0.3" d="M414.276 127.158H270.576C258.501 127.158 247.819 136.981 246.762 149.056L220.561 448.537C219.505 460.612 228.469 470.435 240.544 470.435H384.243C396.318 470.435 407 460.612 408.057 448.537L434.258 149.056C435.314 136.981 426.351 127.158 414.276 127.158Z" fill="white"/>
<path opacity="0.4" d="M413.661 134.174H375.775C373.539 134.174 371.441 135.641 370.613 137.782C367.55 145.697 359.794 151.118 351.532 151.118H329.128C320.866 151.118 314.056 145.696 312.378 137.782C311.924 135.641 310.083 134.175 307.848 134.175H269.961C261.742 134.175 254.497 140.837 253.777 149.056L227.576 448.537C226.858 456.756 232.937 463.418 241.156 463.418H384.856C393.075 463.418 400.32 456.756 401.04 448.537L427.241 149.056C427.959 140.837 421.88 134.174 413.661 134.174Z" fill="white"/>
<path d="M377.864 296.849H277.294C274.312 296.849 272.107 294.431 272.368 291.45L272.871 285.696C273.132 282.714 275.761 280.297 278.743 280.297H379.313C382.295 280.297 384.5 282.715 384.239 285.696L383.736 291.45C383.475 294.431 380.846 296.849 377.864 296.849Z" fill="white"/>
<path d="M375.691 321.677H275.121C272.139 321.677 269.934 319.26 270.195 316.279L270.698 310.524C270.959 307.542 273.588 305.125 276.57 305.125H377.14C380.122 305.125 382.327 307.543 382.066 310.524L381.563 316.279C381.302 319.26 378.673 321.677 375.691 321.677Z" fill="white"/>
<path opacity="0.1" d="M347.307 139.784C347.018 143.09 344.103 145.77 340.796 145.77C337.489 145.77 335.044 143.09 335.334 139.784C335.623 136.477 338.538 133.797 341.845 133.797C345.15 133.797 347.597 136.477 347.307 139.784Z" fill="black"/>
<path opacity="0.1" d="M344.591 139.784C344.433 141.59 342.841 143.054 341.034 143.054C339.228 143.054 337.891 141.59 338.049 139.784C338.207 137.978 339.799 136.513 341.606 136.513C343.413 136.513 344.749 137.978 344.591 139.784Z" fill="black"/>
<g opacity="0.8">
<path d="M395.97 149.769C395.002 149.769 394.284 148.984 394.369 148.016L394.65 144.809C394.734 143.84 395.588 143.055 396.557 143.055C397.526 143.055 398.243 143.84 398.159 144.809L397.878 148.016C397.793 148.984 396.939 149.769 395.97 149.769Z" fill="white"/>
<path d="M410.004 149.769C409.035 149.769 408.318 148.984 408.402 148.016L409.061 140.49C409.146 139.521 410 138.736 410.969 138.736C411.937 138.736 412.655 139.521 412.57 140.49L411.911 148.016C411.827 148.984 410.972 149.769 410.004 149.769Z" fill="white"/>
<path d="M402.987 149.77C402.018 149.77 401.301 148.985 401.386 148.016L401.855 142.65C401.94 141.681 402.794 140.896 403.763 140.896C404.732 140.896 405.449 141.681 405.364 142.65L404.895 148.016C404.81 148.985 403.956 149.77 402.987 149.77Z" fill="white"/>
</g>
<g opacity="0.8">
<path d="M275.828 149.77H267.02C266.471 149.77 266.065 149.325 266.113 148.776L266.527 144.046C266.575 143.497 267.059 143.053 267.606 143.053H276.415C276.964 143.053 277.369 143.497 277.321 144.046L276.908 148.776C276.86 149.325 276.377 149.77 275.828 149.77Z" fill="white"/>
<path d="M279.912 148.487C279.363 148.487 278.958 148.042 279.006 147.493L279.195 145.33C279.243 144.781 279.727 144.336 280.275 144.336C280.824 144.336 281.229 144.781 281.181 145.33L280.992 147.493C280.945 148.042 280.461 148.487 279.912 148.487Z" fill="white"/>
</g>
<path d="M361.309 259.024C378.856 242.227 380.605 215.577 365.215 199.499C349.824 183.421 323.123 184.004 305.576 200.8C288.029 217.597 286.28 244.247 301.67 260.325C317.061 276.403 343.762 275.821 361.309 259.024Z" fill="white"/>
<path d="M333.577 228.286C322.513 228.286 313.174 232.495 312.374 241.643L311.486 251.795H351.557L352.445 241.643C353.244 232.495 344.643 228.286 333.577 228.286Z" fill="#7C5CFC"/>
<path d="M333.943 224.105C339.079 224.105 341.447 219.943 341.895 214.808C342.345 209.673 340.705 205.51 335.57 205.51C330.434 205.51 328.066 209.673 327.616 214.808C327.168 219.943 328.808 224.105 333.943 224.105Z" fill="#7C5CFC"/>
<path d="M373.274 288.276C370.541 288.276 368.234 289.316 368.037 291.575L367.818 294.083H377.716L377.935 291.575C378.132 289.316 376.008 288.276 373.274 288.276Z" fill="#7C5CFC"/>
<path d="M373.365 287.244C374.634 287.244 375.218 286.215 375.329 284.947C375.439 283.678 375.035 282.651 373.766 282.651C372.498 282.651 371.913 283.68 371.803 284.947C371.692 286.216 372.097 287.244 373.365 287.244Z" fill="#7C5CFC"/>
<path d="M342.8 346.505H303.669C299.098 346.505 295.717 342.8 296.117 338.229C296.517 333.658 300.547 329.952 305.117 329.952H344.249C348.82 329.952 352.201 333.658 351.801 338.229C351.4 342.8 347.371 346.505 342.8 346.505Z" fill="#7C5CFC"/>
<path d="M373.936 311.423L374.063 309.973C374.193 308.49 373.093 307.285 371.61 307.285C370.127 307.285 368.817 308.491 368.688 309.973L368.561 311.423C367.969 311.423 367.447 311.903 367.397 312.495L367.059 316.349C367.007 316.941 367.445 317.421 368.037 317.421H373.409C374.001 317.421 374.523 316.941 374.575 316.349L374.913 312.495C374.965 311.903 374.528 311.423 373.936 311.423ZM371.553 307.948C372.669 307.948 373.497 308.855 373.4 309.971L373.274 311.421H369.225L369.351 309.971C369.449 308.855 370.436 307.948 371.553 307.948Z" fill="#7C5CFC"/>
<path d="M293.057 312.966L291.182 312.579C290.96 312.533 290.845 312.3 290.938 312.081L291.719 310.235C291.887 309.838 291.404 309.545 291.101 309.859L289.683 311.319C289.515 311.493 289.245 311.493 289.108 311.319L287.946 309.859C287.697 309.546 287.164 309.838 287.262 310.235L287.719 312.081C287.774 312.3 287.619 312.533 287.388 312.579L285.445 312.966C285.028 313.05 284.977 313.635 285.38 313.719L287.255 314.106C287.477 314.152 287.592 314.385 287.499 314.604L286.718 316.451C286.55 316.847 287.032 317.141 287.336 316.826L288.753 315.366C288.922 315.192 289.192 315.192 289.329 315.366L290.49 316.826C290.739 317.141 291.273 316.847 291.175 316.451L290.717 314.604C290.663 314.385 290.818 314.152 291.049 314.106L292.991 313.719C293.409 313.635 293.46 313.049 293.057 312.966Z" fill="#263238"/>
<path d="M305.397 312.966L303.522 312.579C303.3 312.533 303.185 312.3 303.278 312.081L304.059 310.235C304.227 309.838 303.745 309.545 303.441 309.859L302.023 311.319C301.855 311.493 301.586 311.493 301.448 311.319L300.286 309.859C300.037 309.546 299.504 309.838 299.602 310.235L300.059 312.081C300.114 312.3 299.958 312.533 299.728 312.579L297.785 312.966C297.368 313.05 297.317 313.635 297.719 313.719L299.594 314.106C299.816 314.152 299.93 314.385 299.838 314.604L299.057 316.451C298.888 316.847 299.371 317.141 299.675 316.826L301.092 315.366C301.26 315.192 301.529 315.192 301.667 315.366L302.829 316.826C303.078 317.141 303.612 316.847 303.514 316.451L303.056 314.604C303.001 314.385 303.158 314.152 303.387 314.106L305.33 313.719C305.749 313.635 305.8 313.049 305.397 312.966Z" fill="#263238"/>
<path d="M317.737 312.966L315.861 312.579C315.64 312.533 315.525 312.3 315.618 312.081L316.399 310.235C316.567 309.838 316.084 309.545 315.781 309.859L314.363 311.319C314.195 311.493 313.925 311.493 313.788 311.319L312.626 309.859C312.377 309.546 311.844 309.838 311.942 310.235L312.399 312.081C312.454 312.3 312.299 312.533 312.068 312.579L310.125 312.966C309.708 313.05 309.657 313.635 310.059 313.719L311.934 314.106C312.155 314.152 312.27 314.385 312.178 314.604L311.397 316.451C311.228 316.847 311.711 317.141 312.015 316.826L313.432 315.366C313.6 315.192 313.87 315.192 314.007 315.366L315.169 316.826C315.418 317.141 315.951 316.847 315.854 316.451L315.396 314.604C315.341 314.385 315.496 314.152 315.727 314.106L317.67 313.719C318.089 313.635 318.14 313.049 317.737 312.966Z" fill="#263238"/>
<path d="M330.077 312.966L328.202 312.579C327.98 312.533 327.866 312.3 327.958 312.081L328.739 310.235C328.907 309.838 328.425 309.545 328.121 309.859L326.704 311.319C326.536 311.493 326.266 311.493 326.129 311.319L324.967 309.859C324.718 309.546 324.184 309.838 324.282 310.235L324.74 312.081C324.795 312.3 324.64 312.533 324.409 312.579L322.466 312.966C322.048 313.05 321.998 313.635 322.401 313.719L324.276 314.106C324.497 314.152 324.612 314.385 324.52 314.604L323.738 316.451C323.57 316.847 324.053 317.141 324.357 316.826L325.774 315.366C325.942 315.192 326.212 315.192 326.349 315.366L327.511 316.826C327.76 317.141 328.293 316.847 328.196 316.451L327.738 314.604C327.683 314.385 327.838 314.152 328.069 314.106L330.012 313.719C330.428 313.635 330.48 313.049 330.077 312.966Z" fill="#263238"/>
<path d="M342.417 312.966L340.542 312.579C340.32 312.533 340.206 312.3 340.298 312.081L341.079 310.235C341.248 309.838 340.765 309.545 340.461 309.859L339.044 311.319C338.876 311.493 338.606 311.493 338.469 311.319L337.307 309.859C337.058 309.546 336.524 309.838 336.622 310.235L337.08 312.081C337.135 312.3 336.98 312.533 336.749 312.579L334.806 312.966C334.389 313.05 334.338 313.635 334.739 313.719L336.614 314.106C336.836 314.152 336.951 314.385 336.858 314.604L336.077 316.451C335.91 316.847 336.391 317.141 336.695 316.826L338.113 315.366C338.281 315.192 338.55 315.192 338.688 315.366L339.85 316.826C340.099 317.141 340.632 316.847 340.534 316.451L340.077 314.604C340.022 314.385 340.178 314.152 340.408 314.106L342.351 313.719C342.768 313.635 342.82 313.049 342.417 312.966Z" fill="#263238"/>
<path d="M354.757 312.966L352.882 312.579C352.66 312.533 352.545 312.3 352.638 312.081L353.419 310.235C353.586 309.838 353.105 309.545 352.801 309.859L351.384 311.319C351.215 311.493 350.947 311.493 350.809 311.319L349.647 309.859C349.398 309.546 348.864 309.838 348.962 310.235L349.42 312.081C349.475 312.3 349.318 312.533 349.089 312.579L347.146 312.966C346.728 313.05 346.677 313.635 347.079 313.719L348.954 314.106C349.176 314.152 349.291 314.385 349.198 314.604L348.417 316.451C348.249 316.847 348.731 317.141 349.035 316.826L350.453 315.366C350.621 315.192 350.891 315.192 351.028 315.366L352.19 316.826C352.439 317.141 352.972 316.847 352.874 316.451L352.416 314.604C352.362 314.385 352.517 314.152 352.748 314.106L354.691 313.719C355.108 313.635 355.16 313.049 354.757 312.966Z" fill="#263238"/>
<path d="M325.013 285.966H301.843C300.403 285.966 299.135 287.133 299.008 288.573C298.882 290.012 299.947 291.179 301.387 291.179H324.556C325.996 291.179 327.265 290.012 327.391 288.573C327.518 287.133 326.452 285.966 325.013 285.966Z" fill="#263238"/>
<path d="M348.533 285.966H335.088C333.649 285.966 332.38 287.133 332.253 288.573C332.127 290.012 333.192 291.179 334.632 291.179H348.076C349.516 291.179 350.784 290.012 350.911 288.573C351.037 287.133 349.972 285.966 348.533 285.966Z" fill="#263238"/>
<path opacity="0.2" d="M368.479 383.353C367.174 383.762 365.502 384.007 363.68 384.007C360.998 384.007 358.64 383.476 357.3 382.677C356.932 382.456 356.528 382.347 356.123 382.347C355.748 382.347 355.374 382.452 355.027 382.641C355.001 382.656 354.972 382.661 354.947 382.677C354.933 382.686 354.915 382.692 354.9 382.701C354.404 382.991 353.778 383.245 353.047 383.45C351.794 383.801 350.245 384.008 348.568 384.008C348.113 384.008 347.666 383.992 347.233 383.964C345.933 383.875 344.747 383.661 343.769 383.356C343.599 383.303 343.426 383.271 343.258 383.259C342.075 383.181 341.013 384.089 341.013 385.343V386.757H281.953C277.383 386.757 273.677 390.461 273.677 395.033V403.374C273.677 407.944 277.383 411.65 281.953 411.65H349.144C349.293 411.65 349.437 411.636 349.584 411.628C350.309 412.228 351.064 412.826 351.863 413.433C352.82 414.158 353.828 414.893 354.885 415.66C355.62 416.193 356.629 416.193 357.365 415.66C365.813 409.532 371.238 405.306 371.238 393.694V385.345C371.237 383.909 369.848 382.926 368.479 383.353Z" fill="black"/>
<path d="M347.86 407.054H280.669C276.099 407.054 272.393 403.349 272.393 398.777V390.437C272.393 385.866 276.097 382.16 280.669 382.16H347.86C352.431 382.16 356.137 385.865 356.137 390.437V398.777C356.137 403.348 352.431 407.054 347.86 407.054Z" fill="#7C5CFC"/>
<path d="M362.398 379.412C359.715 379.412 357.359 378.881 356.017 378.082C355.28 377.642 354.401 377.642 353.665 378.082C352.324 378.881 349.968 379.412 347.284 379.412C345.461 379.412 343.791 379.166 342.485 378.76C341.118 378.332 339.728 379.314 339.728 380.748V389.098C339.728 400.71 345.152 404.936 353.601 411.064C354.336 411.597 355.346 411.597 356.081 411.064C364.53 404.936 369.954 400.71 369.954 389.098V380.748C369.954 379.314 368.565 378.332 367.196 378.76C365.891 379.166 364.221 379.412 362.398 379.412Z" fill="#7C5CFC"/>
<path opacity="0.3" d="M362.398 379.412C359.715 379.412 357.359 378.881 356.017 378.082C355.28 377.642 354.401 377.642 353.665 378.082C352.324 378.881 349.968 379.412 347.284 379.412C345.461 379.412 343.791 379.166 342.485 378.76C341.118 378.332 339.728 379.314 339.728 380.748V389.098C339.728 400.71 345.152 404.936 353.601 411.064C354.336 411.597 355.346 411.597 356.081 411.064C364.53 404.936 369.954 400.71 369.954 389.098V380.748C369.954 379.314 368.565 378.332 367.196 378.76C365.891 379.166 364.221 379.412 362.398 379.412Z" fill="white"/>
<path opacity="0.2" d="M353.665 378.081C352.324 378.881 349.968 379.411 347.284 379.411C345.461 379.411 343.791 379.166 342.485 378.759C341.118 378.332 339.728 379.314 339.728 380.747V389.098C339.728 400.71 345.152 404.936 353.601 411.063C353.969 411.329 354.404 411.464 354.841 411.464V377.751C354.437 377.751 354.032 377.861 353.665 378.081Z" fill="white"/>
<path d="M366.951 386.818C361.491 389.077 356.819 392.372 353.753 396.119C351.614 394.426 348.682 393.249 345.242 392.711L344.839 392.648V394.641L345.068 394.724C348.528 395.989 351.449 398.235 353.518 401.214L353.843 401.682L354.113 401.18C357.106 395.61 361.771 390.943 367.249 388.04L367.436 387.941V386.617L366.951 386.818Z" fill="#263238"/>
<path d="M178.989 197.14C182.331 200.774 185.524 204.539 188.677 208.339C191.834 212.135 194.913 215.999 197.954 219.896C198.087 220.066 198.033 219.997 198.065 220.048C198.079 220.07 198.082 220.106 198.1 220.124C198.134 220.162 198.152 220.225 198.193 220.259C198.253 220.355 198.34 220.424 198.427 220.516C198.612 220.681 198.865 220.808 199.147 220.86C199.287 220.881 199.434 220.902 199.584 220.886C199.665 220.896 199.736 220.872 199.821 220.869C199.866 220.87 199.898 220.847 199.941 220.842C200.008 220.813 199.966 220.872 200.146 220.765L203.412 218.994C207.794 216.674 212.211 214.406 216.778 212.371L220.597 217.099C216.917 220.486 213.084 224.721 209.217 227.825L206.296 230.121C206.221 230.189 205.907 230.395 205.71 230.526C205.485 230.671 205.264 230.828 205.026 230.955C204.552 231.216 204.075 231.477 203.568 231.678C202.566 232.111 201.497 232.386 200.413 232.553C198.239 232.876 195.981 232.657 193.872 231.902C192.821 231.524 191.803 231.019 190.876 230.375C190.401 230.067 189.967 229.706 189.534 229.342C189.316 229.161 189.122 228.959 188.918 228.762L188.4 228.237C184.949 224.698 181.537 221.125 178.201 217.484C174.863 213.846 171.564 210.175 168.413 206.372L178.989 197.14Z" fill="#E27D73"/>
<path d="M215.002 215.25L218.042 205.487L226.043 209.474C226.043 209.474 224.877 216.598 219.052 217.833L215.002 215.25Z" fill="#E27D73"/>
<path d="M221.252 202.779L228.468 204.766L226.044 209.474L218.043 205.486L221.252 202.779Z" fill="#E27D73"/>
<path d="M136.899 199.8C136.027 203.948 134.963 208.05 133.849 212.139C132.739 216.23 131.527 220.295 130.268 224.35L129.798 225.87L129.564 226.63C129.514 226.796 129.481 226.838 129.437 226.948C129.294 227.333 129.208 227.75 129.191 228.188C129.168 229.057 129.374 230.023 129.943 230.863C129.99 230.999 130.44 231.471 130.791 231.851L131.873 233.028L134.008 235.418C135.413 237.031 136.814 238.649 138.144 240.351L133.599 245.611C131.723 244.543 129.918 243.392 128.117 242.235L125.443 240.471L124.121 239.57C123.671 239.257 123.31 239.047 122.59 238.451C120.11 236.348 118.257 233.361 117.577 230.045C117.23 228.391 117.146 226.665 117.339 224.957C117.389 224.548 117.466 224.07 117.529 223.72L117.667 222.936L117.944 221.369C118.675 217.187 119.455 213.016 120.335 208.87C121.211 204.723 122.139 200.588 123.257 196.5L136.899 199.8Z" fill="#E27D73"/>
<path d="M133.679 239.979L139.059 237.228L141.432 246.373C141.432 246.373 137.115 248.028 133.773 245.902L133.679 239.979Z" fill="#E27D73"/>
<path d="M146.493 234.303L146.737 242.691L140.729 246.62L138.646 237.405L146.493 234.303Z" fill="#E27D73"/>
<path d="M164.084 156.684C164.215 157.331 164.664 157.784 165.087 157.698C165.509 157.612 165.745 157.019 165.613 156.372C165.482 155.725 165.033 155.272 164.611 155.358C164.189 155.444 163.953 156.037 164.084 156.684Z" fill="#263238"/>
<path d="M164.605 157.796C164.605 157.796 166.833 161.225 168.816 162.695C167.889 163.995 165.847 163.903 165.847 163.903L164.605 157.796Z" fill="#A02724"/>
<path d="M160.988 153.575C160.894 153.575 160.799 153.541 160.725 153.472C160.568 153.327 160.558 153.082 160.704 152.925C162.158 151.351 163.922 151.631 163.999 151.643C164.21 151.679 164.351 151.879 164.316 152.09C164.279 152.3 164.077 152.441 163.871 152.407C163.813 152.398 162.433 152.196 161.274 153.45C161.197 153.533 161.092 153.575 160.988 153.575Z" fill="#263238"/>
<path d="M145.279 165.774C146.718 171.755 148.153 182.715 143.02 186.706C143.02 186.706 145.025 192.773 158.661 192.773C173.654 192.773 165.826 188.865 165.826 188.865C157.644 187.273 157.854 180.165 159.279 175.517L145.279 165.774Z" fill="#E27D73"/>
<path d="M141.422 187.815C140.529 186.153 139.544 184.252 141.58 183.656C143.819 183 158.203 181.784 162.428 183.015C161.129 185.325 163.328 188.164 163.328 188.164L141.422 187.815Z" fill="#263238"/>
<path d="M153.331 467.622H162.739L163.676 448.687H154.269L153.331 467.622Z" fill="#E27D73"/>
<path d="M93.6309 465.014L103.159 465.518L108.95 446.864L99.4206 446.359L93.6309 465.014Z" fill="#E27D73"/>
<path d="M102.868 464.764L93.8899 462.82C93.5639 462.749 93.2314 462.915 93.0918 463.219L89.9753 469.98C89.6519 470.682 90.0796 471.504 90.8372 471.654C93.9825 472.279 95.546 472.425 99.4932 473.279C101.923 473.805 107.405 475.141 110.76 475.868C114.041 476.578 115.27 473.372 113.962 472.775C108.097 470.095 105.647 467.735 104.058 465.536C103.773 465.141 103.346 464.868 102.868 464.764Z" fill="#263238"/>
<path d="M162.241 466.676H153.313C152.979 466.676 152.689 466.908 152.616 467.234L151.001 474.501C150.834 475.255 151.405 475.968 152.177 475.955C155.398 475.9 160.052 475.711 164.101 475.711C168.834 475.711 172.922 475.969 178.474 475.969C181.83 475.969 182.761 472.576 181.357 472.269C174.961 470.869 169.738 470.719 164.21 467.312C163.611 466.942 162.947 466.676 162.241 466.676Z" fill="#263238"/>
<path d="M125.985 189.47C118.885 192.847 116.955 213.313 116.955 213.313L134.52 221.429C134.52 221.429 138.879 215.007 139.213 204.909C139.563 194.329 133.245 186.019 125.985 189.47Z" fill="#263238"/>
<path opacity="0.4" d="M135.514 202.092C132.342 207.014 132.642 214.631 133.74 221.068L134.516 221.431C134.516 221.431 138.881 215.001 139.216 204.906C139.235 204.275 139.233 203.647 139.211 203.037L135.514 202.092Z" fill="black"/>
<path d="M175 188.976C175 188.976 183.703 198.805 175.484 259.646C162.307 259.646 138.164 259.646 131.752 259.646C131.451 252.933 135.669 220.186 129.193 188.555C129.193 188.555 136.69 187.05 143.833 186.706C149.421 186.437 157.511 186.258 162.423 186.706C168.9 187.298 175 188.976 175 188.976Z" fill="#7C5CFC"/>
<path opacity="0.6" d="M175 188.976C175 188.976 183.703 198.805 175.484 259.646C162.307 259.646 138.164 259.646 131.752 259.646C131.451 252.933 135.669 220.186 129.193 188.555C129.193 188.555 136.69 187.05 143.833 186.706C149.421 186.437 157.511 186.258 162.423 186.706C168.9 187.298 175 188.976 175 188.976Z" fill="#FAFAFA"/>
<path opacity="0.2" d="M178.822 207.571L178.655 207.426L169.957 202.779C169.073 216.171 175.06 224.566 178.621 228.238C179.111 219.658 179.099 212.89 178.822 207.571Z" fill="black"/>
<path opacity="0.2" d="M163.675 448.692L163.194 458.453H153.781L154.262 448.692H163.675Z" fill="black"/>
<path opacity="0.2" d="M99.4178 446.365L108.95 446.869L105.96 456.484L96.4277 455.98L99.4178 446.365Z" fill="black"/>
<path d="M142.252 159.695C144.352 167.533 145.183 172.228 150.021 175.486C157.296 180.388 166.355 174.763 166.638 166.455C166.893 158.978 163.414 147.416 155.004 145.836C146.717 144.28 140.151 151.857 142.252 159.695Z" fill="#E27D73"/>
<path d="M159.97 259.646C159.97 259.646 150.691 322.13 145.597 345.54C140.019 371.174 110.108 455.986 110.108 455.986L95.4717 452.817C95.4717 452.817 114.228 383.701 118.91 347.863C120.737 333.878 122.942 311.334 125.732 292.539C128.434 274.336 131.752 259.646 131.752 259.646H159.97Z" fill="#263238"/>
<path d="M113.612 451.098C113.674 451.111 110.884 456.391 110.884 456.391L94.417 452.826L95.8058 447.876L113.612 451.098Z" fill="#7C5CFC"/>
<path opacity="0.6" d="M113.612 451.098C113.674 451.111 110.884 456.391 110.884 456.391L94.417 452.826L95.8058 447.876L113.612 451.098Z" fill="white"/>
<path opacity="0.6" d="M154.106 281.908C143.376 284.012 144.512 324.022 145.803 344.602C148.897 330.056 153.426 302.064 156.521 282.198C155.809 281.842 155.007 281.731 154.106 281.908Z" fill="black"/>
<path d="M175.484 259.646C175.484 259.646 179.848 320.778 178.959 345.712C178.034 371.646 165.738 456.564 165.738 456.564H151.886C151.886 456.564 151.378 373.161 150.762 347.691C150.091 319.924 146.738 259.646 146.738 259.646H175.484Z" fill="#263238"/>
<path d="M168.402 451.046C168.465 451.046 167.62 456.797 167.62 456.797H150.772L150.316 451.664L168.402 451.046Z" fill="#7C5CFC"/>
<path opacity="0.6" d="M168.402 451.046C168.465 451.046 167.62 456.797 167.62 456.797H150.772L150.316 451.664L168.402 451.046Z" fill="white"/>
<path d="M169.896 200.428C169.896 216.833 178.627 223.588 178.627 223.588L192.817 209.716C192.817 209.716 187.992 201.403 181.357 193.772C173.159 184.344 169.896 189.878 169.896 200.428Z" fill="#263238"/>
<path opacity="0.2" d="M166.14 169.424C165.78 170.429 164.835 172.134 162.46 172.813C158.997 173.804 158.951 176.739 158.951 176.739L158.994 176.794C162.299 175.703 165.05 172.972 166.14 169.424Z" fill="black"/>
<path d="M162.462 144.116C165.386 140.429 160.888 140.253 160.888 140.253C162.057 135.852 156.797 138.222 156.797 138.222C153.638 133.869 151.857 139.166 151.857 139.166C148.581 135.478 147.979 141.505 147.979 141.505C144.694 136.828 143.021 143.575 143.021 143.575C139.996 138.717 138.144 145.046 138.144 145.046C131.898 142.809 134.867 149.301 134.867 149.301C129.535 149.45 133.812 153.575 133.812 153.575C127.425 153.591 133.057 157.248 133.057 157.248C127.985 160.576 134.352 161.472 134.352 161.472C130.213 167.944 137.32 165.543 137.32 165.543C134.441 171.948 140.825 169.127 140.825 169.127C140.41 175.307 143.981 173.625 145.697 172.48C146.028 173.726 146.646 175.044 147.794 175.194C150.021 175.485 150.454 171.281 150.454 171.281C150.454 171.281 152.521 172.889 154.254 172.017C155.987 171.146 155.333 168.941 155.333 168.941C155.333 168.941 156.66 169.931 157.875 168.987C158.618 168.409 158.622 164.259 157.674 162.8L161.068 161.471C161.068 161.471 163.588 161.116 162.462 157.795C161.338 154.475 162.292 151.852 162.292 151.852C166.123 150.057 162.98 147.897 162.98 147.897C167.41 145.027 162.462 144.116 162.462 144.116Z" fill="#263238"/>
<path d="M155.586 160.023C156.12 162.081 157.472 163.849 158.885 164.901C161.014 166.484 162.602 164.926 162.451 162.519C162.315 160.352 161.044 156.917 158.696 156.274C156.386 155.64 154.977 157.671 155.586 160.023Z" fill="#E27D73"/>
</g>
<defs>
<clipPath id="clip0_329_2110">
<rect width="516" height="526" rx="12" fill="white"/>
</clipPath>
</defs>
</svg>
