<svg width="516" height="526" viewBox="0 0 516 526" fill="none" xmlns="http://www.w3.org/2000/svg">
<g clip-path="url(#clip0_329_594)">
<path d="M273.86 16.539C270.253 16.539 267.317 19.4767 267.317 23.0864V330.244C267.317 333.854 270.253 336.792 273.86 336.792H484.61C488.219 336.792 491.155 333.854 491.155 330.244V23.0864C491.155 19.4767 488.219 16.539 484.61 16.539H273.86ZM484.61 337.083H273.86C270.092 337.083 267.025 334.015 267.025 330.244V23.0864C267.025 19.3145 270.092 16.2473 273.86 16.2473H484.61C488.38 16.2473 491.447 19.3145 491.447 23.0864V330.244C491.447 334.015 488.38 337.083 484.61 337.083Z" fill="#DADBD8"/>
<path d="M30.8338 16.539C27.226 16.539 24.2905 19.4767 24.2905 23.0864V330.244C24.2905 333.854 27.226 336.792 30.8338 336.792H241.585C245.192 336.792 248.128 333.854 248.128 330.244V23.0864C248.128 19.4767 245.192 16.539 241.585 16.539H30.8338ZM241.585 337.083H30.8338C27.0648 337.083 23.999 334.015 23.999 330.244V23.0864C23.999 19.3145 27.0648 16.2473 30.8338 16.2473H241.585C245.353 16.2473 248.42 19.3145 248.42 23.0864V330.244C248.42 334.015 245.353 337.083 241.585 337.083Z" fill="#DADBD8"/>
<path d="M-33 363.425H550V363.133H-33V363.425Z" fill="#DADBD8"/>
<path d="M27.25 379.775H45.9761V380.066H27.25V379.775Z" fill="#DADBD8"/>
<path d="M165.631 376.613H228.047V376.905H165.631V376.613Z" fill="#DADBD8"/>
<path d="M47.1416 390.614H89.4086V390.905H47.1416V390.614Z" fill="#DADBD8"/>
<path d="M408.158 376.753H458.518V376.461H408.158V376.753Z" fill="#DADBD8"/>
<path d="M468.907 376.461H476.288V376.753H468.907V376.461Z" fill="#DADBD8"/>
<path d="M335.703 383.73H398.539V384.021H335.703V383.73Z" fill="#DADBD8"/>
<path d="M310.487 368.98C317.472 374.572 318.604 384.77 313.016 391.759C307.428 398.749 297.235 399.881 290.25 394.29C283.266 388.698 282.134 378.5 287.722 371.511C293.31 364.522 303.502 363.389 310.487 368.98ZM269.619 367.09C267.658 370.949 266.509 375.077 266.115 379.245L259.696 380.578L261.091 393.148L267.647 393.038C268.944 397.019 270.97 400.793 273.731 404.128L270.144 409.597L280.014 417.497L284.558 412.796C288.416 414.758 292.54 415.909 296.707 416.3L298.038 422.724L310.6 421.328L310.492 414.77C314.47 413.47 318.242 411.442 321.576 408.681L327.041 412.271L334.937 402.395L330.238 397.847C332.198 393.988 333.348 389.86 333.741 385.691L340.16 384.359L338.765 371.789L332.21 371.899C330.912 367.918 328.884 364.144 326.124 360.808L329.712 355.34L319.842 347.439L315.298 352.141C311.44 350.179 307.315 349.028 303.15 348.635L301.817 342.212L289.254 343.609L289.364 350.168C285.386 351.467 281.614 353.494 278.281 356.256L272.816 352.666L264.92 362.542L269.619 367.09Z" fill="#855CFF"/>
<path d="M235.495 365.031C240.555 369.082 241.376 376.47 237.327 381.533C233.279 386.596 225.896 387.417 220.835 383.366C215.776 379.315 214.955 371.928 219.004 366.864C223.052 361.802 230.435 360.981 235.495 365.031ZM205.89 363.662C204.468 366.457 203.637 369.447 203.351 372.468L198.701 373.433L199.712 382.539L204.461 382.459C205.401 385.343 206.869 388.078 208.869 390.494L206.27 394.455L213.42 400.179L216.711 396.772C219.506 398.194 222.495 399.026 225.513 399.312L226.478 403.965L235.578 402.953L235.499 398.203C238.381 397.261 241.113 395.792 243.528 393.791L247.488 396.392L253.207 389.238L249.803 385.944C251.224 383.148 252.056 380.157 252.341 377.138L256.991 376.172L255.981 367.066L251.232 367.145C250.292 364.263 248.823 361.528 246.824 359.112L249.423 355.151L242.272 349.427L238.981 352.834C236.186 351.411 233.197 350.578 230.18 350.293L229.215 345.64L220.115 346.653L220.194 351.403C217.312 352.345 214.579 353.813 212.165 355.813L208.205 353.213L202.486 360.368L205.89 363.662Z" fill="#855CFF"/>
<path d="M253.814 411.016C255.89 412.678 256.227 415.709 254.566 417.784C252.906 419.861 249.877 420.198 247.802 418.536C245.727 416.875 245.39 413.846 247.05 411.769C248.711 409.692 251.739 409.355 253.814 411.016ZM241.671 410.455C241.088 411.602 240.748 412.828 240.63 414.067L238.723 414.463L239.138 418.197L241.086 418.165C241.471 419.347 242.074 420.469 242.893 421.461L241.828 423.084L244.76 425.432L246.11 424.035C247.257 424.619 248.482 424.961 249.72 425.077L250.116 426.986L253.848 426.57L253.817 424.622C254.998 424.236 256.119 423.633 257.109 422.813L258.734 423.879L261.08 420.945L259.683 419.594C260.266 418.447 260.607 417.221 260.724 415.982L262.631 415.586L262.216 411.852L260.269 411.883C259.883 410.701 259.282 409.579 258.461 408.588L259.528 406.963L256.594 404.616L255.244 406.013C254.098 405.43 252.872 405.088 251.635 404.972L251.239 403.063L247.506 403.478L247.539 405.427C246.356 405.813 245.236 406.415 244.245 407.236L242.622 406.169L240.276 409.104L241.671 410.455Z" fill="#855CFF"/>
<path d="M76.254 87.5087C76.254 87.5087 92.4759 101.837 96.86 89.6787C96.86 89.6787 97.6716 86.0095 99.9021 81.4011C102.133 76.7927 104.725 69.1637 96.4927 63.8401C88.2608 58.5166 76.3916 53.1708 76.3916 53.1708L60.9102 75.5222C60.9102 75.5222 67.1702 81.5796 68.3262 91.1453C69.3254 99.4171 68.6714 102.064 69.6812 101.994C70.6904 101.925 73.559 100.837 75.39 96.5284C77.221 92.2186 76.254 87.5087 76.254 87.5087Z" fill="white"/>
<path d="M61.7268 38.5765L78.6101 50.2842L59.168 78.3535L42.2852 66.6446L61.7268 38.5765Z" fill="#B9B9B9"/>
<path d="M150.597 24.0046C150.597 24.0046 125.446 9.52482 122.94 26.6739C122.94 26.6739 122.856 31.7129 121.159 38.3665C119.461 45.0201 118.096 55.7384 130.337 60.5277C142.579 65.3181 159.608 69.1611 159.608 69.1611L173.968 35.6434C173.968 35.6434 164.121 29.3608 160.041 17.1013C156.514 6.49963 156.665 2.84556 155.358 3.2084C154.049 3.57007 150.571 5.76929 149.319 11.9212C148.065 18.0732 150.597 24.0046 150.597 24.0046Z" fill="white"/>
<path d="M182.783 84.4072L157.465 73.5477L175.499 31.4561L200.817 42.3155L182.783 84.4072Z" fill="#B9B9B9"/>
<path d="M298.559 163.476C302.638 166.739 303.299 172.694 300.036 176.775C296.773 180.856 290.822 181.516 286.744 178.252C282.665 174.988 282.005 169.034 285.268 164.953C288.53 160.872 294.482 160.21 298.559 163.476ZM274.698 162.371C273.553 164.625 272.883 167.034 272.653 169.469L268.904 170.246L269.719 177.586L273.547 177.522C274.304 179.846 275.488 182.05 277.099 183.997L275.005 187.19L280.767 191.803L283.421 189.058C285.673 190.202 288.082 190.874 290.514 191.104L291.291 194.854L298.626 194.038L298.563 190.209C300.885 189.451 303.088 188.267 305.034 186.655L308.224 188.751L312.835 182.984L310.091 180.33C311.236 178.076 311.908 175.667 312.136 173.233L315.884 172.455L315.07 165.115L311.243 165.179C310.485 162.855 309.302 160.651 307.69 158.704L309.784 155.512L304.022 150.899L301.368 153.644C299.117 152.499 296.708 151.827 294.275 151.597L293.498 147.847L286.163 148.663L286.226 152.492C283.904 153.25 281.701 154.433 279.756 156.047L276.565 153.95L271.955 159.717L274.698 162.371Z" fill="#855CFF"/>
<path d="M35.7235 252.96C39.8012 256.225 40.4626 262.179 37.2001 266.26C33.937 270.341 27.9859 271.001 23.9082 267.737C19.8298 264.473 19.169 258.519 22.4319 254.438C25.6945 250.357 31.6452 249.695 35.7235 252.96ZM11.8619 251.856C10.7169 254.109 10.0464 256.519 9.81635 258.954L6.06836 259.731L6.88316 267.071L10.7109 267.007C11.4679 269.331 12.6517 271.535 14.2631 273.482L12.1684 276.675L17.9315 281.288L20.5846 278.543C22.8368 279.687 25.2453 280.359 27.6776 280.589L28.4551 284.339L35.7899 283.523L35.7262 279.694C38.0491 278.936 40.2518 277.752 42.1975 276.139L45.3884 278.236L49.9987 272.469L47.2554 269.815C48.4 267.561 49.0709 265.152 49.3005 262.718L53.0481 261.938L52.2337 254.6L48.4064 254.664C47.6485 252.34 46.4652 250.136 44.8537 248.189L46.9484 244.996L41.1854 240.383L38.5322 243.128C36.28 241.982 33.8715 241.311 31.4392 241.082L30.6614 237.332L23.3269 238.147L23.3907 241.977C21.0678 242.735 18.8657 243.918 16.9194 245.53L13.7289 243.435L9.11862 249.202L11.8619 251.856Z" fill="#EDEDEB"/>
<path d="M251.266 170.28C253.342 171.941 253.678 174.971 252.017 177.048C250.357 179.125 247.329 179.462 245.253 177.8C243.178 176.139 242.842 173.109 244.502 171.032C246.163 168.956 249.191 168.619 251.266 170.28ZM239.124 169.719C238.541 170.864 238.199 172.092 238.082 173.33L236.175 173.726L236.589 177.461L238.537 177.428C238.922 178.611 239.525 179.732 240.344 180.724L239.279 182.348L242.211 184.696L243.561 183.299C244.708 183.882 245.934 184.224 247.171 184.341L247.568 186.25L251.3 185.834L251.268 183.886C252.45 183.5 253.57 182.896 254.56 182.076L256.185 183.143L258.531 180.208L257.135 178.857C257.718 177.711 258.058 176.484 258.175 175.245L260.082 174.85L259.669 171.114L257.72 171.147C257.335 169.965 256.733 168.843 255.913 167.852L256.979 166.227L254.046 163.879L252.696 165.277C251.55 164.694 250.323 164.352 249.086 164.235L248.691 162.327L244.957 162.742L244.99 164.69C243.807 165.077 242.687 165.679 241.697 166.499L240.073 165.432L237.727 168.367L239.124 169.719Z" fill="#855CFF"/>
<path d="M221.423 132.328C223.497 133.99 223.834 137.02 222.173 139.097C220.513 141.174 217.484 141.51 215.41 139.848C213.334 138.187 212.997 135.157 214.657 133.08C216.318 131.004 219.347 130.668 221.423 132.328ZM209.279 131.767C208.697 132.913 208.355 134.14 208.237 135.379L206.331 135.774L206.745 139.509L208.693 139.477C209.078 140.659 209.681 141.781 210.501 142.772L209.435 144.397L212.367 146.744L213.718 145.347C214.864 145.93 216.089 146.272 217.328 146.389L217.723 148.297L221.456 147.882L221.424 145.934C222.606 145.547 223.727 144.945 224.717 144.124L226.341 145.192L228.687 142.256L227.291 140.905C227.873 139.758 228.215 138.532 228.331 137.293L230.239 136.898L229.824 133.163L227.876 133.196C227.49 132.013 226.889 130.892 226.069 129.9L227.135 128.276L224.201 125.929L222.852 127.325C221.706 126.742 220.479 126.4 219.242 126.283L218.846 124.374L215.113 124.79L215.146 126.738C213.964 127.124 212.843 127.726 211.853 128.548L210.229 127.481L207.883 130.416L209.279 131.767Z" fill="#DADBD8"/>
<path d="M150.294 415.322C150.294 415.322 124.538 424.591 135.338 436.857C135.338 436.857 138.909 439.992 142.658 445.275C146.405 450.556 153.278 458.078 164.192 452.189C175.104 446.299 188.257 436.388 188.257 436.388L172.921 405.602C172.921 405.602 162.397 408.856 151.093 404.311C141.319 400.382 138.784 398.044 138.247 399.206C137.708 400.368 137.167 404.213 140.826 408.87C144.485 413.525 150.294 415.322 150.294 415.322Z" fill="#7C5CFC"/>
<path d="M156.521 454.337C149.933 454.337 145.436 449.19 142.658 445.275C138.909 439.992 135.338 436.857 135.338 436.857C133.467 434.732 132.692 432.694 132.692 430.781C132.694 421.655 150.294 415.321 150.294 415.321C150.294 415.321 144.485 413.525 140.826 408.869C138.483 405.886 137.862 403.237 137.861 401.412C137.86 400.388 138.054 399.624 138.247 399.206C138.34 399.004 138.496 398.907 138.738 398.907C139.888 398.907 143.023 401.068 151.093 404.311C155.741 406.179 160.255 406.73 163.962 406.73C169.272 406.73 172.922 405.602 172.922 405.602L188.257 436.388C188.257 436.388 175.104 446.299 164.192 452.189C161.369 453.712 158.818 454.337 156.521 454.337Z" fill="#B09DFD"/>
<path d="M213.359 429.01L190.104 440.607L170.845 401.944L194.101 390.346L213.359 429.01Z" fill="#7C5CFC"/>
<path d="M189.242 404.413C189.242 406.165 187.823 407.585 186.073 407.585C184.321 407.585 182.902 406.165 182.902 404.413C182.902 402.662 184.321 401.241 186.073 401.241C187.823 401.241 189.242 402.662 189.242 404.413Z" fill="white"/>
<path d="M364.635 374.802H127.196C123.257 374.802 120.064 371.608 120.064 367.666V179.786C120.064 175.845 123.257 172.65 127.196 172.65H364.635C368.574 172.65 371.768 175.845 371.768 179.786V367.666C371.768 371.608 368.574 374.802 364.635 374.802Z" fill="#7C5CFC"/>
<path d="M364.635 374.802H127.196C123.257 374.802 120.064 371.608 120.064 367.666V179.786C120.064 175.845 123.257 172.65 127.196 172.65H364.635C368.574 172.65 371.768 175.845 371.768 179.786V336.792V337.083V363.133V363.425V367.666C371.768 371.608 368.574 374.802 364.635 374.802ZM143.18 255.568C139.874 255.568 137.194 258.249 137.194 261.557V346.658C137.194 349.966 139.874 352.648 143.18 352.648H188.421C191.727 352.648 194.406 349.966 194.406 346.658V261.557C194.406 258.249 191.727 255.568 188.421 255.568H143.18ZM275.2 249.665C274.346 249.665 273.655 250.357 273.655 251.211V254.022C273.655 254.876 274.346 255.568 275.2 255.568H297.057C297.911 255.568 298.602 254.876 298.602 254.022V251.211C298.602 250.357 297.911 249.665 297.057 249.665H275.2ZM234.734 249.665C233.88 249.665 233.189 250.357 233.189 251.211V254.022C233.189 254.876 233.88 255.568 234.734 255.568H266.621C267.474 255.568 268.165 254.876 268.165 254.022V251.211C268.165 250.357 267.474 249.665 266.621 249.665H234.734ZM205.038 249.665C204.184 249.665 203.493 250.357 203.493 251.211V254.022C203.493 254.876 204.184 255.568 205.038 255.568H226.302C227.155 255.568 227.847 254.876 227.847 254.022V251.211C227.847 250.357 227.155 249.665 226.302 249.665H205.038ZM154.572 181.713C152.395 181.713 150.63 183.48 150.63 185.658C150.63 187.837 152.395 189.604 154.572 189.604C156.75 189.604 158.514 187.837 158.514 185.658C158.514 183.48 156.75 181.713 154.572 181.713ZM143.913 181.713C141.736 181.713 139.97 183.48 139.97 185.658C139.97 187.837 141.736 189.604 143.913 189.604C146.09 189.604 147.855 187.837 147.855 185.658C147.855 183.48 146.09 181.713 143.913 181.713ZM133.252 181.713C131.075 181.713 129.31 183.48 129.31 185.658C129.31 187.837 131.075 189.604 133.252 189.604C135.429 189.604 137.194 187.837 137.194 185.658C137.194 183.48 135.429 181.713 133.252 181.713Z" fill="#E2DEF4"/>
<path d="M351.429 244.253H204.418C202.847 244.253 201.574 242.978 201.574 241.406V206.17C201.574 204.598 202.847 203.324 204.418 203.324H351.429C352.999 203.324 354.272 204.598 354.272 206.17V241.406C354.272 242.978 352.999 244.253 351.429 244.253Z" fill="#7C5CFC"/>
<path d="M206.034 269.9C244.024 269.9 282.015 269.9 320.004 269.9C330.665 269.9 341.326 269.9 351.987 269.9C354.237 269.9 354.242 266.4 351.987 266.4C313.996 266.4 276.005 266.4 238.015 266.4C227.355 266.4 216.694 266.4 206.034 266.4C203.782 266.4 203.779 269.9 206.034 269.9Z" fill="#17282F"/>
<path d="M206.034 279.29C244.024 279.29 282.015 279.29 320.004 279.29C330.665 279.29 341.326 279.29 351.987 279.29C354.237 279.29 354.242 275.789 351.987 275.789C313.996 275.789 276.005 275.789 238.015 275.789C227.355 275.789 216.694 275.789 206.034 275.789C203.782 275.789 203.779 279.29 206.034 279.29Z" fill="#17282F"/>
<path d="M206.034 318.458C244.024 318.458 282.015 318.458 320.004 318.458C330.665 318.458 341.326 318.458 351.987 318.458C354.237 318.458 354.242 314.957 351.987 314.957C313.996 314.957 276.005 314.957 238.015 314.957C227.355 314.957 216.694 314.957 206.034 314.957C203.782 314.957 203.779 318.458 206.034 318.458Z" fill="#17282F"/>
<path d="M206.034 328.679C244.024 328.679 282.015 328.679 320.004 328.679C330.665 328.679 341.326 328.679 351.987 328.679C354.237 328.679 354.242 325.179 351.987 325.179C313.996 325.179 276.005 325.179 238.015 325.179C227.355 325.179 216.694 325.179 206.034 325.179C203.782 325.179 203.779 328.679 206.034 328.679Z" fill="#17282F"/>
<path d="M206.034 337.986C228.988 337.986 251.941 337.986 274.895 337.986C281.384 337.986 287.874 337.986 294.363 337.986C296.613 337.986 296.617 334.486 294.363 334.486C271.409 334.486 248.455 334.486 225.501 334.486C219.011 334.486 212.523 334.486 206.034 334.486C203.782 334.486 203.779 337.986 206.034 337.986Z" fill="#17282F"/>
<path d="M381.093 352.763C384.433 371.83 371.691 389.996 352.634 393.337C333.578 396.678 315.423 383.929 312.084 364.861C308.745 345.794 321.486 327.628 340.543 324.287C359.6 320.946 377.754 333.695 381.093 352.763Z" fill="#7C5CFC"/>
<path d="M374.404 353.935C377.096 369.306 366.825 383.95 351.463 386.644C336.102 389.337 321.466 379.06 318.774 363.689C316.083 348.318 326.353 333.674 341.716 330.981C357.078 328.288 371.712 338.564 374.404 353.935Z" fill="#6E4FEC"/>
<path d="M366.049 355.4C367.932 366.154 360.746 376.4 349.998 378.284C339.251 380.168 329.011 372.978 327.128 362.224C325.245 351.47 332.431 341.225 343.179 339.34C353.926 337.456 364.166 344.647 366.049 355.4Z" fill="#6446DD"/>
<path d="M358.905 356.652C360.097 363.459 355.549 369.943 348.747 371.136C341.944 372.329 335.464 367.778 334.272 360.971C333.08 354.165 337.628 347.681 344.43 346.488C351.233 345.295 357.713 349.846 358.905 356.652Z" fill="#4E36B0"/>
<path d="M351.429 357.859C351.899 360.542 350.106 363.1 347.423 363.57C344.74 364.042 342.184 362.247 341.713 359.562C341.243 356.877 343.037 354.32 345.721 353.85C348.403 353.379 350.959 355.174 351.429 357.859Z" fill="#EDEDEB"/>
<path d="M378.503 333.599L378.53 332.195C378.55 331.159 379.027 330.184 379.832 329.532L384.039 326.121L383.201 329.953L378.503 333.599Z" fill="#E7E8E5"/>
<path d="M378.468 333.401L379.807 333.82C380.796 334.129 381.871 333.986 382.745 333.429L387.311 330.517L383.413 330.098L378.468 333.401Z" fill="#E7E8E5"/>
<path d="M346.954 358.852C351.216 355.545 355.477 352.238 359.739 348.931C366.528 343.663 373.317 338.394 380.107 333.126C381.661 331.92 383.215 330.714 384.768 329.509C385.392 329.024 384.517 328.16 383.9 328.639C379.637 331.947 375.376 335.254 371.114 338.561C364.325 343.83 357.536 349.098 350.746 354.367C349.193 355.572 347.639 356.778 346.085 357.983C345.462 358.467 346.337 359.332 346.954 358.852Z" fill="#DADBD8"/>
<path d="M206.034 309.074C244.024 309.074 282.015 309.074 320.004 309.074C330.665 309.074 341.326 309.074 351.987 309.074C354.237 309.074 354.242 305.574 351.987 305.574C313.996 305.574 276.005 305.574 238.015 305.574C227.355 305.574 216.694 305.574 206.034 305.574C203.782 305.574 203.779 309.074 206.034 309.074Z" fill="#17282F"/>
<path d="M206.034 288.679C230.755 288.679 255.477 288.679 280.197 288.679C282.449 288.679 282.452 285.179 280.197 285.179C255.477 285.179 230.755 285.179 206.034 285.179C203.782 285.179 203.779 288.679 206.034 288.679Z" fill="#17282F"/>
<path d="M188.421 352.648H143.181C139.874 352.648 137.194 349.966 137.194 346.659V261.557C137.194 258.25 139.874 255.569 143.181 255.569H188.421C191.727 255.569 194.406 258.25 194.406 261.557V346.659C194.406 349.966 191.727 352.648 188.421 352.648Z" fill="#AB96FF"/>
<path d="M183.989 223.788C183.989 234.862 175.017 243.838 163.951 243.838C152.883 243.838 143.912 234.862 143.912 223.788C143.912 212.715 152.883 203.737 163.951 203.737C175.017 203.737 183.989 212.715 183.989 223.788Z" fill="#7C5CFC"/>
<path d="M133.252 189.604C131.075 189.604 129.31 187.838 129.31 185.658C129.31 183.48 131.075 181.714 133.252 181.714C135.429 181.714 137.194 183.48 137.194 185.658C137.194 187.838 135.429 189.604 133.252 189.604Z" fill="#AB96FF"/>
<path d="M143.913 189.604C141.736 189.604 139.971 187.838 139.971 185.658C139.971 183.48 141.736 181.714 143.913 181.714C146.09 181.714 147.855 183.48 147.855 185.658C147.855 187.838 146.09 189.604 143.913 189.604Z" fill="#AB96FF"/>
<path d="M154.572 189.604C152.395 189.604 150.63 187.838 150.63 185.658C150.63 183.48 152.395 181.714 154.572 181.714C156.75 181.714 158.514 183.48 158.514 185.658C158.514 187.838 156.75 189.604 154.572 189.604Z" fill="#AB96FF"/>
<path d="M203.604 225.805C211.44 221.078 220.523 217.489 229.687 216.585C234.103 216.15 238.7 216.56 242.57 218.892C246.041 220.984 248.952 224.809 248.425 229.062C248.152 231.26 246.775 233.213 244.592 233.839C242.764 234.364 240.962 233.614 240.024 231.969C238.287 228.926 239.58 225.2 241.951 222.929C248.109 217.032 257.402 219.596 264.142 222.795C271.665 226.365 279.528 231.391 288.242 229.852C291.536 229.27 294.92 227.469 296.562 224.439C298.019 221.751 297.648 218.517 295.596 216.23C293.584 213.988 290.336 213.66 288.022 215.644C285.348 217.936 285.182 221.729 286.603 224.748C289.706 231.343 298.107 234.435 304.949 232.856C312.448 231.127 317.147 224.437 323.184 220.248C329.632 215.775 338.04 214.776 345.423 217.372C347.314 218.037 349.085 218.959 350.75 220.072C351.689 220.7 352.566 219.185 351.633 218.561C345.372 214.376 337.367 213.164 330.107 215.114C326.493 216.084 323.277 217.877 320.355 220.191C317.292 222.618 314.575 225.466 311.418 227.774C308.18 230.142 304.513 231.711 300.442 231.508C296.506 231.312 292.635 229.575 289.98 226.644C288.461 224.967 287.227 222.709 287.449 220.379C287.634 218.442 288.984 216.39 291.017 216.08C292.829 215.802 294.372 217.111 295.145 218.646C296.016 220.375 295.856 222.264 294.852 223.901C292.632 227.522 287.888 228.582 283.943 228.357C279.236 228.087 274.784 226.138 270.619 224.067C263.537 220.548 255.99 216.26 247.8 218.07C241.886 219.377 235.779 224.742 237.882 231.388C238.789 234.254 241.404 236.231 244.474 235.664C248.02 235.008 250.202 231.696 250.235 228.225C250.313 220.148 242.049 215.371 234.932 214.765C230.32 214.37 225.63 215.27 221.189 216.44C216.895 217.573 212.71 219.126 208.706 221.047C206.658 222.031 204.666 223.12 202.721 224.293C201.758 224.874 202.636 226.388 203.604 225.805Z" fill="white"/>
<path d="M226.302 255.568H205.038C204.185 255.568 203.493 254.877 203.493 254.023V251.211C203.493 250.357 204.185 249.665 205.038 249.665H226.302C227.155 249.665 227.847 250.357 227.847 251.211V254.023C227.847 254.877 227.155 255.568 226.302 255.568Z" fill="#AB96FF"/>
<path d="M266.621 255.568H234.733C233.88 255.568 233.188 254.877 233.188 254.023V251.211C233.188 250.357 233.88 249.665 234.733 249.665H266.621C267.474 249.665 268.165 250.357 268.165 251.211V254.023C268.165 254.877 267.474 255.568 266.621 255.568Z" fill="#AB96FF"/>
<path d="M297.057 255.568H275.199C274.346 255.568 273.654 254.877 273.654 254.023V251.211C273.654 250.357 274.346 249.665 275.199 249.665H297.057C297.911 249.665 298.602 250.357 298.602 251.211V254.023C298.602 254.877 297.911 255.568 297.057 255.568Z" fill="#AB96FF"/>
<path d="M262.662 151.351H116.03C112.315 151.351 109.305 148.337 109.305 144.62V108.646C109.305 104.929 112.315 101.916 116.03 101.916H262.662C266.377 101.916 269.388 104.929 269.388 108.646V144.62C269.388 148.337 266.377 151.351 262.662 151.351Z" fill="#7C5CFC"/>
<path d="M262.662 151.351H116.03C112.315 151.351 109.305 148.337 109.305 144.62V108.646C109.305 104.929 112.315 101.916 116.03 101.916H262.662C266.377 101.916 269.388 104.929 269.388 108.646V144.62C269.388 148.337 266.377 151.351 262.662 151.351Z" fill="#7C5CFC"/>
<path d="M262.662 151.351H116.03C112.315 151.351 109.305 148.337 109.305 144.62V108.646C109.305 104.929 112.315 101.916 116.03 101.916H262.662C266.377 101.916 269.388 104.929 269.388 108.646V144.62C269.388 146.53 268.594 148.253 267.318 149.478C267.223 149.569 267.125 149.657 267.026 149.742C265.852 150.745 264.328 151.351 262.662 151.351Z" fill="#B09DFD"/>
<path d="M137.044 112.949L140.305 119.561C140.587 120.134 141.134 120.532 141.766 120.623L149.057 121.683C150.649 121.914 151.284 123.872 150.133 124.994L144.856 130.141C144.399 130.586 144.19 131.229 144.299 131.859L145.544 139.125C145.816 140.711 144.153 141.921 142.729 141.172L136.208 137.74C135.642 137.444 134.967 137.444 134.402 137.74L127.88 141.172C126.457 141.921 124.794 140.711 125.066 139.125L126.311 131.859C126.419 131.229 126.211 130.586 125.752 130.141L120.476 124.994C119.325 123.872 119.961 121.914 121.551 121.683L128.843 120.623C129.475 120.532 130.021 120.134 130.304 119.561L133.566 112.949C134.277 111.507 136.333 111.507 137.044 112.949Z" fill="white"/>
<path d="M173.915 112.949L177.175 119.561C177.458 120.134 178.004 120.532 178.636 120.623L185.928 121.683C187.519 121.914 188.154 123.872 187.003 124.994L181.727 130.141C181.27 130.586 181.061 131.229 181.169 131.859L182.414 139.125C182.687 140.711 181.023 141.921 179.599 141.172L173.078 137.74C172.512 137.444 171.837 137.444 171.272 137.74L164.75 141.172C163.326 141.921 161.664 140.711 161.935 139.125L163.181 131.859C163.289 131.229 163.08 130.586 162.623 130.141L157.347 124.994C156.195 123.872 156.831 121.914 158.422 121.683L165.713 120.623C166.345 120.532 166.892 120.134 167.174 119.561L170.435 112.949C171.147 111.507 173.202 111.507 173.915 112.949Z" fill="white"/>
<path d="M210.785 112.949L214.046 119.561C214.328 120.134 214.874 120.532 215.506 120.623L222.798 121.683C224.39 121.914 225.025 123.872 223.873 124.994L218.597 130.141C218.14 130.586 217.931 131.229 218.039 131.859L219.285 139.125C219.557 140.711 217.893 141.921 216.47 141.172L209.948 137.74C209.382 137.444 208.707 137.444 208.143 137.74L201.62 141.172C200.198 141.921 198.534 140.711 198.805 139.125L200.052 131.859C200.159 131.229 199.95 130.586 199.493 130.141L194.217 124.994C193.065 123.872 193.701 121.914 195.292 121.683L202.584 120.623C203.215 120.532 203.762 120.134 204.044 119.561L207.306 112.949C208.017 111.507 210.074 111.507 210.785 112.949Z" fill="white"/>
<path d="M247.655 112.949L250.917 119.561C251.199 120.134 251.746 120.532 252.378 120.623L259.669 121.683C261.26 121.914 261.896 123.872 260.744 124.994L255.467 130.141C255.01 130.586 254.802 131.229 254.91 131.859L256.155 139.125C256.427 140.711 254.764 141.921 253.341 141.172L246.818 137.74C246.254 137.444 245.579 137.444 245.013 137.74L238.492 141.172C237.068 141.921 235.404 140.711 235.677 139.125L236.922 131.859C237.029 131.229 236.822 130.586 236.364 130.141L231.088 124.994C229.937 123.872 230.572 121.914 232.163 121.683L239.455 120.623C240.087 120.532 240.632 120.134 240.916 119.561L244.176 112.949C244.888 111.507 246.944 111.507 247.655 112.949Z" fill="white"/>
<path d="M484.309 130.855C488.874 128.666 490.509 122.316 488.246 117.785C485.983 113.251 480.653 110.744 475.595 110.996C470.538 111.248 465.826 113.902 462.216 117.456C458.6 113.011 451.304 112.202 446.804 115.748C442.379 119.234 443.117 126.378 446.44 130.951C442.547 132.853 439.955 137.504 440.908 141.804C442.082 147.097 448.352 150.609 453.475 148.842C453.463 155.696 459.589 161.973 466.439 162.124C473.288 162.273 479.683 156.272 479.972 149.423C485.197 151.849 492.234 148.418 493.545 142.806C494.855 137.193 490.066 130.998 484.309 130.855Z" fill="#7C5CFC"/>
<path d="M451.616 156.455C451.616 158.063 450.314 159.366 448.706 159.366C447.099 159.366 445.797 158.063 445.797 156.455C445.797 154.847 447.099 153.544 448.706 153.544C450.314 153.544 451.616 154.847 451.616 156.455Z" fill="#7C5CFC"/>
<path d="M466.691 162.126C466.608 162.126 466.523 162.125 466.439 162.124C459.59 161.973 453.464 155.696 453.475 148.842C452.564 149.156 451.617 149.303 450.669 149.303C446.283 149.303 441.874 146.155 440.908 141.803C440.774 141.199 440.711 140.588 440.71 139.978C440.71 136.25 443.094 132.586 446.441 130.951C444.741 128.611 443.717 125.598 443.716 122.746C443.715 120.025 444.644 117.45 446.805 115.748C448.703 114.252 451.099 113.531 453.506 113.531C456.805 113.531 460.125 114.886 462.217 117.456C465.827 113.902 470.539 111.248 475.596 110.996C475.829 110.984 476.061 110.979 476.294 110.979C481.135 110.979 486.088 113.46 488.247 117.785C488.928 119.148 489.255 120.675 489.258 122.204C489.261 125.759 487.502 129.323 484.309 130.855C489.415 130.981 493.758 135.867 493.763 140.885C493.764 141.526 493.694 142.17 493.545 142.806C493.199 144.289 492.454 145.619 491.447 146.728C491.352 146.833 491.255 146.936 491.156 147.037C489.206 149.011 486.413 150.213 483.649 150.213C482.39 150.213 481.136 149.963 479.973 149.423C479.688 156.188 473.445 162.126 466.691 162.126Z" fill="#B09DFD"/>
<path d="M448.706 159.366C447.099 159.366 445.797 158.063 445.797 156.455C445.797 154.847 447.099 153.544 448.706 153.544C450.314 153.544 451.616 154.847 451.616 156.455C451.616 158.063 450.314 159.366 448.706 159.366Z" fill="#B09DFD"/>
<path d="M466.087 146.649C465.61 146.167 465.372 145.58 465.372 144.888C465.372 144.198 465.605 143.62 466.073 143.156C466.539 142.693 467.136 142.459 467.862 142.459C468.588 142.459 469.184 142.693 469.65 143.156C470.118 143.62 470.351 144.198 470.351 144.888C470.351 145.58 470.113 146.167 469.639 146.649C469.163 147.131 468.571 147.371 467.862 147.371C467.154 147.371 466.562 147.131 466.087 146.649ZM466.501 137.409C466.907 136.718 467.499 135.956 468.277 135.123C468.848 134.513 469.267 134 469.534 133.583C469.803 133.168 469.937 132.695 469.937 132.166C469.937 131.414 469.682 130.819 469.171 130.383C468.661 129.945 467.983 129.727 467.136 129.727C466.322 129.727 465.602 129.926 464.971 130.322C464.339 130.718 463.809 131.272 463.376 131.983L460.238 129.819C460.965 128.519 461.945 127.512 463.182 126.801C464.417 126.09 465.883 125.734 467.577 125.734C469.565 125.734 471.159 126.232 472.36 127.228C473.561 128.223 474.162 129.605 474.162 131.374C474.162 132.208 474.045 132.938 473.812 133.568C473.579 134.198 473.294 134.732 472.957 135.169C472.62 135.605 472.183 136.109 471.648 136.678C471.009 137.348 470.541 137.913 470.247 138.369C469.953 138.826 469.806 139.38 469.806 140.03H465.892C465.892 138.973 466.094 138.101 466.501 137.409Z" fill="#7C5CFC"/>
<path d="M69.4624 146.223H41.3181C35.4457 146.223 30.6855 141.461 30.6855 135.584V117.366C30.6855 111.491 35.4457 106.727 41.3181 106.727H69.4624C75.3343 106.727 80.0948 111.491 80.0948 117.366V135.584C80.0948 141.461 75.3343 146.223 69.4624 146.223Z" fill="#7C5CFC"/>
<path d="M62.8916 127.371C62.8916 129.264 64.4261 130.801 66.3189 130.801C68.2118 130.801 69.7464 129.264 69.7464 127.371C69.7464 125.477 68.2118 123.942 66.3189 123.942C64.4261 123.942 62.8916 125.477 62.8916 127.371Z" fill="white"/>
<path d="M50.9502 127.371C50.9502 129.264 52.4848 130.801 54.3781 130.801C56.2705 130.801 57.805 129.264 57.805 127.371C57.805 125.477 56.2705 123.942 54.3781 123.942C52.4848 123.942 50.9502 125.477 50.9502 127.371Z" fill="white"/>
<path d="M39.1025 127.371C39.1025 129.264 40.637 130.801 42.5299 130.801C44.4229 130.801 45.9573 129.264 45.9573 127.371C45.9573 125.477 44.4229 123.942 42.5299 123.942C40.637 123.942 39.1025 125.477 39.1025 127.371Z" fill="white"/>
<path d="M64.8838 144.707L72.953 152.781L74.6081 142.463L64.8838 144.707Z" fill="#7C5CFC"/>
<path d="M432.234 83.9581C432.234 123.929 399.851 156.331 359.903 156.331C319.956 156.331 287.572 123.929 287.572 83.9581C287.572 43.9874 319.956 11.5839 359.903 11.5839C399.851 11.5839 432.234 43.9874 432.234 83.9581Z" fill="#7C5CFC"/>
<path d="M389.966 149.804C388.901 129.089 387.285 94.8971 387.765 86.7619C388.471 74.8465 382.536 64.8118 382.536 64.8118L366.243 61.2348L364.88 61.1869C364.88 61.1869 358.48 54.4283 365.947 43.5397C368.364 43.0112 371.052 40.9321 371.946 38.2721C372.309 36.8032 372.345 35.6015 372.145 34.646L372.433 34.751C372.433 34.751 381.995 21.9291 375.613 17.6276C375.613 17.6276 367.035 16.4236 364.747 16.1926C362.236 13.5967 358.797 11.919 354.976 11.7498C356.604 11.6402 358.248 11.5842 359.903 11.5842C399.851 11.5842 432.234 43.9877 432.234 83.9583C432.234 113.198 414.908 138.385 389.966 149.804ZM324.763 147.232C312.871 140.606 303.04 130.719 296.479 118.782C299.26 120.943 302.081 122.397 304.791 122.654C305.138 122.686 305.481 122.703 305.824 122.703C314.934 122.703 322.404 111.319 326.99 102.25L327.972 102.804C326.975 117.916 325.88 134.61 324.763 147.232ZM304.289 105.5C304.231 105.5 304.175 105.495 304.12 105.485C301.1 104.928 293.491 97.0964 287.905 90.9409C287.684 88.6437 287.572 86.3127 287.572 83.9583C287.572 47.042 315.196 16.581 350.89 12.1418C350.698 12.1861 350.508 12.234 350.317 12.2865C332.657 17.6439 333.543 52.7017 349.817 53.677C349.551 55.084 349.132 56.6509 349.132 56.6509C349.135 56.6509 349.137 56.6509 349.139 56.6509C348.707 58.2306 348.228 59.6306 347.766 60.6048C345.077 60.7074 340.649 61.0924 337.03 61.8345C336.324 61.9593 335.602 62.132 334.87 62.3525C334.089 62.573 333.391 62.8168 332.812 63.084C330.724 63.945 328.593 65.1794 326.55 66.801C319.444 73.8887 310.087 92.7318 310.087 92.7318L313.305 94.5437C309.75 100.425 306.144 105.5 304.289 105.5Z" fill="#B8D2EF"/>
<path d="M382.536 64.8117L366.243 61.2346L350.2 60.6781C350.178 60.2511 333.178 61.1203 331.253 64.2447C329.831 66.5512 327.351 118.059 324.751 147.372C335.7 154.044 346.041 156.423 359.799 156.423C370.57 156.423 380.782 154.049 389.967 149.825C388.902 129.111 387.284 94.8993 387.765 86.7617C388.471 74.8464 382.536 64.8117 382.536 64.8117Z" fill="#7C5CFC"/>
<path d="M331.907 91.2956C331.083 92.6688 320.142 124.107 304.79 122.654C291.223 121.368 274.855 90.0717 274.855 90.0717L281.389 83.5185C281.389 83.5185 299.099 104.56 304.12 105.485C308.321 106.259 323 76.8182 323 76.8182L331.907 91.2956Z" fill="#F89FAB"/>
<path d="M262.609 81.3775C262.685 80.9902 263.766 79.7931 263.766 79.7931C263.766 79.7931 263.337 78.9251 263.317 78.5016C263.259 77.2778 264.412 76.3514 265.535 75.8416C265.242 75.5196 265.297 72.7954 267.582 72.9867C266.773 71.5015 268.804 69.2638 270.775 70.2403C271.675 70.686 275.327 73.6237 276.4 74.3074C276.784 72.611 277.611 71.1585 278.857 69.7456C279.277 69.2696 280.794 68.5673 281.428 68.6571C282.065 68.7446 281.715 69.4306 281.756 70.0641C281.797 70.6965 281.052 72.233 280.948 72.8595C280.092 78.0303 280.814 80.996 281.749 85.2952L275.216 90.9385C270.667 88.1874 270.855 87.4489 265.609 85.2614C263.727 84.4774 262.237 83.2605 262.609 81.3775Z" fill="#F89FAB"/>
<path d="M267.569 73.2283C268.248 73.7475 268.961 74.2176 269.709 74.6307C270.411 75.0168 271.203 75.4824 272.016 75.5512C272.722 75.6095 273.365 75.2338 273.712 74.6248C274.099 73.9446 274.038 73.1198 273.762 72.4116C273.639 72.1013 273.132 72.2366 273.256 72.5516C273.497 73.1688 273.582 73.8898 273.192 74.4673C272.78 75.0763 272.107 75.116 271.46 74.8885C270.814 74.6622 270.193 74.311 269.603 73.9657C268.988 73.6075 268.399 73.2073 267.834 72.7745C267.566 72.5703 267.305 73.0253 267.569 73.2283Z" fill="#F35E71"/>
<path d="M271.05 75.5873C271.533 75.9968 271.73 76.6957 271.413 77.2697C271.087 77.8588 270.428 78.07 269.796 77.9137C269.085 77.7387 268.404 77.3455 267.758 77.0083C267.079 76.6548 266.414 76.271 265.764 75.8626C265.476 75.683 265.213 76.1368 265.5 76.3165C266.311 76.8263 267.147 77.2977 268.007 77.7223C268.772 78.1015 269.64 78.6067 270.526 78.4725C271.208 78.3699 271.8 77.8542 272.011 77.1997C272.238 76.4938 271.979 75.69 271.421 75.2163C271.165 74.9981 270.792 75.368 271.05 75.5873Z" fill="#F35E71"/>
<path d="M269.395 78.5997C269.898 78.9521 270.159 79.6183 269.978 80.2144C269.78 80.8748 269.152 81.2831 268.475 81.2645C267.724 81.2435 266.982 80.8608 266.291 80.5971C265.527 80.3031 264.761 80.0103 263.994 79.7174C263.678 79.5961 263.542 80.1036 263.855 80.2238C264.836 80.5995 265.818 80.9763 266.8 81.352C267.6 81.6576 268.495 81.9901 269.336 81.6343C270.806 81.0136 270.931 79.0373 269.66 78.1459C269.383 77.9522 269.12 78.4072 269.395 78.5997Z" fill="#F35E71"/>
<path d="M268.016 81.6973C268.34 81.9528 268.475 82.353 268.421 82.759C268.361 83.1907 268.084 83.5395 267.714 83.7553C266.759 84.3118 265.632 83.928 264.743 83.431C264.448 83.2665 264.183 83.7191 264.478 83.8836C265.57 84.495 266.998 84.9045 268.119 84.1193C268.579 83.795 268.886 83.3237 268.944 82.759C269 82.2293 268.814 81.6623 268.387 81.3263C268.275 81.2388 268.126 81.2189 268.016 81.3263C267.924 81.4161 267.904 81.6109 268.016 81.6973Z" fill="#F35E71"/>
<path d="M275.938 75.2291C273.262 77.5998 272.586 81.5164 274.269 84.6641C274.428 84.9616 274.881 84.6968 274.722 84.3993C273.143 81.4475 273.812 77.8133 276.309 75.6001C276.562 75.3761 276.19 75.0063 275.938 75.2291Z" fill="#F35E71"/>
<path d="M347.405 71.8167C344.748 80.5621 332.734 105.485 332.734 105.485L310.086 92.7318C310.086 92.7318 319.443 73.8887 326.55 66.8011C337.453 58.142 350.829 60.5395 347.405 71.8167Z" fill="#7C5CFC"/>
<path d="M326.45 101.946L319.443 98.0006L328.789 82.7823L326.45 101.946Z" fill="#3563B7"/>
<path d="M350.672 46.5404L368.071 37.2781C367.944 38.5264 367.898 40.9228 366.881 42.2516C357.974 53.8928 364.88 61.187 364.88 61.187C360.181 64.6555 349.74 66.2725 347.664 60.8113C349.132 57.9016 350.812 50.4791 350.672 46.5404Z" fill="#F89FAB"/>
<path d="M349.139 56.6509C349.137 56.6509 349.134 56.6509 349.132 56.6509C349.132 56.6509 349.55 55.084 349.816 53.677C349.828 53.6782 349.84 53.6793 349.851 53.6793C349.639 54.699 349.398 55.707 349.139 56.6509Z" fill="#8FA5CB"/>
<path d="M349.543 56.6553C349.409 56.6553 349.275 56.6541 349.139 56.6506C349.398 55.7068 349.639 54.6987 349.851 53.6791C350.071 53.6919 350.293 53.6977 350.518 53.6977C353.187 53.6977 356.252 52.8029 359.691 50.7577C358.568 53.5647 355.759 56.6553 349.543 56.6553Z" fill="#D78186"/>
<path d="M339.691 15.9939C337.471 19.7389 337.869 29.3967 344.148 28.0201C350.426 26.6445 343.506 9.55609 339.691 15.9939Z" fill="#17282F"/>
<path d="M368.727 29.1542C366.913 39.694 366.101 45.6756 360.143 50.4835C334.476 66.3574 329.462 18.6132 350.317 12.2862C361.009 9.34853 370.542 18.6143 368.727 29.1542Z" fill="#F89FAB"/>
<path d="M375.613 17.6274C375.613 17.6274 366.033 16.2834 364.422 16.1632C362.809 16.0419 361.17 21.782 361.398 23.6498C361.627 25.5188 364.152 26.3391 364.086 28.1136C364.004 29.6326 361.46 34.0671 362.367 36.1147C363.402 36.9348 369.096 33.5305 369.096 33.5305L372.432 34.7508C372.432 34.7508 381.995 21.9289 375.613 17.6274Z" fill="#17282F"/>
<path d="M375.438 18.4615C376.446 17.5608 377.521 16.0009 376.338 13.0842C376.338 13.8776 375.331 14.818 374.713 15.154C374.095 12.7483 370.964 8.60769 362.177 6.64416C351.363 4.23845 348.529 7.89482 345.372 6.26846C342.214 4.6421 346.164 3.3914 346.164 3.3914C346.164 3.3914 340.708 2.12788 338.948 6.25445C337.189 10.3822 338.707 17.6273 348.353 17.1712C358 16.7138 359.88 19.8592 364.744 19.0798C368.291 18.6388 371.863 18.4324 375.438 18.4615Z" fill="#17282F"/>
<path d="M371.946 38.2721C370.084 43.8151 360.431 46.8368 361.667 38.5568C362.377 30.4985 374.356 28.5151 371.946 38.2721Z" fill="#F89FAB"/>
<path d="M353.045 30.3045C353.047 32.8841 350.411 32.8164 350.458 30.2602C350.455 27.6807 353.092 27.7483 353.045 30.3045Z" fill="#17282F"/>
<path d="M342.82 30.8123C342.821 33.3918 340.186 33.3253 340.231 30.7691C340.229 28.1884 342.865 28.2572 342.82 30.8123Z" fill="#17282F"/>
<path d="M346.073 29.3737C346.073 29.3737 342.047 34.3928 340.705 36.4684C342.066 37.999 344.736 37.6549 344.736 37.6549L346.073 29.3737Z" fill="#F35E71"/>
<path d="M356.426 25.7256C356.254 25.7746 356.062 25.7314 355.924 25.5972C354.284 24.0012 352.44 24.3792 352.422 24.3839C350.184 23.3934 354.32 22.3959 356.637 24.8716C356.919 25.1317 356.793 25.6299 356.426 25.7256Z" fill="#17282F"/>
<path d="M364.655 38.1987C364.641 38.1987 364.627 38.1975 364.613 38.1952C364.454 38.173 364.342 38.026 364.365 37.8662C364.492 36.983 365.007 36.0508 365.699 35.3147C366.394 34.5843 367.275 34.0372 368.198 34.0325C368.204 34.0325 368.209 34.0325 368.213 34.0325C368.893 34.0325 369.569 34.3696 370.081 35.0895C370.174 35.2201 370.145 35.4033 370.015 35.4967C369.963 35.534 369.904 35.5515 369.844 35.5515C369.753 35.5515 369.665 35.5095 369.608 35.4302C369.168 34.827 368.699 34.6193 368.198 34.6158C368.195 34.6158 368.191 34.6158 368.188 34.6158C367.514 34.6158 366.741 35.058 366.123 35.716C365.5 36.3717 365.04 37.2315 364.943 37.9478C364.922 38.0937 364.797 38.1987 364.655 38.1987Z" fill="#D78186"/>
<path d="M338.351 24.4971C337.975 24.3827 337.873 23.8425 338.192 23.6057C340.404 21.858 342.628 22.6152 342.732 22.6373C343.354 22.8403 343.038 23.8274 342.412 23.6092C342.072 23.223 340.114 23.5952 338.351 24.4971Z" fill="#17282F"/>
<path d="M346.181 41.2877C347.144 42.4707 348.021 43.7203 348.803 45.0293C349.05 44.9313 349.307 44.838 349.55 44.7271C352.927 43.3446 354.044 41.5922 354.238 40.0592C354.319 39.309 354.224 38.5495 353.958 37.8414C353.818 37.44 353.623 37.0597 353.378 36.7109C352.025 38.5157 348.985 40.0452 347.321 40.7943C346.59 41.0824 346.181 41.2877 346.181 41.2877Z" fill="#17282F"/>
<path d="M347.321 40.7746L348.126 41.8584C351.295 40.5505 353.353 39.2147 353.957 37.8228C353.817 37.4203 353.622 37.04 353.377 36.6923C352.017 38.5135 348.985 40.0267 347.321 40.7746Z" fill="white"/>
<path d="M349.509 44.7563C352.886 43.3738 354.003 41.6215 354.196 40.0896C352.923 40.6379 351.756 41.408 350.751 42.3635C350.098 43.0122 349.664 43.8487 349.509 44.7563Z" fill="#F0364D"/>
<path d="M326.845 101.196C327.911 93.8551 328.977 86.5132 330.043 79.1724C330.122 78.6206 329.28 78.3837 329.2 78.9391C328.134 86.281 327.068 93.6218 326.002 100.964C325.922 101.514 326.765 101.752 326.845 101.196Z" fill="#040606"/>
<path d="M404.69 134.636C403.931 126.035 398.941 97.2935 395.197 83.4823C394.201 79.8095 390.992 76.7925 386.903 76.131C385.351 75.8801 383.747 75.9956 382.333 76.8357C377.623 79.638 376.77 88.8747 378.939 96.723C381.432 105.743 386.538 119.547 389.079 131.815C389.292 132.842 389.467 140.873 389.599 150.014C394.864 147.734 399.835 144.551 404.459 140.982C404.725 138.087 404.813 136.02 404.69 134.636Z" fill="#F89FAB"/>
<path d="M394.998 76.16C399.328 87.1572 404.059 104.512 404.059 104.512L379.509 110.083C376.704 101.409 373.198 91.9511 374.03 82.8731C375.309 70.5342 376.5 62.8901 384.072 65.1464C387.909 66.291 392.443 69.6697 394.998 76.16Z" fill="#7C5CFC"/>
<path d="M403.942 104.091C396.187 105.947 388.431 107.804 380.675 109.662C380.854 109.763 381.034 109.865 381.213 109.966C379.587 102.412 377.96 94.8563 376.335 87.302C376.216 86.7514 375.373 86.9847 375.492 87.5342C377.117 95.0897 378.744 102.644 380.37 110.199C380.421 110.435 380.689 110.558 380.908 110.505C388.664 108.648 396.419 106.791 404.176 104.934C404.722 104.803 404.49 103.959 403.942 104.091Z" fill="#040606"/>
<path d="M371.745 141.238C371.675 141.238 371.601 141.218 371.527 141.175C358.409 133.518 346.573 123.791 336.523 112.4C336.239 112.079 336.533 111.64 336.853 111.64C336.952 111.64 337.054 111.681 337.141 111.781C347.146 123.12 358.91 132.798 371.967 140.419C372.379 140.659 372.127 141.238 371.745 141.238Z" fill="#2D5BB2"/>
<path d="M277.038 37.2572C269.358 26.7628 271.765 12.086 282.414 4.47451C293.063 -3.13694 307.92 -0.800076 315.601 9.69543C321.529 17.7969 321.422 28.3799 316.177 36.2923L318.022 43.0976L310.532 42.2343C310.426 42.3124 310.331 42.4011 310.224 42.4781C299.575 50.0896 284.717 47.7515 277.038 37.2572Z" fill="#7C5CFC"/>
<path d="M275.792 5.82174C270.88 10.2563 268.064 16.7874 268.062 23.3302C268.062 24.6031 268.169 25.8759 268.388 27.1336C268.444 27.4509 268.746 27.6633 269.063 27.6073C269.38 27.5524 269.592 27.2503 269.536 26.9329C269.33 25.7429 269.228 24.5377 269.228 23.3302C269.226 17.1211 271.917 10.884 276.573 6.6886C276.812 6.47277 276.831 6.10409 276.615 5.86492C276.401 5.62458 276.031 5.6059 275.792 5.82174Z" fill="#7C5CFC"/>
<path d="M269.107 30.5158C269.229 31.7572 269.612 32.967 270.227 34.0532C270.385 34.3344 270.741 34.4324 271.021 34.2737C271.302 34.1151 271.4 33.7592 271.241 33.4792C270.707 32.5354 270.372 31.4783 270.267 30.4026C270.236 30.0818 269.952 29.8473 269.631 29.8788C269.31 29.9103 269.076 30.195 269.107 30.5158Z" fill="#7C5CFC"/>
<path d="M296.428 33.6113L284.705 25.2065L287.636 21.1138L295.496 26.7489L305.919 13.8349L309.835 16.9989L296.428 33.6113Z" fill="white"/>
<path d="M467.444 481.42L451.851 480.482L456.371 505.896L466.477 507.976L467.444 481.42Z" fill="#DADBD8"/>
<path d="M454.101 501.303L457.956 501.283C458.828 501.278 459.652 501.694 460.193 502.363C462.53 505.25 464.158 504.146 466.47 501.408C468 501.229 468.48 502.91 468.623 503.362L471.897 513.352C472.18 514.188 471.707 515.06 470.841 515.304C470.687 515.347 470.526 515.369 470.364 515.367C465.683 515.392 463.468 515.403 457.641 515.435L439.821 515.529C434.962 515.555 433.773 510.888 435.756 510.445C444.681 508.5 450.954 505.938 453.637 503.425C454.136 502.985 453.594 502.661 454.101 501.303Z" fill="#17282F"/>
<path d="M451.316 504.007C449.904 504.266 447.273 504.617 446.148 503.842C445.855 503.63 445.669 503.312 445.635 502.967C445.608 502.86 445.655 502.749 445.75 502.691C446.4 502.243 449.281 503.176 451.316 504.007ZM448.487 504.743C449.702 504.708 450.908 504.553 452.082 504.279C452.191 504.24 452.244 504.123 452.2 504.017L452.067 503.895C451.515 503.645 446.611 501.521 445.434 502.344C445.213 502.485 445.101 502.739 445.145 502.994C445.17 503.471 445.43 503.916 445.847 504.192C446.652 504.638 447.576 504.831 448.487 504.743Z" fill="#7C5CFC"/>
<path d="M448.566 500.02C450.239 500.012 451.312 502.649 451.681 503.705C450.076 502.919 447.8 501.046 447.91 500.312C447.907 500.253 447.902 500.085 448.39 500.033L448.566 500.02ZM452.032 504.292L452.182 504.29L452.237 504.075C452.229 503.882 450.919 499.36 448.288 499.662C447.636 499.75 447.46 500.051 447.445 500.303C447.328 501.506 450.449 503.76 451.92 504.328L452.032 504.292Z" fill="#7C5CFC"/>
<path d="M451.499 504.446C452.751 504.6 453.946 505.313 454.65 506.319C454.742 506.451 454.924 506.483 455.056 506.39C455.187 506.298 455.219 506.116 455.127 505.984C454.318 504.834 452.99 504.046 451.572 503.867C451.412 503.847 451.266 503.96 451.246 504.12C451.227 504.28 451.34 504.426 451.499 504.446Z" fill="#7C5CFC"/>
<path d="M449.171 506.18C450.422 506.334 451.618 507.046 452.322 508.053C452.414 508.185 452.596 508.218 452.728 508.125C452.859 508.032 452.891 507.85 452.799 507.719C451.99 506.568 450.661 505.779 449.244 505.601C449.084 505.581 448.938 505.696 448.918 505.855C448.898 506.015 449.012 506.161 449.171 506.181" fill="#7C5CFC"/>
<path d="M446.247 507.642C447.498 507.796 448.693 508.509 449.397 509.516C449.489 509.648 449.671 509.679 449.803 509.587C449.935 509.495 449.966 509.313 449.874 509.181C449.065 508.031 447.737 507.242 446.319 507.064C446.159 507.044 446.013 507.157 445.993 507.318C445.974 507.478 446.087 507.623 446.247 507.644" fill="#7C5CFC"/>
<path d="M402.769 479.782L386.548 477.798L389.749 504.344L399.853 506.425L402.769 479.782Z" fill="#DADBD8"/>
<path d="M387.477 499.752L391.333 499.731C392.205 499.728 393.028 500.144 393.571 500.813C395.907 503.699 397.535 502.594 399.846 499.857C401.377 499.679 401.856 501.36 402 501.811L405.274 511.802C405.557 512.636 405.085 513.51 404.219 513.754C404.065 513.797 403.904 513.818 403.742 513.817C399.06 513.841 396.845 513.853 391.018 513.884L373.197 513.979C368.34 514.004 367.149 509.338 369.134 508.894C378.057 506.948 384.33 504.387 387.014 501.875C387.512 501.435 386.97 501.11 387.477 499.752Z" fill="#17282F"/>
<path d="M384.691 502.456C383.279 502.715 380.649 503.067 379.524 502.292C379.232 502.079 379.044 501.761 379.012 501.417C378.985 501.31 379.03 501.199 379.126 501.14C379.775 500.692 382.657 501.626 384.691 502.456ZM381.863 503.191C383.079 503.158 384.283 503.002 385.457 502.728C385.567 502.69 385.621 502.572 385.576 502.467L385.442 502.344C384.891 502.095 379.987 499.97 378.81 500.794C378.59 500.935 378.478 501.188 378.521 501.444C378.547 501.921 378.807 502.365 379.223 502.642C380.027 503.087 380.953 503.28 381.863 503.191Z" fill="#7C5CFC"/>
<path d="M381.942 498.47C383.617 498.462 384.689 501.098 385.058 502.154C383.453 501.369 381.177 499.496 381.287 498.762C381.285 498.702 381.278 498.534 381.766 498.483L381.942 498.47ZM385.408 502.741L385.559 502.74L385.613 502.524C385.606 502.332 384.295 497.81 381.664 498.112C381.013 498.2 380.836 498.5 380.821 498.752C380.704 499.954 383.825 502.209 385.296 502.777L385.408 502.741Z" fill="#7C5CFC"/>
<path d="M384.875 502.895C386.127 503.049 387.322 503.762 388.026 504.769C388.119 504.9 388.3 504.932 388.432 504.84C388.563 504.748 388.596 504.566 388.504 504.434C387.695 503.284 386.367 502.494 384.948 502.316C384.788 502.296 384.642 502.41 384.622 502.569C384.603 502.729 384.716 502.875 384.875 502.895Z" fill="#7C5CFC"/>
<path d="M382.548 504.629C383.798 504.783 384.994 505.496 385.698 506.502C385.79 506.634 385.972 506.666 386.104 506.574C386.235 506.481 386.268 506.3 386.175 506.168C385.367 505.017 384.039 504.229 382.62 504.05C382.46 504.03 382.314 504.144 382.294 504.304C382.274 504.464 382.389 504.609 382.548 504.629Z" fill="#7C5CFC"/>
<path d="M379.624 506.092C380.874 506.246 382.069 506.958 382.773 507.965C382.865 508.097 383.047 508.129 383.179 508.037C383.31 507.944 383.343 507.762 383.25 507.631C382.442 506.48 381.114 505.691 379.695 505.513C379.535 505.493 379.389 505.606 379.369 505.766C379.35 505.926 379.464 506.072 379.624 506.092Z" fill="#7C5CFC"/>
<path d="M398.546 307.698C398.605 308.899 382.239 386.284 381.272 405.177C380.304 424.069 384.862 495.604 384.862 495.604L402.881 495.476C402.881 495.476 406.418 462.895 405.44 449.309C404.464 435.723 404.104 414.424 408.542 402.179C412.979 389.932 427.884 349.581 427.884 349.581L422.652 311.736L398.546 307.698Z" fill="#17282F"/>
<path d="M456.607 304.868C458.548 305.976 458.973 327.609 458.887 351.672C458.799 375.735 465.356 419.924 466.723 435.094C468.091 450.265 470.447 498.669 469.819 498.7C469.192 498.73 449.067 498.909 449.637 497.679C450.206 496.448 445.453 475.685 439.454 438.96C433.57 402.943 422.582 363.948 420.325 351.784C418.549 342.215 415.155 325.735 415.155 325.735L414.239 306.933L456.607 304.868Z" fill="#17282F"/>
<mask id="mask0_329_594" style="mask-type:luminance" maskUnits="userSpaceOnUse" x="396" y="316" width="1" height="2">
<path d="M396.586 317.886L396.909 316.138C396.917 316.142 396.924 316.144 396.932 316.147C396.821 316.704 396.706 317.284 396.586 317.886Z" fill="white"/>
</mask>
<g mask="url(#mask0_329_594)">
<path d="M396.586 317.886H396.932V316.138H396.586V317.886Z" fill="#A7A9A8"/>
</g>
<path d="M415.076 324.112C400.328 323.509 396.188 320.032 396.188 320.032L396.586 317.886C396.706 317.284 396.822 316.704 396.933 316.147C402.338 318.152 408.518 319.045 414.838 319.231L415.076 324.112Z" fill="#0F191D"/>
<path d="M419.573 324.202C417.975 324.202 416.476 324.171 415.075 324.112L414.837 319.231C415.699 319.257 416.563 319.268 417.428 319.268C431.639 319.268 446.108 315.992 453.678 313.973C453.589 314.623 453.506 315.227 453.431 315.776C447.122 318.956 435.032 323.989 421.426 324.188C420.795 324.197 420.176 324.202 419.573 324.202Z" fill="#0F191D"/>
<path d="M430.633 395.369C430.483 395.349 430.348 395.253 430.3 395.062C429.713 392.721 429.125 390.38 428.536 388.04C427.591 384.278 426.645 380.516 425.699 376.753H426.193C427.579 382.441 429.095 388.724 430.633 395.369ZM426.121 376.461H425.626C425.53 376.079 425.434 375.695 425.338 375.312L425.863 375.4C425.948 375.751 426.035 376.107 426.121 376.461Z" fill="#A7A9A8"/>
<path d="M426.193 376.753H425.699C425.675 376.656 425.65 376.559 425.626 376.461H426.122C426.146 376.559 426.169 376.655 426.193 376.753Z" fill="#8F9192"/>
<path d="M430.695 395.374C430.674 395.374 430.653 395.372 430.633 395.369C429.095 388.725 427.58 382.441 426.193 376.753C426.17 376.655 426.147 376.56 426.122 376.462C426.036 376.107 425.948 375.751 425.863 375.4L426.28 375.47C426.311 375.592 426.341 375.717 426.373 375.84C427.963 382.17 429.554 388.499 431.145 394.829C431.227 395.159 430.955 395.374 430.695 395.374Z" fill="#0F191D"/>
<path d="M421.558 360.271C421.345 359.423 421.132 358.575 420.919 357.727C419.328 351.398 417.737 345.067 416.147 338.738C416.064 338.409 416.337 338.194 416.597 338.194C416.768 338.194 416.935 338.288 416.99 338.506C417.578 340.846 418.166 343.187 418.754 345.527C419.276 347.602 419.798 349.678 420.319 351.754C420.321 351.763 420.324 351.775 420.325 351.784C420.694 353.775 421.298 356.488 422.076 359.787L421.558 360.271Z" fill="#0F191D"/>
<path d="M422.076 359.787C421.298 356.488 420.694 353.775 420.324 351.784C420.323 351.774 420.321 351.763 420.318 351.753C420.975 354.366 421.631 356.977 422.288 359.589L422.076 359.787Z" fill="#0F191D"/>
<path d="M443.43 216.475C443.43 216.475 448.383 227.508 450.181 242.167C453.326 267.81 458.827 302.201 459.055 312.422C459.055 312.422 416.533 326.232 393.419 314.626L396.234 259.472L395.42 218.476L404.213 215.277C404.213 215.277 438.361 211.188 443.43 216.475Z" fill="#7C5CFC"/>
<path d="M417.428 319.268C408.795 319.268 400.258 318.059 393.419 314.626L396.234 259.472L396.161 255.813L396.431 255.48C396.43 255.469 396.43 255.448 396.428 255.42C399.396 251.73 402.48 247.998 402.901 247.889L404.213 215.277C404.213 215.277 408.066 214.816 413.376 214.403C412.803 215.409 411.872 216.099 410.416 216.253C410.416 216.253 411.242 220.262 416.705 220.412C416.773 220.415 416.84 220.415 416.908 220.415C422.363 220.415 430.119 214.541 430.119 214.541C429.931 214.299 429.735 214.046 429.537 213.781C433.512 213.842 437.177 214.126 439.83 214.784C439.54 214.761 439.257 214.751 438.984 214.751C436.149 214.751 434.284 215.96 434.162 218.009C434.147 218.282 434.14 218.563 434.14 218.851C434.143 225.631 438.14 236.608 443.46 246.505C444.153 249.842 445.421 254.77 447.318 257.703C449.101 260.458 452.926 263.139 452.949 263.155C454.263 272.693 455.623 282.264 456.725 290.559C455.756 298.584 454.475 308.132 453.678 313.972C446.108 315.992 431.639 319.268 417.428 319.268Z" fill="#3563B7"/>
<path d="M452.949 263.155C452.802 262.087 452.656 261.018 452.51 259.952C452.532 260.011 452.555 260.072 452.579 260.132L452.949 263.155Z" fill="#B6B8B6"/>
<path d="M452.949 263.155C452.926 263.139 449.101 260.458 447.318 257.703C445.421 254.77 444.153 249.842 443.46 246.506C445.645 250.57 448.054 254.453 450.501 257.787C450.679 257.814 450.868 257.828 451.066 257.828C451.263 257.828 451.468 257.815 451.684 257.79C451.958 258.506 452.234 259.227 452.509 259.952C452.655 261.018 452.802 262.087 452.949 263.155Z" fill="#2555AD"/>
<path d="M402.901 247.889C402.064 248.105 390.661 262.692 390.661 262.692C390.661 262.692 377.229 248.474 375.874 242.348C375.874 242.348 390.996 220.174 392.984 218.847C398.272 215.32 404.212 215.277 404.212 215.277L402.901 247.889Z" fill="#7C5CFC"/>
<path d="M390.661 262.692C390.661 262.692 377.229 248.474 375.874 242.348C375.874 242.348 390.996 220.174 392.984 218.847C398.272 215.32 404.212 215.277 404.212 215.277L402.901 247.889C402.48 247.998 399.396 251.73 396.428 255.42C396.396 254.209 395.953 237.859 395.93 237.015C395.93 237.012 395.93 237.011 395.93 237.009C395.93 236.99 395.929 236.981 395.929 236.981C395.929 236.981 395.93 236.993 395.93 237.015C395.939 237.956 392.633 260.144 392.625 260.197C391.448 261.686 390.661 262.692 390.661 262.692Z" fill="#3563B7"/>
<path d="M392.625 260.197C393.609 258.95 394.865 257.368 396.16 255.754L396.161 255.814L392.625 260.197Z" fill="#C3C5C2"/>
<path d="M396.161 255.813L396.16 255.754C396.249 255.643 396.339 255.531 396.428 255.42C396.429 255.448 396.429 255.469 396.431 255.48L396.161 255.813Z" fill="#2555AD"/>
<path d="M392.625 260.197C392.633 260.144 395.939 237.956 395.931 237.015C395.953 237.859 396.396 254.209 396.428 255.42C396.339 255.531 396.249 255.643 396.16 255.754C394.865 257.368 393.609 258.95 392.625 260.197ZM395.931 237.015C395.931 236.993 395.929 236.981 395.929 236.981C395.929 236.981 395.931 236.99 395.931 237.009C395.931 237.011 395.931 237.012 395.931 237.015Z" fill="#2555AD"/>
<path d="M410.416 216.254C414.858 215.785 414.405 210.328 413.863 206.149C413.645 204.657 413.304 203.18 412.845 201.731L420.587 195.264L427.592 189.33C427.157 191.937 426.861 194.57 426.704 197.213C426.316 201.784 426.829 205.435 427.427 209.831C427.975 211.789 429.162 213.305 430.119 214.541C430.119 214.541 422.167 220.563 416.705 220.413C411.243 220.262 410.416 216.254 410.416 216.254Z" fill="#C8685A"/>
<path d="M414.02 207.456C414.01 207.451 414.001 207.446 413.992 207.44L413.959 206.919C413.98 207.096 414 207.275 414.02 207.456Z" fill="#C3C5C2"/>
<path d="M426.578 201.233C426.577 201.183 426.575 201.133 426.574 201.083C426.636 201.007 426.697 200.93 426.756 200.853C426.715 200.943 426.656 201.072 426.578 201.233Z" fill="#B1B3B1"/>
<path d="M417.728 208.438C416.59 208.438 415.353 208.149 414.02 207.456C414 207.275 413.98 207.096 413.959 206.919L413.934 206.521C414.442 206.576 414.953 206.604 415.465 206.604C418.504 206.604 421.571 205.626 424.233 203.432C425.141 202.684 425.913 201.906 426.574 201.083C426.575 201.133 426.577 201.184 426.578 201.234C425.725 202.977 422.663 208.438 417.728 208.438Z" fill="#995147"/>
<path d="M430.953 175.803C428.336 168.161 419.78 163.798 411.841 166.057C400.895 169.187 398.465 184.485 400.251 194.029C402.242 204.657 415.452 210.674 424.233 203.431C430.088 198.613 430.289 192.484 431.592 182.156C431.876 180.034 431.658 177.864 430.953 175.803Z" fill="#C8685A"/>
<path d="M397.102 172.618C397.102 172.618 398.113 173.798 399.06 173.453C398.111 171.918 398.231 170.014 399.361 168.658C399.361 168.658 400.045 170.289 400.852 170.323C401.337 166.467 403.053 162.882 405.771 160.049C410.488 154.799 425.942 161.568 425.942 161.568C425.942 161.568 429.637 158.425 435.518 163.748C440.234 168.016 440.785 176.728 440.349 180.483C438.631 184.099 434.587 187.599 429.103 189.374C426.408 186.307 426.218 181.68 426.49 178.477C425.676 178.251 424.916 177.831 424.297 177.235C421.889 174.922 423.681 166.873 414.074 168.074C412.377 167.036 410.229 167.027 408.589 168.052C405.638 169.77 404.046 179.174 399.961 176.423C395.877 173.672 397.102 172.618 397.102 172.618Z" fill="#17282F"/>
<path d="M415.054 184.485C414.935 185.664 414.035 186.484 413.213 186.328C412.391 186.172 411.921 185.091 412.119 183.921C412.316 182.752 413.158 181.925 413.961 182.079C414.763 182.232 415.255 183.296 415.054 184.485Z" fill="#17282F"/>
<path d="M404.806 183.339C404.687 184.518 403.767 185.336 402.964 185.182C402.162 185.028 401.672 183.947 401.87 182.776C402.068 181.606 402.91 180.779 403.712 180.933C404.515 181.087 404.999 182.226 404.806 183.339Z" fill="#17282F"/>
<path d="M400.117 177.098C400.306 177.196 400.534 177.193 400.717 177.089C401.929 176.332 403.453 176.164 404.829 176.635C405.116 176.762 405.454 176.647 405.584 176.376C405.715 176.107 405.589 175.786 405.302 175.66L405.3 175.659C403.574 175.02 401.639 175.208 400.106 176.165C399.837 176.315 399.748 176.646 399.909 176.904L399.916 176.914L400.117 177.098Z" fill="#17282F"/>
<path d="M416.665 181.296C416.78 181.287 416.888 181.242 416.976 181.171C417.168 180.937 417.123 180.597 416.873 180.414L416.863 180.407C415.406 179.32 413.484 178.969 411.71 179.464C411.414 179.566 411.263 179.874 411.371 180.154V180.155C411.486 180.432 411.808 180.573 412.104 180.479C413.516 180.127 415.026 180.426 416.174 181.287C416.329 181.358 416.507 181.361 416.665 181.296Z" fill="#17282F"/>
<path d="M437.381 191.101C436.203 193.708 433.973 195.733 431.18 196.728C427.471 198.022 425.198 194.887 425.869 191.359C426.496 188.231 429.156 183.683 433.057 183.946C436.959 184.208 438.785 187.881 437.381 191.101Z" fill="#C8685A"/>
<path d="M428.481 192.508C428.265 192.508 428.016 192.305 428.044 192.07C428.227 190.534 428.909 189.103 430.004 188.004C430.739 187.267 431.927 186.41 433.056 186.41C433.449 186.41 433.835 186.513 434.191 186.762C434.573 187.028 434.335 187.596 433.978 187.596C433.906 187.596 433.828 187.573 433.749 187.518C433.516 187.356 433.264 187.287 433.004 187.287C432.079 187.287 431.061 188.157 430.508 188.742C429.651 189.646 429.067 190.828 428.919 192.07C428.89 192.306 428.74 192.508 428.481 192.508Z" fill="#B05C51"/>
<path d="M408.195 182.387C406.561 184.955 404.556 187.286 402.235 189.31C403.412 190.467 405.048 191.085 406.707 190.997L408.195 182.387Z" fill="#B5413C"/>
<path d="M402.744 168.257C402.481 168.257 402.213 168.043 402.311 167.718C402.758 166.22 403.417 164.74 404.516 163.603C405.514 162.567 406.92 161.862 408.373 161.862C408.496 161.862 408.621 161.867 408.746 161.877C410.095 161.993 411.379 162.664 412.345 163.595C413.418 164.628 414.053 165.769 414.559 167.152C414.676 167.473 414.414 167.683 414.146 167.683C413.97 167.683 413.792 167.593 413.715 167.385C413.123 165.764 412.21 164.312 410.677 163.416C409.943 162.988 409.191 162.737 408.391 162.737C408.211 162.737 408.029 162.75 407.842 162.777C405.247 163.146 403.837 165.662 403.154 167.95C403.09 168.165 402.918 168.257 402.744 168.257Z" fill="#0F191D"/>
<path d="M416.372 166.869C416.153 166.869 415.92 166.729 415.892 166.45C415.573 163.293 413.214 160.485 410.182 159.584C409.689 159.437 409.839 158.719 410.282 158.719C410.323 158.719 410.368 158.726 410.414 158.74C413.847 159.76 416.406 162.895 416.767 166.45C416.795 166.73 416.591 166.869 416.372 166.869Z" fill="#0F191D"/>
<path d="M432.588 324.4L451.77 335.018C452.772 335.573 453.981 335.598 455.005 335.087L474.62 325.295C477.2 324.008 480.133 326.238 479.586 329.068L475.421 350.604C475.205 351.728 475.554 352.886 476.357 353.703L491.724 369.343C493.745 371.4 492.532 374.88 489.672 375.235L467.917 377.927C466.781 378.068 465.788 378.757 465.26 379.774L455.142 399.232C453.812 401.79 450.129 401.712 448.909 399.1L439.626 379.229C439.143 378.192 438.179 377.459 437.051 377.27L415.428 373.655C412.587 373.179 411.522 369.65 413.628 367.682L429.648 352.709C430.484 351.927 430.883 350.785 430.714 349.652L427.467 327.96C427.041 325.109 430.068 323.005 432.588 324.4Z" fill="#7C5CFC"/>
<path d="M458.826 333.18C458.826 333.167 458.826 333.155 458.826 333.142L464.108 330.543L458.826 333.18Z" fill="white"/>
<path d="M454.392 335.324L458.826 333.143C458.826 333.155 458.826 333.167 458.826 333.18L455.005 335.087C454.807 335.187 454.601 335.265 454.392 335.324Z" fill="#57666B"/>
<path d="M446.132 393.157L442.793 386.008C442.793 386.008 450.862 381.687 450.576 373.203C450.29 364.718 442.062 362.238 442.793 351.37C443.525 340.501 452.99 336.014 452.99 336.014L454.391 335.324C454.601 335.265 454.806 335.186 455.005 335.087L458.826 333.18L464.107 330.543L464.127 330.534C464.127 330.534 443.135 348.58 448.455 356.091C455.296 365.749 469.924 380.923 446.132 393.157Z" fill="#6D97D6"/>
<path d="M461.819 319.88L453.871 317.498L451.041 323.165C450.669 323.811 450.337 324.409 450.079 324.912C447.727 329.511 444.521 336.052 444.191 339.939C443.862 343.824 446.335 347.609 447.374 345.759C448.189 344.307 447.137 341.638 447.336 340.286C447.832 336.905 448.533 335.768 448.533 335.768C448.523 342.306 451.045 346.449 451.861 347.063C452.991 347.913 454.132 346.607 454.132 346.607C454.132 346.607 455.239 347.65 456.566 346.779C458.182 345.717 456.252 338.031 456.252 338.031C456.252 338.031 459.006 344.913 460.865 343.997C462.722 343.082 459.439 337.15 459.055 333.591C458.912 332.262 461.476 329.883 461.469 326.82C461.464 324.914 460.92 322.242 461.819 319.88Z" fill="#C8685A"/>
<path d="M454.481 346.537C453.653 344.553 452.829 342.533 452.528 340.39C452.17 337.833 452.589 335.258 453.193 332.772C453.272 332.444 452.767 332.304 452.687 332.633C452.075 335.15 451.657 337.75 451.996 340.34C452.286 342.554 453.12 344.63 453.975 346.676C454.103 346.984 454.611 346.849 454.481 346.537Z" fill="#B5413C"/>
<path d="M456.615 338.188C456.475 337.185 456.292 336.176 456.228 335.164C456.167 334.229 456.262 333.279 456.782 332.476C456.967 332.193 456.513 331.929 456.33 332.211C455.783 333.054 455.645 334.066 455.696 335.052C455.754 336.148 455.959 337.242 456.109 338.328C456.156 338.661 456.662 338.52 456.615 338.188Z" fill="#B5413C"/>
<path d="M464.21 239.197L447.318 246.329C450.258 254.497 455.737 267.306 457.999 276.403C458.605 278.844 452.933 319.378 452.933 319.378L461.373 321.799C461.373 321.799 474.234 282.281 474.078 277.404C473.852 270.327 468.383 254.237 464.21 239.197Z" fill="#C8685A"/>
<path d="M434.162 218.009C433.663 227.328 441.843 245.989 450.501 257.787C455.813 258.606 470.946 246.783 470.946 246.783C470.946 246.783 463.233 232.871 455.364 223.845C445.454 213.008 434.463 212.937 434.162 218.009Z" fill="#7C5CFC"/>
<path d="M451.066 257.828C450.868 257.828 450.679 257.814 450.502 257.787C442.097 246.335 434.144 228.415 434.141 218.852C434.141 218.563 434.148 218.282 434.163 218.009C434.284 215.96 436.15 214.751 438.984 214.751C443.167 214.751 449.458 217.385 455.364 223.845C463.233 232.87 470.947 246.783 470.947 246.783C470.947 246.783 469.434 247.965 467.197 249.555C462.829 252.661 455.701 257.324 451.684 257.79C451.469 257.815 451.263 257.828 451.066 257.828Z" fill="#3563B7"/>
<path d="M410.188 205.626C410.188 205.626 409.613 205.425 408.637 204.963C408.623 204.956 408.594 204.936 408.554 204.904C409.086 205.176 409.632 205.417 410.188 205.626ZM402.139 198.968C401.936 198.775 401.818 198.666 401.818 198.666C401.818 198.666 401.539 198.139 401.351 197.479C401.586 197.992 401.85 198.488 402.139 198.968Z" fill="#C3C5C2"/>
<path d="M410.187 205.626C409.631 205.417 409.085 205.176 408.554 204.904C407.846 204.345 403.38 200.139 402.138 198.968C401.849 198.488 401.586 197.992 401.35 197.479C401.052 196.441 400.973 195.069 402.542 194.876C402.613 194.867 402.686 194.863 402.762 194.863C405.443 194.863 411.244 200.136 411.535 202.381C411.836 204.689 410.645 205.557 410.187 205.626Z" fill="#995147"/>
<path d="M407.79 194.839C407.42 194.547 406.998 194.322 406.529 194.242C406.353 194.211 406.176 194.187 406 194.224C405.802 194.266 405.631 194.408 405.55 194.593C405.493 194.722 405.512 194.875 405.644 194.952C405.756 195.017 405.945 194.988 406.003 194.858L406.027 194.809L406.048 194.774L406.065 194.758L406.07 194.755L406.105 194.736L406.095 194.742L406.146 194.728H406.188L406.251 194.732L406.479 194.764C406.825 194.839 407.138 194.988 407.419 195.21C407.531 195.297 407.681 195.318 407.79 195.21C407.882 195.119 407.902 194.928 407.79 194.839Z" fill="#17282F"/>
<path d="M384.632 260.579C384.633 260.693 384.625 260.796 384.604 260.805L384.632 260.579ZM408.431 199.005L408.4 198.981L404.319 195.832C402.84 194.741 400.867 194.638 399.286 195.569L395.679 197.62C394.326 198.407 393.427 199.804 393.261 201.377L392.494 208.714C388.734 218.744 381.017 230.655 376.392 241.037C373.984 246.822 370.446 253.221 369.582 259.771C369.226 262.496 370.025 265.247 371.781 267.34C374.744 270.719 380.075 269.459 382.572 267.525L382.568 267.536C384.604 266.326 389.635 261.605 389.647 261.596L386.047 257.565L390.853 239.592C392.556 231.478 395.772 223.705 398.05 217.064C403.605 213.7 407.571 206.831 407.571 206.831L409.11 204.714C410.475 202.947 410.171 200.391 408.431 199.005Z" fill="#C8685A"/>
<path d="M384.582 263.985C385.406 261.571 386.12 259.12 386.719 256.641C386.851 256.094 386.008 255.86 385.876 256.407C385.277 258.888 384.563 261.338 383.737 263.752C383.556 264.286 384.4 264.516 384.582 263.985Z" fill="#B5413C"/>
<path d="M111.765 244.558C111.882 245.675 106.967 266.563 108.294 273.727C109.621 280.889 119.44 308.269 117.787 312.722C116.136 317.175 95.2066 310.98 95.2066 310.98L67.9785 207.881C69.6392 206.346 85.9917 205.381 92.0222 210.105C92.6659 210.61 95.4235 213.157 96.1312 213.722C101.971 218.377 109.958 227.287 111.765 244.558Z" fill="#17282F"/>
<path d="M157.498 225.824C157.247 225.564 165.743 225.844 165.956 224.026C166.075 223.016 166.005 222.886 162.275 222.425C158.545 221.963 147.225 221.373 145.416 221.89C143.606 222.406 142.172 229.104 141.226 230.132C140.282 231.161 133.138 237.038 133.138 237.038L138.788 243.409L146.431 235.819C146.431 235.819 152.885 236.274 153.93 235.372C154.976 234.469 155.162 232.086 155.162 232.086C155.162 232.086 158.132 232.551 157.106 229.094C157.106 229.094 159.757 228.166 157.498 225.824Z" fill="#F89E55"/>
<path d="M145.625 223.46C146.751 223.362 148.197 223.241 149.039 224.162C149.917 225.124 149.811 226.793 149.715 227.994C149.658 228.707 149.573 229.485 149.34 230.166C149.095 230.879 148.217 230.033 147.942 229.706C147.229 228.865 147.023 227.675 147.432 226.653C147.502 226.477 147.287 226.256 147.109 226.33C146.25 226.684 145.331 226.799 144.414 226.637C144.082 226.579 143.941 227.084 144.274 227.142C145.283 227.321 146.299 227.227 147.249 226.836C147.141 226.729 147.034 226.621 146.926 226.513C146.539 227.48 146.656 228.59 147.161 229.494C147.51 230.118 148.69 231.483 149.509 230.858C149.958 230.516 150.005 229.687 150.091 229.179C150.209 228.486 150.275 227.784 150.281 227.081C150.289 225.929 150.209 224.568 149.332 223.711C148.363 222.762 146.875 222.826 145.625 222.935C145.292 222.963 145.288 223.489 145.625 223.46Z" fill="#F36727"/>
<path d="M157.644 225.617C156.321 225.259 154.905 225.24 153.551 225.404C152.847 225.489 152.15 225.622 151.47 225.824C150.882 225.999 150.237 226.202 149.906 226.759C149.733 227.051 150.187 227.315 150.359 227.024C150.672 226.498 151.476 226.356 152.024 226.216C152.647 226.057 153.284 225.949 153.924 225.889C155.115 225.779 156.344 225.81 157.506 226.124C157.832 226.211 157.971 225.705 157.644 225.617Z" fill="#F36727"/>
<path d="M153.868 234.957C152.707 234.719 151.544 234.48 150.382 234.242C149.834 234.128 149.217 234.07 148.704 233.837C148.208 233.61 147.815 233.032 148.323 232.591C148.714 232.25 149.344 232.182 149.838 232.218C150.418 232.26 150.997 232.288 151.578 232.304C152.752 232.335 153.926 232.341 155.097 232.438C155.434 232.467 155.432 231.941 155.097 231.913C153.675 231.794 152.247 231.816 150.821 231.753C149.814 231.709 148.197 231.455 147.653 232.613C147.439 233.072 147.589 233.579 147.93 233.934C148.317 234.336 148.88 234.467 149.406 234.576C150.846 234.876 152.288 235.167 153.729 235.463C154.058 235.531 154.199 235.024 153.868 234.957Z" fill="#F36727"/>
<path d="M149.842 229.43C152.101 229.145 154.547 228.852 156.793 229.364C157.122 229.439 157.262 228.934 156.932 228.858C154.635 228.334 152.153 228.613 149.842 228.905C149.511 228.946 149.508 229.472 149.842 229.43Z" fill="#F36727"/>
<path d="M141.823 229.1L118.07 244.654C118.07 244.654 115.372 238.081 112.223 231.615C109.008 225.013 103.375 213.992 97.2396 213.217C95.2177 212.96 92.4228 212.258 91.174 212.762C81.332 216.74 94.5834 242.341 94.5834 242.341C94.5834 242.341 106.617 260.978 112.096 263.5C117.575 266.022 147.056 238.605 147.056 238.605L141.823 229.1Z" fill="#17282F"/>
<path d="M110.235 256.026C110.896 252.169 112.026 248.454 112.205 244.517C112.473 238.645 110.906 232.919 108.148 227.759C105.772 223.317 102.621 219.34 99.1904 215.671C98.8044 215.26 98.1876 215.879 98.5712 216.29C103.853 221.937 108.591 228.49 110.495 236.1C111.672 240.807 111.528 245.6 110.566 250.326C110.195 252.151 109.707 253.955 109.392 255.793C109.297 256.343 110.14 256.58 110.235 256.026Z" fill="#040606"/>
<path d="M15.2372 509.65C14.6878 508.236 13.873 506.936 12.8351 505.82C12.8351 505.82 11.1999 500.008 15.8006 487.852L11.6226 483.825C10.1428 482.444 7.94289 482.126 6.1223 483.029C5.86321 483.139 5.62954 483.3 5.43599 483.501C4.50272 484.528 3.64047 485.614 2.85528 486.755C0.225368 490.669 -2.16353 494.735 -4.29883 498.932L-3.42701 499.467L1.31628 491.975C2.9327 489.421 3.22059 493.643 2.17165 496.761C1.12307 499.878 0.634401 503.572 6.35328 506.973C13.0464 510.906 16.0392 512.182 15.2372 509.65Z" fill="#17282F"/>
<path d="M17.2719 483.404C17.2719 483.404 15.363 489.075 13.7908 495.65C12.8119 498.948 12.4872 502.401 12.8352 505.82C12.8352 505.82 8.06012 504.144 7.84826 500.202C7.63651 496.259 10.7405 485.006 6.06836 483.062C6.84398 482.535 7.68152 482.105 8.5629 481.778C9.88281 481.181 17.2719 483.404 17.2719 483.404Z" fill="#F89E55"/>
<path d="M100.795 507.39C99.6154 506.42 98.2605 505.678 96.8006 505.203C96.8006 505.203 92.4946 500.917 90.4891 488.095L84.8468 486.59C82.8716 486.097 80.7943 486.877 79.6524 488.542C79.4811 488.762 79.3567 489.015 79.288 489.285C78.9815 490.629 78.7679 491.992 78.6467 493.365C78.2905 498.046 78.2198 502.745 78.4349 507.434L79.4615 507.483L79.8897 498.661C80.0359 495.655 82.3779 499.2 83.0069 502.426C83.6365 505.652 85.0392 509.111 91.7145 509.327C99.5046 509.54 102.75 509.214 100.795 507.39Z" fill="#17282F"/>
<path d="M89.5688 483.504C89.5688 483.504 90.7127 489.372 92.5969 495.867C93.3758 499.217 94.803 502.386 96.8003 505.203C96.8003 505.203 91.8029 506.037 89.6656 502.698C87.5272 499.359 84.6623 488.046 79.6211 488.596C80.0378 487.765 80.5553 486.985 81.1624 486.276C82.0183 485.119 89.5688 483.504 89.5688 483.504Z" fill="#F89E55"/>
<path d="M101.292 278.532C101.292 278.532 115.852 314.244 104.294 371.324C103.99 404.557 92.211 485.856 92.211 485.856C88.2897 486.953 75.8818 486.198 71.8904 485.379C71.8904 485.379 71.5447 420.751 74.3281 366.604C65.8905 311.038 66.4663 281.627 66.4663 281.627L101.292 278.532Z" fill="#7C5CFC"/>
<path d="M93.7679 280.413C93.7679 280.413 79.6264 353.465 70.0387 384.826C59.9628 417.754 22.1854 486.58 21.054 488.784C16.4602 487.784 6.81832 483.83 4.00488 481.36C4.00488 481.36 26.1676 414.167 39.1681 378.316C42.1172 359.936 44.1367 349.181 43.6156 329.729C42.6505 293.667 59.6213 278.155 59.6213 278.155L93.7679 280.413Z" fill="#7C5CFC"/>
<path d="M73.3828 386.631L74.092 370.253C74.1147 370.167 74.1362 370.083 74.1584 369.996C73.8975 375.366 73.6657 380.826 73.4602 386.298L73.3828 386.631Z" fill="#C3C5C2"/>
<path d="M73.46 386.298C73.6654 380.826 73.8972 375.366 74.1582 369.996C78.0812 354.807 82.286 335.961 85.7922 319.483L97.8696 309.784L87.7149 324.773L73.46 386.298Z" fill="#3563B7"/>
<path d="M74.0918 370.253L74.0977 370.126L85.7911 319.484L85.7923 319.483C82.2861 335.961 78.0813 354.806 74.1583 369.996C74.136 370.083 74.1145 370.167 74.0918 370.253Z" fill="#3563B7"/>
<path d="M103.709 231.704C103.709 231.704 109.814 245.354 105.976 253.391C98.1976 276.711 107.861 277.759 104.878 282.064C100.422 285.574 72.9789 290.276 58.5771 279.107C60.4905 269.621 60.9337 253.323 53.9167 226.322C52.4004 220.498 55.9613 214.566 61.8706 213.072C62.2467 212.976 62.628 212.9 63.0124 212.846C64.7377 212.603 66.5755 212.367 68.4607 212.195C75.039 211.443 78.7984 211.383 85.4183 211.547C86.568 211.602 85.6305 211.408 89.1355 212.237C89.1355 212.237 96.1501 217.442 98.1358 220.574C100.264 223.93 103.622 231.426 103.709 231.704Z" fill="white"/>
<path d="M89.9397 267.243C88.2071 267.243 86.4802 266.883 84.9189 266.132C89.6436 262.096 94.9582 257.889 99.6828 253.852C97.4791 258.871 93.4167 263.075 88.4368 265.488C89.0116 265.571 89.5864 265.61 90.1601 265.61C92.9982 265.61 95.8199 264.682 98.5355 263.764C96.3189 266.025 93.1206 267.243 89.9397 267.243Z" fill="#A7A9A8"/>
<path d="M42.0255 199.065C42.5935 197.244 43.9709 195.855 45.0617 194.319C47.1105 191.431 48.1908 187.919 49.0098 184.423C49.8286 180.925 50.4258 177.352 51.661 173.992C52.8963 170.633 54.8575 167.434 57.7875 165.552C60.7171 163.671 64.7316 163.376 67.5323 165.488L69.0267 165.743C66.3858 176.823 67.2863 188.515 65.4681 199.778C65.0081 202.628 64.3021 205.591 62.4078 207.688C59.3735 211.046 54.2207 211.138 49.9785 209.798C47.6661 209.068 45.3924 207.941 43.7682 206.067C42.144 204.192 41.2777 201.461 42.0255 199.065Z" fill="#17282F"/>
<path d="M65.8277 165.787C69.2255 162.475 72.3573 160.515 76.8454 159.825C80.7825 159.22 86.3553 159.662 89.9489 161.603C94.8345 164.244 97.7915 169.941 99.6524 175.619C101.736 181.976 99.1837 189.777 96.208 195.624C94.9756 198.045 93.8749 199.037 91.4542 198.794L90.5541 200.068C83.212 202.309 76.5385 210.078 62.7879 189.007C58.2405 182.038 60.1125 171.359 65.8277 165.787Z" fill="#17282F"/>
<path d="M84.5129 211.092C83.3612 210.102 83.7981 207.963 83.966 205.883C84.0745 204.284 84.5105 202.607 85.0481 200.966L82.7773 198.767L71.0485 188.966C71.949 196.104 74.4432 207.572 69.1055 211.946L66.0898 212.331C68.0584 213.66 73.4772 220.249 85.1903 220.756C91.5334 221.029 90.1062 214.613 88.2709 211.924C85.3816 211.301 84.5129 211.092 84.5129 211.092Z" fill="#F89E55"/>
<path d="M84.0365 206.806C83.9864 206.797 83.9351 206.787 83.8838 206.778C83.9106 206.499 83.9386 206.219 83.9619 205.939C83.9654 206.208 83.9876 206.496 84.0365 206.806ZM84.2406 203.929C84.2849 203.713 84.3327 203.497 84.384 203.281C84.342 203.497 84.2919 203.71 84.2406 203.929Z" fill="#C3C5C2"/>
<path d="M83.8837 206.777C80.7673 206.185 76.3497 204.37 75.4429 200.988C75.2183 200.152 75.0899 199.314 75.0293 198.574C77.9944 200.996 81.3044 202.245 84.4842 202.472C84.4737 202.751 84.4352 203.017 84.3839 203.281C84.3326 203.497 84.2848 203.712 84.2405 203.928C84.0994 204.529 83.9513 205.161 83.9618 205.938C83.9385 206.218 83.9105 206.499 83.8837 206.777Z" fill="#DC833F"/>
<path d="M65.9825 177.811C68.0103 188.633 68.6352 193.244 74.8819 198.452C84.2775 206.285 97.2341 202.197 98.5074 191.174C99.6524 181.252 96.1439 165.22 84.8454 161.613C73.7146 158.059 63.9548 166.988 65.9825 177.811Z" fill="#F89E55"/>
<path d="M82.2071 180.791C82.2704 182.012 82.9144 183.01 83.6458 183.019C84.3769 183.027 84.9191 182.045 84.8561 180.823C84.7932 179.602 84.1484 178.604 83.4173 178.595C82.6857 178.586 82.1443 179.568 82.2071 180.791Z" fill="#17282F"/>
<path d="M80.1178 177.643C80.259 177.661 80.4038 177.624 80.5163 177.527C82.2689 176.007 84.184 176.604 84.2061 176.611C84.4894 176.7 84.7821 176.548 84.8556 176.263C84.9279 175.977 84.7541 175.671 84.4661 175.577C84.3658 175.545 81.9642 174.794 79.7885 176.68C79.5721 176.869 79.5589 177.211 79.7593 177.444C79.8563 177.558 79.9852 177.624 80.1178 177.643Z" fill="#17282F"/>
<path d="M95.8858 175.619C96.0164 175.581 96.1283 175.499 96.1948 175.376C96.3301 175.125 96.217 174.806 95.9418 174.663C93.183 173.239 90.9595 174.321 90.865 174.37C90.6015 174.502 90.5141 174.817 90.6703 175.074C90.8265 175.331 91.167 175.43 91.4317 175.299C91.518 175.256 93.2565 174.439 95.4497 175.573C95.592 175.647 95.7482 175.658 95.8858 175.619Z" fill="#17282F"/>
<path d="M88.5557 178.789C88.5557 178.789 90.6685 182.718 92.8594 185.089C93.2418 185.503 93.0902 186.173 92.5772 186.413C91.2561 187.032 89.6132 186.728 89.6132 186.728L88.5557 178.789Z" fill="#F36727"/>
<path d="M82.9921 178.687L85.5399 178.073C85.5399 178.073 82.4765 180.394 82.9921 178.687Z" fill="#17282F"/>
<path d="M92.13 179.903C92.1918 181.148 92.8354 182.163 93.5676 182.172C94.2987 182.18 94.8409 181.181 94.778 179.937C94.7162 178.693 94.0714 177.677 93.3403 177.668C92.6092 177.658 92.067 178.659 92.13 179.903Z" fill="#17282F"/>
<path d="M92.8457 177.781L95.3934 177.167C95.3934 177.167 93.0567 179.092 92.8457 177.781Z" fill="#17282F"/>
<path d="M72.0661 196.527C60.9208 190.068 58.3401 162.285 77.6574 159.873C96.9744 157.46 99.7378 183.585 99.7378 183.585C91.9595 167.91 75.0859 167.758 75.0859 167.758C79.1974 176.056 71.8962 181.943 71.8962 181.943C69.4658 187.666 72.0639 193.95 72.0661 196.527Z" fill="#17282F"/>
<path d="M63.4576 187.008C64.9739 189.128 67.2298 190.342 69.2233 190.648C72.2222 191.109 73.3048 186.328 72.0354 183.523C70.8927 180.999 67.852 179.534 65.0522 180.359C62.293 181.172 61.7241 184.584 63.4576 187.008Z" fill="#F89E55"/>
<path d="M68.3913 187.994C68.374 187.994 68.3568 187.992 68.3394 187.989C65.7482 187.534 64.7817 185.814 64.7881 184.614C64.7886 184.397 64.8187 184.197 64.8796 184.017C65.1465 183.249 65.9177 182.608 66.8405 182.599C67.0281 182.599 67.2207 182.629 67.4125 182.689C67.566 182.737 67.6512 182.902 67.6025 183.056C67.5633 183.179 67.4485 183.259 67.3246 183.259C67.2955 183.259 67.2659 183.254 67.2362 183.245C67.1024 183.203 66.9703 183.183 66.8405 183.183C66.8355 183.183 66.8305 183.183 66.8255 183.183C66.2 183.183 65.6052 183.676 65.4313 184.205C65.3948 184.312 65.3711 184.453 65.3711 184.614C65.378 185.52 66.0807 186.988 68.4414 187.414C68.5999 187.443 68.7056 187.594 68.6774 187.753C68.6524 187.894 68.5298 187.994 68.3913 187.994Z" fill="#DC833F"/>
<path d="M61.201 178.827C60.9556 178.827 60.71 178.824 60.4668 178.817C60.4796 178.525 60.5002 178.233 60.5279 177.943C60.7415 177.949 60.9556 177.951 61.1701 177.951C61.9139 177.951 62.6623 177.917 63.4097 177.848C63.4092 178.143 63.4137 178.436 63.4228 178.73C62.6781 178.796 61.9348 178.827 61.201 178.827Z" fill="#0F191D"/>
<path d="M75.7418 169.326C75.5673 168.814 75.35 168.291 75.0859 167.758C75.0859 167.758 75.1063 167.758 75.1465 167.759C75.4366 168.242 75.6324 168.774 75.7418 169.326Z" fill="#BB7239"/>
<path d="M63.4234 178.73C63.4143 178.436 63.4097 178.144 63.4102 177.848C66.0983 177.6 68.7688 176.893 71.1386 175.636C72.5432 174.891 74.0153 173.832 74.621 172.301C75.1589 170.942 75.1103 169.295 74.3023 168.059C74.0868 167.729 74.3897 167.416 74.6967 167.416C74.8301 167.416 74.9646 167.474 75.0574 167.617C75.0879 167.663 75.1175 167.711 75.1462 167.759C75.1061 167.758 75.0857 167.758 75.0857 167.758C75.3498 168.291 75.567 168.814 75.7416 169.326C75.9333 170.293 75.8595 171.321 75.5625 172.251C75.047 173.864 73.7652 175.064 72.3624 175.941C69.7325 177.588 66.5639 178.457 63.4234 178.73Z" fill="#0F191D"/>
<path d="M66.1904 194.001C66.195 193.952 66.1996 193.902 66.2042 193.852C66.2274 193.882 66.2492 193.911 66.2725 193.94C66.247 193.964 66.2192 193.985 66.1904 194.001ZM66.7098 164.953C66.6214 164.904 66.533 164.857 66.4428 164.813C66.4747 164.805 66.5061 164.801 66.5376 164.801C66.6273 164.801 66.7143 164.831 66.788 164.882C66.7621 164.905 66.7361 164.93 66.7098 164.953Z" fill="#A7A9A8"/>
<path d="M66.0024 194.056C65.9044 194.056 65.8047 194.011 65.7204 193.904C62.5021 189.809 59.6837 185.189 59.5803 179.832C59.4718 174.221 62.2083 168.727 66.2461 164.924C66.3084 164.866 66.3754 164.83 66.4427 164.813C66.533 164.858 66.6214 164.904 66.7098 164.953C66.4169 165.222 66.123 165.499 65.8275 165.787C62.728 168.809 60.759 173.332 60.3309 177.951C59.9428 178.036 59.9232 178.62 60.2712 178.777C60.0804 182.406 60.8533 186.042 62.7877 189.007C63.9778 190.83 65.1151 192.438 66.2042 193.852C66.1996 193.902 66.195 193.952 66.1904 194.001C66.1318 194.036 66.0675 194.056 66.0024 194.056Z" fill="#0F191D"/>
<path d="M66.2726 193.94C66.2493 193.911 66.2275 193.882 66.2043 193.852C65.1152 192.438 63.9779 190.83 62.7878 189.007C60.8534 186.042 60.0805 182.405 60.2713 178.777C60.3218 178.8 60.3801 178.813 60.4467 178.816C60.4535 178.816 60.4603 178.816 60.4671 178.817C60.4522 179.154 60.448 179.492 60.4549 179.832C60.5559 184.941 63.2702 189.38 66.3391 193.285C66.5171 193.512 66.4383 193.788 66.2726 193.94ZM60.331 177.951C60.7591 173.332 62.7281 168.809 65.8275 165.787C66.1231 165.499 66.417 165.221 66.7099 164.953C66.7362 164.93 66.7622 164.905 66.7881 164.882C66.9967 165.023 67.1001 165.32 66.8647 165.542C63.4451 168.763 60.9855 173.233 60.5282 177.943C60.5009 177.942 60.474 177.942 60.4467 177.94C60.4412 177.94 60.4362 177.94 60.4312 177.94C60.3952 177.94 60.3619 177.944 60.331 177.951Z" fill="#0F191D"/>
<path d="M60.2714 178.777C59.9234 178.62 59.943 178.036 60.3311 177.951C60.3061 178.227 60.286 178.502 60.2714 178.777Z" fill="#0A0F12"/>
<path d="M60.4673 178.817C60.4605 178.816 60.4536 178.816 60.4468 178.816C60.3803 178.813 60.322 178.801 60.2715 178.777C60.2861 178.502 60.3061 178.227 60.3312 177.951C60.3621 177.944 60.3953 177.941 60.4313 177.941C60.4364 177.941 60.4414 177.941 60.4468 177.941C60.4741 177.942 60.5011 177.942 60.5284 177.943C60.5006 178.234 60.4801 178.525 60.4673 178.817Z" fill="#0A0F12"/>
<path d="M63.5888 174.87C63.3224 174.835 63.0555 174.788 62.7886 174.731C62.2742 174.619 62.4451 173.876 62.9174 173.876C62.9506 173.876 62.9853 173.88 63.0213 173.887C63.2504 173.937 63.4799 173.976 63.709 174.008C63.6639 174.294 63.6239 174.581 63.5888 174.87Z" fill="#0F191D"/>
<path d="M64.8856 174.955C64.456 174.955 64.0225 174.927 63.5889 174.87C63.624 174.581 63.664 174.294 63.7091 174.008C64.1081 174.061 64.5066 174.088 64.9025 174.088C68.6418 174.088 72.1375 171.732 73.3386 168.049C73.4079 167.837 73.5823 167.746 73.7567 167.746C74.0222 167.746 74.2878 167.958 74.1821 168.282C72.8509 172.362 69.018 174.956 64.8856 174.955Z" fill="#0F191D"/>
<path d="M69.5215 208.217C70.1509 211.806 78.8672 249.089 79.9006 260.051C80.9342 271.014 68.7412 316.101 65.6413 318.979C62.5418 321.856 35.6446 303.897 36.5538 303.637C37.4629 303.377 51.643 280.617 53.5987 270.826C55.5546 261.036 52.6501 222.695 52.2601 218.522C51.8698 214.349 58.3361 214.669 64.7431 211.983L67.9783 207.881L69.5215 208.217Z" fill="#17282F"/>
<path d="M52.5402 314.193L46.1987 311.17L46.002 310.29C48.0871 311.596 50.3334 312.949 52.5402 314.193Z" fill="#2D5BB2"/>
<path d="M47.1895 286.202L48.5909 283.469L48.5913 283.47C48.1368 284.38 47.6676 285.292 47.1895 286.202Z" fill="#A7A9A8"/>
<path d="M52.5479 314.197L52.5402 314.193C50.3334 312.948 48.0871 311.596 46.002 310.29L42.6123 295.126L47.1885 286.202C47.6667 285.292 48.1359 284.38 48.5904 283.47L51.3606 300.208L48.543 300.734C48.543 300.734 52.9994 311.541 52.5479 314.197Z" fill="#0F191D"/>
<path d="M59.1098 214.188C55.4647 214.392 49.1692 216.588 47.9622 219.672C43.424 231.261 34.4102 258.511 32.5186 265.08C31.3199 269.244 35.6436 300.796 35.6436 300.796L49.0768 298.815C49.0768 298.815 45.9728 268.602 46.8783 266.56C50.255 258.938 62.9667 238.281 64.5231 231.382C66.0803 224.481 67.5502 218.127 63.674 215.285C62.5118 214.433 60.4935 214.111 59.1098 214.188Z" fill="#17282F"/>
<path d="M38.8091 300.338C39.2528 302.537 38.366 304.793 38.0758 306.459C37.6089 309.137 39.5288 311.599 39.2013 312.738C38.3254 315.795 34.5178 320.496 36.0298 321.573C37.5415 322.648 41.0228 317.039 41.0228 317.039C41.0228 317.039 38.0571 323.489 39.4946 324.458C41.4846 325.797 41.7674 324.954 41.7674 324.954C41.7674 324.954 42.3759 326.301 43.798 325.873C44.6778 325.608 47.2435 321.924 48.2169 316.204C48.2169 316.204 48.343 318.075 48.2747 321.106C48.2474 322.317 47.4083 323.673 47.744 325.113C48.2145 327.133 51.1541 323.942 51.4461 320.495C51.7376 317.047 49.8739 310.851 48.4765 306.479C48.3239 306.002 48.118 305.429 47.8848 304.808L46.2174 299.236" fill="#F89E55"/>
<path d="M41.9082 325.06C42.9817 323.384 44.0425 321.676 44.6436 319.765C45.3437 317.541 45.3692 315.176 45.2025 312.869C45.1625 312.31 44.2875 312.306 44.328 312.869C44.4893 315.103 44.4788 317.377 43.8006 319.533C43.2226 321.37 42.1847 323.009 41.153 324.618C40.8483 325.094 41.6048 325.532 41.9082 325.06Z" fill="#F36727"/>
<path d="M41.3125 317.337C41.8741 315.585 42.7828 313.616 41.9861 311.799C41.8909 311.582 41.5748 311.532 41.3877 311.642C41.1645 311.772 41.1354 312.023 41.231 312.24C41.5585 312.987 41.4477 313.844 41.2491 314.609C41.0301 315.451 40.7349 316.276 40.4695 317.104C40.2968 317.642 41.1407 317.872 41.3125 317.337Z" fill="#F36727"/>
<path d="M77.5358 247.968C75.3054 244.76 73.1124 241.527 70.962 238.265C69.955 236.738 68.3732 234.924 68.2597 233.023C68.1669 231.459 69.2923 230.133 69.3046 228.579C69.326 225.93 66.5472 224.69 65.2523 222.734C62.9936 219.325 64.6606 215.237 65.9355 211.82C66.1322 211.291 65.2874 211.064 65.0919 211.588C63.9192 214.732 62.6029 218.034 63.6719 221.408C64.0968 222.751 64.8879 223.803 65.8799 224.776C67.1721 226.043 68.7794 227.262 68.3322 229.305C68.0097 230.78 67.1785 231.988 67.4513 233.561C67.7388 235.217 68.8477 236.639 69.7468 238.007C72.0442 241.506 74.3913 244.972 76.7807 248.409C77.1 248.869 77.8583 248.432 77.5358 247.968Z" fill="#040606"/>
<path d="M54.7331 253.331C57.4562 248.318 59.7464 243.081 61.5797 237.678C61.7609 237.144 60.9165 236.914 60.7361 237.445C58.927 242.778 56.6656 247.941 53.9778 252.89C53.7092 253.384 54.4638 253.827 54.7331 253.331Z" fill="#040606"/>
<path d="M65.1144 289.59C61.4219 287.485 57.7299 285.381 54.0374 283.276C53.5478 282.996 53.1065 283.752 53.5961 284.031C57.2885 286.135 60.9806 288.241 64.6731 290.346C65.1627 290.625 65.604 289.87 65.1144 289.59Z" fill="#040606"/>
<path d="M89.1742 190.881C88.3592 191.758 87.6094 192.691 86.932 193.673C86.7396 193.586 86.5414 193.502 86.3548 193.405C83.75 192.178 82.9487 190.764 82.8653 189.563C82.8348 188.975 82.9451 188.388 83.1874 187.849C83.3162 187.544 83.4875 187.257 83.6963 186.996C84.6839 188.462 87.0148 189.788 88.295 190.445C88.8594 190.703 89.1742 190.881 89.1742 190.881Z" fill="#17282F"/>
<path d="M88.2969 190.43L87.6113 191.236C85.1685 190.077 83.6037 188.945 83.1895 187.835C83.3183 187.529 83.4896 187.242 83.6993 186.981C84.6916 188.46 87.0166 189.773 88.2969 190.43Z" fill="white"/>
<path d="M86.3865 193.43C83.7816 192.202 82.9804 190.788 82.8975 189.588C83.8784 190.072 84.7646 190.723 85.5143 191.512C86.0005 192.046 86.306 192.717 86.3865 193.43Z" fill="#F0364D"/>
</g>
<defs>
<clipPath id="clip0_329_594">
<rect width="516" height="526" rx="12" fill="white"/>
</clipPath>
</defs>
</svg>
