<svg width="486" height="502" viewBox="0 0 486 502" fill="none" xmlns="http://www.w3.org/2000/svg">
<g clip-path="url(#clip0_329_833)">
<path d="M35.3611 459.73C34.0157 458.576 31.0139 454.92 33.3282 450.667C34.1769 449.108 35.9792 448.337 37.6112 447.65C39.2422 446.963 40.9568 446.366 42.3073 445.217C44.8532 443.051 45.556 439.453 47.2451 436.564C49.1852 433.247 52.8062 430.762 56.6322 430.935C61.0131 431.134 64.6678 434.712 66.3232 438.792C67.9797 442.872 68.0378 447.402 68.0715 451.809C68.0909 454.245 67.9828 456.991 66.1937 458.636C64.5443 460.153 62.0616 460.172 59.8268 460.103C51.8463 459.858 43.8648 459.613 35.8844 459.368" fill="#F5F5F5"/>
<path d="M81.1541 393.891H18.1885L29.5309 461.523C30.0266 464.477 32.1635 466.754 34.9063 467.544C34.9787 467.567 35.0532 467.584 35.1266 467.604C35.3143 467.652 35.4948 467.716 35.6876 467.749C36.1027 467.835 36.5322 467.879 36.9677 467.896C36.9708 467.918 36.9748 467.94 36.9779 467.961L37.2849 467.913H37.287H65.3492C65.8776 467.913 66.3927 467.858 66.8914 467.758C70.2054 467.245 72.8584 464.586 73.2613 461.149L78.7296 414.549L78.9764 412.697H78.9468L81.1123 394.242L81.1541 393.891ZM69.2762 437.032H62.8145L63.4663 417.404H70.9531L69.2762 437.032ZM71.5804 417.404H77.7667L75.4635 437.032H69.9035L71.5804 417.404ZM53.1194 458.791L52.7267 441.738H62.0322L61.4661 458.791H53.1194ZM43.0602 441.739H52.1014L52.4941 458.792H44.3851L43.0602 441.739ZM43.7589 458.791H36.1782C35.4581 454.186 34.5207 448.203 33.5058 441.738H42.4339L43.7589 458.791ZM42.694 437.032L41.1691 417.404H51.5415L51.9933 437.032H42.694ZM52.6186 437.032L52.1667 417.404H62.841L62.1892 437.032H52.6186ZM52.0576 412.697L51.6394 394.519H63.6009L62.9971 412.697H52.0576ZM51.4323 412.697H40.8029L39.3902 394.519H51.0141L51.4323 412.697ZM40.1756 412.697H28.9291C28.5313 410.187 28.1529 407.81 27.8122 405.672C26.6392 398.323 26.1975 395.56 25.9527 394.519H38.7629L40.1756 412.697ZM40.5418 417.404L42.0667 437.032H32.7653C32.4522 435.04 32.136 433.025 31.8187 431.01C31.0894 426.376 30.3591 421.744 29.6737 417.404H40.5418ZM32.1339 437.032H26.0578L22.7652 417.404H29.0413C30.0001 423.47 31.0639 430.22 32.1339 437.032ZM32.8724 441.739C33.7986 447.64 34.7104 453.458 35.5448 458.792H29.7073L26.8473 441.739H32.8724ZM62.0913 458.791L62.6574 441.738H68.8733L67.4167 458.791H62.0913ZM63.6223 412.697L64.2262 394.519H72.9084L71.356 412.697H63.6223ZM25.3581 394.519C25.608 395.833 26.7565 402.986 28.2967 412.697H21.9757L18.927 394.519H25.3581ZM72.9105 458.791H68.044L69.5006 441.738H74.9107L72.9105 458.791ZM78.3185 412.697H71.9823L73.5357 394.519H80.4523L78.3185 412.697Z" fill="#E0E0E0"/>
<path d="M463.939 105.999H379.074V181.925H463.939V105.999Z" fill="#FAFAFA"/>
<path d="M463.94 181.925C463.94 181.925 463.926 181.438 463.919 180.515C463.914 179.584 463.906 178.221 463.896 176.447C463.885 172.882 463.868 167.672 463.846 161.035C463.823 147.769 463.788 128.813 463.747 105.999L463.94 106.191C439.5 106.201 410.332 106.212 379.082 106.225H379.075L379.302 105.999C379.291 133.622 379.282 159.614 379.274 181.925L379.074 181.725C404.392 181.767 425.581 181.801 440.455 181.826C447.897 181.848 453.755 181.867 457.767 181.879C459.765 181.889 461.301 181.897 462.35 181.902C462.863 181.907 463.256 181.911 463.532 181.913C463.798 181.916 463.94 181.925 463.94 181.925C463.94 181.925 463.815 181.932 463.556 181.936C463.284 181.939 462.9 181.942 462.396 181.947C461.355 181.952 459.833 181.96 457.852 181.971C453.85 181.983 448.007 182.001 440.584 182.024C425.679 182.048 404.445 182.083 379.075 182.125H378.875V181.925C378.867 159.615 378.858 133.622 378.848 105.999V105.772H379.074H379.081C410.331 105.785 439.498 105.797 463.939 105.807H464.132V106C464.091 128.864 464.056 147.863 464.033 161.157C464.012 167.775 463.994 172.972 463.983 176.526C463.973 178.284 463.966 179.634 463.961 180.557C463.954 181.466 463.94 181.925 463.94 181.925Z" fill="#E0E0E0"/>
<path d="M411.615 119.49C411.615 119.615 407.149 119.716 401.64 119.716C396.129 119.716 391.663 119.614 391.663 119.49C391.663 119.364 396.129 119.263 401.64 119.263C407.148 119.262 411.615 119.364 411.615 119.49Z" fill="#E0E0E0"/>
<path d="M447.574 125.19C447.574 125.316 435.302 125.417 420.167 125.417C405.027 125.417 392.758 125.316 392.758 125.19C392.758 125.065 405.027 124.964 420.167 124.964C435.302 124.963 447.574 125.065 447.574 125.19Z" fill="#E0E0E0"/>
<path d="M395.383 134.847H391.808V138.422H395.383V134.847Z" fill="#E0E0E0"/>
<path d="M404.184 134.847H400.609V138.422H404.184V134.847Z" fill="#E0E0E0"/>
<path d="M413.147 134.685H409.572V138.26H413.147V134.685Z" fill="#E0E0E0"/>
<path d="M421.786 134.847H418.211V138.422H421.786V134.847Z" fill="#E0E0E0"/>
<path d="M430.587 134.847H427.012V138.422H430.587V134.847Z" fill="#E0E0E0"/>
<path d="M439.388 134.847H435.812V138.422H439.388V134.847Z" fill="#E0E0E0"/>
<path d="M448.188 134.847H444.613V138.422H448.188V134.847Z" fill="#EBEBEB"/>
<path d="M395.383 142.448H391.808V146.023H395.383V142.448Z" fill="#EBEBEB"/>
<path d="M404.184 142.448H400.609V146.023H404.184V142.448Z" fill="#E0E0E0"/>
<path d="M412.985 142.448H409.41V146.023H412.985V142.448Z" fill="#EBEBEB"/>
<path d="M421.786 142.448H418.211V146.023H421.786V142.448Z" fill="#E0E0E0"/>
<path d="M430.587 142.448H427.012V146.023H430.587V142.448Z" fill="#E0E0E0"/>
<path d="M439.55 142.285H435.975V145.86H439.55V142.285Z" fill="#E0E0E0"/>
<path d="M448.188 142.448H444.613V146.023H448.188V142.448Z" fill="#E0E0E0"/>
<path d="M395.383 150.049H391.808V153.624H395.383V150.049Z" fill="#E0E0E0"/>
<path d="M404.347 149.886H400.771V153.461H404.347V149.886Z" fill="#E0E0E0"/>
<path d="M412.985 150.049H409.41V153.624H412.985V150.049Z" fill="#E0E0E0"/>
<path d="M421.786 150.049H418.211V153.624H421.786V150.049Z" fill="#EBEBEB"/>
<path d="M430.587 150.049H427.012V153.624H430.587V150.049Z" fill="#E0E0E0"/>
<path d="M439.388 150.049H435.812V153.624H439.388V150.049Z" fill="#E0E0E0"/>
<path d="M448.188 150.049H444.613V153.624H448.188V150.049Z" fill="#E0E0E0"/>
<path d="M395.383 157.65H391.808V161.225H395.383V157.65Z" fill="#E0E0E0"/>
<path d="M404.184 157.65H400.609V161.225H404.184V157.65Z" fill="#E0E0E0"/>
<path d="M412.985 157.65H409.41V161.225H412.985V157.65Z" fill="#E0E0E0"/>
<path d="M421.948 157.487H418.373V161.062H421.948V157.487Z" fill="#E0E0E0"/>
<path d="M430.587 157.65H427.012V161.225H430.587V157.65Z" fill="#E0E0E0"/>
<path d="M439.388 157.65H435.812V161.225H439.388V157.65Z" fill="#EBEBEB"/>
<path d="M448.188 157.65H444.613V161.225H448.188V157.65Z" fill="#E0E0E0"/>
<path d="M395.383 165.25H391.808V168.826H395.383V165.25Z" fill="#E0E0E0"/>
<path d="M404.184 165.25H400.609V168.826H404.184V165.25Z" fill="#EBEBEB"/>
<path d="M412.985 165.25H409.41V168.826H412.985V165.25Z" fill="#E0E0E0"/>
<path d="M421.786 165.25H418.211V168.826H421.786V165.25Z" fill="#E0E0E0"/>
<path d="M430.587 165.25H427.012V168.826H430.587V165.25Z" fill="#E0E0E0"/>
<path d="M439.55 165.088H435.975V168.663H439.55V165.088Z" fill="#E0E0E0"/>
<path d="M448.188 165.25H444.613V168.826H448.188V165.25Z" fill="#E0E0E0"/>
<path d="M447.578 56.8991C450.288 40.0358 438.815 24.1681 421.952 21.4575C405.089 18.7468 389.221 30.2198 386.511 47.0831C383.8 63.9463 395.273 79.8141 412.136 82.5247C428.999 85.2353 444.867 73.7624 447.578 56.8991Z" fill="#E0E0E0"/>
<path d="M417.363 79.6533C432.82 79.6533 445.351 67.1227 445.351 51.6655C445.351 36.2083 432.82 23.6777 417.363 23.6777C401.906 23.6777 389.375 36.2083 389.375 51.6655C389.375 67.1227 401.906 79.6533 417.363 79.6533Z" fill="white"/>
<path d="M389.091 49.9867C389.091 49.9867 389.099 50.1418 389.1 50.4437C389.099 50.7548 389.097 51.2005 389.095 51.7829C389.093 52.0777 389.09 52.4072 389.088 52.7693C389.102 53.1314 389.153 53.5261 389.188 53.9545C389.227 54.3829 389.27 54.844 389.315 55.3366C389.34 55.8323 389.49 56.3423 389.58 56.8931C389.931 59.0963 390.776 61.729 392.198 64.5544C393.634 67.3685 395.777 70.352 398.793 72.9622C399.173 73.2856 399.556 73.612 399.944 73.9435C400.351 74.2495 400.781 74.5351 401.206 74.837C401.64 75.1236 402.048 75.4643 402.519 75.7152C402.983 75.9763 403.452 76.2405 403.925 76.5067C404.163 76.6393 404.4 76.7719 404.641 76.9055C404.892 77.0157 405.145 77.1269 405.398 77.2391C405.905 77.4625 406.417 77.6879 406.934 77.9164C407.457 78.1285 408.009 78.2785 408.553 78.4651C409.104 78.6283 409.641 78.8619 410.22 78.9598C411.365 79.1995 412.518 79.5147 413.728 79.6014C414.33 79.6616 414.933 79.7605 415.546 79.7911C416.16 79.7993 416.779 79.8085 417.402 79.8166C417.713 79.8156 418.028 79.838 418.34 79.8176C418.653 79.7901 418.966 79.7626 419.281 79.735C419.911 79.6728 420.548 79.6412 421.181 79.5535C422.437 79.2985 423.731 79.1322 424.98 78.7048L425.93 78.4253C426.088 78.3774 426.249 78.3356 426.405 78.2815L426.867 78.0949C427.484 77.846 428.105 77.594 428.729 77.3421C429.34 77.0606 429.931 76.725 430.538 76.417C430.836 76.2527 431.151 76.1161 431.438 75.9284L432.3 75.3664C433.488 74.6615 434.545 73.7517 435.647 72.8806C436.152 72.3931 436.66 71.9024 437.17 71.4098L437.552 71.0395L437.901 70.6356L438.597 69.8216L439.296 69.0046L439.919 68.1223L440.541 67.2339L440.853 66.7882C440.948 66.6341 441.034 66.473 441.124 66.3149C441.483 65.6815 441.842 65.045 442.203 64.4065C442.499 63.7353 442.797 63.0631 443.096 62.3869C444.192 59.642 444.878 56.6963 445.117 53.6669C445.276 50.6324 444.982 47.6203 444.256 44.7551C444.048 44.0462 443.841 43.3394 443.634 42.6356C443.359 41.9552 443.086 41.2769 442.814 40.6027L442.608 40.0978L442.356 39.6154L441.855 38.6525L441.353 37.6957L440.766 36.794L440.183 35.8954L439.89 35.4497L439.559 35.0325C439.117 34.4776 438.679 33.9248 438.241 33.375C437.262 32.3672 436.333 31.3268 435.247 30.4721L434.465 29.8019C434.206 29.5775 433.911 29.4011 433.637 29.1991C433.075 28.8146 432.534 28.4045 431.965 28.0455C431.378 27.714 430.796 27.3835 430.217 27.0551L429.783 26.8093C429.634 26.7358 429.48 26.6736 429.33 26.6042L428.426 26.2034C427.243 25.6159 425.982 25.2823 424.77 24.8651C424.153 24.6948 423.524 24.5806 422.909 24.4367C422.6 24.3684 422.293 24.3001 421.986 24.2317C421.678 24.1705 421.365 24.1522 421.056 24.1103C420.437 24.0379 419.822 23.9655 419.212 23.8931C418.6 23.8441 417.989 23.8625 417.385 23.8441C416.173 23.7717 414.989 23.9339 413.822 24.0216C413.235 24.043 412.672 24.2042 412.104 24.2939C411.541 24.4082 410.974 24.4847 410.428 24.6275C409.885 24.7856 409.348 24.9427 408.816 25.0977C408.55 25.1752 408.285 25.2527 408.021 25.3292C407.766 25.4302 407.512 25.5312 407.259 25.6312C406.755 25.8341 406.256 26.0341 405.762 26.233C405.263 26.4217 404.815 26.7052 404.346 26.9327C403.885 27.1765 403.421 27.4019 402.979 27.6528C402.55 27.9302 402.128 28.2036 401.71 28.4749C398.378 30.6689 395.864 33.3464 394.072 35.9495C392.293 38.5637 391.11 41.0638 390.474 43.2017C390.313 43.7351 390.098 44.2217 390.008 44.7103C389.899 45.1927 389.797 45.6436 389.702 46.0638C389.611 46.484 389.509 46.8686 389.448 47.2256C389.403 47.5846 389.363 47.911 389.327 48.2038C389.252 48.7811 389.196 49.2227 389.157 49.5318C389.12 49.8337 389.091 49.9867 389.091 49.9867C389.091 49.9867 389.098 49.8327 389.128 49.5318C389.161 49.2217 389.206 48.778 389.268 48.1976C389.299 47.9039 389.335 47.5754 389.375 47.2144C389.431 46.8553 389.528 46.4687 389.614 46.0465C389.705 45.6242 389.803 45.1703 389.907 44.6848C389.993 44.1941 390.204 43.7035 390.362 43.167C390.983 41.0138 392.154 38.4934 393.931 35.8526C395.72 33.224 398.241 30.517 401.59 28.2934C402.011 28.019 402.436 27.7415 402.866 27.461C403.312 27.206 403.779 26.9765 404.243 26.7297C404.715 26.4992 405.166 26.2115 405.669 26.0198C406.167 25.8178 406.67 25.6138 407.178 25.4088C407.433 25.3068 407.688 25.2048 407.945 25.1018C408.21 25.0232 408.477 24.9447 408.746 24.8651C409.282 24.707 409.824 24.5479 410.37 24.3868C410.921 24.2419 411.494 24.1624 412.062 24.0461C412.634 23.9533 413.202 23.7901 413.795 23.7666C414.972 23.6748 416.167 23.5085 417.39 23.5789C418 23.5963 418.617 23.5759 419.235 23.6248C419.851 23.6962 420.473 23.7676 421.098 23.84C421.41 23.8819 421.726 23.9002 422.037 23.9614C422.347 24.0298 422.657 24.0971 422.97 24.1664C423.592 24.3103 424.226 24.4255 424.849 24.5969C426.074 25.0151 427.349 25.3517 428.545 25.9423L429.46 26.3462C429.612 26.4155 429.768 26.4778 429.918 26.5522L430.356 26.8001C430.942 27.1306 431.531 27.4631 432.125 27.7976C432.7 28.1597 433.249 28.5728 433.816 28.9615C434.094 29.1655 434.391 29.3429 434.654 29.5694L435.445 30.2456C436.543 31.1086 437.483 32.1581 438.474 33.1771C438.916 33.733 439.361 34.291 439.808 34.852L440.143 35.2732L440.44 35.7241L441.031 36.6319L441.623 37.5437L442.132 38.5107L442.639 39.4838L442.893 39.9713L443.102 40.4813C443.378 41.1637 443.654 41.8492 443.932 42.5366C444.141 43.2486 444.351 43.9626 444.562 44.6797C445.298 47.5765 445.595 50.6232 445.434 53.6914C445.192 56.7534 444.498 59.7328 443.389 62.5082C443.086 63.1916 442.784 63.872 442.484 64.5493C442.119 65.1949 441.756 65.8375 441.394 66.4781C441.302 66.6372 441.215 66.7994 441.119 66.9554L440.803 67.4063L440.173 68.3039L439.542 69.1954L438.836 70.0216L438.132 70.8437L437.779 71.2517L437.391 71.625C436.875 72.1228 436.362 72.6175 435.851 73.1101C434.737 73.9904 433.666 74.9074 432.466 75.6193L431.593 76.1864C431.303 76.3762 430.985 76.5139 430.683 76.6791C430.069 76.9902 429.472 77.3278 428.854 77.6114C428.223 77.8654 427.594 78.1183 426.971 78.3692L426.504 78.5569C426.346 78.611 426.183 78.6528 426.023 78.7018L425.064 78.9823C423.802 79.4117 422.493 79.579 421.224 79.8329C420.584 79.9207 419.939 79.9523 419.305 80.0135C418.986 80.041 418.669 80.0675 418.354 80.0941C418.038 80.1145 417.722 80.091 417.406 80.092C416.777 80.0818 416.153 80.0716 415.533 80.0614C414.915 80.0288 414.305 79.9288 413.698 79.8656C412.476 79.7748 411.313 79.4555 410.158 79.2097C409.574 79.1087 409.032 78.8731 408.477 78.7069C407.93 78.5171 407.373 78.3631 406.845 78.1479C406.324 77.9164 405.808 77.6879 405.297 77.4604C405.041 77.3472 404.787 77.234 404.534 77.1218C404.292 76.9861 404.053 76.8515 403.813 76.7179C403.337 76.4476 402.864 76.1803 402.397 75.9151C401.924 75.6601 401.514 75.3154 401.076 75.0247C400.649 74.7187 400.215 74.43 399.806 74.1199C399.417 73.7854 399.031 73.4539 398.65 73.1275C395.619 70.4857 393.474 67.4716 392.044 64.6319C390.627 61.782 389.795 59.13 389.461 56.9135C389.375 56.3607 389.23 55.8466 389.21 55.3489C389.17 54.8542 389.132 54.3911 389.097 53.9606C389.067 53.5302 389.021 53.1344 389.013 52.7713C389.021 52.4082 389.028 52.0787 389.035 51.7829C389.05 51.2005 389.063 50.7538 389.071 50.4427C389.079 50.1407 389.091 49.9867 389.091 49.9867Z" fill="#EBEBEB"/>
<path d="M430.111 52.4327C430.111 52.4562 429.759 52.4786 429.116 52.498C428.412 52.5123 427.493 52.5306 426.379 52.5531C424.058 52.5847 420.822 52.6071 417.171 52.6133H416.99V52.4327C416.99 51.8483 416.989 51.2322 416.989 50.6069C416.989 46.5279 417.01 42.8366 417.042 40.1642C417.066 38.8759 417.085 37.81 417.1 37.0001C417.122 36.2525 417.146 35.8394 417.171 35.8394C417.196 35.8394 417.22 36.2525 417.242 37.0001C417.256 37.81 417.277 38.8759 417.3 40.1642C417.333 42.8366 417.354 46.5279 417.354 50.6069C417.353 51.2322 417.353 51.8483 417.353 52.4327L417.173 52.2522C420.824 52.2583 424.06 52.2797 426.381 52.3124C427.495 52.3348 428.413 52.3532 429.118 52.3674C429.758 52.3878 430.111 52.4093 430.111 52.4327Z" fill="#E0E0E0"/>
<path d="M417.257 28.0376C417.358 28.0376 417.439 29.0964 417.439 30.402C417.439 31.7086 417.358 32.7673 417.257 32.7673C417.157 32.7673 417.075 31.7086 417.075 30.402C417.075 29.0964 417.157 28.0376 417.257 28.0376Z" fill="#E0E0E0"/>
<path d="M430.085 31.8362C430.156 31.9076 429.476 32.7032 428.565 33.613C427.654 34.5239 426.859 35.2032 426.788 35.1328C426.717 35.0614 427.397 34.2658 428.308 33.356C429.218 32.4451 430.014 31.7648 430.085 31.8362Z" fill="#E0E0E0"/>
<path d="M437.585 40.0296C437.631 40.1214 436.738 40.659 435.645 41.324C434.55 41.988 433.662 42.5327 433.602 42.4501C433.543 42.3706 434.346 41.6851 435.455 41.0129C436.564 40.3387 437.542 39.9419 437.585 40.0296Z" fill="#E0E0E0"/>
<path d="M441.981 52.1889C441.981 52.2899 440.536 52.3715 438.757 52.3715C436.976 52.3715 435.531 52.2899 435.531 52.1889C435.531 52.0879 436.975 52.0063 438.757 52.0063C440.536 52.0063 441.981 52.0879 441.981 52.1889Z" fill="#E0E0E0"/>
<path d="M397.262 51.7588C397.262 51.8587 395.899 51.9413 394.217 51.9413C392.535 51.9413 391.171 51.8597 391.171 51.7588C391.171 51.6578 392.535 51.5762 394.217 51.5762C395.899 51.5762 397.262 51.6578 397.262 51.7588Z" fill="#E0E0E0"/>
<path d="M400.425 60.811C400.491 60.8865 399.461 61.8219 398.124 62.899C396.787 63.9761 395.653 64.7839 395.594 64.7034C395.534 64.6228 396.564 63.6885 397.895 62.6154C399.227 61.5424 400.359 60.7356 400.425 60.811Z" fill="#E0E0E0"/>
<path d="M408.227 67.8113C408.311 67.8725 407.547 69.0475 406.66 70.5265C405.771 72.0035 405.091 73.2295 404.998 73.1836C404.91 73.1418 405.447 71.8321 406.347 70.3378C407.245 68.8435 408.149 67.7532 408.227 67.8113Z" fill="#E0E0E0"/>
<path d="M417.257 76.8416C417.157 76.8416 417.075 75.3973 417.075 73.6164C417.075 71.8354 417.157 70.3911 417.257 70.3911C417.358 70.3911 417.439 71.8344 417.439 73.6164C417.439 75.3973 417.358 76.8416 417.257 76.8416Z" fill="#E0E0E0"/>
<path d="M431.158 72.5443C431.107 72.6249 429.845 71.8997 428.499 70.7226C427.148 69.5496 426.258 68.399 426.331 68.3368C426.41 68.2675 427.409 69.2936 428.739 70.4482C430.063 71.6069 431.216 72.4566 431.158 72.5443Z" fill="#E0E0E0"/>
<path d="M437.682 65.5184C437.611 65.5898 436.655 64.7483 435.546 63.6406C434.437 62.5319 433.597 61.5761 433.668 61.5047C433.74 61.4333 434.695 62.2738 435.804 63.3825C436.912 64.4913 437.752 65.447 437.682 65.5184Z" fill="#E0E0E0"/>
<path d="M400.13 43.0875C400.059 43.1589 399.215 42.4296 398.246 41.4606C397.276 40.4906 396.548 39.647 396.619 39.5756C396.69 39.5042 397.534 40.2325 398.504 41.2025C399.472 42.1715 400.2 43.0161 400.13 43.0875Z" fill="#E0E0E0"/>
<path d="M408.18 34.6062C408.109 34.6776 407.279 33.9666 406.328 33.0191C405.375 32.0715 404.661 31.2453 404.732 31.1739C404.803 31.1025 405.632 31.8134 406.585 32.761C407.536 33.7086 408.25 34.5348 408.18 34.6062Z" fill="#E0E0E0"/>
<path d="M392.302 51.9414C392.302 37.0432 403.944 24.8685 418.626 24.0076C418.075 23.975 417.521 23.9546 416.962 23.9546C401.505 23.9546 388.975 36.4853 388.975 51.9424C388.975 67.3995 401.505 79.9291 416.962 79.9291C417.521 79.9291 418.075 79.9077 418.626 79.8761C403.943 79.0132 392.302 66.8395 392.302 51.9414Z" fill="#F5F5F5"/>
<path d="M105.553 27.0142H26.7607V151.532H105.553V27.0142Z" fill="#E0E0E0"/>
<path d="M103.161 29.353H28.8838V149.485H103.161V29.353Z" fill="#F5F5F5"/>
<path d="M95.6402 36.3511H66.0225V82.3102H95.6402V36.3511Z" fill="white"/>
<path d="M82.4067 40.4148C82.4067 41.0257 81.912 41.5204 81.301 41.5204C80.69 41.5204 80.1953 41.0257 80.1953 40.4148C80.1953 39.8038 80.69 39.3091 81.301 39.3091C81.912 39.3091 82.4067 39.8038 82.4067 40.4148Z" fill="#E0E0E0"/>
<path d="M65.7906 95.1011H36.1729V141.06H65.7906V95.1011Z" fill="white"/>
<path d="M52.5571 99.1638C52.5571 99.7748 52.0624 100.269 51.4514 100.269C50.8404 100.269 50.3457 99.7748 50.3457 99.1638C50.3457 98.5538 50.8404 98.0581 51.4514 98.0581C52.0624 98.0591 52.5571 98.5538 52.5571 99.1638Z" fill="#E0E0E0"/>
<path d="M61.0674 36.3511H35.7725V72.2398H61.0674V36.3511Z" fill="white"/>
<path d="M49.3389 39.6109C49.3389 40.1178 48.9279 40.5289 48.4209 40.5289C47.914 40.5289 47.5029 40.1178 47.5029 39.6109C47.5029 39.1039 47.914 38.6929 48.4209 38.6929C48.9279 38.6929 49.3389 39.1039 49.3389 39.6109Z" fill="#E0E0E0"/>
<path d="M96.6138 95.734L69.5625 98.7856L71.2533 113.773L98.3046 110.722L96.6138 95.734Z" fill="white"/>
<path d="M84.3454 100.101C84.3454 100.619 83.9262 101.038 83.409 101.038C82.8919 101.038 82.4727 100.619 82.4727 100.101C82.4727 99.5843 82.8919 99.165 83.409 99.165C83.9262 99.164 84.3454 99.5843 84.3454 100.101Z" fill="#E0E0E0"/>
<path d="M61.8398 105.584C61.8398 105.705 57.1886 105.804 51.4531 105.804C45.7156 105.804 41.0654 105.705 41.0654 105.584C41.0654 105.462 45.7156 105.363 51.4531 105.363C57.1886 105.363 61.8398 105.462 61.8398 105.584Z" fill="#E0E0E0"/>
<path d="M61.8398 108.872C61.8398 108.995 57.1886 109.094 51.4531 109.094C45.7156 109.094 41.0654 108.995 41.0654 108.872C41.0654 108.751 45.7156 108.652 51.4531 108.652C57.1886 108.652 61.8398 108.75 61.8398 108.872Z" fill="#E0E0E0"/>
<path d="M61.8398 112.161C61.8398 112.282 57.1886 112.381 51.4531 112.381C45.7156 112.381 41.0654 112.282 41.0654 112.161C41.0654 112.038 45.7156 111.94 51.4531 111.94C57.1886 111.939 61.8398 112.038 61.8398 112.161Z" fill="#E0E0E0"/>
<path d="M61.8398 115.448C61.8398 115.571 57.1886 115.669 51.4531 115.669C45.7156 115.669 41.0654 115.57 41.0654 115.448C41.0654 115.327 45.7156 115.228 51.4531 115.228C57.1886 115.228 61.8398 115.327 61.8398 115.448Z" fill="#E0E0E0"/>
<path d="M61.8398 118.736C61.8398 118.859 57.1886 118.958 51.4531 118.958C45.7156 118.958 41.0654 118.859 41.0654 118.736C41.0654 118.615 45.7156 118.516 51.4531 118.516C57.1886 118.516 61.8398 118.615 61.8398 118.736Z" fill="#E0E0E0"/>
<path d="M61.8398 122.025C61.8398 122.147 57.1886 122.245 51.4531 122.245C45.7156 122.245 41.0654 122.146 41.0654 122.025C41.0654 121.904 45.7156 121.805 51.4531 121.805C57.1886 121.804 61.8398 121.903 61.8398 122.025Z" fill="#E0E0E0"/>
<path d="M61.8398 125.314C61.8398 125.436 57.1886 125.534 51.4531 125.534C45.7156 125.534 41.0654 125.435 41.0654 125.314C41.0654 125.192 45.7156 125.093 51.4531 125.093C57.1886 125.092 61.8398 125.191 61.8398 125.314Z" fill="#E0E0E0"/>
<path d="M94.0792 102.062C94.0965 102.182 89.5045 102.93 83.8251 103.732C78.1437 104.533 73.5252 105.085 73.5088 104.965C73.4915 104.844 78.0825 104.097 83.7639 103.295C89.4433 102.493 94.0618 101.942 94.0792 102.062Z" fill="#E0E0E0"/>
<path d="M94.4923 104.118C94.5096 104.238 89.9176 104.986 84.2382 105.788C78.5568 106.589 73.9382 107.141 73.9219 107.021C73.9056 106.901 78.4956 106.153 84.177 105.351C89.8553 104.55 94.4749 103.998 94.4923 104.118Z" fill="#E0E0E0"/>
<path d="M94.8692 106.017C94.8866 106.138 90.2945 106.886 84.6152 107.687C78.9338 108.489 74.3162 109.041 74.2989 108.92C74.2815 108.8 78.8726 108.052 84.554 107.251C90.2323 106.449 94.8519 105.897 94.8692 106.017Z" fill="#E0E0E0"/>
<path d="M93.0366 45.9659C93.0366 46.0883 87.7825 46.1862 81.3025 46.1862C74.8204 46.1862 69.5674 46.0873 69.5674 45.9659C69.5674 45.8445 74.8204 45.7456 81.3025 45.7456C87.7815 45.7456 93.0366 45.8445 93.0366 45.9659Z" fill="#E0E0E0"/>
<path d="M93.0366 47.921C93.0366 48.0424 87.7825 48.1413 81.3025 48.1413C74.8204 48.1413 69.5674 48.0424 69.5674 47.921C69.5674 47.7996 74.8204 47.7007 81.3025 47.7007C87.7815 47.7007 93.0366 47.7986 93.0366 47.921Z" fill="#E0E0E0"/>
<path d="M93.0366 49.8766C93.0366 49.999 87.7825 50.0969 81.3025 50.0969C74.8204 50.0969 69.5674 49.998 69.5674 49.8766C69.5674 49.7552 74.8204 49.6563 81.3025 49.6563C87.7815 49.6552 93.0366 49.7542 93.0366 49.8766Z" fill="#E0E0E0"/>
<path d="M93.0366 51.8307C93.0366 51.9521 87.7825 52.051 81.3025 52.051C74.8204 52.051 69.5674 51.9521 69.5674 51.8307C69.5674 51.7093 74.8204 51.6104 81.3025 51.6104C87.7815 51.6104 93.0366 51.7093 93.0366 51.8307Z" fill="#E0E0E0"/>
<path d="M93.0366 53.7862C93.0366 53.9076 87.7825 54.0066 81.3025 54.0066C74.8204 54.0066 69.5674 53.9076 69.5674 53.7862C69.5674 53.6649 74.8204 53.5659 81.3025 53.5659C87.7815 53.5659 93.0366 53.6649 93.0366 53.7862Z" fill="#E0E0E0"/>
<path d="M93.0366 55.7413C93.0366 55.8627 87.7825 55.9616 81.3025 55.9616C74.8204 55.9616 69.5674 55.8627 69.5674 55.7413C69.5674 55.6199 74.8204 55.521 81.3025 55.521C87.7815 55.521 93.0366 55.6199 93.0366 55.7413Z" fill="#E0E0E0"/>
<path d="M93.0366 57.6969C93.0366 57.8183 87.7825 57.9172 81.3025 57.9172C74.8204 57.9172 69.5674 57.8183 69.5674 57.6969C69.5674 57.5755 74.8204 57.4766 81.3025 57.4766C87.7815 57.4766 93.0366 57.5755 93.0366 57.6969Z" fill="#E0E0E0"/>
<path d="M93.0366 63.4986C93.0366 63.621 87.7825 63.719 81.3025 63.719C74.8204 63.719 69.5674 63.62 69.5674 63.4986C69.5674 63.3773 74.8204 63.2783 81.3025 63.2783C87.7815 63.2783 93.0366 63.3773 93.0366 63.4986Z" fill="#E0E0E0"/>
<path d="M93.2006 65.5641C93.2006 65.6855 87.9466 65.7844 81.4665 65.7844C74.9845 65.7844 69.7314 65.6855 69.7314 65.5641C69.7314 65.4427 74.9845 65.3438 81.4665 65.3438C87.9466 65.3427 93.2006 65.4417 93.2006 65.5641Z" fill="#E0E0E0"/>
<path d="M93.3657 67.6285C93.3657 67.7509 88.1116 67.8488 81.6316 67.8488C75.1495 67.8488 69.8965 67.7499 69.8965 67.6285C69.8965 67.5071 75.1495 67.4082 81.6316 67.4082C88.1116 67.4082 93.3657 67.5071 93.3657 67.6285Z" fill="#E0E0E0"/>
<path d="M93.5307 69.694C93.5307 69.8153 88.2767 69.9143 81.7966 69.9143C75.3145 69.9143 70.0615 69.8153 70.0615 69.694C70.0615 69.5726 75.3145 69.4736 81.7966 69.4736C88.2767 69.4736 93.5307 69.5726 93.5307 69.694Z" fill="#E0E0E0"/>
<path d="M93.6957 71.7584C93.6957 71.8798 88.4417 71.9787 81.9617 71.9787C75.4796 71.9787 70.2266 71.8798 70.2266 71.7584C70.2266 71.637 75.4796 71.5381 81.9617 71.5381C88.4417 71.5381 93.6957 71.637 93.6957 71.7584Z" fill="#E0E0E0"/>
<path d="M93.8618 73.8238C93.8618 73.9462 88.6077 74.0442 82.1277 74.0442C75.6456 74.0442 70.3926 73.9452 70.3926 73.8238C70.3926 73.7025 75.6456 73.6035 82.1277 73.6035C88.6077 73.6035 93.8618 73.7025 93.8618 73.8238Z" fill="#E0E0E0"/>
<path d="M477.746 467.989C477.746 468.136 372.638 468.254 243.011 468.254C113.339 468.254 8.25391 468.135 8.25391 467.989C8.25391 467.842 113.338 467.724 243.011 467.724C372.638 467.724 477.746 467.843 477.746 467.989Z" fill="#263238"/>
<path d="M351.384 360.01H137.051C131.849 360.01 127.631 355.792 127.631 350.59V38.4729C127.631 33.2699 131.849 29.0532 137.051 29.0532H351.384C356.587 29.0532 360.804 33.2709 360.804 38.4729V350.59C360.804 355.792 356.586 360.01 351.384 360.01Z" fill="#E0E0E0"/>
<path d="M351.384 360.01C351.384 360.01 351.627 359.989 352.106 359.962C352.585 359.929 353.297 359.82 354.206 359.555C355.103 359.26 356.193 358.764 357.287 357.883C358.365 357 359.448 355.71 360.114 353.987C360.465 353.135 360.663 352.165 360.726 351.14C360.781 350.111 360.739 349.017 360.749 347.876C360.746 345.59 360.742 343.09 360.739 340.383C360.733 334.966 360.725 328.718 360.718 321.684C360.701 293.543 360.676 252.828 360.647 202.519C360.639 177.364 360.63 149.81 360.619 120.23C360.616 105.44 360.612 90.143 360.608 74.3871C360.606 66.5086 360.605 58.5159 360.603 50.413C360.598 46.3636 360.592 42.2877 360.586 38.1852C360.546 36.1728 359.775 34.1991 358.507 32.6293C357.212 31.0819 355.416 29.9314 353.425 29.4969C352.43 29.2704 351.418 29.25 350.366 29.2633C349.324 29.2633 348.279 29.2633 347.234 29.2633C345.142 29.2633 343.045 29.2643 340.94 29.2643C336.732 29.2653 332.499 29.2653 328.24 29.2663C319.725 29.2674 311.112 29.2684 302.407 29.2694C284.998 29.2714 267.221 29.2735 249.125 29.2755C212.933 29.2765 175.46 29.2786 137.079 29.2796C134.731 29.2714 132.408 30.1976 130.722 31.8184C129.021 33.4228 127.981 35.6934 127.882 38.02C127.835 42.7671 127.869 47.5386 127.858 52.2735C127.858 61.7523 127.857 71.169 127.857 80.5162C127.856 99.2118 127.855 117.633 127.854 135.734C127.85 171.936 127.845 206.854 127.841 240.119C127.834 273.383 127.827 304.993 127.82 334.575C127.819 338.272 127.818 341.939 127.817 345.572C127.825 347.386 127.795 349.207 127.835 350.991C127.894 352.757 128.501 354.483 129.507 355.912C130.515 357.346 131.932 358.465 133.532 359.134C134.336 359.46 135.181 359.67 136.037 359.775C136.891 359.85 137.772 359.833 138.648 359.834C142.149 359.835 145.617 359.836 149.049 359.837C162.78 359.842 175.958 359.847 188.535 359.851C238.845 359.882 279.556 359.906 307.694 359.923C321.758 359.941 332.681 359.955 340.09 359.966C343.79 359.976 346.614 359.983 348.515 359.988C350.411 359.994 351.384 360.01 351.384 360.01C351.384 360.01 350.412 360.025 348.514 360.033C346.613 360.038 343.789 360.045 340.089 360.055C332.68 360.065 321.757 360.079 307.693 360.098C279.555 360.116 238.844 360.139 188.534 360.17C175.957 360.175 162.779 360.179 149.048 360.184C145.616 360.185 142.148 360.186 138.647 360.187C137.773 360.186 136.897 360.205 135.997 360.127C135.108 360.018 134.229 359.8 133.394 359.463C131.731 358.769 130.258 357.607 129.211 356.118C128.164 354.634 127.533 352.839 127.47 351.004C127.428 349.188 127.458 347.391 127.447 345.57C127.446 341.937 127.445 338.27 127.444 334.573C127.438 304.991 127.431 273.381 127.424 240.117C127.42 206.852 127.416 171.933 127.411 135.732C127.41 117.631 127.409 99.2098 127.408 80.5142C127.408 71.1669 127.407 61.7503 127.407 52.2714C127.417 47.5274 127.383 42.7875 127.43 37.9965C127.534 35.5557 128.626 33.1719 130.409 31.4899C132.177 29.7906 134.619 28.8175 137.078 28.8267C175.459 28.8277 212.932 28.8298 249.124 28.8318C267.221 28.8339 284.997 28.8359 302.406 28.8369C311.111 28.8379 319.723 28.839 328.239 28.841C332.497 28.842 336.731 28.842 340.939 28.843C343.044 28.843 345.142 28.8441 347.233 28.8441C348.278 28.8441 349.323 28.8441 350.365 28.8441C351.397 28.8318 352.481 28.8512 353.516 29.0889C355.597 29.5458 357.474 30.7474 358.825 32.3651C360.149 34.0042 360.954 36.0697 360.996 38.1709C361 42.2775 361.004 46.3585 361.008 50.412C361.006 58.5138 361.005 66.5076 361.003 74.386C360.999 90.143 360.995 105.439 360.992 120.229C360.981 149.809 360.972 177.363 360.964 202.518C360.934 252.828 360.909 293.542 360.893 321.683C360.885 328.717 360.878 334.965 360.872 340.382C360.868 343.09 360.865 345.589 360.862 347.875C360.848 349.018 360.887 350.104 360.828 351.144C360.761 352.18 360.557 353.158 360.2 354.019C359.52 355.756 358.421 357.052 357.331 357.935C356.224 358.816 355.125 359.309 354.22 359.596C353.304 359.857 352.588 359.957 352.108 359.983C351.627 360.005 351.384 360.01 351.384 360.01Z" fill="#263238"/>
<g opacity="0.3">
<path d="M147.974 352.531H343.671L341.525 311.827V290.161L147.974 320.404V352.531Z" fill="black"/>
</g>
<g opacity="0.3">
<path d="M303.054 29.7285L307.502 42.9181V49.3798H302.487L303.054 29.7285Z" fill="black"/>
</g>
<path d="M138.03 42.313V346.329H296.628H350.404V42.313H138.03Z" fill="white"/>
<path d="M350.404 291.967C350.404 291.967 350.393 291.574 350.388 290.798C350.384 290.019 350.379 288.865 350.372 287.344C350.365 284.292 350.354 279.773 350.341 273.887C350.328 262.104 350.31 244.851 350.285 222.948C350.266 179.133 350.237 116.721 350.203 42.3132L350.403 42.5131C287.656 42.5203 215.043 42.5295 138.028 42.5386L138.254 42.3132C138.254 42.3989 138.254 42.4907 138.254 42.5835C138.232 159.453 138.213 266.181 138.197 346.329L138.028 346.16C186.884 346.192 226.533 346.217 253.971 346.234C267.685 346.254 278.349 346.269 285.586 346.28C289.201 346.291 291.959 346.299 293.819 346.305C295.674 346.313 296.626 346.33 296.626 346.33C296.626 346.33 295.674 346.347 293.819 346.356C291.959 346.361 289.2 346.369 285.586 346.38C278.349 346.391 267.685 346.406 253.971 346.426C226.532 346.444 186.884 346.47 138.028 346.501H137.859V346.331C137.844 266.183 137.824 159.455 137.803 42.5856C137.803 42.4927 137.803 42.3999 137.803 42.3153V42.0898H138.028C215.043 42.099 287.656 42.1082 350.403 42.1153H350.603V42.3153C350.57 116.723 350.542 179.135 350.522 222.95C350.498 244.854 350.479 262.107 350.466 273.889C350.452 279.775 350.442 284.294 350.435 287.346C350.428 288.867 350.423 290.021 350.419 290.801C350.416 291.574 350.404 291.967 350.404 291.967Z" fill="#263238"/>
<path d="M303.055 51.9767H195.599V27.2621C195.599 23.6992 198.487 20.8096 202.051 20.8096H296.602C300.165 20.8096 303.055 23.6982 303.055 27.2621V51.9767Z" fill="#263238"/>
<path d="M263.002 9.08887H235.652L238.849 32.5315H259.45L263.002 9.08887Z" fill="#263238"/>
<path d="M296.151 20.8099C296.151 20.9343 275.185 21.0353 249.328 21.0353C223.462 21.0353 202.501 20.9343 202.501 20.8099C202.501 20.6855 223.462 20.5845 249.328 20.5845C275.185 20.5845 296.151 20.6855 296.151 20.8099Z" fill="#455A64"/>
<path d="M198.004 46.948C197.879 46.948 197.778 42.5396 197.778 37.102C197.778 31.6623 197.879 27.2549 198.004 27.2549C198.128 27.2549 198.229 31.6623 198.229 37.102C198.229 42.5396 198.128 46.948 198.004 46.948Z" fill="#455A64"/>
<path d="M299.575 44.6164C299.451 44.6164 299.35 40.6139 299.35 35.6771C299.35 30.7393 299.451 26.7378 299.575 26.7378C299.699 26.7378 299.8 30.7393 299.8 35.6771C299.8 40.6139 299.699 44.6164 299.575 44.6164Z" fill="#455A64"/>
<path d="M294.394 48.763C294.394 48.8875 272.873 48.9884 246.33 48.9884C219.779 48.9884 198.263 48.8875 198.263 48.763C198.263 48.6386 219.78 48.5376 246.33 48.5376C272.872 48.5376 294.394 48.6386 294.394 48.763Z" fill="#455A64"/>
<path d="M323.516 100.66H206.23V107.869H323.516V100.66Z" fill="#E0E0E0"/>
<path d="M259.44 115.386H206.23V122.546H259.44V115.386Z" fill="#E0E0E0"/>
<path d="M190.355 124.697H171.118C168.942 124.697 167.178 122.933 167.178 120.757V101.519C167.178 99.3437 168.941 97.5791 171.118 97.5791H190.355C192.531 97.5791 194.295 99.3427 194.295 101.519V120.757C194.295 122.933 192.532 124.697 190.355 124.697Z" fill="#7C5CFC"/>
<path d="M180.348 117.599L172.752 111.728L174.8 109.077L179.894 113.014L187.138 104.678L189.667 106.876L180.348 117.599Z" fill="white"/>
<path d="M323.516 145.296H206.23V152.506H323.516V145.296Z" fill="#E0E0E0"/>
<path d="M259.44 160.023H206.23V167.183H259.44V160.023Z" fill="#E0E0E0"/>
<path d="M190.355 169.334H171.118C168.942 169.334 167.178 167.57 167.178 165.394V146.157C167.178 143.981 168.941 142.216 171.118 142.216H190.355C192.531 142.216 194.295 143.98 194.295 146.157V165.394C194.295 167.57 192.532 169.334 190.355 169.334Z" fill="#7C5CFC"/>
<path d="M180.348 162.236L172.752 156.366L174.8 153.715L179.894 157.651L187.138 149.315L189.667 151.514L180.348 162.236Z" fill="white"/>
<path d="M323.516 193.123H206.23V200.332H323.516V193.123Z" fill="#E0E0E0"/>
<path d="M259.44 207.849H206.23V215.009H259.44V207.849Z" fill="#E0E0E0"/>
<path d="M323.516 237.337H206.23V244.547H323.516V237.337Z" fill="#E0E0E0"/>
<path d="M259.44 252.064H206.23V259.223H259.44V252.064Z" fill="#E0E0E0"/>
<path d="M190.355 217.161H171.118C168.942 217.161 167.178 215.397 167.178 213.22V193.983C167.178 191.808 168.941 190.043 171.118 190.043H190.355C192.531 190.043 194.295 191.807 194.295 193.983V213.22C194.295 215.396 192.532 217.161 190.355 217.161Z" fill="#7C5CFC"/>
<path d="M180.348 210.062L172.752 204.192L174.8 201.541L179.894 205.478L187.138 197.142L189.667 199.339L180.348 210.062Z" fill="white"/>
<path d="M190.743 263.093H170.73C168.518 263.093 166.719 261.294 166.719 259.081V239.069C166.719 236.857 168.519 235.058 170.73 235.058H190.743C192.955 235.058 194.755 236.857 194.755 239.069V259.081C194.755 261.294 192.956 263.093 190.743 263.093ZM170.731 235.977C169.026 235.977 167.639 237.364 167.639 239.069V259.081C167.639 260.786 169.026 262.174 170.731 262.174H190.744C192.449 262.174 193.836 260.787 193.836 259.081V239.069C193.836 237.365 192.449 235.977 190.744 235.977H170.731Z" fill="#7C5CFC"/>
<path d="M323.516 287.914H206.23V295.123H323.516V287.914Z" fill="#E0E0E0"/>
<path d="M259.44 302.641H206.23V309.8H259.44V302.641Z" fill="#E0E0E0"/>
<path d="M190.743 313.67H170.73C168.518 313.67 166.719 311.871 166.719 309.657V289.646C166.719 287.434 168.519 285.634 170.73 285.634H190.743C192.955 285.634 194.755 287.434 194.755 289.646V309.657C194.755 311.871 192.956 313.67 190.743 313.67ZM170.731 286.553C169.026 286.553 167.639 287.941 167.639 289.646V309.657C167.639 311.363 169.026 312.751 170.731 312.751H190.744C192.449 312.751 193.836 311.364 193.836 309.657V289.646C193.836 287.942 192.449 286.553 190.744 286.553H170.731Z" fill="#7C5CFC"/>
<path d="M309.049 72.7432H192.113V82.7545H309.049V72.7432Z" fill="#7C5CFC"/>
<path d="M212.292 443.931C212.292 443.931 208.772 419.73 209.066 405.649C209.36 391.569 209.049 375.729 209.049 375.729H210.671C210.671 375.729 209.572 403.677 210.768 420.533C211.962 437.376 215.11 443.931 215.11 443.931H212.292Z" fill="#263238"/>
<path d="M222.778 348.499C222.452 347.672 222.051 346.811 221.3 346.335C220.271 345.684 218.923 345.955 217.773 346.361C212.872 348.094 208.528 357.232 206.546 362.038L213.052 383.962C224.798 373.066 226.832 358.773 222.778 348.499Z" fill="#455A64"/>
<path d="M220.92 347.223C220.928 347.227 220.895 347.325 220.825 347.508C220.741 347.719 220.635 347.983 220.507 348.307C220.221 348.997 219.821 350 219.343 351.246C218.384 353.735 217.164 357.216 216.073 361.137C214.986 365.061 214.238 368.672 213.776 371.3C213.544 372.614 213.37 373.68 213.259 374.418C213.202 374.763 213.157 375.043 213.12 375.267C213.085 375.46 213.063 375.561 213.054 375.56C213.044 375.559 213.048 375.455 213.067 375.26C213.09 375.035 213.12 374.752 213.156 374.404C213.235 373.661 213.381 372.589 213.589 371.268C214.003 368.627 214.725 364.999 215.815 361.064C216.909 357.132 218.161 353.651 219.166 351.175C219.668 349.937 220.096 348.943 220.411 348.265C220.559 347.948 220.68 347.691 220.776 347.486C220.863 347.309 220.912 347.219 220.92 347.223Z" fill="#263238"/>
<path d="M210.161 389.218C204.063 385.848 200.468 379.508 200.133 372.548C199.898 367.683 201.393 362.909 203.087 358.342C203.234 357.946 203.408 357.519 203.775 357.31C204.287 357.021 204.927 357.279 205.438 357.57C209.87 360.093 212.554 364.904 213.983 369.8C214.934 373.058 215.427 376.493 214.987 379.858C214.547 383.224 212.624 386.884 210.161 389.218Z" fill="#455A64"/>
<path d="M210.161 389.218C210.152 389.218 210.144 389.117 210.138 388.925C210.134 388.702 210.129 388.424 210.121 388.083C210.119 387.353 210.09 386.296 210.03 384.993C209.912 382.385 209.571 378.791 208.897 374.864C208.221 370.937 207.4 367.421 206.795 364.879C206.497 363.636 206.253 362.617 206.073 361.869C205.996 361.537 205.934 361.265 205.885 361.048C205.846 360.859 205.828 360.759 205.837 360.757C205.847 360.755 205.88 360.85 205.937 361.035C206 361.248 206.078 361.515 206.174 361.843C206.375 362.545 206.651 363.566 206.979 364.833C207.632 367.365 208.483 370.881 209.162 374.819C209.837 378.756 210.15 382.368 210.218 384.984C210.254 386.293 210.255 387.352 210.224 388.083C210.21 388.425 210.199 388.703 210.19 388.925C210.181 389.118 210.17 389.219 210.161 389.218Z" fill="#263238"/>
<g opacity="0.3">
<path d="M210.161 389.218C204.063 385.848 200.468 379.508 200.133 372.548C199.898 367.683 201.393 362.909 203.087 358.342C203.234 357.946 203.408 357.519 203.775 357.31C204.287 357.021 204.927 357.279 205.438 357.57C209.87 360.093 212.554 364.904 213.983 369.8C214.934 373.058 215.427 376.493 214.987 379.858C214.547 383.224 212.624 386.884 210.161 389.218Z" fill="black"/>
</g>
<path d="M217.042 426.247C223.045 427.566 227.987 431.8 233.778 433.859C237.609 435.22 241.942 435.703 245.001 438.381C244.267 436.528 242.527 435.294 240.837 434.238C236.074 431.264 230.975 428.829 225.668 426.997C222.944 426.057 219.988 425.27 217.211 426.045" fill="#455A64"/>
<path d="M208.364 431.595C200.846 431.474 192.931 425.074 185.449 424.692C193.28 422.163 204.491 424.229 208.364 431.595Z" fill="#455A64"/>
<path d="M211.301 413.563C215.118 412.187 219.309 412.121 223.318 412.745C227.328 413.368 231.2 414.653 235.05 415.933C234.665 413.325 232.552 411.364 230.569 409.628C229.075 408.321 227.571 407.007 225.857 406.007C224.144 405.006 222.189 404.329 220.207 404.412C217.817 404.513 215.54 405.747 213.971 407.555C212.403 409.363 211.56 411.183 211.301 413.563Z" fill="#455A64"/>
<path d="M195.872 405.262C191.14 401.222 183.973 401.616 177.752 401.757C187.314 406.329 197.618 412.597 205.854 419.27C206.107 414.872 201.85 410.366 195.872 405.262Z" fill="#455A64"/>
<g opacity="0.3">
<path d="M195.872 405.262C191.14 401.222 183.973 401.616 177.752 401.757C187.314 406.329 197.618 412.597 205.854 419.27C206.107 414.872 201.85 410.366 195.872 405.262Z" fill="black"/>
</g>
<path d="M213.429 399.686C215.808 398.099 218.216 396.587 220.706 395.456C223.197 394.324 225.521 392.521 227.926 391.219C231.045 389.529 233.747 387.181 236.61 385.088C239.473 382.994 242.618 381.104 246.122 380.549C243.265 379.96 240.28 380.281 237.466 381.05C234.652 381.818 231.978 383.022 229.319 384.22C225.628 385.883 221.872 387.587 218.855 390.286C215.838 392.985 213.11 395.649 213.429 399.686Z" fill="#455A64"/>
<path d="M233.64 431.595C233.636 431.603 233.553 431.567 233.402 431.492C233.225 431.4 233.009 431.288 232.746 431.152C232.18 430.851 231.367 430.405 230.344 429.891C229.837 429.623 229.276 429.344 228.667 429.058C228.065 428.758 227.41 428.464 226.715 428.163C225.327 427.57 223.778 426.951 222.086 426.549C220.401 426.136 218.721 426.044 217.265 426.428C216.529 426.605 215.838 426.781 215.222 427.038C214.604 427.289 214.053 427.581 213.572 427.884C212.61 428.49 211.936 429.134 211.5 429.597C211.064 430.063 210.852 430.349 210.833 430.334C210.826 430.329 210.872 430.253 210.967 430.113C211.061 429.972 211.213 429.773 211.421 429.526C211.838 429.037 212.5 428.363 213.468 427.725C213.951 427.406 214.508 427.097 215.136 426.832C215.763 426.559 216.471 426.372 217.207 426.187C218.696 425.78 220.441 425.867 222.148 426.288C223.864 426.696 225.423 427.327 226.813 427.936C227.509 428.244 228.163 428.548 228.763 428.857C229.371 429.153 229.929 429.443 230.431 429.721C231.446 430.259 232.246 430.731 232.796 431.06C233.048 431.213 233.257 431.341 233.428 431.444C233.573 431.536 233.645 431.587 233.64 431.595Z" fill="#263238"/>
<path d="M202.756 427.87C202.763 427.853 202.93 427.903 203.227 428.008C203.526 428.109 203.947 428.289 204.452 428.54C205.464 429.04 206.794 429.891 208.044 431.087C209.29 432.288 210.193 433.584 210.733 434.575C211.004 435.069 211.201 435.482 211.314 435.777C211.431 436.07 211.487 436.235 211.47 436.242C211.427 436.262 211.146 435.625 210.568 434.67C209.993 433.716 209.082 432.462 207.857 431.281C206.629 430.105 205.34 429.245 204.363 428.709C203.387 428.169 202.739 427.914 202.756 427.87Z" fill="#263238"/>
<path d="M186.124 404.884C186.127 404.875 186.237 404.909 186.444 404.979C186.677 405.062 186.976 405.169 187.347 405.3C187.748 405.448 188.223 405.624 188.77 405.825C189.325 406.031 189.927 406.335 190.608 406.635C193.314 407.864 196.916 409.931 200.395 412.87C202.111 414.363 203.661 415.881 204.958 417.364C206.251 418.85 207.345 420.249 208.198 421.467C209.056 422.683 209.708 423.696 210.153 424.397C210.364 424.727 210.535 424.995 210.667 425.203C210.784 425.387 210.842 425.487 210.834 425.493C210.826 425.498 210.754 425.41 210.622 425.234C210.491 425.059 210.3 424.798 210.066 424.455C209.592 423.772 208.918 422.776 208.044 421.579C207.174 420.377 206.069 418.997 204.774 417.528C203.473 416.061 201.926 414.559 200.22 413.075C196.764 410.155 193.202 408.075 190.527 406.807C189.854 406.497 189.26 406.182 188.713 405.963C188.174 405.746 187.706 405.557 187.31 405.398C186.948 405.247 186.654 405.125 186.427 405.03C186.225 404.943 186.121 404.893 186.124 404.884Z" fill="#263238"/>
<path d="M222.58 409.337C222.575 409.355 222.362 409.326 221.98 409.259C221.773 409.221 221.545 409.178 221.29 409.131C221.022 409.079 220.707 409.078 220.367 409.043C219.015 408.945 217.046 409.056 215.2 410.062C214.269 410.533 213.489 411.168 212.849 411.806C212.201 412.438 211.709 413.098 211.338 413.675C210.584 414.829 210.35 415.663 210.304 415.647C210.29 415.643 210.332 415.431 210.457 415.061C210.595 414.697 210.808 414.169 211.177 413.575C211.534 412.975 212.019 412.29 212.673 411.633C213.316 410.971 214.115 410.311 215.074 409.825C216.977 408.788 219.014 408.704 220.382 408.854C220.728 408.902 221.045 408.917 221.314 408.984C221.568 409.048 221.797 409.105 222.003 409.157C222.38 409.256 222.585 409.319 222.58 409.337Z" fill="#263238"/>
<path d="M230.135 385.899C230.139 385.907 230.041 385.967 229.85 386.075C229.634 386.192 229.355 386.343 229.012 386.53C228.282 386.923 227.233 387.503 225.958 388.254C224.689 389.015 223.194 389.951 221.603 391.088C220.017 392.227 218.314 393.552 216.741 395.162C215.966 395.972 215.251 396.817 214.752 397.736C214.259 398.682 213.789 399.596 213.357 400.473C212.488 402.226 211.78 403.841 211.268 405.227C210.758 406.614 210.441 407.77 210.252 408.575C210.059 409.38 209.99 409.833 209.963 409.828C209.954 409.827 209.964 409.713 209.993 409.496C210.02 409.279 210.066 408.959 210.149 408.552C210.307 407.737 210.599 406.566 211.088 405.163C211.58 403.759 212.274 402.128 213.133 400.364C213.562 399.48 214.028 398.562 214.518 397.615C215.035 396.653 215.761 395.796 216.546 394.975C218.139 393.346 219.856 392.021 221.459 390.886C223.065 389.755 224.576 388.833 225.861 388.09C227.152 387.358 228.217 386.802 228.963 386.437C229.317 386.268 229.602 386.132 229.826 386.026C230.025 385.935 230.131 385.89 230.135 385.899Z" fill="#263238"/>
<path d="M209.057 408.659C209.038 408.662 208.986 408.436 208.908 408.026C208.82 407.562 208.71 406.98 208.579 406.289C208.293 404.825 207.855 402.81 207.157 400.648C206.466 398.483 205.625 396.599 205.01 395.24C204.719 394.599 204.473 394.061 204.277 393.63C204.105 393.249 204.02 393.034 204.036 393.026C204.052 393.017 204.171 393.216 204.371 393.584C204.571 393.951 204.851 394.487 205.182 395.158C205.842 396.499 206.716 398.383 207.412 400.565C208.115 402.744 208.526 404.779 208.765 406.255C208.882 406.995 208.967 407.593 209.011 408.009C209.058 408.426 209.075 408.656 209.057 408.659Z" fill="#263238"/>
<path d="M208.512 391.557C208.323 388.717 207.398 385.957 206.067 383.442C202.419 376.544 195.561 371.429 187.908 369.9C193.512 378.252 199.116 386.605 204.72 394.957L206.89 399.428C208.372 396.998 208.701 394.397 208.512 391.557Z" fill="#455A64"/>
<path d="M232.628 440.938H193.537V447.866H232.628V440.938Z" fill="#7C5CFC"/>
<path d="M196.456 446.491L199.784 467.989H225.736L229.708 446.491H196.456Z" fill="#7C5CFC"/>
<path d="M232.606 447.875C232.606 447.95 223.788 448.012 212.914 448.012C202.036 448.012 193.22 447.951 193.22 447.875C193.22 447.799 202.036 447.737 212.914 447.737C223.788 447.737 232.606 447.798 232.606 447.875Z" fill="#263238"/>
<path d="M377.202 199.979L375.129 195.059C376.361 191.217 376.468 186.956 375.152 182.76C372.049 172.861 361.729 166.839 351.58 168.985C339.853 171.466 332.769 183.481 336.389 195.002C339.462 204.783 349.576 210.791 359.638 208.827C364.631 207.852 368.799 205.153 371.695 201.494L371.69 201.505L377.202 199.979Z" fill="white"/>
<path d="M377.202 199.979C377.209 199.983 377.096 200.02 376.866 200.09C376.609 200.166 376.265 200.27 375.827 200.401C374.865 200.682 373.488 201.081 371.716 201.598C371.665 201.613 371.611 201.583 371.597 201.532C371.591 201.51 371.593 201.485 371.601 201.466L371.605 201.456L371.771 201.555C370.215 203.545 367.729 205.974 364.02 207.619C362.178 208.443 360.051 209.033 357.726 209.284C355.401 209.515 352.879 209.342 350.35 208.653C347.827 207.953 345.31 206.722 343.055 204.952C340.81 203.185 338.794 200.889 337.431 198.123C336.049 195.377 335.259 192.224 335.222 188.975C335.163 185.722 335.986 182.394 337.549 179.394C339.119 176.352 341.421 173.759 344.153 171.93C346.866 170.072 349.954 168.952 353.026 168.52C356.107 168.07 359.17 168.455 361.918 169.324C364.672 170.203 367.121 171.615 369.127 173.327C371.128 175.049 372.689 177.057 373.804 179.124C374.057 179.653 374.307 180.173 374.552 180.685C374.784 181.203 374.947 181.739 375.142 182.249C375.517 183.278 375.751 184.31 375.931 185.303C376.629 189.307 375.997 192.715 375.22 195.089L375.217 195.024C375.861 196.612 376.362 197.852 376.715 198.723C376.872 199.12 376.997 199.433 377.09 199.668C377.171 199.877 377.209 199.982 377.202 199.979C377.195 199.975 377.141 199.863 377.043 199.647C376.938 199.412 376.797 199.098 376.619 198.699C376.248 197.851 375.719 196.643 375.042 195.096C375.032 195.076 375.032 195.05 375.038 195.03C375.768 192.664 376.35 189.292 375.628 185.355C375.442 184.378 375.203 183.364 374.827 182.354C374.631 181.853 374.468 181.327 374.236 180.821C373.992 180.319 373.743 179.809 373.49 179.291C372.382 177.268 370.838 175.307 368.866 173.627C366.892 171.957 364.486 170.584 361.786 169.734C359.093 168.892 356.096 168.525 353.086 168.972C350.083 169.402 347.068 170.503 344.42 172.318C341.755 174.106 339.508 176.64 337.974 179.613C336.447 182.543 335.64 185.794 335.695 188.97C335.729 192.143 336.495 195.228 337.839 197.914C339.164 200.62 341.13 202.87 343.322 204.61C345.523 206.35 347.985 207.568 350.455 208.265C352.932 208.953 355.405 209.136 357.689 208.925C359.974 208.694 362.072 208.129 363.893 207.333C367.559 205.747 370.041 203.378 371.616 201.433C371.649 201.39 371.71 201.383 371.753 201.416C371.789 201.444 371.799 201.492 371.783 201.532L371.779 201.542L371.663 201.41C373.423 200.948 374.791 200.59 375.745 200.339C376.199 200.224 376.554 200.133 376.819 200.064C377.065 200.004 377.194 199.975 377.202 199.979Z" fill="#263238"/>
<path d="M348.821 191.639C350.049 191.639 351.044 190.644 351.044 189.417C351.044 188.189 350.049 187.194 348.821 187.194C347.594 187.194 346.599 188.189 346.599 189.417C346.599 190.644 347.594 191.639 348.821 191.639Z" fill="#263238"/>
<path d="M358.533 189.417C358.533 190.645 357.538 191.639 356.311 191.639C355.082 191.639 354.087 190.644 354.087 189.417C354.087 188.189 355.082 187.194 356.311 187.194C357.538 187.194 358.533 188.19 358.533 189.417Z" fill="#263238"/>
<path d="M363.6 191.639C364.827 191.639 365.822 190.644 365.822 189.417C365.822 188.189 364.827 187.194 363.6 187.194C362.372 187.194 361.377 188.189 361.377 189.417C361.377 190.644 362.372 191.639 363.6 191.639Z" fill="#263238"/>
<path d="M137.367 158.055L138.334 152.381C136.622 149.383 135.691 145.891 135.815 142.187C136.17 131.537 145.09 123.192 155.74 123.547C166.39 123.902 174.736 132.822 174.381 143.472C174.026 154.122 165.105 162.468 154.455 162.113C150.008 161.965 145.967 160.319 142.788 157.682L142.794 157.691L137.367 158.055Z" fill="white"/>
<path d="M137.367 158.055C137.362 158.06 137.475 158.057 137.706 158.047C137.957 158.035 138.298 158.018 138.738 157.996C139.683 157.944 141.045 157.869 142.802 157.771C142.846 157.769 142.88 157.73 142.877 157.686C142.876 157.671 142.87 157.655 142.862 157.643L142.856 157.634L142.738 157.743C144.585 159.294 147.393 161.053 151.179 161.855C152.121 162.05 153.118 162.183 154.156 162.236C154.676 162.271 155.206 162.233 155.744 162.235C156.014 162.226 156.286 162.239 156.559 162.212C156.832 162.18 157.106 162.149 157.383 162.117C159.593 161.868 161.915 161.215 164.131 160.056C166.344 158.901 168.447 157.242 170.176 155.125C171.907 153.012 173.259 150.438 173.988 147.592C174.727 144.75 174.771 141.642 174.11 138.615C173.816 137.089 173.227 135.622 172.569 134.183C171.824 132.788 170.995 131.403 169.915 130.197C168.9 128.955 167.682 127.919 166.43 126.974C165.127 126.099 163.786 125.288 162.341 124.754C159.488 123.614 156.437 123.157 153.535 123.417C150.631 123.659 147.885 124.551 145.529 125.893C143.167 127.232 141.191 129.012 139.684 130.983C136.647 134.949 135.555 139.558 135.685 143.375C135.807 147.235 137.041 150.321 138.264 152.424L138.254 152.369C137.961 154.212 137.735 155.638 137.578 156.624C137.508 157.085 137.454 157.442 137.414 157.703C137.377 157.941 137.362 158.06 137.367 158.055C137.367 158.055 137.399 157.922 137.447 157.674C137.497 157.41 137.565 157.048 137.653 156.58C137.829 155.61 138.085 154.208 138.416 152.395C138.42 152.376 138.415 152.356 138.405 152.34C137.222 150.237 136.034 147.176 135.943 143.367C135.842 139.598 136.946 135.071 139.946 131.185C141.436 129.255 143.383 127.514 145.705 126.207C148.022 124.897 150.715 124.028 153.563 123.798C156.408 123.547 159.398 124.001 162.191 125.12C163.607 125.642 164.919 126.439 166.195 127.296C167.42 128.223 168.616 129.237 169.609 130.455C170.668 131.636 171.479 132.994 172.21 134.36C172.854 135.769 173.433 137.206 173.722 138.7C174.372 141.663 174.334 144.712 173.616 147.498C172.907 150.289 171.587 152.817 169.895 154.895C168.204 156.979 166.145 158.616 163.974 159.76C161.801 160.909 159.522 161.563 157.346 161.82C157.074 161.854 156.803 161.886 156.535 161.919C156.267 161.948 155.997 161.936 155.733 161.947C155.203 161.948 154.68 161.989 154.168 161.958C153.142 161.912 152.159 161.788 151.228 161.603C147.488 160.841 144.693 159.13 142.839 157.62C142.805 157.591 142.755 157.595 142.725 157.63C142.701 157.659 142.701 157.7 142.721 157.729L142.727 157.737L142.787 157.61C141.056 157.747 139.714 157.853 138.783 157.928C138.335 157.966 137.987 157.995 137.732 158.017C137.498 158.038 137.367 158.055 137.367 158.055Z" fill="#263238"/>
<path d="M146.76 144.156L148.89 142.026L152.997 145.678L161.059 137.919L163.037 140.049L152.693 149.784L146.76 144.156Z" fill="#7C5CFC"/>
<path d="M458.645 366.576C458.67 366.337 458.693 366.098 458.703 365.859C458.908 361.269 457.044 356.871 455.249 352.639C450.438 341.296 445.784 329.261 447.136 317.019C448.924 300.83 460.828 287.442 465.077 271.785C465.577 269.942 467.269 268.674 469.184 268.674C472.057 268.674 474.143 271.458 473.262 274.186C468.529 288.828 457.731 301.664 456.036 317.019C454.684 329.261 459.339 341.296 464.149 352.639C465.943 356.87 467.808 361.269 467.603 365.859C467.399 370.449 464.446 375.273 459.897 376.008H459.457H450.999H392.251C389.894 376.008 387.983 374.103 387.983 371.754V370.832C387.983 368.482 389.894 366.576 392.251 366.576H458.645Z" fill="#455A64"/>
<path d="M472.248 467.989H374.084C372.713 467.989 371.437 467.316 370.584 466.139C369.606 464.791 369.338 463.018 369.867 461.396L397.81 375.77L399.268 376.246L371.325 461.873C370.948 463.03 371.134 464.288 371.825 465.239C372.386 466.012 373.209 466.456 374.084 466.456H472.248C473.11 466.456 473.898 466.044 474.465 465.296C475.153 464.389 475.372 463.166 475.054 462.025L451.039 376.214L452.515 375.801L476.529 461.612C476.977 463.213 476.661 464.937 475.685 466.223C474.836 467.345 473.582 467.989 472.248 467.989Z" fill="#E0E0E0"/>
<path d="M334.568 312.565C334.568 312.565 338.143 303.878 341.675 302.04C345.206 300.203 349.703 299.028 349.703 299.028H365.425L365.581 309.206C365.581 309.206 363.311 311.483 360.199 311.053C357.087 310.622 349.318 308.702 349.318 308.702L345.482 308.912L341.948 313.445C341.948 313.445 339.079 314.317 340.089 311.601C341.098 308.886 341.549 307.69 341.549 307.69C341.549 307.69 338.155 312.972 336.852 313.215C335.55 313.458 334.568 312.565 334.568 312.565Z" fill="#6F4439"/>
<path d="M399.549 279.803L387.037 297.799L365.427 299.029L365.132 308.901L381.415 312.107C389.873 313.772 398.609 311.179 404.787 305.168L407.17 283.402L399.549 279.803Z" fill="#AE7461"/>
<path d="M389.846 429.056L404.388 443.277C404.388 443.277 393.889 463.548 396.304 466.45L426.662 437.885L404.97 414.752L389.846 429.056Z" fill="#263238"/>
<path d="M412.599 433.205C413.33 432.804 414.326 433.045 414.721 433.733C415.116 434.422 414.822 435.445 414.097 435.859C413.373 436.273 412.165 436.02 411.853 435.288C411.541 434.556 411.951 433.369 412.745 433.135" fill="#E0E0E0"/>
<path d="M426.661 437.886L424.378 435.644L396.126 463.87C396.126 463.87 395.3 465.697 396.304 466.451L426.661 437.886Z" fill="#455A64"/>
<path d="M403.758 443.595C403.896 443.731 404.698 443.097 405.852 442.86C407.004 442.594 407.954 442.846 408.037 442.662C408.148 442.507 407.135 441.879 405.739 442.19C404.343 442.487 403.604 443.497 403.758 443.595Z" fill="white"/>
<path d="M401.751 447.834C401.846 448.001 402.713 447.635 403.777 447.752C404.846 447.839 405.579 448.359 405.721 448.213C405.881 448.104 405.208 447.189 403.88 447.068C402.556 446.935 401.629 447.697 401.751 447.834Z" fill="white"/>
<path d="M403.35 453.131C403.514 453.034 403.058 452.141 401.951 451.733C400.847 451.317 399.862 451.673 399.91 451.848C399.935 452.042 400.775 452.03 401.678 452.379C402.589 452.705 403.19 453.255 403.35 453.131Z" fill="white"/>
<path d="M400.827 439.968C401.01 440.038 401.507 439.204 402.395 438.47C403.27 437.718 404.173 437.369 404.136 437.177C404.126 436.995 402.999 437.077 401.964 437.956C400.922 438.828 400.649 439.928 400.827 439.968Z" fill="white"/>
<path d="M391.554 327.694C388.895 327.694 324.117 346.564 317.108 352.942C310.098 359.321 304.854 438.255 304.854 438.255L332.016 447.567C332.016 447.567 337.74 409.017 341.21 396.566C343.968 386.669 343.334 377.427 343.334 377.427L397.115 354.006L391.554 327.694Z" fill="#263238"/>
<path d="M393.188 331.868C391.979 332.399 344.914 352.494 340.491 365.957C336.886 376.928 341.077 386.588 346.112 394.138C351.796 402.661 393.483 440.7 393.483 440.7L417.01 423.877L376.673 382.22C376.673 382.22 397.837 369.155 398.562 369.155C399.287 369.155 421.288 367.7 428.262 366.911C434.774 366.173 438.337 356.835 438.337 356.835L444.146 330.061L400.496 319.988L393.188 331.868Z" fill="#263238"/>
<path d="M393.188 331.868C393.188 331.868 393.339 331.6 393.648 331.086C393.962 330.567 394.423 329.805 395.031 328.803C396.259 326.79 398.074 323.819 400.436 319.949L400.464 319.904L400.515 319.917C410.25 322.147 425.248 325.585 444.18 329.924L444.315 329.954L444.285 330.09C442.546 338.139 440.593 347.181 438.499 356.869L438.496 356.883L438.492 356.894C437.497 359.289 436.154 361.594 434.348 363.605C433.443 364.605 432.376 365.492 431.157 366.145C430.855 366.315 430.547 366.475 430.212 366.579C429.88 366.686 429.566 366.855 429.215 366.899C428.872 366.963 428.526 367.045 428.181 367.094L427.15 367.203C421.64 367.747 415.94 368.154 410.078 368.582C407.147 368.782 404.174 368.985 401.164 369.19C400.411 369.236 399.655 369.281 398.896 369.327L398.604 369.34C398.541 369.337 398.549 369.36 398.521 369.362C398.503 369.364 398.445 369.395 398.409 369.41C398.247 369.48 398.078 369.575 397.912 369.66L396.915 370.211C395.591 370.964 394.269 371.747 392.943 372.537C387.642 375.706 382.256 379.009 376.776 382.384L376.814 382.083C386.86 392.456 397.442 403.383 408.315 414.608C411.285 417.676 414.234 420.721 417.154 423.737L417.315 423.903L417.127 424.038C409.103 429.774 401.244 435.392 393.597 440.858L393.469 440.95L393.352 440.843C384.928 433.121 376.837 425.566 369.158 418.223C365.319 414.552 361.584 410.931 357.993 407.339C354.403 403.747 350.916 400.219 347.776 396.544C347.365 396.101 347.026 395.595 346.653 395.123C346.287 394.644 345.913 394.173 345.606 393.661C344.955 392.664 344.335 391.655 343.763 390.629C342.609 388.583 341.616 386.482 340.84 384.337C340.065 382.192 339.502 380.004 339.218 377.812C338.939 375.619 338.934 373.433 339.173 371.315C339.402 369.194 339.893 367.148 340.64 365.226C341.466 363.32 342.776 361.747 344.112 360.313C346.855 357.486 349.862 355.204 352.793 353.162C358.681 349.101 364.305 345.952 369.262 343.296C374.227 340.647 378.561 338.528 382.111 336.843C385.661 335.159 388.433 333.918 390.313 333.091C391.251 332.685 391.966 332.376 392.454 332.165C392.938 331.963 393.188 331.868 393.188 331.868C393.188 331.868 392.946 331.986 392.468 332.2C391.983 332.419 391.272 332.739 390.341 333.158C388.471 334.006 385.709 335.268 382.17 336.97C378.631 338.673 374.308 340.809 369.356 343.473C364.412 346.145 358.802 349.307 352.938 353.374C350.019 355.416 347.026 357.699 344.313 360.507C342.993 361.929 341.704 363.491 340.907 365.341C340.183 367.216 339.693 369.261 339.473 371.353C339.24 373.447 339.248 375.608 339.528 377.775C339.812 379.943 340.373 382.107 341.144 384.231C341.916 386.355 342.904 388.438 344.053 390.47C344.622 391.489 345.24 392.491 345.889 393.482C346.197 393.991 346.566 394.454 346.926 394.925C347.295 395.391 347.626 395.887 348.038 396.329C351.167 399.98 354.657 403.506 358.247 407.09C361.838 410.676 365.575 414.291 369.416 417.958C377.099 425.292 385.192 432.842 393.616 440.557L393.372 440.543C401.017 435.075 408.875 429.454 416.897 423.717L416.869 424.018C413.949 421.002 411 417.957 408.029 414.889C397.16 403.661 386.579 392.731 376.536 382.357L376.367 382.182L376.573 382.056C382.056 378.682 387.444 375.382 392.75 372.215C394.079 371.424 395.4 370.642 396.731 369.887L397.736 369.332C397.91 369.245 398.072 369.153 398.258 369.071C398.31 369.05 398.335 369.031 398.409 369.008C398.473 368.99 398.569 368.964 398.602 368.968L398.879 368.956C399.635 368.911 400.389 368.865 401.141 368.82C404.15 368.617 407.121 368.418 410.053 368.22C415.913 367.798 421.615 367.395 427.115 366.859C428.506 366.77 429.816 366.492 430.996 365.844C432.172 365.217 433.213 364.357 434.1 363.379C435.87 361.415 437.21 359.123 438.187 356.778L438.18 356.802C440.29 347.118 442.258 338.079 444.012 330.033L444.118 330.199C425.199 325.803 410.211 322.32 400.483 320.059L400.561 320.027C398.168 323.885 396.33 326.849 395.086 328.856C394.466 329.848 393.996 330.602 393.675 331.115C393.356 331.618 393.188 331.868 393.188 331.868Z" fill="#455A64"/>
<path d="M397.47 203.125C395.35 203.557 393.018 202.176 392.375 200.111C391.732 198.046 392.872 195.587 394.862 194.739C393.411 193.492 392.882 191.282 393.61 189.513C394.337 187.743 396.267 186.545 398.176 186.678C398.09 184.791 399.056 182.889 400.632 181.846C402.207 180.803 404.334 180.656 406.039 181.472C407.962 179.507 411.307 179.148 413.604 180.658C415.403 180.16 417.481 180.96 418.483 182.534C419.485 184.108 419.328 186.329 418.117 187.747" fill="#263238"/>
<path d="M414.929 184.915L413.963 185.001C404.242 185.86 396.81 194.039 396.885 203.799C396.956 212.876 397.15 222.902 397.636 227.732C398.645 237.732 408.796 238.403 408.796 238.403L409.013 250.505L433.243 247.605L431.536 203.794C431.512 193.32 425.398 184.603 414.929 184.915Z" fill="#AE7461"/>
<path d="M408.782 238.402C408.782 238.402 415.139 238.215 421.489 233.397C421.489 233.397 418.912 241.056 408.842 241.038L408.782 238.402Z" fill="#6F4439"/>
<path d="M400.498 213.082C400.538 213.839 401.212 214.43 402.005 214.403C402.795 214.375 403.404 213.741 403.364 212.984C403.324 212.227 402.65 211.635 401.86 211.662C401.067 211.69 400.457 212.325 400.498 213.082Z" fill="#263238"/>
<path d="M399.471 208.506C399.665 208.677 400.676 207.78 402.216 207.647C403.751 207.493 404.95 208.185 405.1 207.982C405.175 207.891 404.964 207.57 404.441 207.255C403.926 206.941 403.069 206.668 402.111 206.757C401.154 206.846 400.378 207.271 399.947 207.673C399.505 208.08 399.376 208.431 399.471 208.506Z" fill="#263238"/>
<path d="M414.33 212.285C414.37 213.042 415.045 213.632 415.836 213.605C416.627 213.578 417.236 212.943 417.196 212.186C417.156 211.429 416.481 210.838 415.692 210.865C414.9 210.892 414.29 211.528 414.33 212.285Z" fill="#263238"/>
<path d="M414.618 207.457C414.812 207.627 415.826 206.73 417.363 206.599C418.898 206.445 420.096 207.136 420.247 206.933C420.322 206.843 420.114 206.521 419.588 206.208C419.073 205.895 418.218 205.621 417.26 205.709C416.302 205.799 415.527 206.223 415.095 206.625C414.655 207.029 414.523 207.381 414.618 207.457Z" fill="#263238"/>
<path d="M410.043 219.359C410.043 219.27 409.072 219.19 407.505 219.128C407.108 219.122 406.729 219.078 406.64 218.815C406.522 218.54 406.649 218.101 406.799 217.628C407.084 216.645 407.382 215.615 407.695 214.534C408.933 210.133 409.791 206.527 409.613 206.479C409.436 206.432 408.289 209.96 407.052 214.361C406.756 215.445 406.473 216.48 406.205 217.468C406.096 217.928 405.885 218.456 406.138 219.028C406.269 219.312 406.577 219.5 406.835 219.545C407.094 219.599 407.315 219.584 407.51 219.578C409.078 219.525 410.046 219.447 410.043 219.359Z" fill="#263238"/>
<path d="M412.761 201.655C412.999 202.027 414.28 201.488 415.898 201.292C417.512 201.059 418.907 201.244 419.02 200.826C419.067 200.627 418.747 200.302 418.134 200.041C417.526 199.78 416.623 199.617 415.654 199.744C414.685 199.874 413.869 200.265 413.367 200.673C412.86 201.083 412.654 201.477 412.761 201.655Z" fill="#263238"/>
<path d="M398.836 202.169C399.191 202.489 400.428 202.015 401.954 201.863C403.475 201.666 404.795 201.848 405.06 201.457C405.175 201.268 404.94 200.935 404.346 200.655C403.76 200.374 402.805 200.188 401.758 200.307C400.711 200.428 399.83 200.824 399.33 201.229C398.822 201.636 398.677 202.012 398.836 202.169Z" fill="#263238"/>
<path d="M397.442 199.122C397.442 199.122 399.528 192.62 402.422 190.889C405.925 188.795 407.856 192.672 411.257 191.388C414.659 190.105 418.003 188.097 421.805 190.478C425.968 193.084 424.322 195.315 424.956 199.736C427.525 217.658 431.265 222.461 431.45 213.895C431.471 212.956 433.984 211.989 434.02 208.029C434.064 202.893 433.715 196.694 432.258 193.182C431.031 190.22 429.108 188.27 425.789 186.225C420.55 182.998 413.792 183.516 409.248 184.383C404.704 185.251 396.331 191.309 397.442 199.122Z" fill="#263238"/>
<path d="M430.788 213.68C430.715 212.13 431.938 210.792 433.49 210.802C435.373 210.814 437.545 211.69 437.762 215.56C438.149 222.424 431.178 221.396 431.156 221.2C431.14 221.066 430.925 216.554 430.788 213.68Z" fill="#AE7461"/>
<path d="M432.504 218.533C432.532 218.509 432.628 218.61 432.835 218.691C433.037 218.77 433.38 218.813 433.73 218.659C434.44 218.352 434.985 217.167 434.95 215.928C434.932 215.302 434.768 214.715 434.518 214.234C434.28 213.744 433.936 213.411 433.567 213.367C433.199 213.303 432.953 213.537 432.88 213.735C432.798 213.931 432.849 214.066 432.815 214.08C432.796 214.099 432.661 213.973 432.7 213.687C432.721 213.549 432.792 213.383 432.946 213.242C433.103 213.099 433.342 213.016 433.597 213.03C434.128 213.037 434.632 213.497 434.906 214.023C435.209 214.551 435.409 215.21 435.428 215.912C435.462 217.298 434.827 218.633 433.851 218.974C433.375 219.127 432.965 219.005 432.747 218.855C432.525 218.698 432.48 218.547 432.504 218.533Z" fill="#6F4439"/>
<path d="M429.482 200.432C428.646 201.117 427.763 201.826 426.701 202.027C425.639 202.228 424.36 201.721 424.086 200.676C423.963 200.206 424.03 199.643 423.684 199.303C423.272 198.897 422.594 199.095 422.027 199.207C420.055 199.593 417.537 197.601 416.858 195.71C416.418 196.515 415.327 196.843 414.514 196.416C413.702 195.989 413.397 195.732 412.735 195.096C412.073 194.461 411.176 193.92 410.282 194.128C409.783 194.245 409.336 194.588 408.823 194.588C407.917 194.588 407.385 193.574 407.17 192.694C406.955 191.814 406.757 190.783 405.953 190.365C405.209 189.978 404.317 190.319 403.5 190.514C402.684 190.709 401.598 190.609 401.316 189.819C401.167 189.405 401.309 188.942 401.512 188.551C402.429 186.779 404.688 185.828 406.596 186.41C407.065 184.089 409.025 182.142 411.349 181.687C413.673 181.232 416.222 182.297 417.531 184.269C418.863 182.829 420.915 182.092 422.858 182.358C424.801 182.625 426.58 183.885 427.474 185.631C429.1 185.045 431.056 185.521 432.231 186.788C433.406 188.056 433.732 190.041 433.026 191.618C434.319 192.212 435.48 193.342 435.63 194.756C435.781 196.17 434.526 197.703 433.126 197.451C433.776 198.505 433.459 200.042 432.445 200.753C431.43 201.464 429.878 201.238 429.108 200.267" fill="#263238"/>
<path d="M406.265 188.467C406.259 188.468 406.264 188.51 406.277 188.593C406.294 188.674 406.309 188.798 406.353 188.955C406.444 189.265 406.612 189.722 406.967 190.23C407.323 190.73 407.855 191.295 408.628 191.714C409.385 192.139 410.399 192.424 411.502 192.266L411.372 192.125C411.211 192.729 411.332 193.426 411.676 194.003C412.007 194.59 412.489 195.094 412.996 195.583C413.254 195.815 413.486 196.096 413.832 196.301C414.168 196.497 414.559 196.593 414.952 196.608C415.732 196.638 416.583 196.322 417.084 195.624L416.822 195.574C417.117 196.919 418.011 198.211 419.314 198.933C420.006 199.347 420.837 199.563 421.626 199.471C422.418 199.393 423.134 199.096 423.798 198.789L423.608 198.724C424.051 199.542 424.68 200.219 425.415 200.694C426.136 201.169 427.062 201.404 427.857 201.133C429.442 200.648 430.394 199.21 430.498 197.926L430.35 198.011C431.19 198.378 432.054 198.343 432.732 198.149C433.421 197.959 433.943 197.606 434.307 197.273C434.673 196.932 434.877 196.599 434.998 196.369C435.106 196.133 435.148 196.003 435.139 196C435.103 195.974 434.959 196.541 434.23 197.187C433.864 197.497 433.352 197.823 432.688 197.989C432.035 198.161 431.214 198.174 430.437 197.821L430.303 197.759L430.288 197.906C430.175 199.106 429.254 200.45 427.783 200.883C427.062 201.12 426.248 200.91 425.565 200.46C424.878 200.012 424.277 199.36 423.865 198.591L423.8 198.468L423.675 198.525C423.02 198.825 422.329 199.106 421.597 199.175C420.866 199.256 420.121 199.064 419.461 198.673C418.23 197.991 417.391 196.781 417.106 195.508L417.034 195.188L416.844 195.457C416.42 196.055 415.662 196.352 414.96 196.326C414.608 196.315 414.261 196.231 413.967 196.063C413.682 195.902 413.442 195.626 413.18 195.391C412.674 194.913 412.205 194.428 411.892 193.881C411.564 193.343 411.457 192.731 411.592 192.184L411.634 192.016L411.462 192.042C410.425 192.206 409.451 191.952 408.711 191.556C407.958 191.167 407.429 190.632 407.068 190.158C406.357 189.174 406.313 188.447 406.265 188.467Z" fill="#455A64"/>
<path d="M410.175 224.285C410.19 224.027 411.906 224.229 413.299 222.908C414.697 221.591 414.724 219.739 414.965 219.756C415.075 219.744 415.249 220.202 415.177 220.977C415.112 221.736 414.735 222.813 413.884 223.62C413.03 224.425 411.987 224.69 411.277 224.665C410.552 224.644 410.15 224.402 410.175 224.285Z" fill="#263238"/>
<path d="M311.03 428.097L307.867 450.055C307.867 450.055 283.26 453.857 282.26 457.851L326.951 466.197L333.36 432.208L311.03 428.097Z" fill="#263238"/>
<path d="M322.022 450.801C322.846 451.186 323.275 452.218 322.923 453.009C322.571 453.799 321.48 454.199 320.649 453.827C319.819 453.456 319.264 452.23 319.708 451.484C320.151 450.738 321.46 450.336 322.178 450.884" fill="#E0E0E0"/>
<path d="M326.951 466.196L327.455 462.742L284.417 456.032C284.417 456.032 282.277 456.481 282.26 457.85L326.951 466.196Z" fill="#455A64"/>
<path d="M307.182 449.704C307.152 449.912 308.226 450.21 309.177 451.075C310.153 451.918 310.543 452.916 310.758 452.871C310.966 452.868 310.868 451.572 309.696 450.544C308.535 449.505 307.17 449.505 307.182 449.704Z" fill="white"/>
<path d="M302.159 450.665C302.073 450.856 302.954 451.385 303.535 452.397C304.147 453.395 304.162 454.375 304.381 454.406C304.58 454.477 304.952 453.294 304.204 452.048C303.468 450.795 302.2 450.469 302.159 450.665Z" fill="white"/>
<path d="M298.525 455.481C298.716 455.562 299.207 454.587 298.855 453.35C298.511 452.11 297.563 451.472 297.439 451.627C297.285 451.774 297.836 452.505 298.11 453.524C298.409 454.537 298.312 455.42 298.525 455.481Z" fill="white"/>
<path d="M308.489 444.788C308.546 444.994 309.6 444.895 310.819 445.205C312.044 445.492 312.932 446.063 313.078 445.907C313.232 445.78 312.434 444.841 310.994 444.495C309.556 444.139 308.412 444.606 308.489 444.788Z" fill="white"/>
<path d="M407.914 252.064L408.832 247.91L433.243 235.788L435.372 239.11C435.372 239.11 444.507 246.544 448.004 252.995C451.502 259.447 447.354 312.277 446.77 319.987C445.594 335.524 439.788 355.858 439.788 355.858C439.788 355.858 431.956 350.405 408.912 340.944C385.868 331.482 384.633 327.199 384.633 327.199L398.212 309.979L407.914 252.064Z" fill="#7C5CFC"/>
<path d="M408.282 253.518C408.146 254.284 397.113 280.778 397.113 280.778C397.113 280.778 402.846 283.976 403.645 284.136C404.444 284.296 408.282 253.518 408.282 253.518Z" fill="#7C5CFC"/>
<path d="M407.17 257.862C407.279 257.879 406.3 264.611 404.984 272.898C403.668 281.186 402.513 287.889 402.404 287.871C402.295 287.854 403.274 281.123 404.59 272.834C405.906 264.549 407.061 257.845 407.17 257.862Z" fill="#263238"/>
<path d="M329.733 310.864C329.733 310.864 336.308 301.163 340.227 299.459C344.145 297.756 349.048 296.834 349.048 296.834L365.581 299.044L365.288 308.917C365.288 308.917 362.687 311.184 359.387 310.491C356.087 309.797 347.912 307.16 347.912 307.16L343.79 307.098L339.667 311.687C339.667 311.687 336.53 312.406 337.814 309.575C339.098 306.743 339.67 305.496 339.67 305.496C339.67 305.496 335.641 310.898 334.229 311.061C332.816 311.225 329.733 310.864 329.733 310.864Z" fill="#AE7461"/>
<path d="M416.133 272.008L404.67 298.646L365.426 299.028L365.131 308.901C365.131 308.901 402.975 322.244 413.052 319.652C423.13 317.061 439.843 281.425 439.843 281.425L416.133 272.008Z" fill="#AE7461"/>
<path d="M425.413 249.534C424.341 250.506 420.796 254.671 417.01 263.726C413.225 272.782 407.914 283.363 407.914 283.363L434.97 294.147C434.97 294.147 441.137 279.957 444 273.643C446.179 268.836 447.705 259.381 445.719 254.805C443.733 250.229 434.836 240.99 425.413 249.534Z" fill="#7C5CFC"/>
<path d="M425.413 249.534C425.413 249.534 425.493 249.448 425.661 249.296C425.833 249.148 426.075 248.91 426.425 248.638C427.117 248.089 428.192 247.31 429.76 246.666C431.323 246.057 433.464 245.648 435.83 246.217C438.19 246.748 440.647 248.198 442.763 250.362C443.819 251.446 444.812 252.705 445.589 254.178C446.351 255.673 446.677 257.413 446.767 259.187C446.936 262.748 446.43 266.555 445.358 270.406C444.839 272.344 443.949 274.216 443.12 276.115C442.282 278.022 441.426 279.969 440.555 281.952C438.811 285.917 437.003 290.022 435.153 294.229L435.074 294.406L434.895 294.335C434.772 294.286 434.637 294.232 434.503 294.179C424.921 290.352 415.846 286.728 407.847 283.532L407.665 283.46L407.753 283.284C410.28 278.22 412.518 273.502 414.435 269.273C416.368 265.055 417.824 261.241 419.424 258.269C420.975 255.279 422.44 253.047 423.55 251.609C424.103 250.888 424.564 250.363 424.89 250.022C425.217 249.681 425.413 249.534 425.413 249.534C425.416 249.538 425.375 249.583 425.293 249.669C425.201 249.768 425.083 249.897 424.932 250.06C424.621 250.412 424.177 250.947 423.641 251.677C422.564 253.13 421.134 255.372 419.615 258.366C418.051 261.338 416.623 265.155 414.708 269.393C412.812 273.637 410.592 278.365 408.075 283.443L407.981 283.196C415.985 286.38 425.064 289.992 434.652 293.806C434.787 293.86 434.92 293.913 435.044 293.962L434.787 294.068C436.641 289.861 438.451 285.756 440.198 281.791C441.073 279.809 441.932 277.863 442.773 275.957C443.613 274.043 444.487 272.216 445.006 270.302C446.077 266.496 446.592 262.713 446.438 259.203C446.357 257.452 446.044 255.76 445.316 254.316C444.568 252.878 443.596 251.63 442.562 250.557C440.49 248.413 438.086 246.972 435.78 246.432C433.468 245.855 431.368 246.232 429.816 246.81C428.26 247.423 427.179 248.175 426.474 248.701C426.118 248.961 425.868 249.19 425.687 249.327C425.511 249.468 425.413 249.534 425.413 249.534Z" fill="#263238"/>
<path d="M347.081 301.82C347.091 301.947 345.048 301.767 342.897 302.879C340.725 303.952 339.659 305.704 339.562 305.619C339.524 305.597 339.725 305.131 340.237 304.495C340.745 303.861 341.6 303.089 342.717 302.522C343.836 301.959 344.964 301.729 345.776 301.696C346.591 301.662 347.086 301.775 347.081 301.82Z" fill="#6F4439"/>
<path d="M410.759 284.497C410.768 284.501 410.738 284.595 410.672 284.773C410.591 284.98 410.49 285.236 410.368 285.55C410.073 286.265 409.67 287.244 409.168 288.465C408.097 291.001 406.603 294.535 404.836 298.717L404.791 298.824L404.672 298.825C401.102 298.866 397.045 298.913 392.753 298.962C385.226 299.013 378.413 299.058 373.43 299.091C370.991 299.088 369.002 299.086 367.574 299.085C366.914 299.076 366.385 299.069 365.982 299.063C365.618 299.054 365.426 299.041 365.426 299.028C365.426 299.014 365.617 298.999 365.981 298.982C366.384 298.969 366.913 298.952 367.572 298.929C369 298.9 370.988 298.859 373.427 298.809C378.41 298.746 385.222 298.658 392.749 298.562C397.041 298.527 401.099 298.495 404.668 298.466L404.505 298.574C406.327 294.416 407.866 290.901 408.971 288.379C409.512 287.175 409.946 286.21 410.263 285.504C410.407 285.199 410.523 284.95 410.618 284.749C410.702 284.579 410.749 284.493 410.759 284.497Z" fill="#6F4439"/>
<path d="M118.953 319.986H112.718V467.796H118.953V319.986Z" fill="#455A64"/>
<path d="M374.897 321.028H368.662V467.812H374.897V321.028Z" fill="#455A64"/>
<path d="M381.075 318.529H97.1396V327.448H381.075V318.529Z" fill="#455A64"/>
<path d="M378.341 327.448C378.341 327.559 345.208 327.648 304.345 327.648C263.469 327.648 230.343 327.559 230.343 327.448C230.343 327.338 263.469 327.249 304.345 327.249C345.209 327.25 378.341 327.338 378.341 327.448Z" fill="#263238"/>
<path d="M278.751 266.356C279.656 266.186 280.528 266.781 280.699 267.685L290.008 317.015H335.273C335.951 317.015 336.498 317.563 336.498 318.24C336.498 318.916 335.95 319.465 335.273 319.465H287.266V319.268L287.047 319.31L277.422 268.303C277.251 267.399 277.846 266.527 278.751 266.356Z" fill="#263238"/>
<path d="M82.0165 151.253C86.324 144.914 92.5133 140.933 100.135 140.126C104.435 139.671 106.297 140.407 109.473 140.968C112.649 141.528 115.596 142.943 117.68 145.404C120.155 148.327 122.313 151.655 123.066 155.411C123.841 159.269 123.882 163.107 123.422 166.314C122.862 170.208 120.764 176.273 118.746 179.651L112.207 181.044C106.732 181.72 101.18 182.396 95.7182 181.621C90.2561 180.845 84.8011 178.429 81.5177 173.996C76.9563 167.837 77.7091 157.594 82.0165 151.253Z" fill="#263238"/>
<path d="M90.8589 150.4L103.646 143.948L107.144 144.042C114.939 143.375 121.079 151.49 121.694 157.797C122.375 164.803 122.932 173.384 122.278 178.653C120.964 189.244 112.172 190.9 112.172 190.9C112.172 190.9 113.646 203.253 114.023 206.736L92.7979 200.249L87.6714 154.271C87.5684 152.349 88.9525 150.667 90.8589 150.4Z" fill="#FFBF9D"/>
<path d="M106.473 177.609C106.497 177.056 106.758 176.544 107.117 176.176C107.834 175.442 108.963 175.276 109.845 175.775C110.728 176.275 111.308 177.408 111.249 178.516C110.84 179.199 110.165 179.695 109.38 179.834C109.259 179.855 109.136 179.871 109.011 179.879C108.41 179.917 107.783 179.769 107.286 179.368C106.791 178.968 106.445 178.294 106.473 177.609Z" fill="#FF9A6C"/>
<path d="M119.665 167.259C119.715 167.972 119.151 168.602 118.408 168.667C117.666 168.732 117.023 168.209 116.974 167.497C116.924 166.784 117.487 166.154 118.228 166.088C118.972 166.023 119.615 166.548 119.665 167.259Z" fill="#263238"/>
<path d="M119.631 161.514C119.47 161.695 118.421 160.973 116.966 161.026C115.514 161.059 114.471 161.843 114.308 161.67C114.227 161.593 114.388 161.27 114.841 160.916C115.286 160.564 116.055 160.21 116.961 160.183C117.867 160.157 118.64 160.464 119.09 160.791C119.549 161.119 119.712 161.432 119.631 161.514Z" fill="#263238"/>
<path d="M111.346 173.689C111.337 173.607 112.235 173.42 113.693 173.183C114.064 173.132 114.412 173.047 114.467 172.791C114.545 172.519 114.376 172.125 114.181 171.699C113.801 170.813 113.404 169.884 112.986 168.909C111.325 164.937 110.108 161.664 110.269 161.599C110.43 161.534 111.907 164.701 113.569 168.674C113.97 169.654 114.353 170.588 114.717 171.482C114.872 171.899 115.131 172.369 114.96 172.932C114.869 173.213 114.604 173.424 114.369 173.496C114.133 173.577 113.925 173.588 113.741 173.606C112.268 173.734 111.354 173.772 111.346 173.689Z" fill="#263238"/>
<path d="M112.188 190.887C112.188 190.887 105.117 191.586 97.9512 187.604C97.9512 187.604 101.959 194.779 112.469 193.434L112.188 190.887Z" fill="#FF9A6C"/>
<path d="M119.638 157.061C119.405 157.425 118.284 157.226 116.987 157.378C115.685 157.489 114.624 157.909 114.327 157.599C114.194 157.447 114.325 157.096 114.763 156.724C115.196 156.354 115.952 155.998 116.845 155.907C117.738 155.817 118.548 156.013 119.042 156.29C119.544 156.568 119.738 156.886 119.638 157.061Z" fill="#263238"/>
<path d="M104.739 168.35C104.765 169.064 105.391 169.631 106.136 169.617C106.881 169.603 107.466 169.016 107.439 168.302C107.413 167.588 106.787 167.021 106.043 167.034C105.297 167.047 104.714 167.636 104.739 168.35Z" fill="#263238"/>
<path d="M100.002 162.7C100.181 162.863 101.149 162.035 102.601 161.934C104.049 161.814 105.167 162.484 105.312 162.294C105.383 162.211 105.19 161.905 104.703 161.601C104.222 161.298 103.42 161.026 102.517 161.095C101.613 161.165 100.877 161.552 100.465 161.924C100.042 162.298 99.9139 162.627 100.002 162.7Z" fill="#263238"/>
<path d="M101.916 157.573C102.22 157.887 103.323 157.483 104.669 157.393C106.013 157.262 107.17 157.479 107.414 157.12C107.52 156.946 107.322 156.626 106.806 156.34C106.298 156.056 105.463 155.847 104.538 155.922C103.614 156 102.827 156.342 102.377 156.706C101.919 157.07 101.782 157.419 101.916 157.573Z" fill="#263238"/>
<path d="M91.0444 171.728C91.0159 170.944 90.0459 169.125 89.2666 169.03C87.1868 168.778 83.4628 169.071 83.6076 174.327C83.8055 181.512 90.9781 179.831 90.9853 179.625C90.9894 179.464 91.1434 174.437 91.0444 171.728Z" fill="#FFBF9D"/>
<path d="M88.9294 177.055C88.8967 177.033 88.807 177.146 88.5979 177.249C88.3939 177.349 88.0409 177.425 87.6625 177.294C86.8955 177.036 86.2243 175.849 86.1539 174.555C86.1172 173.902 86.2376 173.275 86.4548 172.753C86.6599 172.222 86.9893 171.845 87.3698 171.767C87.7472 171.669 88.0246 171.89 88.1174 172.089C88.2194 172.288 88.1776 172.433 88.2154 172.444C88.2358 172.461 88.3663 172.32 88.301 172.025C88.2674 171.883 88.1786 171.716 88.0052 171.582C87.8288 171.446 87.5738 171.382 87.3086 171.418C86.7557 171.472 86.2712 171.995 86.0315 172.567C85.7623 173.144 85.6123 173.848 85.6531 174.582C85.7388 176.028 86.5171 177.362 87.5636 177.635C88.0726 177.752 88.4897 177.589 88.7029 177.412C88.9212 177.229 88.9549 177.067 88.9294 177.055Z" fill="#FF9A6C"/>
<path d="M88.9767 169.077L90.9606 170.799C102.397 163.276 114.026 142.8 111.022 143.637C111.022 143.637 105.455 141.907 99.7132 143.42C93.9726 144.933 83.1759 148.836 83.9583 155.697C84.7406 162.555 88.9767 169.077 88.9767 169.077Z" fill="#263238"/>
<path d="M85.6166 140.356C88.4001 141.983 90.8808 146.727 89.7425 149.744C90.2565 152.899 89.0397 156.282 86.6335 158.386C84.2273 160.491 80.7124 161.246 77.6544 160.316C75.542 159.674 73.6622 158.255 72.5269 156.362C71.1795 154.117 70.9265 151.334 71.408 148.761C71.9996 145.59 73.7387 142.566 76.4406 140.808C79.1426 139.049 82.833 138.728 85.6166 140.356Z" fill="#263238"/>
<path d="M84.9859 169.095C85.0022 169.126 85.4704 168.929 86.2946 168.528C87.1197 168.129 88.2978 167.518 89.7228 166.703C92.5625 165.075 96.4109 162.589 100.027 159.084C103.647 155.581 106.161 151.687 107.482 148.674C108.153 147.17 108.577 145.904 108.813 145.015C109.051 144.127 109.134 143.625 109.103 143.618C109 143.587 108.552 145.579 107.133 148.512C105.74 151.446 103.218 155.238 99.6474 158.696C96.0794 162.156 92.3034 164.669 89.527 166.373C88.1347 167.226 86.9882 167.886 86.1956 168.343C85.4021 168.798 84.9676 169.059 84.9859 169.095Z" fill="#455A64"/>
<path d="M78.7178 163.701C78.8167 163.705 78.8585 162.362 79.2594 160.253C79.6541 158.146 80.5079 155.28 82.0613 152.399C83.627 149.523 85.5609 147.242 87.1103 145.76C88.6587 144.271 89.7593 143.503 89.7021 143.423C89.6807 143.392 89.391 143.561 88.8821 143.895C88.368 144.221 87.6672 144.759 86.8482 145.478C85.208 146.909 83.1803 149.202 81.5829 152.14C79.9958 155.083 79.1829 158.032 78.8799 160.189C78.7249 161.267 78.6566 162.148 78.6647 162.757C78.6637 163.365 78.68 163.7 78.7178 163.701Z" fill="#455A64"/>
<path d="M86.3477 180.366C86.3477 181.852 87.5523 183.056 89.0384 183.056C90.5246 183.056 91.7292 181.852 91.7292 180.366C91.7292 178.879 90.5246 177.675 89.0384 177.675C87.5523 177.675 86.3477 178.879 86.3477 180.366Z" fill="#263238"/>
<path d="M111.683 178.75C111.654 178.496 109.974 178.789 108.528 177.562C107.079 176.338 106.952 174.514 106.716 174.542C106.607 174.537 106.46 174.999 106.573 175.758C106.678 176.504 107.106 177.544 107.991 178.296C108.877 179.044 109.919 179.249 110.617 179.184C111.33 179.123 111.714 178.863 111.683 178.75Z" fill="#263238"/>
<path d="M73.3493 270.225C73.3493 270.225 65.326 298.533 70.0925 313.902C72.9515 323.121 113.081 373.91 115.014 376.095C116.36 377.616 97.8558 425.595 94.4705 435.589L115.746 445.901C115.746 445.901 142.369 389.292 143.996 379.371C146.086 366.631 116.136 312.129 117.237 311.398L128.002 288.944L119.068 265.82C119.068 265.82 81.4145 266.228 73.7257 266.843L73.3493 270.225Z" fill="#263238"/>
<path d="M119.892 286.918C119.892 286.918 171.796 305.334 177.648 308.451C184.028 311.848 188.846 323.769 183.527 333.902C178.208 344.034 131.545 373.045 131.545 373.045L119.892 355.314L153.661 328.715L117.106 320.102L105.2 305.993L119.892 286.918Z" fill="#263238"/>
<path d="M143.998 379.047C143.925 379.04 144.238 377.757 143.972 375.439C143.733 373.123 142.832 369.852 141.345 365.956C140.605 364.005 139.719 361.898 138.785 359.622C138.31 358.491 137.862 357.287 137.393 356.069C136.931 354.857 136.384 353.621 135.84 352.355C133.626 347.294 131.106 341.765 128.456 335.965C124.174 326.659 120.218 318.062 117.043 311.165L117.012 311.097L117.029 311.025C118.38 305.433 119.569 300.858 120.471 297.693C120.925 296.112 121.31 294.884 121.609 294.061C121.77 293.652 121.884 293.337 121.998 293.139C122.115 292.941 122.177 292.845 122.186 292.852C122.194 292.859 122.149 292.968 122.057 293.168C121.965 293.368 121.869 293.691 121.729 294.101C121.47 294.934 121.124 296.169 120.705 297.757C119.875 300.935 118.748 305.524 117.445 311.123L117.431 310.983C120.662 317.834 124.669 326.419 128.939 335.744C131.589 341.547 134.097 347.082 136.289 352.161C136.828 353.436 137.367 354.668 137.83 355.906C138.294 357.135 138.725 358.318 139.193 359.457C140.107 361.736 140.976 363.858 141.696 365.825C143.144 369.753 143.998 373.07 144.177 375.419C144.382 377.771 143.998 379.047 143.998 379.047Z" fill="#455A64"/>
<path opacity="0.3" d="M120.629 297.578C120.527 297.951 120.629 311.214 120.629 311.214L127.288 322.501L121.97 321.249L117.238 311.398L120.629 297.578Z" fill="black"/>
<path d="M150.079 295.551C148.581 294.081 144.188 289.955 141.1 287.064C139.919 285.959 140.681 283.98 142.299 283.946L177.844 283.22C178.371 283.209 178.877 283.43 179.228 283.824L186.657 292.17C187.678 293.316 186.892 295.133 185.357 295.172L151.386 296.063C150.898 296.075 150.428 295.893 150.079 295.551Z" fill="#455A64"/>
<path d="M140.018 289.162C140.018 289.162 144.149 287.329 148.279 286.918C152.41 286.507 154.476 288.246 156.688 288.04C158.9 287.834 164.949 288.425 164.949 290.048C164.949 291.671 156.54 292.26 156.54 292.26L163.916 294.62C163.916 294.62 172.325 293.588 172.473 294.62C172.62 295.653 164.949 296.686 161.409 297.129C157.868 297.571 137.362 297.866 134.412 297.129C131.461 296.391 110.514 283.704 110.514 283.704L120.545 273.378L140.018 289.162Z" fill="#FFBF9D"/>
<path d="M88.3586 196.824C88.3586 196.824 78.7104 198.298 75.4107 208.804C72.6669 217.538 77.9005 253.433 80.1251 259.913C82.3497 266.393 106.303 287.251 108.409 285.477C110.514 283.704 122.187 273.377 122.187 273.377L103.446 251.229C103.446 251.229 104.439 224.93 103.199 219.968C101.958 215.007 93.5687 196.327 88.3586 196.824Z" fill="#7C5CFC"/>
<path d="M76.6441 240.602C78.015 253.068 75.3385 258.427 75.3385 258.427C73.171 260.067 72.0837 262.78 71.8501 264.814C71.7226 265.923 72.612 266.881 73.7269 266.842L119.069 265.819C119.069 265.819 125.414 266.424 125.28 260.408C125.129 253.692 126.979 230.096 124.541 220.82C123.7 217.62 113.346 202.012 113.346 202.012L91.7309 189.755L89.4441 195.646C89.4441 195.646 82.5866 198.149 79.4542 202.186C76.9776 205.378 76.1076 207.58 75.1151 210.999C73.2393 217.459 75.9087 233.916 76.6441 240.602Z" fill="#7C5CFC"/>
<path d="M190.646 219.797C190.646 219.797 190.25 219.442 188.875 219.885C187.5 220.329 183.592 222.248 181.819 222.705C180.046 223.162 176.203 224.642 176.203 224.642C176.203 224.642 174.063 224.395 171.346 226.274C168.627 228.152 160.958 233.219 160.958 233.219L163.593 240.678C163.593 240.678 166.556 240.181 167.398 240.431C168.241 240.681 170.749 240.835 172.834 240.209C174.919 239.583 177.741 238.454 177.741 238.454C177.741 238.454 180.49 238.68 181.211 237.682C181.932 236.685 181.157 234.883 181.157 234.883C181.157 234.883 183.855 232.409 182.695 231.018C181.537 229.626 180.094 228.086 180.094 228.086C180.094 228.086 188.096 223.845 189.608 222.721C191.117 221.598 191.415 220.696 190.646 219.797Z" fill="#FFBF9D"/>
<path d="M160.958 233.219L136.072 241.594L126.017 246.675L140.131 254.284L163.592 240.678L160.958 233.219Z" fill="#FFBF9D"/>
<path d="M176.032 227.069C176.157 227.025 176.705 229.987 175.726 233.482C175.688 233.617 175.649 233.75 175.612 233.876L175.405 233.538C177.055 233.835 178.525 234.126 179.583 234.362C180.67 234.58 181.244 235.038 181.19 235.094C181.151 235.149 180.582 234.839 179.517 234.72C178.448 234.578 176.962 234.348 175.312 234.059L175.022 234.008L175.105 233.722C175.14 233.6 175.178 233.471 175.214 233.34C176.164 229.967 175.867 227.072 176.032 227.069Z" fill="#FF9A6C"/>
<path d="M175.913 230.609C175.931 230.565 176.135 230.586 176.426 230.776C176.71 230.962 177.079 231.342 177.237 231.936L176.97 231.75C177.387 231.674 177.868 231.622 178.378 231.612C180.204 231.572 181.602 232.132 181.552 232.263C181.511 232.412 180.117 232.103 178.389 232.144C177.902 232.154 177.441 232.184 177.037 232.224L176.811 232.247L176.77 232.039C176.579 231.073 175.842 230.699 175.913 230.609Z" fill="#FF9A6C"/>
<path d="M179.661 228.699C179.747 228.827 179.077 229.394 178.474 230.257C177.86 231.112 177.548 231.931 177.399 231.894C177.261 231.871 177.361 230.901 178.041 229.95C178.713 228.994 179.594 228.577 179.661 228.699Z" fill="#FF9A6C"/>
<path d="M112.874 196.539L115.373 203.252C118.093 205.832 124.867 213.08 126.153 218.069C127.835 224.593 135.418 240.992 135.418 240.992C135.418 240.992 152.613 233.661 153.799 234.865C154.986 236.069 161.01 250.2 159.028 253.165C157.046 256.13 139.486 263.903 132.383 262.157C125.279 260.41 118.543 250.127 118.543 250.127L112.874 196.539Z" fill="#7C5CFC"/>
<path d="M124.165 218.135C124.199 218.123 124.397 218.667 124.727 219.666C124.902 220.163 125.091 220.778 125.244 221.51C125.41 222.238 125.631 223.063 125.753 223.997C126.094 225.85 126.26 228.089 126.344 230.573C126.385 233.058 126.3 235.788 126.121 238.643C125.729 244.352 125.324 249.502 125.37 253.24C125.351 254.176 125.407 255.018 125.426 255.76C125.439 256.502 125.487 257.14 125.531 257.66C125.609 258.702 125.634 259.283 125.599 259.288C125.563 259.293 125.467 258.722 125.325 257.68C125.248 257.16 125.17 256.523 125.13 255.777C125.082 255.033 124.999 254.185 124.995 253.246C124.853 249.488 125.2 244.305 125.591 238.61C125.769 235.762 125.869 233.048 125.855 230.581C125.798 228.117 125.673 225.895 125.382 224.054C124.853 220.36 124.048 218.17 124.165 218.135Z" fill="#263238"/>
<path d="M135.159 250.713C135.012 250.71 134.925 248.478 134.965 245.726C135.005 242.973 135.155 240.744 135.302 240.746C135.449 240.748 135.536 242.981 135.496 245.734C135.456 248.485 135.305 250.715 135.159 250.713Z" fill="#263238"/>
<path d="M103.076 216.967C103.095 216.968 103.108 217.175 103.116 217.57C103.121 218.021 103.127 218.593 103.135 219.294C103.157 220.863 103.185 223.013 103.221 225.638C103.284 230.991 103.564 238.401 103.344 246.575C103.323 248.593 103.503 250.601 104.39 252.257C105.278 253.908 106.612 255.243 107.76 256.587C110.083 259.24 112.18 261.637 113.959 263.669C115.673 265.657 117.078 267.284 118.103 268.474C118.553 269.012 118.919 269.451 119.21 269.798C119.459 270.105 119.582 270.271 119.568 270.283C119.553 270.295 119.403 270.152 119.128 269.868C118.818 269.538 118.427 269.121 117.946 268.609C116.889 267.448 115.442 265.857 113.674 263.915C111.871 261.904 109.743 259.532 107.389 256.908C106.235 255.576 104.886 254.256 103.928 252.501C102.97 250.726 102.79 248.614 102.81 246.572C103.03 238.399 102.81 231.003 102.843 225.641C102.843 222.96 102.874 220.791 102.926 219.292C102.949 218.543 102.98 217.961 103.007 217.568C103.034 217.172 103.058 216.966 103.076 216.967Z" fill="#263238"/>
<path d="M87.5058 196.823C87.5283 196.883 86.4777 197.179 84.7671 198.104C83.08 199.035 80.7065 200.675 78.6461 203.476C77.6159 204.863 76.6765 206.533 76.0247 208.456C75.681 209.411 75.4454 210.437 75.273 211.502C75.1241 212.567 75.0374 213.696 74.9629 214.841C74.8232 217.136 74.8181 219.554 74.9751 222.051C75.1414 224.543 75.4872 227.129 75.7513 229.78C76.3113 235.081 76.8458 240.128 77.3313 244.729C77.8056 249.324 78.1779 253.471 79.1286 256.82C80.0415 260.175 81.4521 262.664 82.6506 264.185C83.2453 264.953 83.7675 265.5 84.1317 265.861C84.4989 266.218 84.6968 266.403 84.6835 266.419C84.6774 266.426 84.6213 266.388 84.5152 266.309C84.4112 266.227 84.252 266.111 84.0582 265.939C83.6676 265.602 83.1157 265.072 82.4884 264.315C81.2247 262.814 79.7385 260.311 78.7665 256.923C77.7577 253.541 77.3446 249.364 76.8448 244.782C76.346 240.182 75.7983 235.136 75.223 229.838C74.9588 227.185 74.6171 224.609 74.4549 222.084C74.3029 219.563 74.3183 217.123 74.4733 214.809C74.5559 213.649 74.6487 212.531 74.8109 211.431C74.9955 210.337 75.2475 209.287 75.6086 208.311C76.295 206.346 77.2752 204.652 78.3452 203.251C80.4862 200.426 82.9332 198.808 84.6702 197.923C85.5464 197.48 86.2563 197.193 86.75 197.043C87.2406 196.881 87.5007 196.806 87.5058 196.823Z" fill="#263238"/>
<path d="M113.201 203.477C113.179 203.506 112.808 203.283 112.151 202.85C111.411 202.348 110.487 201.719 109.386 200.973L109.68 200.826C109.666 202.237 109.651 203.891 109.635 205.71L109.632 206.098L109.283 205.923C107.527 205.039 105.592 204.066 103.556 203.043C99.6501 201.062 96.128 199.243 93.5913 197.901C92.404 197.262 91.4023 196.722 90.5986 196.289C89.8978 195.897 89.5174 195.666 89.5337 195.633C89.55 195.6 89.9621 195.77 90.6914 196.104C91.5156 196.497 92.5417 196.985 93.7596 197.566C96.3402 198.82 99.8887 200.588 103.795 202.569C105.824 203.607 107.752 204.594 109.502 205.489L109.149 205.7C109.208 203.883 109.263 202.229 109.308 200.819L109.321 200.457L109.603 200.671C110.665 201.472 111.556 202.146 112.271 202.685C112.891 203.169 113.222 203.448 113.201 203.477Z" fill="#263238"/>
<path d="M121.236 430.224L112.851 447.78C112.851 447.78 128.947 462.533 127.732 465.934L91.0732 450.26L102.948 422.35L121.236 430.224Z" fill="#263238"/>
<path d="M102.164 441.431C101.376 441.311 100.56 441.856 100.432 442.603C100.305 443.351 100.904 444.174 101.692 444.307C102.478 444.44 103.48 443.816 103.52 443.056C103.56 442.296 102.801 441.365 102.01 441.416" fill="#E0E0E0"/>
<path d="M91.0732 450.26L92.387 447.496L127.044 463.557C127.044 463.557 128.386 464.926 127.732 465.934L91.0732 450.26Z" fill="#455A64"/>
<path d="M113.521 447.857C113.443 448.024 112.513 447.718 111.398 447.885C110.278 448.025 109.506 448.563 109.371 448.426C109.22 448.322 109.924 447.425 111.279 447.245C112.632 447.054 113.627 447.719 113.521 447.857Z" fill="white"/>
<path d="M116.717 451.004C116.686 451.185 115.788 451.141 114.871 451.597C113.939 452.027 113.451 452.735 113.276 452.651C113.097 452.606 113.401 451.563 114.552 451.017C115.699 450.461 116.783 450.841 116.717 451.004Z" fill="white"/>
<path d="M117.023 456.287C116.844 456.253 116.961 455.301 117.82 454.572C118.675 453.836 119.677 453.83 119.691 454.005C119.732 454.187 118.974 454.452 118.278 455.062C117.566 455.654 117.207 456.346 117.023 456.287Z" fill="white"/>
</g>
<defs>
<clipPath id="clip0_329_833">
<rect width="486" height="502" rx="12" fill="white"/>
</clipPath>
</defs>
</svg>
