<svg width="486" height="434" viewBox="0 0 486 434" fill="none" xmlns="http://www.w3.org/2000/svg">
<g clip-path="url(#clip0_329_425)">
<path d="M601 430.062H-79V430.402H601V430.062Z" fill="#EBEBEB"/>
<path d="M243.339 369.408H-19.2752C-23.5551 369.408 -27.0381 365.925 -27.0381 361.645V-7.50226C-27.0381 -11.7822 -23.5551 -15.2651 -19.2752 -15.2651H243.339C247.618 -15.2651 251.101 -11.7822 251.101 -7.50226V361.645C251.101 365.925 247.618 369.408 243.339 369.408ZM-19.2752 -14.9238C-23.3688 -14.9238 -26.6981 -11.5945 -26.6981 -7.5009V361.647C-26.6981 365.74 -23.3688 369.07 -19.2752 369.07H243.339C247.432 369.07 250.761 365.74 250.761 361.647V-7.50226C250.761 -11.5945 247.432 -14.9251 243.339 -14.9251L-19.2752 -14.9238Z" fill="#EBEBEB"/>
<path d="M537.502 369.408H274.888C270.609 369.408 267.127 365.925 267.127 361.645V-7.50226C267.127 -11.7822 270.61 -15.2651 274.888 -15.2651H537.502C541.783 -15.2651 545.265 -11.7822 545.265 -7.50226V361.645C545.266 365.925 541.783 369.408 537.502 369.408ZM274.888 -14.9238C270.796 -14.9238 267.467 -11.5945 267.467 -7.5009V361.647C267.467 365.74 270.796 369.07 274.888 369.07H537.502C541.595 369.07 544.925 365.74 544.925 361.647V-7.50226C544.925 -11.5945 541.595 -14.9251 537.502 -14.9251L274.888 -14.9238Z" fill="#EBEBEB"/>
<path d="M120.731 305.205H23.8945V426.242H120.731C130.097 426.242 137.759 418.579 137.759 409.214V322.235C137.759 312.869 130.096 305.205 120.731 305.205Z" fill="#8162FF"/>
<path d="M24.6955 305.205H23.092C13.7257 305.205 6.06348 312.867 6.06348 322.234V409.212C6.06348 418.579 13.7257 426.241 23.092 426.241H24.6955C34.0618 426.241 41.724 418.577 41.724 409.212V322.234C41.724 312.869 34.0618 305.205 24.6955 305.205Z" fill="#AB96FF"/>
<path d="M36.859 426.242H163.245V349.85H36.859L36.859 426.242Z" fill="#8162FF"/>
<path d="M26.4784 430.062H254.262C256.191 430.062 257.755 428.498 257.755 426.57V426.243H120.779L22.9873 426.57C22.9873 428.499 24.5499 430.062 26.4784 430.062Z" fill="#E0E0E0"/>
<path d="M126.247 254.987H243.84C256.955 254.987 266.655 265.62 265.506 278.736L257.755 367.122H92.666L100.417 278.736C101.567 265.62 113.131 254.987 126.247 254.987Z" fill="#E0E0E0"/>
<path d="M107.669 254.987H227.551C240.034 254.987 249.267 265.107 248.172 277.59L240.321 367.122H75.2334L83.0847 277.59C84.1781 265.107 95.186 254.987 107.669 254.987Z" fill="#AB96FF"/>
<path d="M46.9902 342.875H147.1C153.021 342.875 157.822 347.675 157.822 353.597V363.264C157.822 369.185 153.021 373.986 147.1 373.986H46.9902C38.3991 373.986 31.4346 367.021 31.4346 358.43C31.4346 349.839 38.3991 342.875 46.9902 342.875Z" fill="#5C3DD6"/>
<path d="M260.632 305.205H163.796V426.242H260.632C269.998 426.242 277.661 418.579 277.661 409.214V322.235C277.661 312.869 269.998 305.205 260.632 305.205Z" fill="#8162FF"/>
<path d="M164.599 305.205H162.995C153.629 305.205 145.967 312.867 145.967 322.234V409.212C145.967 418.579 153.63 426.241 162.995 426.241H164.599C173.965 426.241 181.627 418.577 181.627 409.212V322.234C181.627 312.869 173.964 305.205 164.599 305.205Z" fill="#AB96FF"/>
<path d="M431.02 238.667H337.921V430.062H431.02V238.667Z" fill="#8162FF"/>
<path d="M351.839 415.154L351.839 253.575H349.693L349.693 415.154H351.839Z" fill="#E6E6E6"/>
<path d="M417.286 253.575H349.691V256.294H417.286V253.575Z" fill="#E6E6E6"/>
<path d="M526.264 238.667H433.165V430.062H526.264V238.667Z" fill="#8162FF"/>
<path d="M447.083 415.153L447.083 253.574H444.937L444.937 415.153H447.083Z" fill="#E6E6E6"/>
<path d="M433.165 430.062L433.165 240.841H431.019L431.019 430.062H433.165Z" fill="#E6E6E6"/>
<path d="M512.531 253.576H444.937V256.294H512.531V253.576Z" fill="#E6E6E6"/>
<path d="M426.938 281.011H422.312V323.303H426.938V281.011Z" fill="#E0E0E0"/>
<path d="M441.873 281.011H437.246V323.303H441.873V281.011Z" fill="#E0E0E0"/>
<path d="M500.51 39.0898H25.8389V208.392H500.51V39.0898Z" fill="#E0E0E0"/>
<path d="M496.16 39.0898H21.4883V208.392H496.16V39.0898Z" fill="#8162FF"/>
<path d="M481.918 194.151V53.3301L35.7278 53.3301V194.151L481.918 194.151Z" fill="#FAFAFA"/>
<path d="M108.16 194.153L137.733 53.3306H203.001L173.429 194.153H108.16Z" fill="white"/>
<path d="M200.968 194.153L230.541 53.3306H263.176L233.602 194.153H200.968Z" fill="white"/>
<path d="M400.229 194.153L429.801 53.3306H462.436L432.864 194.153H400.229Z" fill="white"/>
<path d="M146.773 67.2758C150.199 59.4177 119.841 52.2709 110.661 76.4857C102.342 98.4306 88.5226 104.026 95.0207 119.218C102.056 135.669 141.839 137.639 159.115 119.409C173.119 104.631 157.906 98.4048 159.87 84.5015C161.835 70.601 157.703 66.0667 146.773 67.2758Z" fill="#263238"/>
<path d="M91.4658 114.349C89.8868 105.783 93.0651 102.248 97.0894 97.7736C100.76 93.6908 105.33 88.6112 107.831 77.6945C109.86 68.8409 115.912 63.0487 124.873 61.3881C133.842 59.7235 143.352 62.657 145.863 66.3916C146.689 67.6196 146.739 68.9266 146.005 70.0717L144.859 69.3373C145.301 68.6478 145.261 67.9324 144.734 67.1504C142.505 63.8361 133.452 61.1814 125.12 62.7264C119.183 63.828 111.592 67.3708 109.157 78.0005C106.575 89.26 101.877 94.4851 98.1012 98.6848C94.1803 103.046 91.3475 106.196 92.804 114.106L91.4658 114.349Z" fill="#263238"/>
<path d="M72.7614 107.838L71.9128 105.129C71.3348 103.283 70.2848 101.62 68.865 100.306L66.1899 97.8296C64.4178 96.1895 61.7277 96.0467 59.7924 97.491L56.8725 99.6724C54.6353 101.343 54.196 104.519 55.896 106.734L57.7796 109.187C57.7796 109.187 62.1765 116.632 68.5563 119.22L70.0251 117.966C70.0496 117.945 70.0727 117.925 70.0972 117.905C72.9368 115.438 73.8848 111.426 72.7614 107.838Z" fill="#FFC3BD"/>
<path d="M125.626 155.053L124.755 155.719L124.049 156.235L122.683 157.187C121.773 157.788 120.859 158.349 119.935 158.887C118.09 159.964 116.183 160.909 114.223 161.782C110.293 163.486 106.096 164.812 101.646 165.526C97.2152 166.288 92.4946 166.338 87.819 165.609C85.4838 165.235 83.1637 164.656 80.936 163.833C80.3716 163.649 79.8262 163.421 79.2795 163.192L78.4608 162.851L78.0528 162.68L77.6013 162.48L77.0369 162.209C75.6034 161.472 74.544 160.634 73.7769 159.911C72.9623 159.155 72.3843 158.471 71.8634 157.81C69.901 155.223 69.0319 153.113 68.1669 151.078C67.3523 149.055 66.7253 147.135 66.1664 145.243C65.1219 141.449 64.3168 137.794 63.7048 134.129C62.4645 126.804 61.7573 119.637 61.624 112.236C61.5682 109.196 63.9877 106.687 67.0273 106.633C69.4386 106.589 71.5166 108.103 72.3 110.25L72.3517 110.397C74.7154 116.913 76.9947 123.581 79.3897 129.923C80.6191 133.082 81.8186 136.215 83.18 139.071C83.8287 140.502 84.5101 141.87 85.1982 143.048C85.8497 144.197 86.6629 145.232 86.9281 145.398C86.9744 145.415 86.9894 145.389 86.8411 145.216C86.7228 145.092 86.3977 144.762 85.7517 144.422L85.4879 144.29C85.4145 144.254 85.2485 144.193 85.341 144.222L85.5573 144.275L85.987 144.384C86.2713 144.458 86.5514 144.54 86.8438 144.582C87.9821 144.85 89.1558 144.914 90.32 145.002C92.666 145.121 95.095 144.822 97.6014 144.239C100.096 143.625 102.665 142.738 105.185 141.551C106.455 140.985 107.699 140.317 108.922 139.641C109.537 139.305 110.132 138.946 110.709 138.593L112.128 137.713L113.19 137.053C118.329 133.864 125.08 135.444 128.269 140.584C131.259 145.402 130.017 151.664 125.626 155.053Z" fill="#FFC3BD"/>
<path d="M175.661 321.551C176.658 251.864 170.198 213.884 170.198 213.884L118.641 216.45C118.641 216.45 126.266 280.206 139.804 327.168C143.421 352.369 151.572 394.995 157.216 423.616C166.13 422.715 175.063 421.176 181.923 418.938C183.925 393.787 184.285 357.41 175.661 321.551Z" fill="#7C5CFC"/>
<path d="M176.773 452.015C176.773 452.015 178.787 438.848 180.143 418.939C174.274 421.178 166.628 422.714 158.998 423.617C161.933 441.005 164.029 452.071 164.029 452.071C166.591 453.32 173.092 453.755 176.773 452.015Z" fill="#FFC3BD"/>
<path d="M154.425 415.282C154.886 417.676 156.126 423.674 157.362 425.776C157.511 426.028 157.764 426.195 158.053 426.232C167.663 427.443 177.269 425.504 181.243 423.77C181.466 423.672 181.633 423.501 181.719 423.274C182.799 420.397 183.194 414.326 183.317 411.769C183.345 411.175 182.816 410.713 182.231 410.828C179.078 411.453 169.477 413.181 155.269 414.205C154.723 414.243 154.32 414.744 154.425 415.282Z" fill="#263238"/>
<path d="M119.343 134.51C111.701 135.93 100.042 142.33 100.042 142.33C100.042 142.33 93.9079 157.018 101.252 167.6C108.493 169.306 112.173 167.913 112.173 167.913L119.343 134.51Z" fill="#263238"/>
<path opacity="0.2" d="M101.252 167.601C108.493 169.306 112.171 167.913 112.171 167.913L111.917 148.091C106.961 154.712 102.876 161.257 101.252 167.601Z" fill="black"/>
<path opacity="0.2" d="M175.383 280.437C169.617 266.334 163.415 254.719 161.035 244.111C156.982 272.957 160.165 299.491 175.682 318.503C175.859 304.468 175.71 291.766 175.383 280.437Z" fill="black"/>
<path d="M254.154 391.032L233.577 405.666C216.781 383.783 191.594 350.354 185.501 335.802C170.024 298.878 138.906 217.518 138.906 217.518L179.298 208.139C179.298 208.139 204.785 231.803 221.227 321.102C235.032 340.617 246.62 369.394 254.154 391.032Z" fill="#7C5CFC"/>
<path d="M253.015 460.395C258.146 450.373 258.215 439.321 252.672 430.62C250.295 426.89 262.386 419.542 262.386 419.542C266.662 432.876 270.136 433.653 273.107 435.716C276.166 437.84 276.377 442.239 273.872 443.751C270.871 445.562 269.715 446.744 267.062 450.203C263.961 454.247 262.226 459.893 257.779 463.377C254.934 465.605 250.767 464.785 253.015 460.395Z" fill="#7C5CFC"/>
<path d="M264.637 425.651C264.637 425.651 261.082 413.17 254.113 394.47C249.686 398.928 243.354 403.48 236.774 407.446C246.614 422.08 253.803 432.594 253.803 432.594C258.174 431.204 261.998 428.753 264.637 425.651Z" fill="#FFC3BD"/>
<path d="M229.173 401.735C230.579 403.726 234.182 408.679 236.174 410.087C236.412 410.255 236.712 410.303 236.99 410.217C246.245 407.361 254.2 401.636 257.105 398.418C257.268 398.237 257.35 398.011 257.333 397.769C257.132 394.704 254.991 389.008 254.049 386.628C253.83 386.075 253.157 385.872 252.673 386.217C250.056 388.086 242.021 393.617 229.497 400.405C229.015 400.667 228.856 401.288 229.173 401.735Z" fill="#263238"/>
<path d="M107.677 154.86C109.527 166.889 102.353 176.221 113.381 181.773C111.552 190.915 114.272 209.2 118.641 216.45C124.765 219.776 154.772 214.855 179.297 208.139C178.937 197.671 170.325 177.067 172.718 142.769C173.273 134.817 166.818 128.138 158.851 128.424C156.723 128.5 154.475 128.629 152.182 128.831C143.271 129.617 135.98 130.328 128.295 132.105C125.747 132.694 123.127 133.387 120.63 134.092C111.62 136.64 106.253 145.603 107.677 154.86Z" fill="#263238"/>
<path d="M125.017 145.651C125.017 145.651 132.692 142.841 136.728 149.738C143.424 145.975 152.86 130.046 152.183 128.831C140.959 131.907 125.017 145.651 125.017 145.651Z" fill="white"/>
<path d="M125.017 145.651C125.017 145.651 119.18 144.959 117.537 150.116C117.594 139.916 124.413 133.506 127.426 132.311C126.414 134.967 125.017 145.651 125.017 145.651Z" fill="white"/>
<path d="M149.23 101.832C148.379 109.779 148.239 122.571 152.183 128.831C152.183 128.831 137.291 139.084 125.017 145.65C121.164 136.742 127.425 132.31 127.425 132.31C133.258 130.068 133.207 122.607 132.417 116.891L149.23 101.832Z" fill="#FFC3BD"/>
<path opacity="0.2" d="M132.411 116.893L141.976 108.325C142.328 109.617 142.179 111.503 141.673 113.131C140.175 117.839 136.234 121.615 132.727 123.668C132.899 121.416 132.706 119.039 132.411 116.893Z" fill="black"/>
<path d="M152.305 87.0503C151.019 99.9608 150.745 105.452 144.075 111.844C134.043 121.458 118.775 117.048 116.252 104.012C113.983 92.2782 116.466 73.1375 129.089 68.4741C141.528 63.8773 153.591 74.1399 152.305 87.0503Z" fill="#FFC3BD"/>
<path d="M149.42 96.4954C144.773 92.3528 145.567 85.1883 148.967 81.7448C152.367 78.2999 157.149 85.4209 157.149 85.4209L149.42 96.4954Z" fill="#263238"/>
<path d="M133.712 90.6242C133.672 91.6782 133.08 92.5105 132.391 92.4833C131.701 92.4561 131.176 91.5803 131.218 90.5263C131.259 89.4723 131.851 88.64 132.54 88.6672C133.228 88.6944 133.753 89.5702 133.712 90.6242Z" fill="#263238"/>
<path d="M120.748 90.3019C120.707 91.3559 120.115 92.1882 119.426 92.161C118.736 92.1338 118.211 91.258 118.253 90.204C118.294 89.15 118.886 88.3177 119.575 88.3449C120.263 88.3721 120.788 89.2493 120.748 90.3019Z" fill="#263238"/>
<path d="M119.875 88.4157L117.373 87.5874C117.373 87.5874 118.594 89.6152 119.875 88.4157Z" fill="#263238"/>
<path d="M123.934 90.7192C123.934 90.7192 121.969 95.1855 119.915 97.2975C121.255 98.6507 123.644 98.1489 123.644 98.1489L123.934 90.7192Z" fill="#ED847E"/>
<path d="M129.551 102.281C129.001 102.355 128.41 102.388 127.778 102.364C127.608 102.357 127.474 102.213 127.48 102.041C127.486 101.871 127.627 101.739 127.802 101.743C132.423 101.927 134.712 98.7787 134.735 98.7474C134.835 98.6073 135.028 98.5747 135.166 98.6726C135.306 98.7719 135.339 98.965 135.24 99.1037C135.153 99.2288 133.311 101.765 129.551 102.281Z" fill="#263238"/>
<path d="M154.462 97.8732C153.237 100.318 151.167 101.821 149.239 102.304C146.339 103.03 144.995 99.8357 145.89 96.6546C146.695 93.7918 149.175 89.9634 152.042 90.6679C154.868 91.3615 155.863 95.077 154.462 97.8732Z" fill="#FFC3BD"/>
<path d="M145.617 68.6671C135.368 75.1271 124.422 78.2999 115.502 79.4342C115.421 70.1399 133.653 59.7128 145.617 68.6671Z" fill="#263238"/>
<path d="M138.617 69.8002C136.5 77.9602 157.58 92.8739 153.613 107.313C160.526 96.5459 155.54 72.3406 155.54 72.3406C155.54 72.3406 137.673 61.073 138.617 69.8002Z" fill="#263238"/>
<path d="M136.428 83.6896C136.266 83.6624 136.115 83.5726 136.015 83.4271C134.462 81.1423 132.186 81.16 132.159 81.16C131.821 81.164 131.534 80.8948 131.527 80.552C131.521 80.2107 131.793 79.9278 132.135 79.921C132.255 79.9196 135.114 79.8952 137.04 82.7308C137.231 83.0136 137.158 83.3985 136.875 83.5916C136.739 83.6828 136.579 83.714 136.428 83.6896Z" fill="#263238"/>
<path d="M115.005 83.2298C114.852 83.2271 114.698 83.1659 114.581 83.0489C114.339 82.8068 114.339 82.4152 114.58 82.1731C116.999 79.7496 119.805 80.3031 119.923 80.3289C120.258 80.3996 120.473 80.7274 120.402 81.062C120.333 81.3965 120.005 81.6101 119.67 81.5421C119.56 81.5189 117.38 81.1205 115.456 83.0476C115.333 83.1741 115.169 83.2339 115.005 83.2298Z" fill="#263238"/>
<path d="M132.842 88.7379L130.34 87.9097C130.34 87.9097 131.561 89.9361 132.842 88.7379Z" fill="#263238"/>
<path opacity="0.2" d="M172.391 149.402C172.13 157.456 172.474 164.692 173.118 171.139C166.282 163.954 157.771 150.399 157.216 143.6L172.391 149.402Z" fill="black"/>
<path d="M216.795 123.816L218.288 115.18L231.703 120.36C231.703 120.36 228.596 128.401 222.87 131.952L221.276 130.943C218.684 129.301 217.036 126.68 216.795 123.816Z" fill="#FFC3BD"/>
<path d="M226.662 110.373L231.068 112.769C233.077 113.861 233.83 116.369 232.754 118.387L231.703 120.361L218.288 115.18L221.472 111.364C222.745 109.838 224.917 109.424 226.662 110.373Z" fill="#FFC3BD"/>
<path d="M170.007 133.686L171.71 135.451L173.574 137.336C174.845 138.579 176.107 139.836 177.412 141.034C179.994 143.466 182.67 145.731 185.338 147.83C188.024 149.882 190.75 151.734 193.366 153.128C195.989 154.51 198.473 155.375 200.292 155.605L196.635 156.285C195.736 156.713 195.79 156.904 195.982 156.762C196.183 156.647 196.568 156.322 196.985 155.91C197.833 155.064 198.789 153.863 199.711 152.571C201.558 149.949 203.439 146.968 205.197 143.885C206.999 140.81 208.74 137.619 210.488 134.401L215.729 124.713L215.772 124.632C217.221 121.955 220.565 120.958 223.243 122.406C225.356 123.55 226.42 125.885 226.062 128.13C225.431 132.046 224.584 135.748 223.626 139.516C222.658 143.266 221.539 146.987 220.251 150.721C218.91 154.439 217.487 158.182 215.517 161.992C214.519 163.905 213.431 165.844 211.941 167.921C211.188 168.964 210.324 170.04 209.147 171.187C207.965 172.309 206.49 173.624 203.855 174.762C202.858 175.192 201.823 175.409 200.8 175.434L200.198 175.442C194.18 175.553 189.038 174.051 184.594 172.171C182.367 171.221 180.256 170.175 178.261 169.05C176.282 167.903 174.386 166.699 172.563 165.447C168.92 162.946 165.584 160.21 162.42 157.355C160.849 155.912 159.301 154.46 157.824 152.929C157.082 152.168 156.343 151.399 155.62 150.604C154.874 149.779 154.237 149.059 153.376 148.043C149.456 143.415 150.031 136.486 154.66 132.567C159.096 128.81 165.647 129.183 169.634 133.297L170.007 133.686Z" fill="#FFC3BD"/>
<path d="M159.452 128.44C169.415 128.745 179.335 140.714 179.335 140.714C179.335 140.714 175.492 156.554 164.571 163.384C158.43 158.592 153.22 154.762 153.22 154.762C144.524 141.994 147.42 133.523 159.452 128.44Z" fill="#263238"/>
<path d="M116.647 215.505C117.38 219.771 118.266 223.109 118.55 224.136C118.611 224.356 118.751 224.533 118.951 224.644C120.409 225.453 127.043 228.677 139.222 228.014C152.894 227.272 172.776 219.879 183.132 211.946C183.442 211.708 183.553 211.29 183.399 210.93C182.524 208.883 181.227 206.778 180.605 205.814C180.397 205.491 180.003 205.348 179.636 205.459C175.178 206.798 147.094 214.856 117.508 214.504C116.971 214.499 116.556 214.976 116.647 215.505Z" fill="#7C5CFC"/>
<path opacity="0.3" d="M116.647 215.505C117.38 219.771 118.266 223.109 118.55 224.136C118.611 224.356 118.751 224.533 118.951 224.644C120.409 225.453 127.043 228.677 139.222 228.014C152.894 227.272 172.776 219.879 183.132 211.946C183.442 211.708 183.553 211.29 183.399 210.93C182.524 208.883 181.227 206.778 180.605 205.814C180.397 205.491 180.003 205.348 179.636 205.459C175.178 206.798 147.094 214.856 117.508 214.504C116.971 214.499 116.556 214.976 116.647 215.505Z" fill="white"/>
<path d="M389.205 435.518H210.148C196.029 435.518 185.156 423.966 185.984 409.848L207.812 37.6714C208.64 23.5518 220.869 12 234.989 12H414.045C428.164 12 439.038 23.5518 438.209 37.67L416.381 409.846C415.553 423.966 403.324 435.518 389.205 435.518Z" fill="#7C5CFC"/>
<path opacity="0.8" d="M389.205 435.518H210.148C196.029 435.518 185.156 423.966 185.984 409.848L207.812 37.6714C208.64 23.5518 220.869 12 234.989 12H414.045C428.164 12 439.038 23.5518 438.209 37.67L416.381 409.846C415.553 423.966 403.324 435.518 389.205 435.518Z" fill="white"/>
<path d="M388.142 428.072H214.078C204.155 428.072 196.514 419.954 197.096 410.03L218.828 39.4802C219.411 29.5577 228.006 21.4385 237.928 21.4385H411.992C421.914 21.4385 429.556 29.5563 428.976 39.4802L407.243 410.03C406.659 419.954 398.064 428.072 388.142 428.072Z" fill="#7C5CFC"/>
<path d="M386.265 426.078H212.2C202.278 426.078 194.636 417.959 195.217 408.036L216.949 37.4866C217.531 27.564 226.125 19.4448 236.049 19.4448H410.113C420.035 19.4448 427.677 27.5627 427.095 37.4866L405.362 408.036C404.782 417.959 396.188 426.078 386.265 426.078Z" fill="white"/>
<path opacity="0.1" d="M381.183 412.3H218.898C212.764 412.3 208.041 407.281 208.4 401.149L217.466 246.585C217.825 240.452 223.138 235.435 229.271 235.435H391.555C397.689 235.435 402.412 240.453 402.053 246.585L392.987 401.149C392.628 407.281 387.316 412.3 381.183 412.3Z" fill="#7C5CFC"/>
<path opacity="0.1" d="M345.124 46.9317H297.818C295.621 46.9317 293.929 45.1352 294.059 42.9388C294.188 40.7424 296.089 38.9458 298.286 38.9458H345.592C347.788 38.9458 349.48 40.7424 349.351 42.9388C349.222 45.1338 347.319 46.9317 345.124 46.9317Z" fill="#7C5CFC"/>
<path opacity="0.1" d="M363.964 196.096C393.101 167.801 395.089 122.588 368.405 95.1115C341.721 67.6347 296.47 68.2986 267.333 96.5943C238.197 124.89 236.209 170.102 262.893 197.579C289.577 225.056 334.828 224.392 363.964 196.096Z" fill="#7C5CFC"/>
<path d="M265.631 193.659C253.634 180.939 247.608 164.04 248.662 146.077L250.019 146.157C248.988 163.744 254.883 180.281 266.62 192.727L265.631 193.659Z" fill="#7C5CFC"/>
<path d="M382.616 146.635L381.259 146.555C381.615 140.478 381.146 134.467 379.862 128.688L381.19 128.393C382.499 134.295 382.979 140.433 382.616 146.635Z" fill="#7C5CFC"/>
<path d="M375.947 116.862C373.161 110.653 369.363 104.975 364.657 99.9853C358.143 93.0778 350.342 87.9125 341.471 84.6336L341.943 83.3579C351.012 86.7103 358.987 91.9898 365.647 99.0523C370.458 104.152 374.341 109.958 377.188 116.305L375.947 116.862Z" fill="#7C5CFC"/>
<path d="M357.748 189.694C383.136 165.039 384.868 125.643 361.617 101.701C338.366 77.7595 298.936 78.3376 273.548 102.993C248.161 127.648 246.429 167.044 269.68 190.985C292.931 214.927 332.361 214.349 357.748 189.694Z" fill="#7C5CFC"/>
<path d="M308.718 154.791C308.73 154.788 308.745 154.783 308.756 154.78C311.747 154.123 313.145 151.56 313.781 148.646C313.845 148.346 313.905 148.044 313.954 147.737C313.969 147.648 313.982 147.56 313.996 147.47C314.177 146.239 314.252 144.984 314.271 143.808C308.601 143.189 303.845 138.773 303.578 132.197C303.377 127.224 304.51 120.751 307.211 115.562C306.667 115.636 306.028 115.84 305.375 116.323C305.266 116.404 305.136 116.429 305.013 116.409C304.898 116.389 304.79 116.326 304.714 116.224C304.56 116.015 304.604 115.719 304.813 115.564C305.894 114.766 306.958 114.578 307.751 114.585C307.943 114.253 308.134 113.922 308.341 113.605C307.479 113.624 306.636 113.625 305.82 113.606C306.717 107.323 318.802 102.043 327.048 106.864C330.713 107.599 336.775 112.839 336.775 112.839C336.775 112.839 337.013 117.383 336.492 122.869V122.87H336.49C335.952 128.546 334.601 135.23 331.331 138.95C332.187 137.024 332.398 134.987 332.194 132.91C331.329 133.752 330.336 134.273 329.368 134.516C328.976 135.378 328.536 136.168 328.034 136.915C326.754 142.747 325.848 150.527 327.796 154.988C329.545 155.098 331.252 155.257 332.863 155.444C332.998 155.46 333.127 155.491 333.26 155.512C334.318 154.886 335.349 154.194 336.339 153.423C348.571 143.895 335.581 132.734 338.647 122.492C341.714 112.25 339.121 108.365 330.754 108.026C334.231 102.5 312.19 93.6521 302.512 110.836C293.741 126.408 290.907 134.176 294.064 146.356C295.063 150.212 297.809 153.413 301.56 155.732C302.171 155.566 302.792 155.427 303.438 155.347C305.164 155.13 306.958 154.939 308.718 154.791Z" fill="#263238"/>
<path d="M289.691 178.735C289.097 177.722 288.622 176.783 288.28 176.03C287.356 178.772 286.445 181.517 285.541 184.226C284.71 186.677 283.898 189.124 283.059 191.459L281.801 194.765L281.25 196.071C281.062 196.438 281.25 196.23 281.229 196.328C280.985 196.688 280.143 197.474 279.31 198.191C279.149 198.328 278.97 198.47 278.802 198.609C282.525 201.115 286.561 203.218 290.865 204.824C290.957 198.609 291.727 192.149 292.532 190.419C287.73 187.012 288.471 183.306 289.691 178.735Z" fill="#FFC3BD"/>
<path d="M294.46 160.396C294.343 160.544 294.227 160.708 294.11 160.866C294.226 160.71 294.346 160.557 294.467 160.406L294.46 160.396Z" fill="#263238"/>
<path d="M291.312 169.503C291.307 166.408 292.259 163.502 293.915 161.127C290.465 165.926 287.524 174.173 287.524 174.173C287.524 174.173 287.766 174.902 288.279 176.028C288.622 176.782 289.097 177.72 289.691 178.734C290.418 176.005 291.319 172.968 291.312 169.503Z" fill="#263238"/>
<path d="M338.725 189.233C337.283 187.171 335.787 184.553 334.44 181.79C334.025 182.011 333.61 182.23 333.175 182.418C329.099 178.108 325.613 174.629 325.613 174.629C320.524 164.023 323.671 157.976 333.311 155.523C334.784 155.793 336.201 156.412 337.531 157.22C336.295 156.356 334.849 155.757 333.257 155.51C333.123 155.49 332.995 155.459 332.859 155.442C331.248 155.258 329.541 155.097 327.792 154.987C328.162 155.98 319.435 168.522 313.962 170.59C311.711 164.937 305.417 164.548 305.417 164.548C305.417 164.548 299.546 163.345 297.72 167.041C298.922 159.403 306.278 155.377 308.718 154.791C306.958 154.939 305.164 155.13 303.437 155.346C302.791 155.428 302.168 155.566 301.559 155.731C298.692 156.509 296.248 158.175 294.468 160.405C294.347 160.557 294.227 160.708 294.112 160.865C294.048 160.952 293.98 161.038 293.917 161.126C292.259 163.499 291.307 166.405 291.314 169.502C291.321 172.967 290.422 176.004 289.693 178.734C288.473 183.305 287.733 187.012 292.534 190.418C291.729 192.147 290.959 198.608 290.867 204.823C297.381 207.253 304.491 208.58 311.99 208.58C321.427 208.58 330.49 206.47 338.724 202.711C338.536 198.357 338.473 193.284 338.841 187.518L338.839 187.514C338.801 188.087 338.754 188.677 338.725 189.233Z" fill="#263238"/>
<path d="M305.418 164.55C305.418 164.55 311.713 164.939 313.963 170.593C319.435 168.524 328.163 155.982 327.793 154.989C327.793 154.989 315.41 161.007 305.418 164.55Z" fill="white"/>
<path d="M308.756 154.78C308.745 154.781 308.73 154.788 308.718 154.791C306.278 155.377 298.922 159.402 297.72 167.04C299.546 163.345 305.419 164.55 305.419 164.55C303.535 157.402 308.756 154.78 308.756 154.78Z" fill="white"/>
<path d="M313.952 147.738C313.967 147.649 313.981 147.561 313.994 147.471C313.981 147.56 313.967 147.648 313.952 147.738Z" fill="#FFC3BD"/>
<path d="M328.033 136.917C326.958 138.513 325.582 139.899 323.63 141.273C322.876 141.804 322.1 142.22 321.32 142.586C319.563 145.629 316.429 147.807 313.736 148.88C313.754 148.804 313.765 148.724 313.781 148.647C313.145 151.56 311.747 154.123 308.756 154.78C308.756 154.78 303.535 157.402 305.419 164.549C315.41 161.006 327.793 154.988 327.793 154.988C325.846 150.527 326.752 142.747 328.033 136.917Z" fill="#FFC3BD"/>
<path d="M313.781 148.646C313.847 148.346 313.904 148.042 313.954 147.736C313.904 148.044 313.845 148.346 313.781 148.646Z" fill="#263238"/>
<path opacity="0.2" d="M313.781 148.646C313.847 148.346 313.904 148.042 313.954 147.736C313.904 148.044 313.845 148.346 313.781 148.646Z" fill="black"/>
<path d="M314.269 143.808C314.25 144.984 314.176 146.241 313.994 147.47C314.179 146.237 314.254 144.981 314.273 143.808H314.269Z" fill="#263238"/>
<path opacity="0.2" d="M314.269 143.808C314.25 144.984 314.176 146.241 313.994 147.47C314.179 146.237 314.254 144.981 314.273 143.808H314.269Z" fill="black"/>
<path d="M321.319 142.586C318.973 143.684 316.554 144.058 314.273 143.809C314.255 144.981 314.18 146.238 313.994 147.472C313.981 147.561 313.967 147.648 313.952 147.738C313.902 148.044 313.845 148.347 313.779 148.648C313.762 148.725 313.752 148.806 313.734 148.882C316.427 147.806 319.561 145.629 321.319 142.586Z" fill="#FFC3BD"/>
<path opacity="0.2" d="M321.319 142.586C318.973 143.684 316.554 144.058 314.273 143.809C314.255 144.981 314.18 146.238 313.994 147.472C313.981 147.561 313.967 147.648 313.952 147.738C313.902 148.044 313.845 148.347 313.779 148.648C313.762 148.725 313.752 148.806 313.734 148.882C316.427 147.806 319.561 145.629 321.319 142.586Z" fill="black"/>
<path d="M321.32 142.586C322.102 142.22 322.877 141.804 323.631 141.273C325.582 139.899 326.958 138.513 328.033 136.916C328.535 136.17 328.975 135.38 329.367 134.517C329.111 134.581 328.854 134.657 328.607 134.681C326.34 134.897 325.694 132.337 326.731 130.044C327.048 129.345 327.524 128.586 328.091 127.92C327.455 125.944 327.693 123.813 328.501 122.046C326.427 117.802 324.238 113.915 324.039 111.036C318.505 112.751 313.092 113.5 308.339 113.607C308.132 113.924 307.94 114.256 307.748 114.588C308.495 114.595 309.004 114.773 309.046 114.788C309.291 114.879 309.414 115.151 309.323 115.394C309.232 115.638 308.962 115.762 308.718 115.672C308.669 115.653 308.056 115.447 307.21 115.563C304.509 120.753 303.376 127.224 303.577 132.199C303.844 138.774 308.6 143.19 314.27 143.809L314.274 143.81C316.554 144.058 318.974 143.684 321.32 142.586ZM318.286 115.873C318.376 115.885 320.531 116.194 321.657 118.548C321.77 118.784 321.669 119.065 321.434 119.178C321.321 119.232 321.198 119.236 321.086 119.201C320.968 119.163 320.864 119.077 320.806 118.956C319.897 117.059 318.181 116.812 318.161 116.809C317.906 116.772 317.721 116.538 317.755 116.278C317.791 116.021 318.027 115.839 318.286 115.873ZM317.811 122.593C317.802 122.6 317.792 122.6 317.781 122.607C318.169 122.831 318.381 123.433 318.252 124.113C318.101 124.902 317.56 125.461 317.044 125.362C316.529 125.263 316.234 124.543 316.384 123.754C316.472 123.3 316.693 122.942 316.958 122.722C316.37 122.499 316.023 121.683 316.023 121.683L317.811 122.593ZM306.659 122.031C306.745 121.578 306.966 121.221 307.232 121C306.643 120.777 306.296 119.961 306.296 119.961L308.084 120.871C308.074 120.878 308.065 120.878 308.054 120.885C308.442 121.109 308.654 121.712 308.525 122.39C308.374 123.179 307.833 123.738 307.317 123.639C306.803 123.539 306.508 122.82 306.659 122.031ZM309.812 128.629C309.812 128.629 307.955 128.733 307.101 127.561C308.888 126.205 310.879 123.068 310.879 123.068L309.812 128.629ZM312.442 132.273C312.314 132.249 312.231 132.125 312.255 131.996C312.28 131.869 312.4 131.785 312.532 131.81C315.99 132.476 318.072 130.367 318.094 130.345C318.184 130.251 318.333 130.248 318.427 130.339C318.521 130.429 318.524 130.579 318.433 130.673C318.352 130.756 316.677 132.454 313.785 132.413C313.363 132.407 312.915 132.363 312.442 132.273Z" fill="#FFC3BD"/>
<path d="M336.49 122.871V122.869L336.489 122.871H336.49Z" fill="#263238"/>
<path d="M330.385 126.213C329.816 124.802 329.166 123.405 328.501 122.045C327.693 123.813 327.454 125.943 328.092 127.919C328.758 127.137 329.555 126.487 330.385 126.213Z" fill="#263238"/>
<path d="M316.958 122.722C316.693 122.942 316.473 123.3 316.384 123.754C316.233 124.543 316.528 125.263 317.044 125.362C317.559 125.461 318.101 124.902 318.251 124.113C318.382 123.435 318.169 122.831 317.781 122.606C317.47 122.809 317.195 122.813 316.958 122.722Z" fill="#263238"/>
<path d="M308.526 122.39C308.656 121.71 308.444 121.109 308.055 120.885C307.744 121.087 307.469 121.091 307.232 121C306.967 121.221 306.745 121.578 306.66 122.031C306.509 122.82 306.803 123.539 307.318 123.639C307.833 123.737 308.375 123.179 308.526 122.39Z" fill="#263238"/>
<path d="M308.055 120.883C308.066 120.877 308.074 120.877 308.085 120.87L306.297 119.96C306.297 119.96 306.644 120.776 307.233 120.999C307.469 121.09 307.744 121.086 308.055 120.883Z" fill="#263238"/>
<path d="M307.1 127.561C307.954 128.733 309.81 128.628 309.81 128.628L310.878 123.067C310.878 123.067 308.888 126.205 307.1 127.561Z" fill="#ED847E"/>
<path d="M318.427 130.34C318.333 130.25 318.183 130.251 318.094 130.345C318.072 130.367 315.99 132.475 312.531 131.81C312.399 131.785 312.28 131.87 312.255 131.996C312.231 132.125 312.314 132.249 312.442 132.274C312.915 132.363 313.364 132.407 313.787 132.414C316.677 132.454 318.353 130.756 318.434 130.673C318.522 130.579 318.519 130.431 318.427 130.34Z" fill="#263238"/>
<path d="M330.385 126.213C329.557 126.487 328.76 127.138 328.092 127.92C327.524 128.587 327.048 129.345 326.732 130.045C325.695 132.337 326.342 134.896 328.608 134.681C328.854 134.658 329.112 134.581 329.368 134.518C330.336 134.274 331.329 133.753 332.194 132.911C331.975 130.696 331.283 128.436 330.385 126.213Z" fill="#FFC3BD"/>
<path d="M324.321 108.994C324.405 107.032 325.519 106.56 327.045 106.866C318.799 102.045 306.714 107.324 305.816 113.608C306.632 113.627 307.476 113.625 308.338 113.606C313.091 113.499 318.504 112.749 324.038 111.034C323.987 110.282 324.064 109.597 324.321 108.994Z" fill="#263238"/>
<path d="M324.321 108.994C324.064 109.597 323.986 110.282 324.039 111.034C324.239 113.913 326.427 117.8 328.501 122.045C329.166 123.405 329.815 124.8 330.385 126.213C331.283 128.437 331.975 130.697 332.194 132.911C332.398 134.988 332.187 137.025 331.33 138.951C334.601 135.231 335.951 128.547 336.49 122.872L336.491 122.87C337.012 117.384 336.774 112.84 336.774 112.84C336.774 112.84 330.713 107.6 327.048 106.866C325.519 106.56 324.405 107.032 324.321 108.994Z" fill="#263238"/>
<path d="M318.161 116.809C318.182 116.812 319.898 117.059 320.806 118.956C320.865 119.077 320.968 119.163 321.087 119.201C321.198 119.237 321.322 119.232 321.435 119.178C321.67 119.065 321.769 118.784 321.658 118.548C320.53 116.194 318.376 115.885 318.286 115.873C318.028 115.839 317.791 116.02 317.756 116.279C317.722 116.538 317.907 116.774 318.161 116.809Z" fill="#263238"/>
<path d="M308.716 115.672C308.96 115.762 309.23 115.638 309.321 115.395C309.412 115.151 309.289 114.879 309.044 114.788C309.002 114.772 308.493 114.594 307.746 114.588C306.954 114.581 305.89 114.769 304.809 115.567C304.599 115.721 304.555 116.017 304.71 116.227C304.784 116.329 304.893 116.391 305.009 116.412C305.131 116.434 305.262 116.406 305.37 116.326C306.023 115.843 306.662 115.639 307.206 115.565C308.055 115.448 308.668 115.653 308.716 115.672Z" fill="#263238"/>
<path d="M316.958 122.722C317.196 122.812 317.47 122.808 317.781 122.607C317.792 122.6 317.801 122.601 317.811 122.593L316.022 121.683C316.022 121.683 316.369 122.499 316.958 122.722Z" fill="#263238"/>
<path d="M338.725 189.233C338.753 188.675 338.801 188.085 338.838 187.514C338.076 186.298 337.291 185.079 336.492 183.859C335.976 183.085 335.447 182.309 334.922 181.534C334.765 181.623 334.6 181.702 334.439 181.788C335.787 184.553 337.283 187.171 338.725 189.233Z" fill="#263238"/>
<path opacity="0.2" d="M338.725 189.233C338.753 188.675 338.801 188.085 338.838 187.514C338.076 186.298 337.291 185.079 336.492 183.859C335.976 183.085 335.447 182.309 334.922 181.534C334.765 181.623 334.6 181.702 334.439 181.788C335.787 184.553 337.283 187.171 338.725 189.233Z" fill="black"/>
<path d="M342.768 200.502L342.724 200.72C348.151 197.787 353.149 194.117 357.575 189.845C356.806 187.551 355.919 185.452 354.967 183.414C353.623 180.488 352.131 177.767 350.566 175.109C349.217 172.773 347.766 170.537 346.282 168.333C344.893 171.174 341.06 178.02 334.922 181.535C335.448 182.311 335.976 183.087 336.491 183.861C337.29 185.08 338.076 186.298 338.837 187.515L338.839 187.519C339.508 188.59 340.159 189.656 340.767 190.717C341.803 192.555 342.788 194.398 343.536 196.093L343.396 197.022C343.215 198.153 343 199.319 342.768 200.502Z" fill="#FFC3BD"/>
<path d="M325.615 174.631C325.615 174.631 329.1 178.11 333.176 182.419C333.61 182.232 334.026 182.011 334.441 181.791C334.602 181.705 334.766 181.626 334.924 181.537C341.062 178.02 344.895 171.175 346.284 168.334C346.674 167.537 346.881 167.039 346.881 167.039C346.881 167.039 342.945 160.51 337.532 157.223C336.202 156.415 334.785 155.796 333.312 155.525C323.673 157.977 320.526 164.024 325.615 174.631Z" fill="#263238"/>
<path d="M390.819 38.2116H409.985C411.054 38.2116 411.98 37.3371 412.043 36.2681C412.106 35.1992 411.283 34.3247 410.214 34.3247H391.047C389.978 34.3247 389.052 35.1992 388.99 36.2681C388.927 37.3371 389.75 38.2116 390.819 38.2116Z" fill="#7C5CFC"/>
<path d="M390.428 44.881H409.595C410.664 44.881 411.589 44.0065 411.653 42.9376C411.715 41.8686 410.892 40.9941 409.823 40.9941H390.657C389.588 40.9941 388.662 41.8686 388.599 42.9376C388.535 44.0065 389.359 44.881 390.428 44.881Z" fill="#7C5CFC"/>
<path d="M235.408 44.881H254.574C255.643 44.881 256.569 44.0065 256.632 42.9376C256.694 41.8686 255.872 40.9941 254.803 40.9941H235.636C234.567 40.9941 233.642 41.8686 233.579 42.9376C233.516 44.0065 234.339 44.881 235.408 44.881Z" fill="#7C5CFC"/>
<path d="M390.037 51.5505H409.203C410.272 51.5505 411.198 50.676 411.261 49.607C411.323 48.5381 410.501 47.6636 409.432 47.6636H390.265C389.196 47.6636 388.271 48.5381 388.207 49.607C388.145 50.676 388.968 51.5505 390.037 51.5505Z" fill="#7C5CFC"/>
<path d="M364.853 295.552H248.923C239.69 295.552 232.579 287.997 233.12 278.764C233.661 269.531 241.659 261.977 250.892 261.977H366.824C376.057 261.977 383.169 269.531 382.627 278.764C382.086 287.997 374.088 295.552 364.853 295.552Z" fill="white"/>
<path d="M362.208 340.655H246.276C237.043 340.655 229.932 333.1 230.473 323.867C231.015 314.634 239.013 307.08 248.246 307.08H364.178C373.411 307.08 380.523 314.634 379.981 323.867C379.44 333.1 371.443 340.655 362.208 340.655Z" fill="white"/>
<path d="M359.563 385.758H243.633C234.4 385.758 227.288 378.203 227.83 368.97C228.371 359.737 236.369 352.183 245.602 352.183H361.534C370.767 352.183 377.88 359.737 377.337 368.97C376.795 378.203 368.798 385.758 359.563 385.758Z" fill="white"/>
<path d="M257.943 284.777C261.47 281.351 261.711 275.878 258.481 272.552C255.25 269.225 249.772 269.306 246.245 272.731C242.718 276.157 242.477 281.63 245.707 284.956C248.938 288.283 254.416 288.202 257.943 284.777Z" fill="#7C5CFC"/>
<path d="M251.054 315.684L252.202 319.993C252.334 320.486 252.775 320.821 253.293 320.821H257.823C258.985 320.821 259.38 322.307 258.401 322.989L254.58 325.652C254.142 325.958 253.934 326.498 254.065 326.991L255.213 331.3C255.507 332.404 254.189 333.322 253.29 332.639L249.781 329.976C249.379 329.67 248.81 329.67 248.372 329.976L244.551 332.639C243.572 333.322 242.361 332.404 242.786 331.3L244.438 326.991C244.627 326.498 244.483 325.956 244.082 325.652L240.573 322.989C239.674 322.306 240.244 320.821 241.405 320.821H245.935C246.455 320.821 246.935 320.486 247.124 319.993L248.776 315.684C249.198 314.58 250.759 314.58 251.054 315.684Z" fill="#7C5CFC"/>
<path d="M254.235 364.406L253.525 376.505C253.464 377.545 252.572 378.388 251.531 378.388H240.941C239.9 378.388 239.106 377.545 239.167 376.505L240.051 361.434C240.113 360.394 241.005 359.551 242.045 359.551H249.662L254.235 364.406Z" fill="#7C5CFC"/>
<path d="M249.664 359.551L254.235 364.407H251.262C250.222 364.407 249.427 363.564 249.489 362.524L249.664 359.551ZM248.451 356.213L248.259 359.469L248.085 362.442C248.032 363.336 248.337 364.182 248.94 364.822C249.544 365.463 250.368 365.814 251.262 365.814H254.235H257.488L255.259 363.446L250.688 358.589L248.451 356.213Z" fill="white"/>
<path opacity="0.2" d="M360.953 276.988H274.211C272.707 276.988 271.549 275.757 271.638 274.255C271.726 272.75 273.029 271.521 274.532 271.521H361.274C362.778 271.521 363.935 272.752 363.847 274.255C363.76 275.757 362.457 276.988 360.953 276.988Z" fill="#7C5CFC"/>
<path opacity="0.2" d="M344.513 286.008H273.681C272.177 286.008 271.02 284.777 271.108 283.274C271.197 281.77 272.5 280.541 274.002 280.541H344.834C346.338 280.541 347.495 281.771 347.407 283.274C347.319 284.778 346.017 286.008 344.513 286.008Z" fill="#7C5CFC"/>
<path opacity="0.2" d="M358.099 325.644H334.167C332.663 325.644 331.36 326.874 331.273 328.377C331.185 329.881 332.344 331.111 333.846 331.111H357.778C359.283 331.111 360.585 329.88 360.672 328.377C360.761 326.873 359.603 325.644 358.099 325.644Z" fill="#7C5CFC"/>
<path opacity="0.2" d="M320.18 325.644H271.358C269.854 325.644 268.552 326.874 268.464 328.377C268.375 329.881 269.534 331.111 271.037 331.111H319.859C321.364 331.111 322.665 329.88 322.754 328.377C322.842 326.873 321.685 325.644 320.18 325.644Z" fill="#7C5CFC"/>
<path opacity="0.2" d="M342.718 316.623H271.886C270.382 316.623 269.08 317.853 268.992 319.356C268.904 320.86 270.062 322.09 271.565 322.09H342.397C343.901 322.09 345.202 320.859 345.291 319.356C345.379 317.853 344.22 316.623 342.718 316.623Z" fill="#7C5CFC"/>
<path opacity="0.2" d="M355.454 370.747H268.712C267.208 370.747 265.905 371.977 265.818 373.48C265.73 374.984 266.889 376.214 268.391 376.214H355.134C356.638 376.214 357.941 374.983 358.028 373.48C358.116 371.976 356.959 370.747 355.454 370.747Z" fill="#7C5CFC"/>
<path opacity="0.2" d="M340.073 361.726H269.242C267.737 361.726 266.436 362.956 266.348 364.459C266.259 365.963 267.418 367.193 268.922 367.193H339.752C341.256 367.193 342.558 365.962 342.646 364.459C342.735 362.955 341.576 361.726 340.073 361.726Z" fill="#7C5CFC"/>
</g>
<defs>
<clipPath id="clip0_329_425">
<rect width="486" height="434" rx="12" fill="white"/>
</clipPath>
</defs>
</svg>
