<svg width="30" height="30" viewBox="0 0 30 30" fill="none" xmlns="http://www.w3.org/2000/svg">
<path d="M14.7225 2.73242C7.96261 2.73242 2.4541 8.24093 2.4541 15.0008C2.4541 21.7607 7.96261 27.2692 14.7225 27.2692C21.4824 27.2692 26.9909 21.7607 26.9909 15.0008C26.9909 8.24093 21.4824 2.73242 14.7225 2.73242ZM20.5868 12.1791L13.6306 19.1353C13.4588 19.307 13.2257 19.4052 12.9804 19.4052C12.735 19.4052 12.5019 19.307 12.3302 19.1353L8.8582 15.6633C8.50242 15.3075 8.50242 14.7186 8.8582 14.3629C9.21398 14.0071 9.80287 14.0071 10.1587 14.3629L12.9804 17.1846L19.2863 10.8786C19.6421 10.5229 20.231 10.5229 20.5868 10.8786C20.9426 11.2344 20.9426 11.811 20.5868 12.1791Z" fill="#7FB519"/>
</svg>
