<svg width="23" height="20" viewBox="0 0 23 20" fill="none" xmlns="http://www.w3.org/2000/svg">
<path d="M15.5825 19.4298L11.615 15.4623L13.225 13.8523L15.5825 16.2098L21.39 10.4023L23 12.0123L15.5825 19.4298ZM9.2 9.76982C7.935 9.76982 6.85208 9.31941 5.95125 8.41857C5.05042 7.51774 4.6 6.43482 4.6 5.16982C4.6 3.90482 5.05042 2.82191 5.95125 1.92107C6.85208 1.02024 7.935 0.569824 9.2 0.569824C10.465 0.569824 11.5479 1.02024 12.4488 1.92107C13.3496 2.82191 13.8 3.90482 13.8 5.16982C13.8 6.43482 13.3496 7.51774 12.4488 8.41857C11.5479 9.31941 10.465 9.76982 9.2 9.76982ZM12.4775 11.2648L8.28 15.4623L11.7875 18.9698H0V15.7498C0 15.1173 0.162917 14.5232 0.48875 13.9673C0.814583 13.4115 1.265 12.9898 1.84 12.7023C2.8175 12.204 3.91958 11.7823 5.14625 11.4373C6.37292 11.0923 7.72417 10.9198 9.2 10.9198C9.775 10.9198 10.3356 10.9486 10.8819 11.0061C11.4281 11.0636 11.96 11.1498 12.4775 11.2648Z" fill="#1E1E1E"/>
</svg>
