<?xml version="1.0" encoding="UTF-8"?>
<svg xmlns="http://www.w3.org/2000/svg" viewBox="0 0 314.05 132.79">
  <defs>
    <style>
      .cls-1 {
        fill: #a100ff;
        stroke-width: 0px;
      }
    </style>
  </defs>
  <g id="Layer_4" data-name="Layer 4">
    <path class="cls-1" d="M77.43,91.74c0,8.45-6.31,15.31-14.1,15.31s-14.09-6.86-14.09-15.31c0-1.42.18-2.81.52-4.11l-18.9-19.55c-8.35-8.77-9.79,2.04-9.79,2.04l-.26,23.66c0,.14,0,.29,0,.43,0,6.83-4.66,12.37-10.4,12.37S0,101.04,0,94.21c0-.42.01-.85.05-1.26v-.02l.59-42.87v-.02c0-.22-.01-.44-.01-.66,0-7.02,4.96-12.73,11.07-12.73,3.44,0,6.51,1.8,8.53,4.62h.01c5.21,7.65,11.95-.22,11.95-.22l17.1-15.9c-.31-1.26-.48-2.58-.48-3.95,0-8.45,6.32-15.3,14.1-15.3s14.1,6.85,14.1,15.3-6.32,15.31-14.1,15.31c-1.94,0-3.78-.42-5.45-1.19l-15.48,13.9c-7.19,6.43.09,11.02.09,11.02l16.41,17.14c1.51-.61,3.14-.93,4.84-.93,7.79,0,14.1,6.85,14.1,15.3Z"/>
    <ellipse class="cls-1" cx="16.13" cy="19.5" rx="15.7" ry="14.92"/>
    <path class="cls-1" d="M85.36,14.83s.06-7.02,7.91-7.53c0,0,6.96-.38,8.17,7.21l.06,84.89s-.38,7.15-7.79,7.6c0,0-6.96.64-8.43-7.21l.06-84.96Z"/>
    <path class="cls-1" d="M171.82,75.12c8.04-.48,8.23-7.28,8.23-7.28.26-20.02-16.52-30.52-16.52-30.52-21.87-12.85-38.72,2.29-38.72,2.29-14.72,11.75-13.52,30.93-13.52,30.93.05,11.91,4.35,18.25,4.35,18.25,2.84,5.56,7.69,9.61,7.69,9.61,4.88,4.02,9.19,5.62,9.19,5.62,8.91,3.7,18.26,2.84,18.26,2.84,11.62-.54,19.98-6.7,19.98-6.7,6.38-4.31,4.21-9.39,4.21-9.39-3.35-7.34-10.63-3.6-10.63-3.6-14.51,10.19-27.36,1.98-27.36,1.98-8.51-4.68-9.65-14.03-9.65-14.03l43.37.07c.33-.02.71-.04,1.12-.07ZM127.34,61.9s1.77-14.46,16.75-14.71c0,0,16.81-.88,18.57,14.71h-35.32Z"/>
    <path class="cls-1" d="M172.42,0s-3.09.17-3.34.17c.13-.02.83-.07,2.51-.17h.83Z"/>
    <path class="cls-1" d="M252.43,41.06s.86-7.37,8.09-7.34c0,0,7.31-.23,8.08,7.43l.09,37.79s-.55,13.43,14.21,13.44c.09,0,.18,0,.27,0,15.04-.16,14.7-14.46,14.7-14.46v-35.97s.33-8.25,8.08-8.22,8.09,7.51,8.09,7.51v60.17s.6,19.49-14.47,26.81c0,0-12.17,7.15-30.89,3.57,0,0-12.76-1.35-13.02-9.48,0,0,.02-7.63,7.42-8.22,0,0,1.99-.1,3.77.92,0,0,8.94,4.34,16.72,2.68,0,0,12.77-.53,13.96-11.94,0,0,.51-5.51.47-7.31,0,0-6.42,8.84-19.87,8.67,0,0-13.87,2.38-22.04-10.89,0,0-4.09-6.81-3.74-17.45l.09-37.7Z"/>
  </g>
  <g id="Layer_5" data-name="Layer 5">
    <path class="cls-1" d="M193.83,51.28l27.03-.1-32.73,42.4s-4.43,6.32.17,11.33c0,0,1.44,2.25,5.19,2.22h43.42s7.11.17,7.55-7.42c0,0,.2-7.24-7.55-7.42h-28.18l32.36-41.93s2.56-2.82,2.29-6.74c0,0,.11-3.12-2.09-5.19,0,0-1.98-2.23-5.06-2.09h-41.53s-7.34-.2-7.55,7.28c0,0-.6,6.22,6.68,7.65Z"/>
  </g>
</svg>